# Blender 4.3.0
# www.blender.org
mtllib Island2.mtl
o Island2
v -1.507363 -0.013682 0.059662
v 1.098141 -0.013682 -2.205919
v -0.882042 -0.013682 -1.772222
v -1.689748 -0.013682 -0.885409
v 2.921993 -0.013682 -1.959941
v 4.051045 -0.013682 -1.396783
v 4.945601 -0.013682 -0.490551
v 4.563460 -0.013682 0.279747
v 4.024990 -0.013682 0.998259
v 2.253247 -0.013682 2.247565
v -0.169871 -0.013682 2.092211
v -0.386997 -0.013682 1.147140
v -1.689748 -0.013682 0.545143
v -1.104740 0.147818 0.036708
v 1.133458 0.147818 -1.909487
v -0.567572 0.147818 -1.536929
v -1.261413 0.147818 -0.775133
v 2.700197 0.147818 -1.698186
v 3.670083 0.147818 -1.214417
v 4.438531 0.147818 -0.435939
v 4.110263 0.147818 0.225767
v 3.647701 0.147818 0.842989
v 2.125726 0.147818 1.916176
v 0.044202 0.147818 1.782723
v -0.142315 0.147818 0.970881
v -1.261413 0.147818 0.453750
v 3.321849 -0.471024 -3.227572
v 4.737846 -0.471024 -2.279943
v 1.034469 -0.471024 -3.641479
v -1.448971 -0.471024 -2.911695
v -2.461954 -0.471024 -1.419452
v -2.233216 -0.471024 0.170821
v 5.859751 -0.471024 -0.755023
v 5.380491 -0.471024 0.541159
v 4.705169 -0.471024 1.750203
v 2.483143 -0.471024 3.852414
v -0.555804 -0.471024 3.591000
v -0.828111 -0.471024 2.000725
v -2.461954 -0.471024 0.987743
vn 0.4588 0.8677 0.1912
vn -0.0000 1.0000 -0.0000
vn 0.3150 0.9361 0.1563
vn 0.3028 0.9256 0.2269
vn 0.1947 0.8999 -0.3903
vn 0.2447 0.9054 0.3471
vn 0.0652 0.8730 -0.4834
vn -0.0286 0.8942 0.4468
vn -0.1022 0.8786 -0.4665
vn -0.4897 0.8646 0.1125
vn -0.2823 0.9242 -0.2571
vn -0.2197 0.8518 0.4755
vn -0.3679 0.9272 0.0710
vn -0.3755 0.9160 -0.1411
vn 0.2669 0.9270 -0.2634
vn -0.0000 -1.0000 -0.0000
vn 0.3822 0.8922 0.2407
vn 0.1815 0.9346 -0.3058
vn 0.2297 0.9340 0.2738
vn 0.0505 0.9479 -0.3145
vn -0.0215 0.9593 0.2816
vn -0.0823 0.9453 -0.3156
vn -0.5774 0.8088 0.1115
vn -0.3196 0.9154 -0.2446
vn -0.2262 0.8830 0.4113
vn -0.5369 0.8391 0.0871
vn -0.5597 0.8097 -0.1767
vn 0.3248 0.9066 -0.2694
vt 0.774348 0.358016
vt 0.787881 0.321238
vt 0.822016 0.340158
vt 0.794116 0.396622
vt 0.810378 0.929785
vt 0.745192 0.877173
vt 0.697589 0.798132
vt 0.701645 0.743684
vt 0.738598 0.720152
vt 0.748945 0.698935
vt 0.809602 0.723179
vt 0.847642 0.700795
vt 0.928577 0.776056
vt 0.942692 0.873719
vt 0.935779 0.914000
vt 0.922264 0.950731
vt 0.864317 0.949501
vt 0.540977 0.692725
vt 0.528787 0.725854
vt 0.516144 0.709173
vt 0.526616 0.680714
vt 0.547212 0.656395
vt 0.531972 0.649505
vt 0.197488 0.937121
vt 0.148839 0.919339
vt 0.150421 0.905321
vt 0.192212 0.920596
vt 0.255446 0.780687
vt 0.268177 0.868772
vt 0.252936 0.861882
vt 0.242000 0.786215
vt 0.090045 0.871887
vt 0.099917 0.864559
vt 0.182448 0.712806
vt 0.179293 0.727904
vt 0.047111 0.800597
vt 0.063034 0.803318
vt 0.148138 0.732995
vt 0.149820 0.745246
vt 0.050769 0.751489
vt 0.066177 0.761133
vt 0.093430 0.711128
vt 0.102824 0.726462
vt 0.084098 0.730265
vt 0.094808 0.742901
vt 0.476523 0.724744
vt 0.471248 0.708220
vt 0.354831 0.390045
vt 0.279108 0.407243
vt 0.193484 0.396623
vt 0.165583 0.340158
vt 0.146707 0.279932
vt 0.146708 0.140525
vt 0.250546 0.048104
vt 0.311723 0.088898
vt 0.396433 0.066535
vt 0.416314 0.099695
vt 0.476127 0.141932
vt 0.493802 0.222207
vt 0.440178 0.327282
vt 0.794802 0.280907
vt 0.840891 0.279932
vt 0.662321 0.337043
vt 0.716328 0.356784
vt 0.708493 0.407241
vt 0.632770 0.390042
vt 0.780669 0.183121
vt 0.840891 0.140526
vt 0.597054 0.284366
vt 0.547425 0.327279
vt 0.699632 0.107766
vt 0.737054 0.048104
vt 0.549390 0.205225
vt 0.493802 0.222203
vt 0.661544 0.130178
vt 0.675878 0.088897
vt 0.553451 0.150709
vt 0.511476 0.141928
vt 0.600811 0.105903
vt 0.591169 0.066533
vt 0.590451 0.127147
vt 0.571288 0.099692
s 0
usemtl Material
f 7/1/1 8/2/1 34/3/1 33/4/1
f 18/5/2 15/6/2 16/7/2 17/8/2 14/9/2 26/10/2 25/11/2 24/12/2 23/13/2 22/14/2 21/15/2 20/16/2 19/17/2
f 8/18/3 7/19/3 20/20/3 21/21/3
f 9/22/4 8/18/4 21/21/4 22/23/4
f 6/24/5 5/25/5 18/26/5 19/27/5
f 10/28/6 9/29/6 22/30/6 23/31/6
f 5/25/7 2/32/7 15/33/7 18/26/7
f 11/34/8 10/28/8 23/31/8 24/35/8
f 2/32/9 3/36/9 16/37/9 15/33/9
f 12/38/10 11/34/10 24/35/10 25/39/10
f 3/36/11 4/40/11 17/41/11 16/37/11
f 13/42/12 12/38/12 25/39/12 26/43/12
f 4/40/13 1/44/13 14/45/13 17/41/13
f 1/44/14 13/42/14 26/43/14 14/45/14
f 7/19/15 6/46/15 19/47/15 20/20/15
f 27/48/16 28/49/16 33/50/16 34/51/16 35/52/16 36/53/16 37/54/16 38/55/16 39/56/16 32/57/16 31/58/16 30/59/16 29/60/16
f 8/2/17 9/61/17 35/62/17 34/3/17
f 5/63/18 6/64/18 28/65/18 27/66/18
f 9/61/19 10/67/19 36/68/19 35/62/19
f 2/69/20 5/63/20 27/66/20 29/70/20
f 10/67/21 11/71/21 37/72/21 36/68/21
f 3/73/22 2/69/22 29/70/22 30/74/22
f 11/71/23 12/75/23 38/76/23 37/72/23
f 4/77/24 3/73/24 30/74/24 31/78/24
f 12/75/25 13/79/25 39/80/25 38/76/25
f 1/81/26 4/77/26 31/78/26 32/82/26
f 13/79/27 1/81/27 32/82/27 39/80/27
f 6/64/28 7/1/28 33/4/28 28/65/28
