# Blender 4.3.0
# www.blender.org
mtllib TrashIsland.mtl
o TrashRaft
v -4.714456 0.322448 0.000004
v 4.714456 0.322447 -0.000004
v -4.714456 0.161224 -0.279244
v 4.714456 0.161223 -0.279251
v -4.714456 -0.161223 -0.279244
v 4.714456 -0.161224 -0.279251
v -4.714456 -0.322447 0.000004
v 4.714456 -0.322448 -0.000004
v -4.714456 -0.161223 0.279251
v 4.714456 -0.161224 0.279244
v -4.714456 0.161224 0.279251
v 4.714456 0.161223 0.279244
v -4.714456 0.434383 0.000004
v -4.714457 0.217192 -0.376183
v 4.714456 0.217191 -0.376191
v 4.714456 0.434383 -0.000004
v -4.714457 -0.217191 -0.376183
v 4.714456 -0.217192 -0.376191
v -4.714456 -0.434383 0.000004
v 4.714456 -0.434383 -0.000004
v -4.714456 -0.217191 0.376191
v 4.714457 -0.217192 0.376183
v -4.714456 0.217192 0.376191
v 4.714457 0.217191 0.376183
v -4.615277 0.322448 0.000004
v -4.615277 0.161224 -0.279244
v 4.615277 0.161223 -0.279251
v 4.615277 0.322447 -0.000004
v -4.615277 -0.161223 -0.279244
v 4.615277 -0.161224 -0.279251
v -4.615277 -0.322447 0.000004
v 4.615277 -0.322448 -0.000004
v -4.615277 -0.161223 0.279251
v 4.615277 -0.161224 0.279244
v -4.615277 0.161224 0.279251
v 4.615277 0.161223 0.279244
v 3.576852 0.322447 -2.187381
v -4.646649 0.322447 -2.187377
v 3.576852 0.161224 -1.908134
v -4.646649 0.161223 -1.908130
v 3.576852 -0.161224 -1.908134
v -4.646649 -0.161224 -1.908130
v 3.576852 -0.322447 -2.187381
v -4.646649 -0.322448 -2.187377
v 3.576852 -0.161224 -2.466629
v -4.646649 -0.161224 -2.466625
v 3.576852 0.161224 -2.466629
v -4.646649 0.161223 -2.466625
v 3.576852 0.434383 -2.187381
v 3.576852 0.217192 -1.811194
v -4.646649 0.217191 -1.811190
v -4.646649 0.434383 -2.187377
v 3.576852 -0.217192 -1.811194
v -4.646649 -0.217192 -1.811190
v 3.576852 -0.434383 -2.187381
v -4.646649 -0.434383 -2.187377
v 3.576852 -0.217192 -2.563568
v -4.646649 -0.217192 -2.563564
v 3.576852 0.217191 -2.563568
v -4.646649 0.217191 -2.563564
v 3.490352 0.322447 -2.187381
v 3.490352 0.161224 -1.908134
v -4.560149 0.161223 -1.908130
v -4.560149 0.322447 -2.187377
v 3.490352 -0.161224 -1.908134
v -4.560149 -0.161224 -1.908130
v 3.490352 -0.322447 -2.187381
v -4.560149 -0.322448 -2.187377
v 3.490352 -0.161224 -2.466629
v -4.560149 -0.161224 -2.466625
v 3.490352 0.161224 -2.466629
v -4.560149 0.161223 -2.466625
v 3.312989 0.322447 -2.925297
v -3.889594 0.322447 -2.925294
v 3.312989 0.161224 -2.646049
v -3.889594 0.161223 -2.646046
v 3.312989 -0.161224 -2.646049
v -3.889594 -0.161224 -2.646046
v 3.312989 -0.322447 -2.925297
v -3.889594 -0.322448 -2.925294
v 3.312989 -0.161224 -3.204545
v -3.889594 -0.161224 -3.204541
v 3.312989 0.161224 -3.204545
v -3.889594 0.161223 -3.204541
v 3.312989 0.434383 -2.925297
v 3.312989 0.217191 -2.549110
v -3.889594 0.217191 -2.549107
v -3.889594 0.434383 -2.925294
v 3.312989 -0.217192 -2.549110
v -3.889594 -0.217192 -2.549107
v 3.312989 -0.434383 -2.925297
v -3.889594 -0.434383 -2.925294
v 3.312989 -0.217192 -3.301484
v -3.889594 -0.217192 -3.301481
v 3.312989 0.217191 -3.301484
v -3.889594 0.217191 -3.301481
v 3.237228 0.322447 -2.925297
v 3.237228 0.161224 -2.646049
v -3.813833 0.161223 -2.646046
v -3.813833 0.322447 -2.925294
v 3.237228 -0.161224 -2.646049
v -3.813832 -0.161224 -2.646046
v 3.237228 -0.322447 -2.925297
v -3.813833 -0.322448 -2.925294
v 3.237227 -0.161224 -3.204545
v -3.813833 -0.161224 -3.204541
v 3.237227 0.161224 -3.204545
v -3.813833 0.161223 -3.204541
v 3.844071 0.322447 -1.517762
v -4.420676 0.322447 -1.517758
v 3.844071 0.161224 -1.238514
v -4.420675 0.161223 -1.238510
v 3.844071 -0.161224 -1.238514
v -4.420675 -0.161224 -1.238510
v 3.844071 -0.322447 -1.517762
v -4.420676 -0.322448 -1.517758
v 3.844071 -0.161224 -1.797009
v -4.420676 -0.161224 -1.797005
v 3.844071 0.161224 -1.797009
v -4.420676 0.161223 -1.797005
v 3.844071 0.434383 -1.517762
v 3.844071 0.217192 -1.141575
v -4.420675 0.217191 -1.141571
v -4.420676 0.434383 -1.517758
v 3.844071 -0.217192 -1.141575
v -4.420675 -0.217192 -1.141571
v 3.844071 -0.434383 -1.517762
v -4.420676 -0.434383 -1.517758
v 3.844071 -0.217192 -1.893948
v -4.420676 -0.217192 -1.893945
v 3.844071 0.217192 -1.893948
v -4.420676 0.217191 -1.893945
v 3.757138 0.322447 -1.517762
v 3.757138 0.161224 -1.238514
v -4.333742 0.161223 -1.238510
v -4.333742 0.322447 -1.517758
v 3.757138 -0.161224 -1.238514
v -4.333742 -0.161224 -1.238510
v 3.757138 -0.322447 -1.517762
v -4.333742 -0.322448 -1.517758
v 3.757138 -0.161224 -1.797009
v -4.333742 -0.161224 -1.797005
v 3.757137 0.161224 -1.797009
v -4.333742 0.161223 -1.797005
v 4.367993 0.322447 -0.779846
v -5.060919 0.322447 -0.779841
v 4.367993 0.161224 -0.500598
v -5.060919 0.161223 -0.500594
v 4.367993 -0.161224 -0.500598
v -5.060919 -0.161224 -0.500593
v 4.367993 -0.322447 -0.779846
v -5.060919 -0.322448 -0.779841
v 4.367993 -0.161224 -1.059093
v -5.060920 -0.161224 -1.059089
v 4.367993 0.161224 -1.059093
v -5.060920 0.161223 -1.059089
v 4.367993 0.434383 -0.779846
v 4.367993 0.217192 -0.403659
v -5.060919 0.217191 -0.403654
v -5.060919 0.434383 -0.779841
v 4.367993 -0.217191 -0.403659
v -5.060919 -0.217192 -0.403654
v 4.367993 -0.434383 -0.779846
v -5.060919 -0.434383 -0.779841
v 4.367993 -0.217192 -1.156032
v -5.060919 -0.217192 -1.156028
v 4.367993 0.217191 -1.156032
v -5.060920 0.217191 -1.156028
v 4.268814 0.322447 -0.779846
v 4.268814 0.161224 -0.500598
v -4.961740 0.161223 -0.500594
v -4.961740 0.322447 -0.779841
v 4.268814 -0.161224 -0.500598
v -4.961740 -0.161224 -0.500594
v 4.268814 -0.322447 -0.779846
v -4.961740 -0.322448 -0.779841
v 4.268814 -0.161224 -1.059093
v -4.961740 -0.161224 -1.059089
v 4.268814 0.161224 -1.059093
v -4.961740 0.161223 -1.059089
v -4.108579 0.322447 2.145454
v 3.094004 0.322447 2.145448
v -4.108579 0.161224 1.866207
v 3.094003 0.161224 1.866201
v -4.108579 -0.161223 1.866207
v 3.094003 -0.161224 1.866201
v -4.108579 -0.322447 2.145454
v 3.094004 -0.322447 2.145448
v -4.108579 -0.161224 2.424702
v 3.094004 -0.161224 2.424696
v -4.108579 0.161224 2.424702
v 3.094004 0.161224 2.424696
v -4.108579 0.434383 2.145454
v -4.108579 0.217192 1.769268
v 3.094003 0.217191 1.769262
v 3.094004 0.434383 2.145448
v -4.108579 -0.217191 1.769268
v 3.094003 -0.217192 1.769262
v -4.108579 -0.434383 2.145454
v 3.094004 -0.434383 2.145448
v -4.108579 -0.217191 2.521641
v 3.094004 -0.217192 2.521635
v -4.108579 0.217192 2.521641
v 3.094004 0.217191 2.521635
v -4.032817 0.322447 2.145454
v -4.032818 0.161224 1.866207
v 3.018242 0.161224 1.866201
v 3.018242 0.322447 2.145449
v -4.032818 -0.161223 1.866207
v 3.018242 -0.161224 1.866201
v -4.032817 -0.322447 2.145454
v 3.018242 -0.322447 2.145449
v -4.032817 -0.161224 2.424702
v 3.018243 -0.161224 2.424696
v -4.032817 0.161224 2.424702
v 3.018243 0.161224 2.424696
v -5.174591 0.322448 0.737920
v 3.090157 0.322447 0.737913
v -5.174591 0.161224 0.458672
v 3.090156 0.161223 0.458666
v -5.174591 -0.161223 0.458672
v 3.090156 -0.161224 0.458666
v -5.174591 -0.322447 0.737920
v 3.090156 -0.322447 0.737913
v -5.174590 -0.161223 1.017167
v 3.090157 -0.161224 1.017161
v -5.174590 0.161224 1.017167
v 3.090157 0.161223 1.017161
v -5.174591 0.434383 0.737920
v -5.174591 0.217192 0.361733
v 3.090156 0.217191 0.361726
v 3.090157 0.434383 0.737913
v -5.174591 -0.217191 0.361733
v 3.090156 -0.217192 0.361726
v -5.174591 -0.434383 0.737920
v 3.090156 -0.434383 0.737913
v -5.174590 -0.217191 1.114107
v 3.090157 -0.217192 1.114100
v -5.174590 0.217192 1.114107
v 3.090157 0.217191 1.114100
v -5.087656 0.322447 0.737920
v -5.087656 0.161224 0.458672
v 3.003223 0.161223 0.458666
v 3.003223 0.322447 0.737913
v -5.087656 -0.161223 0.458672
v 3.003223 -0.161224 0.458666
v -5.087656 -0.322447 0.737920
v 3.003223 -0.322447 0.737913
v -5.087656 -0.161223 1.017167
v 3.003223 -0.161224 1.017161
v -5.087656 0.161224 1.017167
v 3.003223 0.161223 1.017161
v -3.921273 0.322448 1.407539
v 4.302227 0.322447 1.407532
v -3.921274 0.161224 1.128291
v 4.302227 0.161224 1.128284
v -3.921274 -0.161223 1.128291
v 4.302227 -0.161224 1.128284
v -3.921273 -0.322447 1.407539
v 4.302227 -0.322447 1.407532
v -3.921273 -0.161223 1.686786
v 4.302228 -0.161224 1.686779
v -3.921273 0.161224 1.686786
v 4.302228 0.161223 1.686779
v -3.921273 0.434383 1.407539
v -3.921274 0.217192 1.031352
v 4.302227 0.217191 1.031345
v 4.302227 0.434383 1.407532
v -3.921274 -0.217191 1.031352
v 4.302227 -0.217192 1.031345
v -3.921273 -0.434383 1.407539
v 4.302227 -0.434383 1.407532
v -3.921273 -0.217191 1.783725
v 4.302228 -0.217192 1.783719
v -3.921273 0.217192 1.783725
v 4.302228 0.217191 1.783719
v -3.834773 0.322448 1.407538
v -3.834774 0.161224 1.128291
v 4.215727 0.161224 1.128284
v 4.215727 0.322447 1.407532
v -3.834774 -0.161223 1.128291
v 4.215727 -0.161224 1.128284
v -3.834773 -0.322447 1.407538
v 4.215727 -0.322447 1.407532
v -3.834773 -0.161223 1.686786
v 4.215728 -0.161224 1.686779
v -3.834773 0.161224 1.686786
v 4.215728 0.161223 1.686779
vn -0.0000 0.8660 -0.5000
vn -0.0000 -0.0000 -1.0000
vn -0.0000 -0.8660 -0.5000
vn -0.0000 -0.8660 0.5000
vn -0.0000 -0.0000 1.0000
vn -0.0000 0.8660 0.5000
vn -1.0000 -0.0000 -0.0000
vn 1.0000 -0.0000 -0.0000
vt 1.000000 0.500000
vt 1.000000 1.000000
vt 0.833333 1.000000
vt 0.833333 0.500000
vt 0.666667 1.000000
vt 0.666667 0.500000
vt 0.500000 1.000000
vt 0.500000 0.500000
vt 0.333333 1.000000
vt 0.333333 0.500000
vt 0.322200 0.870575
vt 0.221082 0.812194
vt 0.166667 1.000000
vt 0.166667 0.500000
vt -0.000000 1.000000
vt -0.000000 0.500000
vt 0.751015 0.695433
vt 0.649896 0.637052
vt 0.751015 0.812194
vt 0.649897 0.870575
vt 0.649896 0.911108
vt 0.786117 0.832461
vt 0.423318 0.812194
vt 0.458421 0.832461
vt 0.322200 0.911108
vt 0.786117 0.675167
vt 0.423318 0.695433
vt 0.458421 0.675167
vt 0.649896 0.596519
vt 0.322200 0.637052
vt 0.322200 0.596519
vt 0.548778 0.695433
vt 0.513676 0.675167
vt 0.221082 0.695433
vt 0.185979 0.675167
vt 0.548778 0.812194
vt 0.513676 0.832461
vt 0.185979 0.832461
vt 0.404286 0.339077
vt 0.250000 0.428155
vt 0.095714 0.339077
vt 0.095714 0.160923
vt 0.250000 0.071845
vt 0.404287 0.160923
vt 0.750000 0.428155
vt 0.904287 0.339077
vt 0.904286 0.160923
vt 0.750000 0.071845
vt 0.595713 0.160923
vt 0.595714 0.339077
vt 0.042154 0.130000
vt 0.250000 0.010000
s 0
usemtl TrashIsland
f 13/1/1 16/2/1 15/3/1 14/4/1
f 14/4/2 15/3/2 18/5/2 17/6/2
f 17/6/3 18/5/3 20/7/3 19/8/3
f 19/8/4 20/7/4 22/9/4 21/10/4
f 2/11/3 12/12/3 36/12/3 28/11/3
f 21/10/5 22/9/5 24/13/5 23/14/5
f 23/14/6 24/13/6 16/15/6 13/16/6
f 5/17/6 7/18/6 31/18/6 29/17/6
f 3/19/7 1/20/7 13/21/7 14/22/7
f 2/11/8 4/23/8 15/24/8 16/25/8
f 5/17/7 3/19/7 14/22/7 17/26/7
f 4/23/8 6/27/8 18/28/8 15/24/8
f 7/18/7 5/17/7 17/26/7 19/29/7
f 6/27/8 8/30/8 20/31/8 18/28/8
f 9/32/7 7/18/7 19/29/7 21/33/7
f 8/30/8 10/34/8 22/35/8 20/31/8
f 11/36/7 9/32/7 21/33/7 23/37/7
f 10/34/8 12/12/8 24/38/8 22/35/8
f 1/20/7 11/36/7 23/37/7 13/21/7
f 12/12/8 2/11/8 16/25/8 24/38/8
f 27/39/8 28/40/8 36/41/8 34/42/8 32/43/8 30/44/8
f 25/45/7 26/46/7 29/47/7 31/48/7 33/49/7 35/50/7
f 4/23/4 2/11/4 28/11/4 27/23/4
f 9/32/2 11/36/2 35/36/2 33/32/2
f 8/30/6 6/27/6 30/27/6 32/30/6
f 3/19/5 5/17/5 29/17/5 26/19/5
f 12/12/2 10/34/2 34/34/2 36/12/2
f 7/18/1 9/32/1 33/32/1 31/18/1
f 6/27/5 4/23/5 27/23/5 30/27/5
f 11/36/3 1/20/3 25/20/3 35/36/3
f 1/20/4 3/19/4 26/19/4 25/20/4
f 10/34/1 8/30/1 32/30/1 34/34/1
f 49/1/6 52/2/6 51/3/6 50/4/6
f 50/4/5 51/3/5 54/5/5 53/6/5
f 53/6/4 54/5/4 56/7/4 55/8/4
f 55/8/3 56/7/3 58/9/3 57/10/3
f 38/11/4 48/12/4 72/12/4 64/11/4
f 57/10/2 58/9/2 60/13/2 59/14/2
f 59/14/1 60/13/1 52/15/1 49/16/1
f 41/17/1 43/18/1 67/18/1 65/17/1
f 39/19/8 37/20/8 49/21/8 50/22/8
f 38/11/7 40/23/7 51/24/7 52/25/7
f 41/17/8 39/19/8 50/22/8 53/26/8
f 40/23/7 42/27/7 54/28/7 51/24/7
f 43/18/8 41/17/8 53/26/8 55/29/8
f 42/27/7 44/30/7 56/31/7 54/28/7
f 45/32/8 43/18/8 55/29/8 57/33/8
f 44/43/7 46/42/7 58/51/7 56/52/7
f 47/36/8 45/32/8 57/33/8 59/37/8
f 46/34/7 48/12/7 60/38/7 58/35/7
f 37/20/8 47/36/8 59/37/8 49/21/8
f 48/12/7 38/11/7 52/25/7 60/38/7
f 63/39/7 64/40/7 72/41/7 70/42/7 68/43/7 66/44/7
f 61/45/8 62/46/8 65/47/8 67/48/8 69/49/8 71/50/8
f 40/23/3 38/11/3 64/11/3 63/23/3
f 45/32/5 47/36/5 71/36/5 69/32/5
f 44/30/1 42/27/1 66/27/1 68/30/1
f 39/19/2 41/17/2 65/17/2 62/19/2
f 48/12/5 46/34/5 70/34/5 72/12/5
f 43/18/6 45/32/6 69/32/6 67/18/6
f 42/27/2 40/23/2 63/23/2 66/27/2
f 47/36/4 37/20/4 61/20/4 71/36/4
f 37/20/3 39/19/3 62/19/3 61/20/3
f 46/42/6 44/43/6 68/43/6 70/42/6
f 85/1/6 88/2/6 87/3/6 86/4/6
f 86/4/5 87/3/5 90/5/5 89/6/5
f 89/6/4 90/5/4 92/7/4 91/8/4
f 91/8/3 92/7/3 94/9/3 93/10/3
f 74/11/4 84/12/4 108/12/4 100/11/4
f 93/10/2 94/9/2 96/13/2 95/14/2
f 95/14/1 96/13/1 88/15/1 85/16/1
f 77/17/1 79/18/1 103/18/1 101/17/1
f 75/19/8 73/20/8 85/21/8 86/22/8
f 74/11/7 76/23/7 87/24/7 88/25/7
f 77/17/8 75/19/8 86/22/8 89/26/8
f 76/23/7 78/27/7 90/28/7 87/24/7
f 79/18/8 77/17/8 89/26/8 91/29/8
f 78/27/7 80/30/7 92/31/7 90/28/7
f 81/32/8 79/18/8 91/29/8 93/33/8
f 80/30/7 82/34/7 94/35/7 92/31/7
f 83/36/8 81/32/8 93/33/8 95/37/8
f 82/34/7 84/12/7 96/38/7 94/35/7
f 73/20/8 83/36/8 95/37/8 85/21/8
f 84/12/7 74/11/7 88/25/7 96/38/7
f 99/39/7 100/40/7 108/41/7 106/42/7 104/43/7 102/44/7
f 97/45/8 98/46/8 101/47/8 103/48/8 105/49/8 107/50/8
f 76/23/3 74/11/3 100/11/3 99/23/3
f 81/32/5 83/36/5 107/36/5 105/32/5
f 80/30/1 78/27/1 102/27/1 104/30/1
f 75/19/2 77/17/2 101/17/2 98/19/2
f 84/12/5 82/34/5 106/34/5 108/12/5
f 79/18/6 81/32/6 105/32/6 103/18/6
f 78/27/2 76/23/2 99/23/2 102/27/2
f 83/36/4 73/20/4 97/20/4 107/36/4
f 73/20/3 75/19/3 98/19/3 97/20/3
f 82/34/6 80/30/6 104/30/6 106/34/6
f 121/1/6 124/2/6 123/3/6 122/4/6
f 122/4/5 123/3/5 126/5/5 125/6/5
f 125/6/4 126/5/4 128/7/4 127/8/4
f 127/8/3 128/7/3 130/9/3 129/10/3
f 110/11/4 120/12/4 144/12/4 136/11/4
f 129/10/2 130/9/2 132/13/2 131/14/2
f 131/14/1 132/13/1 124/15/1 121/16/1
f 113/17/1 115/18/1 139/18/1 137/17/1
f 111/19/8 109/20/8 121/21/8 122/22/8
f 110/11/7 112/23/7 123/24/7 124/25/7
f 113/17/8 111/19/8 122/22/8 125/26/8
f 112/23/7 114/27/7 126/28/7 123/24/7
f 115/18/8 113/17/8 125/26/8 127/29/8
f 114/27/7 116/30/7 128/31/7 126/28/7
f 117/32/8 115/18/8 127/29/8 129/33/8
f 116/30/7 118/34/7 130/35/7 128/31/7
f 119/36/8 117/32/8 129/33/8 131/37/8
f 118/34/7 120/12/7 132/38/7 130/35/7
f 109/20/8 119/36/8 131/37/8 121/21/8
f 120/12/7 110/11/7 124/25/7 132/38/7
f 135/39/7 136/40/7 144/41/7 142/42/7 140/43/7 138/44/7
f 133/45/8 134/46/8 137/47/8 139/48/8 141/49/8 143/50/8
f 112/23/3 110/11/3 136/11/3 135/23/3
f 117/32/5 119/36/5 143/36/5 141/32/5
f 116/30/1 114/27/1 138/27/1 140/30/1
f 111/19/2 113/17/2 137/17/2 134/19/2
f 120/12/5 118/34/5 142/34/5 144/12/5
f 115/18/6 117/32/6 141/32/6 139/18/6
f 114/27/2 112/23/2 135/23/2 138/27/2
f 119/36/4 109/20/4 133/20/4 143/36/4
f 109/20/3 111/19/3 134/19/3 133/20/3
f 118/34/6 116/30/6 140/30/6 142/34/6
f 157/1/6 160/2/6 159/3/6 158/4/6
f 158/4/5 159/3/5 162/5/5 161/6/5
f 161/6/4 162/5/4 164/7/4 163/8/4
f 163/8/3 164/7/3 166/9/3 165/10/3
f 146/11/4 156/12/4 180/12/4 172/11/4
f 165/10/2 166/9/2 168/13/2 167/14/2
f 167/14/1 168/13/1 160/15/1 157/16/1
f 149/17/1 151/18/1 175/18/1 173/17/1
f 147/19/8 145/20/8 157/21/8 158/22/8
f 146/11/7 148/23/7 159/24/7 160/25/7
f 149/17/8 147/19/8 158/22/8 161/26/8
f 148/23/7 150/27/7 162/28/7 159/24/7
f 151/18/8 149/17/8 161/26/8 163/29/8
f 150/27/7 152/30/7 164/31/7 162/28/7
f 153/32/8 151/18/8 163/29/8 165/33/8
f 152/30/7 154/34/7 166/35/7 164/31/7
f 155/36/8 153/32/8 165/33/8 167/37/8
f 154/34/7 156/12/7 168/38/7 166/35/7
f 145/20/8 155/36/8 167/37/8 157/21/8
f 156/12/7 146/11/7 160/25/7 168/38/7
f 171/39/7 172/40/7 180/41/7 178/42/7 176/43/7 174/44/7
f 169/45/8 170/46/8 173/47/8 175/48/8 177/49/8 179/50/8
f 148/23/3 146/11/3 172/11/3 171/23/3
f 153/32/5 155/36/5 179/36/5 177/32/5
f 152/30/1 150/27/1 174/27/1 176/30/1
f 147/19/2 149/17/2 173/17/2 170/19/2
f 156/12/5 154/34/5 178/34/5 180/12/5
f 151/18/6 153/32/6 177/32/6 175/18/6
f 150/27/2 148/23/2 171/23/2 174/27/2
f 155/36/4 145/20/4 169/20/4 179/36/4
f 145/20/3 147/19/3 170/19/3 169/20/3
f 154/34/6 152/30/6 176/30/6 178/34/6
f 193/1/1 196/2/1 195/3/1 194/4/1
f 194/4/2 195/3/2 198/5/2 197/6/2
f 197/6/3 198/5/3 200/7/3 199/8/3
f 199/8/4 200/7/4 202/9/4 201/10/4
f 182/11/3 192/12/3 216/12/3 208/11/3
f 201/10/5 202/9/5 204/13/5 203/14/5
f 203/14/6 204/13/6 196/15/6 193/16/6
f 185/17/6 187/18/6 211/18/6 209/17/6
f 183/19/7 181/20/7 193/21/7 194/22/7
f 182/11/8 184/23/8 195/24/8 196/25/8
f 185/17/7 183/19/7 194/22/7 197/26/7
f 184/23/8 186/27/8 198/28/8 195/24/8
f 187/18/7 185/17/7 197/26/7 199/29/7
f 186/27/8 188/30/8 200/31/8 198/28/8
f 189/32/7 187/18/7 199/29/7 201/33/7
f 188/30/8 190/34/8 202/35/8 200/31/8
f 191/36/7 189/32/7 201/33/7 203/37/7
f 190/34/8 192/12/8 204/38/8 202/35/8
f 181/20/7 191/36/7 203/37/7 193/21/7
f 192/12/8 182/11/8 196/25/8 204/38/8
f 207/39/8 208/40/8 216/41/8 214/42/8 212/43/8 210/44/8
f 205/45/7 206/46/7 209/47/7 211/48/7 213/49/7 215/50/7
f 184/23/4 182/11/4 208/11/4 207/23/4
f 189/32/2 191/36/2 215/36/2 213/32/2
f 188/30/6 186/27/6 210/27/6 212/30/6
f 183/19/5 185/17/5 209/17/5 206/19/5
f 192/12/2 190/34/2 214/34/2 216/12/2
f 187/18/1 189/32/1 213/32/1 211/18/1
f 186/27/5 184/23/5 207/23/5 210/27/5
f 191/36/3 181/20/3 205/20/3 215/36/3
f 181/20/4 183/19/4 206/19/4 205/20/4
f 190/34/1 188/30/1 212/30/1 214/34/1
f 229/1/1 232/2/1 231/3/1 230/4/1
f 230/4/2 231/3/2 234/5/2 233/6/2
f 233/6/3 234/5/3 236/7/3 235/8/3
f 235/8/4 236/7/4 238/9/4 237/10/4
f 218/11/3 228/12/3 252/12/3 244/11/3
f 237/10/5 238/9/5 240/13/5 239/14/5
f 239/14/6 240/13/6 232/15/6 229/16/6
f 221/17/6 223/18/6 247/18/6 245/17/6
f 219/19/7 217/20/7 229/21/7 230/22/7
f 218/11/8 220/23/8 231/24/8 232/25/8
f 221/17/7 219/19/7 230/22/7 233/26/7
f 220/23/8 222/27/8 234/28/8 231/24/8
f 223/18/7 221/17/7 233/26/7 235/29/7
f 222/27/8 224/30/8 236/31/8 234/28/8
f 225/32/7 223/18/7 235/29/7 237/33/7
f 224/30/8 226/34/8 238/35/8 236/31/8
f 227/36/7 225/32/7 237/33/7 239/37/7
f 226/34/8 228/12/8 240/38/8 238/35/8
f 217/20/7 227/36/7 239/37/7 229/21/7
f 228/12/8 218/11/8 232/25/8 240/38/8
f 243/39/8 244/40/8 252/41/8 250/42/8 248/43/8 246/44/8
f 241/45/7 242/46/7 245/47/7 247/48/7 249/49/7 251/50/7
f 220/23/4 218/11/4 244/11/4 243/23/4
f 225/32/2 227/36/2 251/36/2 249/32/2
f 224/30/6 222/27/6 246/27/6 248/30/6
f 219/19/5 221/17/5 245/17/5 242/19/5
f 228/12/2 226/34/2 250/34/2 252/12/2
f 223/18/1 225/32/1 249/32/1 247/18/1
f 222/27/5 220/23/5 243/23/5 246/27/5
f 227/36/3 217/20/3 241/20/3 251/36/3
f 217/20/4 219/19/4 242/19/4 241/20/4
f 226/34/1 224/30/1 248/30/1 250/34/1
f 265/1/1 268/2/1 267/3/1 266/4/1
f 266/4/2 267/3/2 270/5/2 269/6/2
f 269/6/3 270/5/3 272/7/3 271/8/3
f 271/8/4 272/7/4 274/9/4 273/10/4
f 254/11/3 264/12/3 288/12/3 280/11/3
f 273/10/5 274/9/5 276/13/5 275/14/5
f 275/14/6 276/13/6 268/15/6 265/16/6
f 257/17/6 259/18/6 283/18/6 281/17/6
f 255/19/7 253/20/7 265/21/7 266/22/7
f 254/11/8 256/23/8 267/24/8 268/25/8
f 257/17/7 255/19/7 266/22/7 269/26/7
f 256/23/8 258/27/8 270/28/8 267/24/8
f 259/18/7 257/17/7 269/26/7 271/29/7
f 258/27/8 260/30/8 272/31/8 270/28/8
f 261/32/7 259/18/7 271/29/7 273/33/7
f 260/30/8 262/34/8 274/35/8 272/31/8
f 263/36/7 261/32/7 273/33/7 275/37/7
f 262/34/8 264/12/8 276/38/8 274/35/8
f 253/20/7 263/36/7 275/37/7 265/21/7
f 264/12/8 254/11/8 268/25/8 276/38/8
f 279/39/8 280/40/8 288/41/8 286/42/8 284/43/8 282/44/8
f 277/45/7 278/46/7 281/47/7 283/48/7 285/49/7 287/50/7
f 256/23/4 254/11/4 280/11/4 279/23/4
f 261/32/2 263/36/2 287/36/2 285/32/2
f 260/30/6 258/27/6 282/27/6 284/30/6
f 255/19/5 257/17/5 281/17/5 278/19/5
f 264/12/2 262/34/2 286/34/2 288/12/2
f 259/18/1 261/32/1 285/32/1 283/18/1
f 258/27/5 256/23/5 279/23/5 282/27/5
f 263/36/3 253/20/3 277/20/3 287/36/3
f 253/20/4 255/19/4 278/19/4 277/20/4
f 262/34/1 260/30/1 284/30/1 286/34/1
