# Blender 4.3.0
# www.blender.org
mtllib boatDepth.mtl
o Plane.003
v 1.351484 0.000000 7.564035
v 1.000000 0.000000 -0.913944
v 0.000000 0.000000 8.510338
v 0.000000 0.000000 -1.000000
v 2.000377 0.000000 6.117544
v 1.702968 0.000000 -0.738202
v 2.351861 0.000000 5.157723
v 2.324824 0.000000 -0.454311
v -1.351484 0.000000 7.564035
v -1.000000 0.000000 -0.913944
v -2.000377 0.000000 6.117544
v -1.702968 0.000000 -0.738202
v -2.351861 0.000000 5.157723
v -2.324824 0.000000 -0.454311
vn -0.0000 1.0000 -0.0000
vt 0.500000 0.000000
vt 1.000000 0.000000
vt 1.000000 1.000000
vt 0.500000 1.000000
s 0
f 3/1/1 1/2/1 5/2/1 7/2/1 8/3/1 6/3/1 2/3/1 4/4/1 10/3/1 12/3/1 14/3/1 13/2/1 11/2/1 9/2/1
