# Blender 4.3.0
# www.blender.org
mtllib Bush.mtl
o Bush
v -0.169697 -0.253579 0.456721
v 0.105159 0.604049 0.018109
v 0.105292 0.660487 -0.782859
v -0.216762 1.321962 -1.024976
v -0.392823 1.719246 -0.403419
v -0.189063 1.318679 0.200968
v -1.679656 -0.748478 -1.273596
v -2.392563 -0.300487 -1.279388
v -2.277684 0.430909 -1.685956
v -1.468776 0.420269 -1.933588
v -1.096672 -0.300952 -1.675400
v -0.821663 1.992193 -0.403419
v -1.233029 1.970501 -1.009427
v -1.935139 1.971442 -0.765784
v -1.944127 1.977144 -0.024508
v -1.247148 1.994137 0.185356
v -2.270061 -0.793599 -0.324010
v -2.482619 -0.287963 0.362263
v -2.881649 0.510100 0.084502
v -2.921144 0.508578 -0.782086
v -2.611875 -0.287090 -0.940662
v -1.605334 -0.765655 0.525516
v -0.990277 -0.306454 0.866242
v -1.449512 0.428439 1.153446
v -2.239228 0.457500 0.963116
v -2.251163 -0.295927 0.676150
v -0.517156 0.639559 0.928744
v -0.474641 1.322690 0.596038
v -1.112790 1.726473 0.589846
v -1.630812 1.371494 0.949936
v -1.232495 0.797829 1.174186
v -2.792923 1.381413 -0.710630
v -2.343091 1.688065 -1.062967
v -2.137586 1.367695 -1.602067
v -2.522770 0.859012 -1.580427
v -2.893496 0.888495 -1.077508
v -2.790705 1.381993 -0.076978
v -2.876322 0.888580 0.318555
v -2.515653 0.862267 0.820011
v -2.175726 1.371810 0.803138
v -2.347459 1.695118 0.269681
v -1.195487 0.862478 -1.999857
v -1.517761 1.371320 -1.810915
v -1.070130 1.682583 -1.510785
v -0.533221 1.342444 -1.516914
v -0.596858 0.790035 -1.808681
v -0.030387 -0.357791 -0.686783
v -0.433613 -0.667480 -1.076231
v -0.572332 -0.338431 -1.568790
v -0.301583 0.205381 -1.600353
v 0.050322 0.153679 -1.094333
v -0.804303 -0.932998 -0.009757
v -1.508576 -1.044936 0.139818
v -1.896545 -1.075496 -0.378292
v -1.538990 -1.024545 -0.932850
v -0.851248 -0.955743 -0.761884
v -0.021361 0.967731 0.144750
v 0.137316 0.619196 -0.388081
v -0.037583 0.990672 -0.939902
v -0.309275 1.558109 -0.738620
v -0.300141 1.563437 -0.070788
v 0.072384 0.260700 0.211421
v -1.360973 -0.559832 -1.472966
v -2.056648 -0.578786 -1.247812
v -2.390830 0.086960 -1.482989
v -1.885022 0.460711 -1.833975
v -1.246180 0.065978 -1.829719
v -0.993664 2.005336 -0.078408
v -0.994535 1.994731 -0.731010
v -1.592302 1.986350 -0.922908
v -1.978439 1.989304 -0.391924
v -1.608879 1.998230 0.121483
v -0.590114 1.885123 -0.411547
v -2.425688 -0.586428 -0.653267
v -2.348381 -0.589559 0.037006
v -2.702419 0.134776 0.286051
v -2.918685 0.551057 -0.357888
v -2.785284 0.132771 -0.908660
v -2.544617 -0.319965 -1.130449
v -1.944346 -0.584841 0.579120
v -1.290209 -0.569007 0.687405
v -1.181476 0.069141 1.048089
v -1.868781 0.486125 1.071339
v -2.293457 0.106360 0.827532
v -2.390623 -0.320311 0.558149
v -0.640941 -0.336374 0.784034
v -0.858736 0.698348 1.081422
v -0.468106 0.979048 0.773006
v -0.767266 1.571248 0.574702
v -1.399464 1.575787 0.773409
v -1.476868 1.085308 1.089886
v -0.324301 0.294468 0.824931
v -0.305462 1.330813 0.418114
v -1.335326 0.620513 1.200293
v -1.180872 1.889100 0.406011
v -2.875617 1.134665 -0.875216
v -2.588690 1.559059 -0.869546
v -2.231972 1.555077 -1.356546
v -2.323247 1.110898 -1.629409
v -2.741511 0.829015 -1.346101
v -2.150485 1.848790 -0.925150
v -2.418264 0.660511 -1.664979
v -2.944577 0.715312 -0.947141
v -2.585938 1.561149 0.081821
v -2.870931 1.134497 0.094524
v -2.716198 0.829814 0.600625
v -2.337925 1.110295 0.846762
v -2.247967 1.563797 0.558520
v -2.809982 1.405395 -0.394256
v -2.163504 1.858091 0.127246
v -2.914645 0.717376 0.212936
v -2.405334 0.674035 0.921533
v -1.916285 1.394355 0.898601
v -0.877735 0.803316 -1.933553
v -1.388755 1.121459 -1.936498
v -1.309816 1.552717 -1.674594
v -0.779003 1.552515 -1.509930
v -0.535580 1.062103 -1.678425
v -1.325139 0.647329 -1.996781
v -0.357328 1.339185 -1.290130
v -1.831774 1.387501 -1.722500
v -1.152074 1.845939 -1.278126
v 0.045414 -0.111289 -0.894122
v -0.214150 -0.537179 -0.891266
v -0.517458 -0.547170 -1.341832
v -0.434535 -0.061241 -1.622717
v -0.104483 0.196546 -1.373188
v -0.028727 -0.357507 -0.242883
v 0.097627 0.400590 -0.948875
v -0.432768 0.500037 -1.718608
v -0.815699 -0.330242 -1.647696
v -0.808327 -0.963934 -0.392340
v -1.158092 -1.007694 0.092313
v -1.740008 -1.069266 -0.086833
v -1.769048 -1.057807 -0.681541
v -1.183345 -1.000232 -0.892275
v -0.512212 -0.737654 0.185577
v -0.621273 -0.827484 -0.919715
v -1.552895 -0.948625 0.344658
v -1.605943 -0.924675 -1.119770
v -2.090784 -0.987577 -0.351955
v -2.133484 -0.852415 -0.891724
v -2.738856 0.352407 -1.313282
v -1.890107 0.935766 -1.883491
v -0.639224 1.794504 0.176894
v -0.984920 -0.777023 -1.285481
v -1.938430 0.934183 1.087998
v -0.969169 -0.795075 0.465870
v -0.804637 0.263140 -1.873944
v -0.653225 1.772030 -1.037636
v -1.727008 1.758428 -1.374286
v -0.781233 0.235254 1.067292
v -0.059558 1.177299 -0.392800
v -1.780688 1.783807 0.538029
v -1.809090 -0.127913 -1.599883
v -1.427158 2.052559 -0.393314
v -2.978472 0.989492 -0.387198
v -2.661048 -0.085580 -0.313187
v -2.040803 -0.864465 0.218759
v -1.732780 -0.113375 0.874771
v -0.983839 1.209174 0.902962
v -0.127756 0.733251 0.542917
v -2.606116 1.252502 -1.253507
v -2.655386 0.360532 0.654571
v -2.601231 1.252592 0.473325
v -2.443455 1.766157 -0.394109
v -0.959600 1.251731 -1.811685
v -0.166360 0.756719 -1.388203
v -0.194920 -0.251179 -1.274373
v 0.146482 0.110970 -0.422405
v -1.352775 -1.073960 -0.398602
v -0.364704 -0.729356 -0.422226
v 0.609730 -0.495949 -0.872482
v 0.789843 0.066057 -1.159905
v 0.789931 0.103041 -1.684782
v 0.578888 0.536508 -1.843442
v 0.463515 0.796849 -1.436134
v 0.597039 0.534357 -1.040077
v -0.379751 -0.820258 -2.006363
v -0.846921 -0.526688 -2.010159
v -0.771640 -0.047402 -2.276584
v -0.241561 -0.054374 -2.438858
v 0.002280 -0.526993 -2.269667
v 0.182494 0.975712 -1.436134
v -0.087075 0.961497 -1.833253
v -0.547170 0.962114 -1.673593
v -0.553060 0.965851 -1.187833
v -0.096327 0.976986 -1.050308
v -0.766645 -0.849826 -1.384097
v -0.905935 -0.518481 -0.934380
v -1.167421 0.004493 -1.116398
v -1.193302 0.003495 -1.684276
v -0.990637 -0.517909 -1.788191
v -0.331048 -0.831514 -0.827400
v 0.072001 -0.530598 -0.604121
v -0.228937 -0.049021 -0.415916
v -0.746440 -0.029977 -0.540640
v -0.754261 -0.523699 -0.728690
v 0.382039 0.089327 -0.563164
v 0.409899 0.536985 -0.781187
v -0.008282 0.801585 -0.785245
v -0.347743 0.568966 -0.549277
v -0.086725 0.193042 -0.402325
v -1.109278 0.575466 -1.637450
v -0.814501 0.776416 -1.868338
v -0.679834 0.566477 -2.221611
v -0.932246 0.233135 -2.207431
v -1.175184 0.252455 -1.877867
v -1.107825 0.575846 -1.222216
v -1.163930 0.252512 -0.963022
v -0.927582 0.235268 -0.634417
v -0.704827 0.569174 -0.645473
v -0.817364 0.781038 -0.995050
v -0.062474 0.235407 -2.482284
v -0.273661 0.568852 -2.358470
v 0.019673 0.772824 -2.161794
v 0.371511 0.549930 -2.165810
v 0.329810 0.187934 -2.357006
v 0.701020 -0.564239 -1.621824
v 0.436785 -0.767180 -1.877030
v 0.345882 -0.551552 -2.199805
v 0.523305 -0.195191 -2.220489
v 0.753908 -0.229072 -1.888892
v 0.193870 -0.941174 -1.178166
v -0.267642 -1.014527 -1.080149
v -0.521879 -1.034553 -1.419668
v -0.287572 -1.001165 -1.783072
v 0.163107 -0.956079 -1.671037
v 0.706935 0.304379 -1.076917
v 0.810916 0.075983 -1.426083
v 0.696304 0.319412 -1.787693
v 0.518264 0.691256 -1.655792
v 0.524249 0.694747 -1.218160
v 0.768366 -0.158941 -1.033227
v -0.170917 -0.696637 -2.137011
v -0.626795 -0.709058 -1.989467
v -0.845785 -0.272793 -2.143579
v -0.514328 -0.027872 -2.373581
v -0.095693 -0.286542 -2.370792
v 0.069781 0.984325 -1.223153
v 0.069211 0.977375 -1.650805
v -0.322508 0.971883 -1.776557
v -0.575544 0.973819 -1.428602
v -0.333371 0.979668 -1.092164
v 0.334229 0.905549 -1.441460
v -0.868628 -0.714065 -1.599860
v -0.817968 -0.716117 -1.147522
v -1.049971 -0.241458 -0.984323
v -1.191690 0.031332 -1.406297
v -1.104272 -0.242772 -1.767220
v -0.946563 -0.539452 -1.912559
v -0.553203 -0.713025 -0.792273
v -0.124545 -0.702649 -0.721314
v -0.053292 -0.284469 -0.484957
v -0.503685 -0.011219 -0.469721
v -0.781976 -0.260080 -0.629489
v -0.845649 -0.539679 -0.806016
v 0.300922 -0.550205 -0.657993
v 0.158201 0.127851 -0.463113
v 0.414181 0.311795 -0.665219
v 0.218141 0.699866 -0.795169
v -0.196140 0.702840 -0.664955
v -0.246863 0.381428 -0.457567
v 0.508417 -0.136812 -0.631193
v 0.520762 0.542308 -0.897781
v -0.154111 0.076847 -0.385217
v -0.052897 0.908155 -0.905712
v -1.163467 0.413772 -1.745304
v -0.975444 0.691878 -1.741588
v -0.741686 0.689269 -2.060721
v -0.801498 0.398197 -2.239529
v -1.075587 0.213478 -2.053876
v -0.688286 0.881740 -1.778026
v -0.863763 0.103057 -2.262838
v -1.208657 0.138968 -1.792436
v -0.973640 0.693248 -1.118155
v -1.160397 0.413661 -1.109831
v -1.059000 0.214002 -0.778181
v -0.811117 0.397802 -0.616887
v -0.752167 0.694983 -0.805773
v -1.120457 0.591182 -1.430129
v -0.696818 0.887834 -1.088388
v -1.189043 0.140321 -1.032235
v -0.855290 0.111920 -0.567889
v -0.534814 0.583947 -0.582917
v 0.145750 0.196638 -2.438835
v -0.189123 0.405117 -2.440765
v -0.137394 0.687723 -2.269138
v 0.210450 0.687590 -2.161234
v 0.369965 0.366221 -2.271649
v -0.147435 0.094419 -2.480269
v 0.486774 0.547794 -2.017198
v -0.479434 0.579456 -2.300531
v -0.034025 0.879871 -2.009332
v 0.750693 -0.402705 -1.757693
v 0.580599 -0.681793 -1.755822
v 0.381841 -0.688340 -2.051079
v 0.436180 -0.369909 -2.235143
v 0.652464 -0.200981 -2.071627
v 0.702108 -0.564053 -1.330934
v 0.784908 -0.067270 -1.793573
v 0.437338 -0.002102 -2.297981
v 0.186402 -0.546186 -2.251513
v 0.191234 -0.961446 -1.428874
v -0.037968 -0.990123 -1.111280
v -0.419300 -1.030471 -1.228675
v -0.438330 -1.022961 -1.618388
v -0.054517 -0.985233 -1.756483
v 0.385279 -0.813165 -1.050163
v 0.313811 -0.872030 -1.774464
v -0.296684 -0.951414 -0.945917
v -0.331447 -0.935720 -1.905561
v -0.649164 -0.976940 -1.402410
v -0.677145 -0.888368 -1.756122
v -1.073848 -0.098844 -2.032370
v -0.517660 0.283433 -2.406030
v 0.302047 0.846166 -1.055853
v 0.075512 -0.838963 -2.014152
v -0.549326 0.282395 -0.458804
v 0.085833 -0.850793 -0.866487
v 0.193652 -0.157342 -2.399773
v 0.292872 0.831439 -1.851738
v -0.410781 0.822525 -2.072346
v 0.208988 -0.175615 -0.472373
v 0.681904 0.441710 -1.429175
v -0.445958 0.839156 -0.819200
v -0.464569 -0.413599 -2.220180
v -0.214288 1.015270 -1.429512
v -1.230868 0.318639 -1.425504
v -1.022860 -0.385859 -1.377005
v -0.616412 -0.896264 -1.028419
v -0.414563 -0.404072 -0.598532
v 0.076220 0.462597 -0.580059
v 0.637214 0.150724 -0.815997
v -0.986863 0.490991 -1.993199
v -1.019150 -0.093520 -0.742830
v -0.983661 0.491049 -0.861601
v -0.880270 0.827590 -1.430033
v 0.092104 0.490485 -2.358975
v 0.611916 0.166102 -2.081465
v 0.593201 -0.494376 -2.006873
v 0.816923 -0.257059 -1.448576
v -0.165545 -1.033547 -1.432978
v 0.481941 -0.807727 -1.448458
v -0.838971 -0.626082 -1.301957
v -0.611597 0.083390 -1.664798
v -0.611487 0.130079 -2.327399
v -0.877906 0.677284 -2.527691
v -1.023552 1.005937 -2.013508
v -0.854992 0.674568 -1.513528
v -2.088085 -1.035488 -2.733362
v -2.677838 -0.664888 -2.738153
v -2.582804 -0.059840 -3.074487
v -1.913635 -0.068641 -3.279340
v -1.605812 -0.665272 -3.065754
v -1.378311 1.231733 -2.013508
v -1.718613 1.213788 -2.514828
v -2.299434 1.214566 -2.313274
v -2.306870 1.219284 -1.700053
v -1.730293 1.233341 -1.526443
v -2.576498 -1.072814 -1.947816
v -2.752337 -0.654527 -1.380097
v -3.082435 0.005671 -1.609875
v -3.115107 0.004412 -2.326760
v -2.859264 -0.653805 -2.457942
v -2.026603 -1.049698 -1.245046
v -1.517797 -0.669824 -0.963180
v -1.897699 -0.061883 -0.725591
v -2.550992 -0.037842 -0.883041
v -2.560865 -0.661115 -1.120434
v -1.126407 0.112766 -0.911475
v -1.091237 0.677887 -1.186707
v -1.619146 1.011916 -1.191829
v -2.047679 0.718259 -0.893945
v -1.718172 0.243694 -0.708434
v -3.009036 0.726465 -2.267648
v -2.636912 0.980143 -2.559119
v -2.466908 0.715117 -3.005089
v -2.785552 0.294308 -2.987188
v -3.092235 0.318698 -2.571148
v -3.007201 0.726945 -1.743459
v -3.078028 0.318769 -1.416254
v -2.779664 0.297001 -1.001424
v -2.498460 0.718521 -1.015383
v -2.640525 0.985977 -1.456685
v -1.687557 0.297176 -3.334161
v -1.954158 0.718116 -3.177859
v -1.583855 0.975608 -2.929576
v -1.139697 0.694228 -2.934646
v -1.192341 0.237247 -3.176011
v -0.723727 -0.712292 -2.247921
v -1.057296 -0.968483 -2.570091
v -1.172051 -0.696276 -2.977561
v -0.948074 -0.246408 -3.003672
v -0.656961 -0.289178 -2.585066
v -1.363950 -1.188132 -1.687850
v -1.946560 -1.280733 -1.564115
v -2.267507 -1.306014 -1.992721
v -1.971720 -1.263865 -2.451479
v -1.402785 -1.206948 -2.310048
v -0.716261 0.384247 -1.560034
v -0.584995 0.095921 -2.000819
v -0.729680 0.403224 -2.457313
v -0.954437 0.872637 -2.290803
v -0.946881 0.877044 -1.738338
v -0.638710 -0.200646 -1.504881
v -1.824455 -0.879431 -2.898290
v -2.399952 -0.895110 -2.712032
v -2.676404 -0.344372 -2.906582
v -2.257975 -0.035186 -3.196935
v -1.729492 -0.361729 -3.193414
v -1.520599 1.242605 -1.744642
v -1.521319 1.233832 -2.284507
v -2.015822 1.226899 -2.443255
v -2.335254 1.229343 -2.003999
v -2.029536 1.236727 -1.579282
v -1.186762 1.143159 -2.020232
v -2.705240 -0.901432 -2.220194
v -2.641288 -0.904022 -1.649166
v -2.934167 -0.304816 -1.443144
v -3.113073 0.039553 -1.975842
v -3.002717 -0.306474 -2.431468
v -2.803625 -0.681001 -2.614944
v -2.307051 -0.900119 -1.200702
v -1.765916 -0.887020 -1.111123
v -1.675966 -0.359112 -0.812747
v -2.244540 -0.014162 -0.793514
v -2.595852 -0.328323 -0.995203
v -2.676233 -0.681287 -1.218050
v -1.228808 -0.694575 -1.031187
v -1.408979 0.161399 -0.785172
v -1.085831 0.393608 -1.040309
v -1.333311 0.883506 -1.204357
v -1.856296 0.887261 -1.039977
v -1.920329 0.481512 -0.778171
v -0.966868 -0.172710 -0.997355
v -0.951284 0.684606 -1.333894
v -1.803239 0.097011 -0.686836
v -1.675467 1.146449 -1.343906
v -3.077445 0.522343 -2.403802
v -2.840084 0.873423 -2.399112
v -2.544990 0.870128 -2.801983
v -2.620497 0.502681 -3.027708
v -2.966505 0.269494 -2.793341
v -2.477579 1.113103 -2.445110
v -2.699100 0.130099 -3.057133
v -3.134492 0.175433 -2.463301
v -2.837808 0.875152 -1.612092
v -3.073568 0.522204 -1.601585
v -2.945566 0.270154 -1.182912
v -2.632639 0.502183 -0.979295
v -2.558221 0.877342 -1.217744
v -3.023148 0.746304 -2.005927
v -2.488349 1.120797 -1.574515
v -3.109730 0.177140 -1.503628
v -2.688403 0.141287 -0.917441
v -2.283837 0.737171 -0.936412
v -1.424697 0.248234 -3.279311
v -1.847438 0.511418 -3.281748
v -1.782136 0.868177 -3.065087
v -1.343020 0.868009 -2.928869
v -1.141648 0.462316 -3.068256
v -1.794812 0.119193 -3.331617
v -0.994190 0.691532 -2.747040
v -2.213925 0.731502 -3.104717
v -1.651643 1.110744 -2.737109
v -0.661021 -0.508373 -2.419442
v -0.875746 -0.860691 -2.417079
v -1.126657 -0.868956 -2.789810
v -1.058059 -0.466971 -3.022172
v -0.785024 -0.253717 -2.815749
v -0.722354 -0.712057 -1.880704
v -0.617828 -0.084921 -2.464736
v -1.056597 -0.002654 -3.101498
v -1.373377 -0.689502 -3.042836
v -1.367278 -1.213724 -2.004342
v -1.656622 -1.249925 -1.603414
v -2.138012 -1.300860 -1.751612
v -2.162035 -1.291380 -2.243584
v -1.677513 -1.243751 -2.417914
v -1.122317 -1.026534 -1.526261
v -1.212538 -1.100845 -2.440614
v -1.983223 -1.201060 -1.394661
v -2.027107 -1.181247 -2.606109
v -2.428191 -1.233283 -1.970934
v -2.463515 -1.121470 -2.417459
v -2.964309 -0.124780 -2.766192
v -2.262181 0.357804 -3.237898
v -1.227388 1.068194 -1.533444
v -1.513365 -1.059102 -2.743194
v -2.302156 0.356494 -0.779733
v -1.500335 -1.074036 -1.294388
v -1.364226 -0.198627 -3.230000
v -1.238970 1.049603 -2.538164
v -2.127258 1.038351 -2.816658
v -1.344865 -0.221695 -0.796862
v -0.747859 0.557612 -2.004723
v -2.171665 1.059345 -1.234694
v -2.195160 -0.522125 -3.003283
v -1.879206 1.281671 -2.005148
v -3.162531 0.402248 -2.000088
v -2.899943 -0.487105 -1.938863
v -2.386845 -1.131438 -1.498811
v -2.132032 -0.510098 -0.956125
v -1.512471 0.583980 -0.932803
v -0.804276 0.190272 -1.230651
v -2.854500 0.619823 -2.716743
v -2.895259 -0.118059 -1.138285
v -2.850459 0.619897 -1.288221
v -2.719939 1.044745 -2.005805
v -1.492419 0.619185 -3.178496
v -0.836212 0.209687 -2.828170
v -0.859838 -0.624097 -2.734004
v -0.577412 -0.324509 -2.029214
v -1.817673 -1.304743 -2.009523
v -1.000291 -1.019670 -2.029066
vn -0.2817 -0.8839 -0.3734
vn -0.4022 -0.8929 -0.2024
vn -0.7239 -0.6821 -0.1035
vn -0.7441 -0.6448 -0.1746
vn -0.4840 -0.6436 -0.5929
vn -0.3603 -0.6984 -0.6183
vn -0.5764 -0.2721 -0.7706
vn -0.6214 -0.3656 -0.6930
vn -0.8979 -0.3407 -0.2788
vn -0.9322 -0.2708 -0.2403
vn -0.8841 -0.0508 -0.4645
vn -0.7168 -0.0606 -0.6946
vn -0.2448 -0.1064 -0.9637
vn -0.3367 -0.1075 -0.9354
vn -0.4423 0.1630 -0.8820
vn -0.3625 0.3540 -0.8621
vn -0.2300 0.3481 -0.9088
vn -0.1536 0.1043 -0.9826
vn 0.3626 0.7589 0.5409
vn 0.5256 0.6601 0.5366
vn 0.6798 0.6594 0.3211
vn 0.6344 0.7537 0.1716
vn 0.4113 0.8945 0.1754
vn 0.2986 0.8954 0.3303
vn 0.2563 -0.8929 -0.3702
vn 0.0948 -0.8787 -0.4679
vn -0.0405 -0.6808 -0.7313
vn 0.0172 -0.6311 -0.7755
vn 0.2320 -0.6723 -0.7030
vn 0.3381 -0.8202 -0.4615
vn -0.2900 -0.0671 0.9547
vn -0.2147 -0.0816 0.9733
vn -0.0789 0.2076 0.9750
vn -0.1306 0.3809 0.9154
vn -0.3536 0.3680 0.8599
vn -0.4332 0.2169 0.8748
vn 0.1467 -0.8873 0.4372
vn 0.3143 -0.8771 0.3633
vn 0.4693 -0.6834 0.5592
vn 0.1099 -0.6271 0.7711
vn 0.0367 -0.6836 0.7290
vn 0.4589 -0.1510 -0.8756
vn 0.2972 -0.3382 -0.8929
vn 0.0623 -0.3599 -0.9309
vn 0.0217 -0.2734 -0.9617
vn 0.1714 -0.0942 -0.9807
vn 0.4078 -0.0479 -0.9118
vn 0.6361 0.7455 -0.1991
vn 0.6847 0.6550 -0.3197
vn 0.5798 0.6735 -0.4585
vn 0.3516 0.8133 -0.4636
vn 0.2916 0.8984 -0.3283
vn 0.4023 0.8927 -0.2030
vn -0.0286 0.8091 -0.5870
vn -0.1577 0.7002 -0.6963
vn -0.3026 0.6970 -0.6501
vn -0.3374 0.8066 -0.4854
vn -0.2190 0.8951 -0.3883
vn -0.0644 0.8982 -0.4349
vn 0.0516 -0.2523 0.9663
vn 0.1478 -0.3938 0.9073
vn 0.5308 -0.3174 0.7858
vn 0.4433 0.0175 0.8962
vn 0.2407 0.0086 0.9706
vn 0.9441 0.3219 0.0706
vn 0.9359 0.3464 -0.0634
vn 0.8799 0.4615 -0.1132
vn 0.8519 0.5235 -0.0158
vn 0.8897 0.4480 0.0874
vn -0.3527 0.8036 0.4793
vn -0.3011 0.7032 0.6441
vn -0.0691 0.6924 0.7182
vn 0.0142 0.7566 0.6537
vn -0.0632 0.8963 0.4389
vn -0.2235 0.9000 0.3743
vn -0.2561 -0.4912 -0.8326
vn -0.3216 -0.4548 -0.8305
vn -0.3100 -0.3933 -0.8656
vn -0.2372 -0.3935 -0.8882
vn -0.2027 -0.4566 -0.8662
vn 0.0989 0.9950 -0.0163
vn 0.0259 0.9919 -0.1240
vn -0.1007 0.9918 -0.0787
vn -0.1038 0.9929 0.0575
vn 0.0192 0.9953 0.0945
vn -0.9921 -0.1254 0.0086
vn -0.9874 -0.1497 0.0506
vn -0.9755 0.1483 0.1624
vn -0.9243 0.3708 0.0903
vn -0.9253 0.3703 -0.0822
vn -0.9717 0.1850 -0.1467
vn -0.8708 -0.4823 0.0953
vn -0.8813 -0.4631 0.0941
vn -0.9217 -0.3828 0.0621
vn -0.9294 -0.3654 0.0524
vn -0.9017 -0.4272 0.0665
vn -0.3794 -0.8973 0.2255
vn -0.2512 -0.8984 0.3601
vn -0.2853 -0.7170 0.6360
vn -0.4195 -0.6582 0.6252
vn -0.7325 -0.6272 0.2647
vn -0.7118 -0.6692 0.2133
vn -0.1311 -0.4877 0.8631
vn -0.1133 -0.4742 0.8731
vn -0.1922 -0.3675 0.9099
vn -0.2222 -0.3386 0.9143
vn -0.1935 -0.4169 0.8881
vn 0.4003 0.3660 0.8401
vn 0.3806 0.4607 0.8018
vn 0.2547 0.5464 0.7978
vn 0.1891 0.5111 0.8384
vn 0.2694 0.4113 0.8708
vn 0.8348 -0.0830 0.5443
vn 0.9165 0.1562 0.3683
vn 0.8399 0.3366 0.4258
vn 0.6794 0.3413 0.6496
vn 0.6664 0.1946 0.7198
vn -0.7619 0.5203 -0.3857
vn -0.6444 0.5978 -0.4769
vn -0.5913 0.5069 -0.6273
vn -0.6801 0.3779 -0.6282
vn -0.7871 0.3905 -0.4776
vn -0.9118 -0.2965 0.2841
vn -0.8579 -0.3830 0.3426
vn -0.5830 -0.3347 0.7403
vn -0.5414 -0.2401 0.8057
vn -0.7242 -0.0255 0.6891
vn -0.8798 -0.0688 0.4703
vn -0.7622 0.5206 0.3848
vn -0.7869 0.3920 0.4766
vn -0.6880 0.3918 0.6109
vn -0.6123 0.5070 0.6067
vn -0.6592 0.5916 0.4641
vn -0.5583 0.8102 -0.1784
vn -0.6969 0.7109 -0.0946
vn -0.6977 0.7099 0.0961
vn -0.5789 0.7977 0.1691
vn -0.4333 0.8983 0.0726
vn -0.4326 0.8964 -0.0966
vn 0.2058 0.3220 -0.9241
vn 0.1063 0.5018 -0.8584
vn 0.2380 0.5964 -0.7666
vn 0.4291 0.4766 -0.7673
vn 0.4046 0.3123 -0.8595
vn 0.8814 0.0908 -0.4635
vn 0.7522 0.0677 -0.6554
vn 0.6947 0.1769 -0.6972
vn 0.7413 0.3367 -0.5806
vn 0.8384 0.3456 -0.4215
vn 0.9037 0.2127 -0.3717
vn 0.8091 -0.4952 -0.3164
vn 0.6728 -0.5950 -0.4397
vn 0.6074 -0.4727 -0.6385
vn 0.7111 -0.2909 -0.6401
vn 0.8363 -0.3035 -0.4567
vn 0.9295 -0.3048 0.2079
vn 0.9395 -0.3419 -0.0223
vn 0.9822 -0.1160 -0.1479
vn 0.9966 0.0226 -0.0794
vn 0.9947 -0.0084 0.1027
vn 0.2073 -0.9763 0.0615
vn 0.0814 -0.9937 0.0771
vn 0.0021 -0.9998 -0.0194
vn 0.0573 -0.9921 -0.1117
vn 0.1832 -0.9808 -0.0662
vn 0.7111 -0.6722 0.2061
vn 0.4872 -0.8686 0.0904
vn 0.4587 -0.8861 -0.0665
vn 0.5814 -0.8020 -0.1371
vn 0.7352 -0.6775 -0.0225
vn -0.7168 -0.0605 -0.6946
vn -0.3527 0.8037 0.4793
vn -0.6802 0.3779 -0.6282
vn -0.6123 0.5070 0.6066
vn -0.9874 -0.1496 0.0506
vn -0.9253 0.3703 -0.0821
vn -0.5913 0.5068 -0.6273
vt 0.687809 0.068354
vt 0.723112 0.061146
vt 0.729023 0.094229
vt 0.687808 0.068356
vt 0.758414 0.053938
vt 0.758415 0.053940
vt 0.758416 0.053942
vt 0.762957 0.122091
vt 0.751563 0.161236
vt 0.735110 0.158438
vt 0.739249 0.157461
vt 0.713528 0.112909
vt 0.687807 0.068358
vt 0.671943 0.228993
vt 0.692392 0.197678
vt 0.729573 0.222743
vt 0.685534 0.249310
vt 0.764863 0.201665
vt 0.781223 0.235320
vt 0.768608 0.253875
vt 0.756920 0.269209
vt 0.729026 0.264630
vt 0.698976 0.266737
vt 0.595072 0.228101
vt 0.632998 0.230850
vt 0.634865 0.272888
vt 0.583185 0.248195
vt 0.682671 0.289346
vt 0.661819 0.314921
vt 0.634373 0.316236
vt 0.605824 0.314271
vt 0.590971 0.289899
vt 0.572636 0.266963
vt 0.224797 0.389362
vt 0.236038 0.342624
vt 0.272292 0.368165
vt 0.228601 0.395950
vt 0.250584 0.311634
vt 0.271273 0.312834
vt 0.278594 0.314921
vt 0.299855 0.351746
vt 0.321116 0.388571
vt 0.317084 0.395555
vt 0.313051 0.402539
vt 0.272728 0.402539
vt 0.232404 0.402538
vt 0.503011 0.073517
vt 0.543965 0.070936
vt 0.534573 0.106614
vt 0.492857 0.091104
vt 0.584919 0.068354
vt 0.584920 0.068356
vt 0.584921 0.068358
vt 0.573435 0.127883
vt 0.555628 0.161505
vt 0.530514 0.159618
vt 0.510859 0.157461
vt 0.496781 0.133076
vt 0.482703 0.108692
vt 0.036091 0.252410
vt 0.090910 0.252411
vt 0.088045 0.274158
vt 0.034771 0.254697
vt 0.145729 0.252411
vt 0.145229 0.248848
vt 0.154797 0.261834
vt 0.132631 0.287658
vt 0.095862 0.314921
vt 0.084375 0.317452
vt 0.066902 0.314921
vt 0.050176 0.285952
vt 0.033451 0.256983
vt 0.145731 0.062506
vt 0.184997 0.068012
vt 0.196249 0.102687
vt 0.145730 0.062508
vt 0.224263 0.073517
vt 0.248496 0.115489
vt 0.272728 0.157461
vt 0.216354 0.157879
vt 0.200549 0.157461
vt 0.173139 0.109985
vt 0.145729 0.062510
vt 0.482357 0.210600
vt 0.493332 0.186773
vt 0.534989 0.215458
vt 0.498315 0.235928
vt 0.573681 0.196583
vt 0.543652 0.262375
vt 0.515256 0.260890
vt 0.406158 0.388571
vt 0.419370 0.341079
vt 0.460218 0.364280
vt 0.410190 0.395555
vt 0.436011 0.311295
vt 0.462629 0.312728
vt 0.485864 0.314921
vt 0.500762 0.340725
vt 0.515659 0.366529
vt 0.505265 0.384534
vt 0.494870 0.402538
vt 0.454546 0.402539
vt 0.414223 0.402539
vt 0.575251 0.366529
vt 0.591010 0.336530
vt 0.635039 0.362044
vt 0.585645 0.384534
vt 0.678183 0.343264
vt 0.694546 0.371606
vt 0.685617 0.387072
vt 0.676688 0.402538
vt 0.636364 0.402538
vt 0.596040 0.402538
vt 0.173139 0.204936
vt 0.196235 0.213750
vt 0.241726 0.217588
vt 0.223835 0.248566
vt 0.190787 0.254030
vt 0.328414 0.245579
vt 0.365822 0.247379
vt 0.372148 0.299947
vt 0.312958 0.278190
vt 0.400884 0.250311
vt 0.419623 0.279564
vt 0.342376 0.351746
vt 0.033451 0.372860
vt 0.050176 0.343890
vt 0.086308 0.366347
vt 0.042018 0.387699
vt 0.117351 0.352142
vt 0.138841 0.389362
vt 0.135037 0.395950
vt 0.131234 0.402538
vt 0.090910 0.402538
vt 0.050586 0.402538
vt 0.662085 0.112909
vt 0.626367 0.174552
vt 0.403961 0.402539
vt 0.222143 0.402539
vt 0.585779 0.402538
vt 0.767597 0.402538
vt 0.858506 0.402538
vt 0.818246 0.238137
vt 0.818080 0.277141
vt 0.859349 0.235448
vt 0.871153 0.253008
vt 0.877950 0.260983
vt 0.860070 0.287952
vt 0.842189 0.314921
vt 0.817341 0.317729
vt 0.789776 0.315410
vt 0.774643 0.291155
vt 0.848065 0.105701
vt 0.814776 0.176555
vt 0.937714 0.157461
vt 0.883430 0.201146
vt 0.877950 0.053938
vt 0.911564 0.058222
vt 0.919747 0.091315
vt 0.877949 0.053940
vt 0.945179 0.062506
vt 0.945180 0.062508
vt 0.945181 0.062510
vt 0.941450 0.109985
vt 0.937718 0.157461
vt 0.927851 0.157520
vt 0.907831 0.105701
vt 0.877948 0.053942
vt 0.572865 0.109985
vt 0.453054 0.176451
vt 0.486905 0.204936
vt 0.237251 0.278650
vt 0.191655 0.302638
vt 0.160330 0.352142
vt 0.309498 0.214786
vt 0.273475 0.256228
vt 0.774827 0.338087
vt 0.733898 0.304508
vt 0.760000 0.371606
vt 0.710910 0.343264
vt 0.917560 0.223523
vt 0.941450 0.204936
vt 0.945182 0.252410
vt 0.943861 0.254697
vt 0.942541 0.256983
vt 0.910246 0.258983
vt 0.552607 0.304134
vt 0.437820 0.343890
vt 0.504722 0.285952
vt 0.817767 0.363135
vt 0.768929 0.387072
vt 0.858915 0.343890
vt 0.875641 0.372860
vt 0.867073 0.387699
vt 0.818182 0.402538
vt 0.777858 0.402538
vt 0.551698 0.303913
vt 0.530557 0.340725
vt 0.504054 0.285247
vt 0.426313 0.206266
vt 0.454711 0.209508
vt 0.460163 0.258012
vt 0.413944 0.227635
vt 0.389811 0.159078
vt 0.408737 0.137467
vt 0.448101 0.168314
vt 0.408349 0.182909
vt 0.426389 0.108692
vt 0.468624 0.133076
vt 0.349799 0.158090
vt 0.366644 0.202745
vt 0.321193 0.073517
vt 0.233462 0.068012
vt 0.507139 0.066367
vt 0.412102 0.073517
vt 0.511841 0.058222
vt 0.782880 0.061146
vt 0.595410 0.070936
vt 0.296960 0.115489
vt 0.365698 0.114454
vt 0.363637 0.073517
vt 0.406081 0.073517
vt 0.416235 0.091104
s 0
usemtl None
f 55/1/1 135/2/1 142/3/1 140/4/1
f 54/5/2 141/6/2 142/3/2 135/2/2
f 17/7/3 74/8/3 142/3/3 141/6/3
f 21/9/4 79/10/4 142/3/4 74/8/4
f 8/11/5 64/12/5 142/3/5 79/10/5
f 7/13/6 140/4/6 142/3/6 64/12/6
f 9/14/7 65/15/7 143/16/7 102/17/7
f 8/11/8 79/10/8 143/16/8 65/15/8
f 21/9/9 78/18/9 143/16/9 79/10/9
f 20/19/10 103/20/10 143/16/10 78/18/10
f 36/21/11 100/22/11 143/16/11 103/20/11
f 35/23/12 102/17/12 143/16/12 100/22/12
f 10/24/13 66/25/13 144/26/13 119/27/13
f 9/14/14 102/17/14 144/26/14 66/25/14
f 35/23/15 99/28/15 144/26/15 102/17/15
f 34/29/16 121/30/16 144/26/16 99/28/16
f 43/31/17 115/32/17 144/26/17 121/30/17
f 42/33/18 119/27/18 144/26/18 115/32/18
f 29/34/19 89/35/19 145/36/19 95/37/19
f 28/38/20 93/39/20 145/36/20 89/35/20
f 6/40/21 61/41/21 145/36/21 93/39/21
f 5/42/22 73/43/22 145/36/22 61/41/22
f 12/44/23 68/45/23 145/36/23 73/43/23
f 16/46/24 95/37/24 145/36/24 68/45/24
f 56/47/25 136/48/25 146/49/25 138/50/25
f 55/51/26 140/52/26 146/49/26 136/48/26
f 7/53/27 63/54/27 146/49/27 140/52/27
f 11/55/28 131/56/28 146/49/28 63/54/28
f 49/57/29 125/58/29 146/49/29 131/56/29
f 48/59/30 138/50/30 146/49/30 125/58/30
f 25/60/31 83/61/31 147/62/31 112/63/31
f 24/64/32 94/65/32 147/62/32 83/61/32
f 31/66/33 91/67/33 147/62/33 94/65/33
f 30/68/34 113/69/34 147/62/34 91/67/34
f 40/70/35 107/71/35 147/62/35 113/69/35
f 39/72/36 112/63/36 147/62/36 107/71/36
f 53/73/37 133/74/37 148/75/37 139/76/37
f 52/77/38 137/78/38 148/75/38 133/74/38
f 1/79/39 86/80/39 148/75/39 137/78/39
f 23/81/40 81/82/40 148/75/40 86/80/40
f 22/83/41 139/76/41 148/75/41 81/82/41
f 50/84/42 126/85/42 149/86/42 130/87/42
f 49/57/43 131/56/43 149/86/43 126/85/43
f 11/55/44 67/88/44 149/86/44 131/56/44
f 10/24/45 119/27/45 149/86/45 67/88/45
f 42/33/46 114/89/46 149/86/46 119/27/46
f 46/90/47 130/87/47 149/86/47 114/89/47
f 5/91/48 60/92/48 150/93/48 73/94/48
f 4/95/49 120/96/49 150/93/49 60/92/49
f 45/97/50 117/98/50 150/93/50 120/96/50
f 44/99/51 122/100/51 150/93/51 117/98/51
f 13/101/52 69/102/52 150/93/52 122/100/52
f 12/103/53 73/94/53 150/93/53 69/102/53
f 44/104/54 116/105/54 151/106/54 122/107/54
f 43/31/55 121/30/55 151/106/55 116/105/55
f 34/29/56 98/108/56 151/106/56 121/30/56
f 33/109/57 101/110/57 151/106/57 98/108/57
f 14/111/58 70/112/58 151/106/58 101/110/58
f 13/113/59 122/107/59 151/106/59 70/112/59
f 24/64/60 82/114/60 152/115/60 94/65/60
f 23/81/61 86/80/61 152/115/61 82/114/61
f 1/79/62 92/116/62 152/115/62 86/80/62
f 27/117/63 87/118/63 152/115/63 92/116/63
f 31/66/64 94/65/64 152/115/64 87/118/64
f 2/119/65 58/120/65 153/121/65 57/122/65
f 3/123/66 59/124/66 153/121/66 58/120/66
f 4/95/67 60/92/67 153/121/67 59/124/67
f 5/91/68 61/125/68 153/121/68 60/92/68
f 6/40/69 57/122/69 153/121/69 61/125/69
f 41/126/70 108/127/70 154/128/70 110/129/70
f 40/70/71 113/69/71 154/128/71 108/127/71
f 30/68/72 90/130/72 154/128/72 113/69/72
f 29/131/73 95/132/73 154/128/73 90/130/73
f 16/133/74 72/134/74 154/128/74 95/132/74
f 15/135/75 110/129/75 154/128/75 72/134/75
f 7/53/76 64/136/76 155/137/76 63/54/76
f 8/11/77 65/15/77 155/137/77 64/136/77
f 9/14/78 66/25/78 155/137/78 65/15/78
f 10/24/79 67/88/79 155/137/79 66/25/79
f 11/55/80 63/54/80 155/137/80 67/88/80
f 12/44/81 69/138/81 156/101/81 68/139/81
f 13/101/82 70/140/82 156/101/82 69/138/82
f 14/111/83 71/141/83 156/101/83 70/140/83
f 15/142/84 72/101/84 156/101/84 71/141/84
f 16/133/85 68/139/85 156/101/85 72/101/85
f 20/19/86 77/143/86 157/144/86 103/20/86
f 19/145/87 111/146/87 157/144/87 77/143/87
f 38/147/88 105/148/88 157/144/88 111/146/88
f 37/149/89 109/150/89 157/144/89 105/148/89
f 32/151/90 96/152/90 157/144/90 109/150/90
f 36/21/91 103/20/91 157/144/91 96/152/91
f 17/7/92 75/153/92 158/154/92 74/8/92
f 18/155/93 76/156/93 158/154/93 75/153/93
f 19/145/94 77/143/94 158/154/94 76/156/94
f 20/19/95 78/18/95 158/154/95 77/143/95
f 21/9/96 74/8/96 158/154/96 78/18/96
f 54/157/97 134/158/97 159/159/97 141/160/97
f 53/161/98 139/162/98 159/159/98 134/158/98
f 22/163/99 80/164/99 159/159/99 139/162/99
f 26/165/100 85/166/100 159/159/100 80/164/100
f 18/155/101 75/167/101 159/159/101 85/166/101
f 17/168/102 141/160/102 159/159/102 75/167/102
f 22/163/103 81/169/103 160/170/103 80/164/103
f 23/81/104 82/114/104 160/170/104 81/169/104
f 24/64/105 83/61/105 160/170/105 82/114/105
f 25/60/106 84/171/106 160/170/106 83/61/106
f 26/165/107 80/164/107 160/170/107 84/171/107
f 27/117/108 88/172/108 161/173/108 87/118/108
f 28/38/109 89/35/109 161/173/109 88/172/109
f 29/34/110 90/174/110 161/173/110 89/35/110
f 30/68/111 91/67/111 161/173/111 90/174/111
f 31/66/112 87/118/112 161/173/112 91/67/112
f 1/79/113 62/175/113 162/176/113 92/116/113
f 2/119/114 57/122/114 162/176/114 62/175/114
f 6/40/115 93/39/115 162/176/115 57/122/115
f 28/38/116 88/172/116 162/176/116 93/39/116
f 27/117/117 92/116/117 162/176/117 88/172/117
f 32/151/118 97/177/118 163/178/118 96/152/118
f 33/179/119 98/180/119 163/178/119 97/177/119
f 34/29/120 99/28/120 163/178/120 98/180/120
f 35/23/121 100/22/121 163/178/121 99/28/121
f 36/21/122 96/152/122 163/178/122 100/22/122
f 19/145/123 76/156/123 164/181/123 111/146/123
f 18/155/124 85/166/124 164/181/124 76/156/124
f 26/165/125 84/182/125 164/181/125 85/166/125
f 25/183/126 112/184/126 164/181/126 84/182/126
f 39/185/127 106/186/127 164/181/127 112/184/127
f 38/147/128 111/146/128 164/181/128 106/186/128
f 37/149/129 105/148/129 165/187/129 104/188/129
f 38/147/130 106/186/130 165/187/130 105/148/130
f 39/185/131 107/189/131 165/187/131 106/186/131
f 40/70/132 108/127/132 165/187/132 107/189/132
f 41/126/133 104/188/133 165/187/133 108/127/133
f 33/179/134 97/177/134 166/190/134 101/191/134
f 32/151/135 109/150/135 166/190/135 97/177/135
f 37/149/136 104/192/136 166/190/136 109/150/136
f 41/193/137 110/194/137 166/190/137 104/192/137
f 15/142/138 71/195/138 166/190/138 110/194/138
f 14/196/139 101/191/139 166/190/139 71/195/139
f 42/33/140 115/32/140 167/197/140 114/89/140
f 43/31/141 116/105/141 167/197/141 115/32/141
f 44/104/142 117/198/142 167/197/142 116/105/142
f 45/97/143 118/199/143 167/197/143 117/198/143
f 46/90/144 114/89/144 167/197/144 118/199/144
f 51/200/145 127/201/145 168/202/145 129/203/145
f 50/84/146 130/87/146 168/202/146 127/201/146
f 46/90/147 118/199/147 168/202/147 130/87/147
f 45/97/148 120/96/148 168/202/148 118/199/148
f 4/95/149 59/124/149 168/202/149 120/96/149
f 3/123/150 129/203/150 168/202/150 59/124/150
f 47/204/151 124/205/151 169/206/151 123/207/151
f 48/208/152 125/209/152 169/206/152 124/205/152
f 49/57/153 126/85/153 169/206/153 125/209/153
f 50/84/154 127/201/154 169/206/154 126/85/154
f 51/200/155 123/207/155 169/206/155 127/201/155
f 1/79/156 128/210/156 170/211/156 62/175/156
f 47/204/157 123/207/157 170/211/157 128/210/157
f 51/200/158 129/203/158 170/211/158 123/207/158
f 3/123/159 58/120/159 170/211/159 129/203/159
f 2/119/160 62/175/160 170/211/160 58/120/160
f 52/212/161 133/213/161 171/214/161 132/215/161
f 53/73/162 134/216/162 171/214/162 133/213/162
f 54/157/163 135/217/163 171/214/163 134/216/163
f 55/1/164 136/218/164 171/214/164 135/217/164
f 56/47/165 132/215/165 171/214/165 136/218/165
f 1/79/166 137/219/166 172/220/166 128/210/166
f 52/212/167 132/221/167 172/220/167 137/219/167
f 56/222/168 138/223/168 172/220/168 132/221/168
f 48/208/169 124/205/169 172/220/169 138/223/169
f 47/204/170 128/210/170 172/220/170 124/205/170
f 227/1/1 307/2/1 314/3/1 312/4/1
f 226/5/2 313/6/2 314/3/2 307/2/2
f 189/7/3 246/8/3 314/3/3 313/6/3
f 193/9/4 251/10/4 314/3/4 246/8/4
f 180/11/5 236/12/5 314/3/5 251/10/5
f 179/13/6 312/4/6 314/3/6 236/12/6
f 181/14/7 237/15/7 315/16/7 274/17/7
f 180/11/8 251/10/8 315/16/8 237/15/8
f 193/9/9 250/18/9 315/16/9 251/10/9
f 192/19/10 275/20/10 315/16/10 250/18/10
f 208/21/11 272/22/11 315/16/11 275/20/11
f 207/23/171 274/17/171 315/16/171 272/22/171
f 182/24/13 238/25/13 316/26/13 291/27/13
f 181/14/14 274/17/14 316/26/14 238/25/14
f 207/23/15 271/28/15 316/26/15 274/17/15
f 206/29/16 293/30/16 316/26/16 271/28/16
f 215/31/17 287/32/17 316/26/17 293/30/17
f 214/33/18 291/27/18 316/26/18 287/32/18
f 201/34/19 261/35/19 317/36/19 267/37/19
f 200/38/20 265/39/20 317/36/20 261/35/20
f 178/40/21 233/41/21 317/36/21 265/39/21
f 177/42/22 245/43/22 317/36/22 233/41/22
f 184/44/23 240/45/23 317/36/23 245/43/23
f 188/46/24 267/37/24 317/36/24 240/45/24
f 228/47/25 308/48/25 318/49/25 310/50/25
f 227/51/26 312/52/26 318/49/26 308/48/26
f 179/53/27 235/54/27 318/49/27 312/52/27
f 183/55/28 303/56/28 318/49/28 235/54/28
f 221/57/29 297/58/29 318/49/29 303/56/29
f 220/59/30 310/50/30 318/49/30 297/58/30
f 197/60/31 255/61/31 319/62/31 284/63/31
f 196/64/32 266/65/32 319/62/32 255/61/32
f 203/66/33 263/67/33 319/62/33 266/65/33
f 202/68/34 285/69/34 319/62/34 263/67/34
f 212/70/35 279/71/35 319/62/35 285/69/35
f 211/72/36 284/63/36 319/62/36 279/71/36
f 225/73/37 305/74/37 320/75/37 311/76/37
f 224/77/38 309/78/38 320/75/38 305/74/38
f 173/79/39 258/80/39 320/75/39 309/78/39
f 195/81/40 253/82/40 320/75/40 258/80/40
f 194/83/41 311/76/41 320/75/41 253/82/41
f 222/84/42 298/85/42 321/86/42 302/87/42
f 221/57/43 303/56/43 321/86/43 298/85/43
f 183/55/44 239/88/44 321/86/44 303/56/44
f 182/24/45 291/27/45 321/86/45 239/88/45
f 214/33/46 286/89/46 321/86/46 291/27/46
f 218/90/47 302/87/47 321/86/47 286/89/47
f 177/91/48 232/92/48 322/93/48 245/94/48
f 176/95/49 292/96/49 322/93/49 232/92/49
f 217/97/50 289/98/50 322/93/50 292/96/50
f 216/99/51 294/100/51 322/93/51 289/98/51
f 185/101/52 241/102/52 322/93/52 294/100/52
f 184/103/53 245/94/53 322/93/53 241/102/53
f 216/104/54 288/105/54 323/106/54 294/107/54
f 215/31/55 293/30/55 323/106/55 288/105/55
f 206/29/56 270/108/56 323/106/56 293/30/56
f 205/109/57 273/110/57 323/106/57 270/108/57
f 186/111/58 242/112/58 323/106/58 273/110/58
f 185/113/59 294/107/59 323/106/59 242/112/59
f 196/64/60 254/114/60 324/115/60 266/65/60
f 195/81/61 258/80/61 324/115/61 254/114/61
f 173/79/62 264/116/62 324/115/62 258/80/62
f 199/117/63 259/118/63 324/115/63 264/116/63
f 203/66/64 266/65/64 324/115/64 259/118/64
f 174/119/65 230/120/65 325/121/65 229/122/65
f 175/123/66 231/124/66 325/121/66 230/120/66
f 176/95/67 232/92/67 325/121/67 231/124/67
f 177/91/68 233/125/68 325/121/68 232/92/68
f 178/40/69 229/122/69 325/121/69 233/125/69
f 213/126/172 280/127/172 326/128/172 282/129/172
f 212/70/71 285/69/71 326/128/71 280/127/71
f 202/68/72 262/130/72 326/128/72 285/69/72
f 201/131/73 267/132/73 326/128/73 262/130/73
f 188/133/74 244/134/74 326/128/74 267/132/74
f 187/135/75 282/129/75 326/128/75 244/134/75
f 179/53/76 236/136/76 327/137/76 235/54/76
f 180/11/77 237/15/77 327/137/77 236/136/77
f 181/14/78 238/25/78 327/137/78 237/15/78
f 182/24/79 239/88/79 327/137/79 238/25/79
f 183/55/80 235/54/80 327/137/80 239/88/80
f 184/44/81 241/138/81 328/101/81 240/139/81
f 185/101/82 242/140/82 328/101/82 241/138/82
f 186/111/83 243/141/83 328/101/83 242/140/83
f 187/142/84 244/101/84 328/101/84 243/141/84
f 188/133/85 240/139/85 328/101/85 244/101/85
f 192/19/86 249/143/86 329/144/86 275/20/86
f 191/145/87 283/146/87 329/144/87 249/143/87
f 210/147/88 277/148/88 329/144/88 283/146/88
f 209/149/89 281/150/89 329/144/89 277/148/89
f 204/151/90 268/152/90 329/144/90 281/150/90
f 208/21/91 275/20/91 329/144/91 268/152/91
f 189/7/92 247/153/92 330/154/92 246/8/92
f 190/155/93 248/156/93 330/154/93 247/153/93
f 191/145/94 249/143/94 330/154/94 248/156/94
f 192/19/95 250/18/95 330/154/95 249/143/95
f 193/9/96 246/8/96 330/154/96 250/18/96
f 226/157/97 306/158/97 331/159/97 313/160/97
f 225/161/98 311/162/98 331/159/98 306/158/98
f 194/163/99 252/164/99 331/159/99 311/162/99
f 198/165/100 257/166/100 331/159/100 252/164/100
f 190/155/101 247/167/101 331/159/101 257/166/101
f 189/168/102 313/160/102 331/159/102 247/167/102
f 194/163/103 253/169/103 332/170/103 252/164/103
f 195/81/104 254/114/104 332/170/104 253/169/104
f 196/64/105 255/61/105 332/170/105 254/114/105
f 197/60/106 256/171/106 332/170/106 255/61/106
f 198/165/107 252/164/107 332/170/107 256/171/107
f 199/117/108 260/172/108 333/173/108 259/118/108
f 200/38/109 261/35/109 333/173/109 260/172/109
f 201/34/110 262/174/110 333/173/110 261/35/110
f 202/68/111 263/67/111 333/173/111 262/174/111
f 203/66/112 259/118/112 333/173/112 263/67/112
f 173/79/113 234/175/113 334/176/113 264/116/113
f 174/119/114 229/122/114 334/176/114 234/175/114
f 178/40/115 265/39/115 334/176/115 229/122/115
f 200/38/116 260/172/116 334/176/116 265/39/116
f 199/117/117 264/116/117 334/176/117 260/172/117
f 204/151/118 269/177/118 335/178/118 268/152/118
f 205/179/119 270/180/119 335/178/119 269/177/119
f 206/29/120 271/28/120 335/178/120 270/180/120
f 207/23/173 272/22/173 335/178/173 271/28/173
f 208/21/122 268/152/122 335/178/122 272/22/122
f 191/145/123 248/156/123 336/181/123 283/146/123
f 190/155/124 257/166/124 336/181/124 248/156/124
f 198/165/125 256/182/125 336/181/125 257/166/125
f 197/183/126 284/184/126 336/181/126 256/182/126
f 211/185/127 278/186/127 336/181/127 284/184/127
f 210/147/128 283/146/128 336/181/128 278/186/128
f 209/149/129 277/148/129 337/187/129 276/188/129
f 210/147/130 278/186/130 337/187/130 277/148/130
f 211/185/131 279/189/131 337/187/131 278/186/131
f 212/70/174 280/127/174 337/187/174 279/189/174
f 213/126/133 276/188/133 337/187/133 280/127/133
f 205/179/134 269/177/134 338/190/134 273/191/134
f 204/151/135 281/150/135 338/190/135 269/177/135
f 209/149/136 276/192/136 338/190/136 281/150/136
f 213/193/137 282/194/137 338/190/137 276/192/137
f 187/142/138 243/195/138 338/190/138 282/194/138
f 186/196/139 273/191/139 338/190/139 243/195/139
f 214/33/140 287/32/140 339/197/140 286/89/140
f 215/31/141 288/105/141 339/197/141 287/32/141
f 216/104/142 289/198/142 339/197/142 288/105/142
f 217/97/143 290/199/143 339/197/143 289/198/143
f 218/90/144 286/89/144 339/197/144 290/199/144
f 223/200/145 299/201/145 340/202/145 301/203/145
f 222/84/146 302/87/146 340/202/146 299/201/146
f 218/90/147 290/199/147 340/202/147 302/87/147
f 217/97/148 292/96/148 340/202/148 290/199/148
f 176/95/149 231/124/149 340/202/149 292/96/149
f 175/123/150 301/203/150 340/202/150 231/124/150
f 219/204/151 296/205/151 341/206/151 295/207/151
f 220/208/152 297/209/152 341/206/152 296/205/152
f 221/57/153 298/85/153 341/206/153 297/209/153
f 222/84/154 299/201/154 341/206/154 298/85/154
f 223/200/155 295/207/155 341/206/155 299/201/155
f 173/79/156 300/210/156 342/211/156 234/175/156
f 219/204/157 295/207/157 342/211/157 300/210/157
f 223/200/158 301/203/158 342/211/158 295/207/158
f 175/123/159 230/120/159 342/211/159 301/203/159
f 174/119/160 234/175/160 342/211/160 230/120/160
f 224/212/161 305/213/161 343/214/161 304/215/161
f 225/73/162 306/216/162 343/214/162 305/213/162
f 226/157/163 307/217/163 343/214/163 306/216/163
f 227/1/164 308/218/164 343/214/164 307/217/164
f 228/47/165 304/215/165 343/214/165 308/218/165
f 173/79/166 309/219/166 344/220/166 300/210/166
f 224/212/167 304/221/167 344/220/167 309/219/167
f 228/222/168 310/223/168 344/220/168 304/221/168
f 220/208/169 296/205/169 344/220/169 310/223/169
f 219/204/170 300/210/170 344/220/170 296/205/170
f 399/1/1 479/2/1 486/3/1 484/4/1
f 398/5/2 485/6/2 486/3/2 479/2/2
f 361/7/3 418/8/3 486/3/3 485/6/3
f 365/9/4 423/10/4 486/3/4 418/8/4
f 352/11/5 408/12/5 486/3/5 423/10/5
f 351/13/6 484/4/6 486/3/6 408/12/6
f 353/14/7 409/15/7 487/16/7 446/17/7
f 352/11/8 423/10/8 487/16/8 409/15/8
f 365/9/9 422/18/9 487/16/9 423/10/9
f 364/19/10 447/20/10 487/16/10 422/18/10
f 380/21/11 444/22/11 487/16/11 447/20/11
f 379/23/12 446/17/12 487/16/12 444/22/12
f 354/24/13 410/25/13 488/26/13 463/27/13
f 353/14/14 446/17/14 488/26/14 410/25/14
f 379/23/15 443/28/15 488/26/15 446/17/15
f 378/29/16 465/30/16 488/26/16 443/28/16
f 387/31/17 459/32/17 488/26/17 465/30/17
f 386/33/18 463/27/18 488/26/18 459/32/18
f 373/34/19 433/35/19 489/36/19 439/37/19
f 372/38/20 437/39/20 489/36/20 433/35/20
f 350/40/21 405/41/21 489/36/21 437/39/21
f 349/42/22 417/43/22 489/36/22 405/41/22
f 356/44/23 412/45/23 489/36/23 417/43/23
f 360/46/24 439/37/24 489/36/24 412/45/24
f 400/47/25 480/48/25 490/49/25 482/50/25
f 399/51/26 484/52/26 490/49/26 480/48/26
f 351/53/27 407/54/27 490/49/27 484/52/27
f 355/55/28 475/56/28 490/49/28 407/54/28
f 393/57/29 469/58/29 490/49/29 475/56/29
f 392/59/30 482/50/30 490/49/30 469/58/30
f 369/60/31 427/61/31 491/62/31 456/63/31
f 368/64/32 438/65/32 491/62/32 427/61/32
f 375/66/33 435/67/33 491/62/33 438/65/33
f 374/68/34 457/69/34 491/62/34 435/67/34
f 384/70/35 451/71/35 491/62/35 457/69/35
f 383/72/36 456/63/36 491/62/36 451/71/36
f 397/73/37 477/74/37 492/75/37 483/76/37
f 396/77/38 481/78/38 492/75/38 477/74/38
f 345/79/39 430/80/39 492/75/39 481/78/39
f 367/81/40 425/82/40 492/75/40 430/80/40
f 366/83/41 483/76/41 492/75/41 425/82/41
f 394/84/42 470/85/42 493/86/42 474/87/42
f 393/57/43 475/56/43 493/86/43 470/85/43
f 355/55/44 411/88/44 493/86/44 475/56/44
f 354/24/45 463/27/45 493/86/45 411/88/45
f 386/33/46 458/89/46 493/86/46 463/27/46
f 390/90/47 474/87/47 493/86/47 458/89/47
f 349/91/48 404/92/48 494/93/48 417/94/48
f 348/95/49 464/96/49 494/93/49 404/92/49
f 389/97/50 461/98/50 494/93/50 464/96/50
f 388/99/51 466/100/51 494/93/51 461/98/51
f 357/101/52 413/102/52 494/93/52 466/100/52
f 356/103/53 417/94/53 494/93/53 413/102/53
f 388/104/54 460/105/54 495/106/54 466/107/54
f 387/31/55 465/30/55 495/106/55 460/105/55
f 378/29/56 442/108/56 495/106/56 465/30/56
f 377/109/57 445/110/57 495/106/57 442/108/57
f 358/111/58 414/112/58 495/106/58 445/110/58
f 357/113/59 466/107/59 495/106/59 414/112/59
f 368/64/60 426/114/60 496/115/60 438/65/60
f 367/81/61 430/80/61 496/115/61 426/114/61
f 345/79/62 436/116/62 496/115/62 430/80/62
f 371/117/63 431/118/63 496/115/63 436/116/63
f 375/66/64 438/65/64 496/115/64 431/118/64
f 346/119/65 402/120/65 497/121/65 401/122/65
f 347/123/66 403/124/66 497/121/66 402/120/66
f 348/95/67 404/92/67 497/121/67 403/124/67
f 349/91/68 405/125/68 497/121/68 404/92/68
f 350/40/69 401/122/69 497/121/69 405/125/69
f 385/126/70 452/127/70 498/128/70 454/129/70
f 384/70/71 457/69/71 498/128/71 452/127/71
f 374/68/72 434/130/72 498/128/72 457/69/72
f 373/131/73 439/132/73 498/128/73 434/130/73
f 360/133/74 416/134/74 498/128/74 439/132/74
f 359/135/75 454/129/75 498/128/75 416/134/75
f 351/53/76 408/136/76 499/137/76 407/54/76
f 352/11/77 409/15/77 499/137/77 408/136/77
f 353/14/78 410/25/78 499/137/78 409/15/78
f 354/24/79 411/88/79 499/137/79 410/25/79
f 355/55/80 407/54/80 499/137/80 411/88/80
f 356/44/81 413/138/81 500/101/81 412/139/81
f 357/101/82 414/140/82 500/101/82 413/138/82
f 358/111/83 415/141/83 500/101/83 414/140/83
f 359/142/84 416/101/84 500/101/84 415/141/84
f 360/133/85 412/139/85 500/101/85 416/101/85
f 364/19/86 421/143/86 501/144/86 447/20/86
f 363/145/175 455/146/175 501/144/175 421/143/175
f 382/147/88 449/148/88 501/144/88 455/146/88
f 381/149/89 453/150/89 501/144/89 449/148/89
f 376/151/176 440/152/176 501/144/176 453/150/176
f 380/21/91 447/20/91 501/144/91 440/152/91
f 361/7/92 419/153/92 502/154/92 418/8/92
f 362/155/93 420/156/93 502/154/93 419/153/93
f 363/145/94 421/143/94 502/154/94 420/156/94
f 364/19/95 422/18/95 502/154/95 421/143/95
f 365/9/96 418/8/96 502/154/96 422/18/96
f 398/157/97 478/158/97 503/159/97 485/160/97
f 397/161/98 483/162/98 503/159/98 478/158/98
f 366/163/99 424/164/99 503/159/99 483/162/99
f 370/165/100 429/166/100 503/159/100 424/164/100
f 362/155/101 419/167/101 503/159/101 429/166/101
f 361/168/102 485/160/102 503/159/102 419/167/102
f 366/163/103 425/169/103 504/170/103 424/164/103
f 367/81/104 426/114/104 504/170/104 425/169/104
f 368/64/105 427/61/105 504/170/105 426/114/105
f 369/60/106 428/171/106 504/170/106 427/61/106
f 370/165/107 424/164/107 504/170/107 428/171/107
f 371/117/108 432/172/108 505/173/108 431/118/108
f 372/38/109 433/35/109 505/173/109 432/172/109
f 373/34/110 434/174/110 505/173/110 433/35/110
f 374/68/111 435/67/111 505/173/111 434/174/111
f 375/66/112 431/118/112 505/173/112 435/67/112
f 345/79/113 406/175/113 506/176/113 436/116/113
f 346/119/114 401/122/114 506/176/114 406/175/114
f 350/40/115 437/39/115 506/176/115 401/122/115
f 372/38/116 432/172/116 506/176/116 437/39/116
f 371/117/117 436/116/117 506/176/117 432/172/117
f 376/151/118 441/177/118 507/178/118 440/152/118
f 377/179/119 442/180/119 507/178/119 441/177/119
f 378/29/177 443/28/177 507/178/177 442/180/177
f 379/23/121 444/22/121 507/178/121 443/28/121
f 380/21/122 440/152/122 507/178/122 444/22/122
f 363/145/123 420/156/123 508/181/123 455/146/123
f 362/155/124 429/166/124 508/181/124 420/156/124
f 370/165/125 428/182/125 508/181/125 429/166/125
f 369/183/126 456/184/126 508/181/126 428/182/126
f 383/185/127 450/186/127 508/181/127 456/184/127
f 382/147/128 455/146/128 508/181/128 450/186/128
f 381/149/129 449/148/129 509/187/129 448/188/129
f 382/147/130 450/186/130 509/187/130 449/148/130
f 383/185/131 451/189/131 509/187/131 450/186/131
f 384/70/174 452/127/174 509/187/174 451/189/174
f 385/126/133 448/188/133 509/187/133 452/127/133
f 377/179/134 441/177/134 510/190/134 445/191/134
f 376/151/135 453/150/135 510/190/135 441/177/135
f 381/149/136 448/192/136 510/190/136 453/150/136
f 385/193/137 454/194/137 510/190/137 448/192/137
f 359/142/138 415/195/138 510/190/138 454/194/138
f 358/196/139 445/191/139 510/190/139 415/195/139
f 386/33/140 459/32/140 511/197/140 458/89/140
f 387/31/141 460/105/141 511/197/141 459/32/141
f 388/104/142 461/198/142 511/197/142 460/105/142
f 389/97/143 462/199/143 511/197/143 461/198/143
f 390/90/144 458/89/144 511/197/144 462/199/144
f 395/200/145 471/201/145 512/202/145 473/203/145
f 394/84/146 474/87/146 512/202/146 471/201/146
f 390/90/147 462/199/147 512/202/147 474/87/147
f 389/97/148 464/96/148 512/202/148 462/199/148
f 348/95/149 403/124/149 512/202/149 464/96/149
f 347/123/150 473/203/150 512/202/150 403/124/150
f 391/204/151 468/205/151 513/206/151 467/207/151
f 392/208/152 469/209/152 513/206/152 468/205/152
f 393/57/153 470/85/153 513/206/153 469/209/153
f 394/84/154 471/201/154 513/206/154 470/85/154
f 395/200/155 467/207/155 513/206/155 471/201/155
f 345/79/156 472/210/156 514/211/156 406/175/156
f 391/204/157 467/207/157 514/211/157 472/210/157
f 395/200/158 473/203/158 514/211/158 467/207/158
f 347/123/159 402/120/159 514/211/159 473/203/159
f 346/119/160 406/175/160 514/211/160 402/120/160
f 396/212/161 477/213/161 515/214/161 476/215/161
f 397/73/162 478/216/162 515/214/162 477/213/162
f 398/157/163 479/217/163 515/214/163 478/216/163
f 399/1/164 480/218/164 515/214/164 479/217/164
f 400/47/165 476/215/165 515/214/165 480/218/165
f 345/79/166 481/219/166 516/220/166 472/210/166
f 396/212/167 476/221/167 516/220/167 481/219/167
f 400/222/168 482/223/168 516/220/168 476/221/168
f 392/208/169 468/205/169 516/220/169 482/223/169
f 391/204/170 472/210/170 516/220/170 468/205/170
