# Blender 4.3.0
# www.blender.org
mtllib Grass.mtl
o Grass
v -0.178313 -0.081896 1.000000
v -0.178313 0.081896 1.000000
v -0.178313 1.308475 -0.458884
v -0.178313 1.459674 -0.463412
v 0.178313 -0.081896 1.000000
v 0.178313 0.081896 1.000000
v 0.178313 1.431702 -0.344913
v 0.178313 1.582902 -0.349441
v -0.232764 0.790589 0.402283
v -0.232764 0.969639 0.425628
v 0.123862 0.790589 0.402283
v 0.123862 0.969639 0.425628
v -0.256401 1.313239 0.064720
v 0.100224 1.149447 0.064720
v -0.256401 1.149447 0.064720
v 0.100224 1.313239 0.064720
v -0.022373 -0.312852 1.259327
v -0.022373 -0.173818 1.259327
v -1.260748 0.867365 1.259327
v -1.264592 0.995711 1.259327
v -0.022373 -0.312852 0.956605
v -0.022373 -0.173818 0.956605
v -1.164004 0.971967 0.956605
v -1.167847 1.100313 0.956605
v -0.529746 0.427757 1.305548
v -0.509929 0.579744 1.305548
v -0.529746 0.427757 1.002826
v -0.509929 0.579744 1.002826
v -0.816286 0.871409 1.325612
v -0.816286 0.732374 1.022891
v -0.816286 0.732374 1.325612
v -0.816286 0.871409 1.022891
v -0.032785 -0.312852 0.905869
v -0.032785 -0.173818 0.905869
v 1.205591 0.867365 0.905869
v 1.209434 0.995711 0.905869
v -0.032785 -0.312852 1.208591
v -0.032785 -0.173818 1.208591
v 1.108846 0.971967 1.208591
v 1.112690 1.100313 1.208591
v 0.474588 0.427757 0.859648
v 0.454772 0.579744 0.859648
v 0.474588 0.427757 1.162370
v 0.454772 0.579744 1.162370
v 0.761129 0.871409 0.839584
v 0.761129 0.732374 1.142305
v 0.761129 0.732374 0.839584
v 0.761129 0.871409 1.142305
v 0.123155 -0.081896 1.165196
v 0.123155 0.081896 1.165196
v 0.123156 1.308475 2.624080
v 0.123156 1.459674 2.628608
v -0.233470 -0.081896 1.165196
v -0.233470 0.081896 1.165196
v -0.233470 1.431702 2.510109
v -0.233470 1.582902 2.514637
v 0.177606 0.790589 1.762913
v 0.177606 0.969639 1.739568
v -0.179019 0.790589 1.762913
v -0.179019 0.969639 1.739568
v 0.201244 1.313239 2.100476
v -0.155381 1.149447 2.100476
v 0.201244 1.149447 2.100476
v -0.155381 1.313239 2.100476
vn -0.9891 -0.0021 -0.1475
vn 0.3132 -0.0284 -0.9493
vn 0.9964 0.0057 -0.0840
vn -0.0000 -0.0000 1.0000
vn -0.0000 -0.5652 -0.8250
vn -0.0000 0.5432 0.8396
vn -0.0000 0.7243 0.6895
vn -0.0000 -0.6852 -0.7284
vn 0.9980 0.0043 -0.0632
vn -0.9964 -0.0057 0.0840
vn 0.9822 0.0027 0.1880
vn 0.2167 -0.8961 -0.3874
vn -0.2148 0.9061 0.3645
vn -0.9980 -0.0043 0.0632
vn -0.1475 -0.0021 0.9891
vn -0.9493 -0.0284 -0.3132
vn -0.0840 0.0057 -0.9964
vn 1.0000 -0.0000 -0.0000
vn -0.8250 -0.5652 -0.0000
vn 0.8396 0.5432 -0.0000
vn 0.6895 0.7243 -0.0000
vn -0.7284 -0.6852 -0.0000
vn -0.0632 0.0043 -0.9980
vn 0.0840 -0.0057 0.9964
vn 0.1880 0.0027 -0.9822
vn -0.3874 -0.8961 -0.2167
vn 0.3645 0.9061 0.2148
vn 0.0632 -0.0043 0.9980
vn 0.1475 -0.0021 -0.9891
vn 0.9493 -0.0284 0.3132
vn 0.0840 0.0057 0.9964
vn -1.0000 -0.0000 -0.0000
vn 0.8250 -0.5652 -0.0000
vn -0.8396 0.5432 -0.0000
vn -0.6895 0.7243 -0.0000
vn 0.7284 -0.6852 -0.0000
vn 0.0632 0.0043 0.9980
vn -0.0840 -0.0057 -0.9964
vn -0.1880 0.0027 0.9822
vn 0.3874 -0.8961 0.2167
vn -0.3645 0.9061 -0.2148
vn -0.0632 -0.0043 -0.9980
vn 0.9891 -0.0021 0.1475
vn -0.3132 -0.0284 0.9493
vn -0.9964 0.0057 0.0840
vn -0.0000 -0.0000 -1.0000
vn -0.0000 -0.5652 0.8250
vn -0.0000 0.5432 -0.8396
vn -0.0000 0.7243 -0.6895
vn -0.0000 -0.6852 0.7284
vn -0.9980 0.0043 0.0632
vn 0.9964 -0.0057 -0.0840
vn -0.9822 0.0027 -0.1880
vn -0.2167 -0.8961 0.3874
vn 0.2148 0.9061 -0.3645
vn 0.9980 -0.0043 -0.0632
vt 0.572242 0.181018
vt 0.822242 0.181018
vt 0.625000 0.250000
vt 0.375000 0.250000
vt 0.625000 0.500000
vt 0.375000 0.500000
vt 0.375000 0.625000
vt 0.625000 0.625000
vt 0.625000 0.750000
vt 0.375000 0.750000
vt 0.625000 1.000000
vt 0.375000 1.000000
vt 0.125000 0.625000
vt 0.125000 0.750000
vt 0.875000 0.625000
vt 0.875000 0.750000
vt 0.631737 0.657200
vt 0.881737 0.657199
vt 0.118263 0.657199
vt 0.572242 0.568982
vt 0.375000 0.000000
vt 0.625000 0.000000
vt 0.625000 0.125000
vt 0.375000 0.125000
vt 0.125000 0.500000
vt 0.875000 0.500000
s 0
f 15/1/1 13/2/1 4/3/1 3/4/1
f 3/4/2 4/3/2 8/5/2 7/6/2
f 11/7/3 12/8/3 6/9/3 5/10/3
f 5/10/4 6/9/4 2/11/4 1/12/4
f 9/13/5 11/7/5 5/10/5 1/14/5
f 12/8/6 10/15/6 2/16/6 6/9/6
f 16/17/7 13/18/7 10/15/7 12/8/7
f 15/19/8 14/20/8 11/7/8 9/13/8
f 14/20/9 16/17/9 12/8/9 11/7/9
f 1/21/10 2/22/10 10/23/10 9/24/10
f 7/6/11 8/5/11 16/17/11 14/20/11
f 3/25/12 7/6/12 14/20/12 15/19/12
f 8/5/13 4/26/13 13/18/13 16/17/13
f 9/24/14 10/23/14 13/2/14 15/1/14
f 31/1/15 29/2/15 20/3/15 19/4/15
f 19/4/16 20/3/16 24/5/16 23/6/16
f 27/7/17 28/8/17 22/9/17 21/10/17
f 21/10/18 22/9/18 18/11/18 17/12/18
f 25/13/19 27/7/19 21/10/19 17/14/19
f 28/8/20 26/15/20 18/16/20 22/9/20
f 32/17/21 29/18/21 26/15/21 28/8/21
f 31/19/22 30/20/22 27/7/22 25/13/22
f 30/20/23 32/17/23 28/8/23 27/7/23
f 17/21/24 18/22/24 26/23/24 25/24/24
f 23/6/25 24/5/25 32/17/25 30/20/25
f 19/25/26 23/6/26 30/20/26 31/19/26
f 24/5/27 20/26/27 29/18/27 32/17/27
f 25/24/28 26/23/28 29/2/28 31/1/28
f 47/1/29 45/2/29 36/3/29 35/4/29
f 35/4/30 36/3/30 40/5/30 39/6/30
f 43/7/31 44/8/31 38/9/31 37/10/31
f 37/10/32 38/9/32 34/11/32 33/12/32
f 41/13/33 43/7/33 37/10/33 33/14/33
f 44/8/34 42/15/34 34/16/34 38/9/34
f 48/17/35 45/18/35 42/15/35 44/8/35
f 47/19/36 46/20/36 43/7/36 41/13/36
f 46/20/37 48/17/37 44/8/37 43/7/37
f 33/21/38 34/22/38 42/23/38 41/24/38
f 39/6/39 40/5/39 48/17/39 46/20/39
f 35/25/40 39/6/40 46/20/40 47/19/40
f 40/5/41 36/26/41 45/18/41 48/17/41
f 41/24/42 42/23/42 45/2/42 47/1/42
f 63/1/43 61/2/43 52/3/43 51/4/43
f 51/4/44 52/3/44 56/5/44 55/6/44
f 59/7/45 60/8/45 54/9/45 53/10/45
f 53/10/46 54/9/46 50/11/46 49/12/46
f 57/13/47 59/7/47 53/10/47 49/14/47
f 60/8/48 58/15/48 50/16/48 54/9/48
f 64/17/49 61/18/49 58/15/49 60/8/49
f 63/19/50 62/20/50 59/7/50 57/13/50
f 62/20/51 64/17/51 60/8/51 59/7/51
f 49/21/52 50/22/52 58/23/52 57/24/52
f 55/6/53 56/5/53 64/17/53 62/20/53
f 51/25/54 55/6/54 62/20/54 63/19/54
f 56/5/55 52/26/55 61/18/55 64/17/55
f 57/24/56 58/23/56 61/2/56 63/1/56
