# Blender 4.3.0
# www.blender.org
mtllib Hammer.mtl
o Cube.045
v -0.200460 -0.200460 -0.628626
v -0.200460 0.200460 -0.628626
v 0.200460 -0.200460 -0.628626
v 0.200460 0.200460 -0.628626
v -0.515652 0.181034 -0.275586
v -0.515652 0.181034 -0.584035
v -0.515652 -0.181034 -0.584035
v 0.515652 -0.181034 -0.584035
v 0.515652 0.181034 -0.584035
v 0.515652 -0.181034 -0.275586
v -0.515652 -0.181034 -0.275586
v 0.515652 0.181034 -0.275586
v -0.200460 -0.004964 1.091658
v -0.004964 -0.200460 1.091658
v -0.143201 -0.143201 1.091658
v -0.004964 0.200460 1.091658
v -0.200460 0.004964 1.091658
v -0.143201 0.143201 1.091658
v 0.004964 -0.200460 1.091658
v 0.200460 -0.004964 1.091658
v 0.143201 -0.143201 1.091658
v 0.200460 0.004964 1.091658
v 0.004964 0.200460 1.091658
v 0.143201 0.143201 1.091658
v -0.004964 -0.200460 -0.230996
v -0.200460 -0.004964 -0.230996
v -0.395466 -0.214286 -0.230996
v -0.143201 -0.143201 -0.230996
v -0.200460 0.004964 -0.230996
v -0.004964 0.200460 -0.230996
v -0.395466 0.214286 -0.230996
v -0.143201 0.143201 -0.230996
v 0.200460 -0.004964 -0.230996
v 0.004964 -0.200460 -0.230996
v 0.395466 -0.214286 -0.230996
v 0.143201 -0.143201 -0.230996
v 0.004964 0.200460 -0.230996
v 0.200460 0.004964 -0.230996
v 0.395466 0.214286 -0.230996
v 0.143201 0.143201 -0.230996
vn -0.1401 -0.0000 -0.9901
vn -0.0000 -0.0000 -1.0000
vn -0.0000 -0.8539 -0.5204
vn -0.0000 -1.0000 -0.0000
vn -0.0000 1.0000 -0.0000
vn 1.0000 -0.0000 -0.0000
vn -0.0000 0.9168 0.3994
vn 0.1917 -0.0000 0.9815
vn -0.0000 -0.0000 1.0000
vn -1.0000 -0.0000 -0.0000
vn -0.0000 0.8539 -0.5204
vn -0.1917 -0.0000 0.9815
vn 0.1401 -0.0000 -0.9901
vn -0.0000 -0.9168 0.3994
vn -0.3827 -0.9239 -0.0000
vn -0.9239 -0.3827 -0.0000
vn 0.3827 0.9239 -0.0000
vn 0.9239 0.3827 -0.0000
vn -0.3827 0.9239 -0.0000
vn -0.9239 0.3827 -0.0000
vn 0.3827 -0.9239 -0.0000
vn 0.9239 -0.3827 -0.0000
vt 0.633865 0.296249
vt 0.612213 0.296249
vt 0.633865 0.317902
vt 0.612213 0.317902
vt 0.612213 0.326438
vt 0.601655 0.326438
vt 0.601118 0.326438
vt 0.590560 0.326438
vt 0.485462 0.853045
vt 0.485998 0.853045
vt 0.485998 0.866162
vt 0.485462 0.866162
vt 0.528767 0.853045
vt 0.529303 0.853045
vt 0.529303 0.866162
vt 0.528767 0.866162
vt 0.507114 0.853045
vt 0.507650 0.853045
vt 0.507650 0.866162
vt 0.507114 0.866162
vt 0.633865 0.326438
vt 0.623307 0.326438
vt 0.622771 0.326438
vt 0.496556 0.876721
vt 0.499648 0.869255
vt 0.515116 0.869255
vt 0.518209 0.876721
vt 0.518209 0.877257
vt 0.515116 0.884723
vt 0.507650 0.887815
vt 0.507114 0.887815
vt 0.499648 0.884723
vt 0.496556 0.877257
vt 0.612213 0.287714
vt 0.633865 0.287714
vt 0.655518 0.317902
vt 0.655518 0.326438
vt 0.590560 0.317902
vt 0.644960 0.326438
vt 0.644424 0.326438
vt 0.622771 0.287714
vt 0.623307 0.287714
vt 0.554363 0.449477
vt 0.546898 0.449477
vt 0.543805 0.449477
vt 0.576552 0.410753
vt 0.584018 0.410753
vt 0.587111 0.410753
vt 0.576016 0.449477
vt 0.568550 0.449477
vt 0.565458 0.449477
vt 0.597669 0.449477
vt 0.590203 0.449477
vt 0.587111 0.449477
vt 0.474903 0.866162
vt 0.474903 0.853045
vt 0.496556 0.814321
vt 0.496556 0.801204
vt 0.507114 0.801204
vt 0.507114 0.814321
vt 0.518209 0.866162
vt 0.518209 0.853045
vt 0.539861 0.853045
vt 0.539861 0.866162
vt 0.518209 0.801204
vt 0.518209 0.814321
vt 0.507650 0.814321
vt 0.507650 0.801204
vt 0.496556 0.853045
vt 0.496556 0.866162
s 0
usemtl Upgrade
f 2/1/1 1/2/1 7/2/1 6/1/1
f 1/2/2 2/1/2 4/3/2 3/4/2
f 35/5/3 34/6/3 25/7/3 27/8/3 11/8/3 10/5/3
f 25/9/4 34/10/4 19/11/4 14/12/4
f 37/13/5 30/14/5 16/15/5 23/16/5
f 33/17/6 38/18/6 22/19/6 20/20/6
f 4/3/7 2/1/7 6/1/7 9/3/7
f 39/21/8 38/22/8 33/23/8 35/5/8 10/5/8 12/21/8
f 19/24/9 21/25/9 20/20/9 22/19/9 24/26/9 23/27/9 16/28/9 18/29/9 17/30/9 13/31/9 15/32/9 14/33/9
f 11/34/10 5/35/10 6/1/10 7/2/10
f 9/3/5 6/36/5 5/37/5 12/21/5
f 7/38/4 8/4/4 10/5/4 11/8/4
f 8/4/6 9/3/6 12/21/6 10/5/6
f 31/37/11 30/39/11 37/40/11 39/21/11 12/21/11 5/37/11
f 27/34/12 26/41/12 29/42/12 31/35/12 5/35/12 11/34/12
f 3/4/13 4/3/13 9/3/13 8/4/13
f 1/2/14 3/4/14 8/4/14 7/2/14
f 25/43/9 28/44/9 27/45/9
f 28/44/9 26/45/9 27/45/9
f 29/46/9 32/47/9 31/48/9
f 32/47/9 30/48/9 31/48/9
f 33/49/9 36/50/9 35/51/9
f 36/50/9 34/51/9 35/51/9
f 37/52/9 40/53/9 39/54/9
f 40/53/9 38/54/9 39/54/9
f 25/9/15 14/12/15 15/55/15 28/56/15
f 28/57/16 15/58/16 13/59/16 26/60/16
f 37/13/17 23/16/17 24/61/17 40/62/17
f 40/62/18 24/61/18 22/19/18 38/18/18
f 16/15/19 30/14/19 32/63/19 18/64/19
f 18/65/20 32/66/20 29/67/20 17/68/20
f 19/11/21 34/10/21 36/69/21 21/70/21
f 21/70/22 36/69/22 33/17/22 20/20/22
f 13/59/10 17/68/10 29/67/10 26/60/10
