# Blender 4.3.0
# www.blender.org
mtllib MushroomRed.mtl
o Mushroom_3_rotated
v 0.000000 0.000000 -1.045213
v -0.476303 0.000000 -0.847922
v -0.673594 0.000000 -0.371619
v -0.476303 0.000000 0.104683
v 0.000000 0.000000 0.301974
v 0.476303 0.000000 0.104683
v 0.673594 0.000000 -0.371619
v 0.476303 0.000000 -0.847922
v 0.000000 0.345308 -1.404047
v -0.730037 0.345308 -1.101656
v -1.032428 0.345308 -0.371619
v -0.730037 0.345308 0.358417
v 0.000000 0.345308 0.660808
v 0.730037 0.345308 0.358417
v 1.032428 0.345308 -0.371619
v 0.730037 0.345308 -1.101656
v 0.000000 0.743740 -1.187386
v -0.607479 0.743740 -0.935760
v -0.859105 0.743740 -0.328281
v -0.607479 0.743740 0.279198
v 0.000000 0.743740 0.530824
v 0.607479 0.743740 0.279198
v 0.859105 0.743740 -0.328281
v 0.607479 0.743740 -0.935760
v 0.035247 1.617503 -0.835136
v -0.425123 1.594168 -0.651376
v -0.619766 1.549750 -0.197069
v -0.434660 1.510268 0.261658
v 0.021760 1.498850 0.456089
v 0.482130 1.522185 0.272329
v 0.676772 1.566603 -0.181978
v 0.491667 1.606085 -0.640705
v -0.347640 2.494948 -0.107371
v -0.244018 2.472846 0.149424
v 0.011486 2.466454 0.258266
v 0.019036 2.532876 -0.464561
v -0.238679 2.519813 -0.361692
v 0.269201 2.479517 0.155398
v 0.378161 2.504382 -0.098923
v 0.274540 2.526484 -0.355718
v 0.037344 2.363526 -1.848363
v -1.187891 2.301424 -1.359302
v -1.705913 2.183209 -0.150205
v -1.213273 2.078131 1.070656
v 0.001449 2.047743 1.588117
v 1.226684 2.109845 1.099056
v 1.744707 2.228059 -0.110041
v 1.252066 2.333138 -1.330902
v 0.039300 2.599003 -2.279328
v -1.505953 2.520680 -1.662530
v -2.159277 2.371589 -0.137630
v -1.537964 2.239066 1.402107
v -0.005971 2.200741 2.054723
v 1.539282 2.279064 1.437925
v 2.192606 2.428154 -0.086975
v 1.571293 2.560677 -1.626712
v 0.035718 2.914165 -2.323583
v -1.561273 2.833220 -1.686133
v -2.236472 2.679137 -0.110175
v -1.594356 2.542177 1.481115
v -0.011068 2.502568 2.155583
v 1.585924 2.583514 1.518133
v 2.261123 2.737596 -0.057825
v 1.619007 2.874557 -1.649115
v 0.017589 3.794681 -1.749302
v -1.230443 3.731423 -1.251142
v -1.758104 3.611009 -0.019547
v -1.256297 3.503976 1.224030
v -0.018974 3.473023 1.751118
v 1.229059 3.536280 1.252958
v 1.756719 3.656694 0.021364
v 1.254912 3.763727 -1.222213
v -0.006910 4.688492 -0.642606
v -0.530367 4.661960 -0.433665
v -0.751681 4.611455 0.082897
v -0.541210 4.566563 0.604485
v -0.022245 4.553580 0.825560
v 0.501211 4.580112 0.616619
v 0.722526 4.630617 0.100057
v 0.512055 4.675509 -0.421531
v -0.016998 4.988013 -0.110387
v -0.183546 4.979571 -0.043908
v -0.253961 4.963502 0.120446
v -0.186996 4.949218 0.286400
v -0.021877 4.945088 0.356739
v 0.144671 4.953530 0.290260
v 0.215086 4.969599 0.125906
v 0.148121 4.983882 -0.040048
v -0.742884 3.649840 -1.664521
v -0.980461 3.478682 -1.859325
v -0.644904 3.492973 -1.963651
v -0.441173 3.469624 -1.677930
v -0.984119 3.446502 -1.509131
v -0.825577 3.192679 -1.993133
v -0.492281 3.187082 -1.881021
v -1.035226 3.163960 -1.712223
v -0.686116 3.616109 -1.834979
v -0.883350 3.607709 -1.773659
v -0.825759 3.515505 -1.949483
v -1.025143 3.488189 -1.682324
v -0.885500 3.588794 -1.567821
v -0.566366 3.602384 -1.667038
v -0.508773 3.510181 -1.842861
v -0.689595 3.585504 -1.501925
v -0.512252 3.479576 -1.509805
v -0.831388 3.465985 -1.410588
v -1.055186 3.322115 -1.801698
v -1.057336 3.303200 -1.595859
v -0.734721 3.347397 -2.028134
v -0.931958 3.338997 -1.966814
v -0.419064 3.330383 -1.794294
v -0.538813 3.344107 -1.962237
v -0.964148 3.154008 -1.880347
v -0.645012 3.167599 -1.979565
v -0.786805 3.048080 -1.888228
v -0.910034 3.031199 -1.723115
v -0.590900 3.044789 -1.822332
v -0.780679 4.566080 0.559372
v -1.018255 4.394922 0.364568
v -0.682698 4.409213 0.260242
v -0.688617 4.357144 0.826873
v -1.021913 4.362742 0.714762
v -0.869290 4.056850 0.797392
v -1.073021 4.080200 0.511671
v -0.723910 4.532349 0.388914
v -0.921144 4.523949 0.450235
v -0.863554 4.431745 0.274410
v -1.062938 4.404429 0.541570
v -0.923294 4.505034 0.656072
v -0.604160 4.518625 0.556855
v -0.546568 4.426421 0.381032
v -0.727389 4.501744 0.721969
v -0.550047 4.395816 0.714088
v -0.869183 4.382225 0.813306
v -1.092980 4.238355 0.422196
v -1.095130 4.219440 0.628034
v -0.772515 4.263637 0.195759
v -0.969752 4.255237 0.257080
v -0.582237 4.210827 0.800555
v -0.975381 4.205717 0.795978
v -0.779473 4.202427 0.861875
v -1.001942 4.070248 0.343546
v -0.688435 4.034319 0.783224
v -1.005421 4.039643 0.676602
v -0.947828 3.947439 0.500779
v -0.777950 3.473871 1.544590
v -1.015527 3.302713 1.349786
v -0.476239 3.293655 1.531182
v -0.685888 3.264935 1.812091
v -1.019184 3.270533 1.699980
v -0.531005 2.978933 1.678284
v -0.866562 2.964642 1.782610
v -1.070292 2.987991 1.496889
v -0.721181 3.440140 1.374132
v -0.918415 3.431740 1.435453
v -0.860825 3.339535 1.259628
v -1.060209 3.312220 1.526788
v -0.920565 3.412825 1.641290
v -0.601432 3.426416 1.542073
v -0.724660 3.409535 1.707187
v -0.547318 3.303607 1.699306
v -0.866454 3.290016 1.798524
v -1.090251 3.146146 1.407414
v -1.092401 3.127231 1.613252
v -0.579508 3.118618 1.785773
v -0.456280 3.135499 1.620656
v -0.972652 3.113508 1.781197
v -0.776744 3.110218 1.847093
v -0.685707 2.942110 1.768442
v -1.002692 2.947433 1.661820
v -0.945100 2.855230 1.485997
v -0.628116 2.849906 1.592617
v -0.825350 2.841506 1.653938
v 1.800354 3.643733 0.088413
v 1.934242 3.486020 -0.195994
v 2.099144 3.459940 0.113546
v 1.854704 3.433432 0.365010
v 2.071343 3.178241 -0.095168
v 2.022187 3.145740 0.251548
v 1.878228 3.609505 -0.073391
v 1.674649 3.603397 -0.038031
v 1.753345 3.510695 -0.205201
v 1.645756 3.584293 0.165762
v 1.975155 3.594175 0.108550
v 2.053854 3.501474 -0.058619
v 1.831477 3.578595 0.256356
v 2.007102 3.470564 0.271129
v 1.677701 3.460682 0.328342
v 1.851790 3.341595 -0.271893
v 2.134440 3.320567 0.000645
v 2.037513 3.335896 -0.181300
v 1.961868 3.285882 0.352247
v 2.105546 3.301463 0.204439
v 1.758287 3.279774 0.387607
v 1.932376 3.160687 -0.212628
v 2.089204 3.135885 0.081760
v 1.856731 3.110673 0.320916
v 1.964321 3.037076 -0.050048
v 1.935428 3.017972 0.153745
v -1.485911 3.952324 -0.471549
v -1.723487 3.781167 -0.666353
v -1.387930 3.795458 -0.770679
v -1.727145 3.748987 -0.316159
v -1.568604 3.495164 -0.800161
v -1.778253 3.466444 -0.519251
v -1.429142 3.918594 -0.642007
v -1.626376 3.910194 -0.580687
v -1.568786 3.817990 -0.756511
v -1.768170 3.790674 -0.489352
v -1.628526 3.891279 -0.374849
v -1.309393 3.904870 -0.474066
v -1.251800 3.812665 -0.649890
v -1.432621 3.887989 -0.308953
v -1.574415 3.768470 -0.217616
v -1.798212 3.624600 -0.608726
v -1.800362 3.605685 -0.402887
v -1.477748 3.649882 -0.835162
v -1.674984 3.641482 -0.773842
v -1.281840 3.646592 -0.769266
v -1.680613 3.591961 -0.234943
v -1.707174 3.456492 -0.687375
v -1.388038 3.470083 -0.786593
v -1.710653 3.425887 -0.354319
v -1.529832 3.350564 -0.695256
v -1.653061 3.333684 -0.530143
v 1.202507 4.365731 -0.376648
v 0.964931 4.194573 -0.571452
v 1.300488 4.208864 -0.675778
v 1.504218 4.185516 -0.390057
v 1.294569 4.156796 -0.109147
v 0.961273 4.162393 -0.221258
v 1.119814 3.908571 -0.705260
v 1.453110 3.902973 -0.593149
v 1.449452 3.870794 -0.242955
v 1.259276 4.332000 -0.547107
v 1.062042 4.323600 -0.485786
v 1.119632 4.231396 -0.661610
v 0.920248 4.204081 -0.394451
v 1.059892 4.304686 -0.279948
v 1.379025 4.318276 -0.379165
v 1.436618 4.226072 -0.554989
v 1.255797 4.301395 -0.214052
v 1.433139 4.195467 -0.221933
v 1.114003 4.181876 -0.122715
v 1.210670 4.063288 -0.740261
v 1.013434 4.054889 -0.678941
v 1.526327 4.046275 -0.506420
v 1.406578 4.059999 -0.674365
v 1.400949 4.010478 -0.135466
v 1.524177 4.027360 -0.300582
v 1.203712 4.002079 -0.074146
v 1.300379 3.883491 -0.691692
v 1.494135 3.861286 -0.419956
v 1.294750 3.833971 -0.152797
v 1.158586 3.763972 -0.600355
v 1.354491 3.760681 -0.534459
v 1.352341 3.741767 -0.328621
v 0.322205 4.203365 1.258154
v 0.084629 4.032207 1.063350
v 0.420186 4.046498 0.959024
v 0.623916 4.023149 1.244745
v 0.414268 3.994430 1.525655
v 0.080971 4.000027 1.413544
v 0.569151 3.708427 1.391848
v 0.233594 3.694136 1.496174
v 0.378974 4.169634 1.087696
v 0.181740 4.161234 1.149017
v 0.239331 4.069030 0.973192
v 0.039946 4.041715 1.240352
v 0.179590 4.142319 1.354854
v 0.498724 4.155910 1.255637
v 0.556317 4.063706 1.079814
v 0.375495 4.139030 1.420751
v 0.552838 4.033101 1.412870
v 0.233702 4.019510 1.512088
v 0.007754 3.856725 1.326816
v 0.646026 3.883909 1.128382
v 0.526277 3.897632 0.960437
v 0.520648 3.848112 1.499336
v 0.643876 3.864994 1.334220
v 0.127503 3.843002 1.494760
v 0.323411 3.839712 1.560657
v 0.613833 3.698920 1.214846
v 0.414449 3.671604 1.482006
v 0.097463 3.676928 1.375384
v 1.139506 3.288254 1.541994
v 1.441217 3.108037 1.528585
v 1.231568 3.079318 1.809495
v 0.898271 3.084916 1.697384
v 1.386451 2.793316 1.675687
v 1.050894 2.779024 1.780013
v 1.196274 3.254523 1.371536
v 0.999040 3.246123 1.432856
v 0.857247 3.126603 1.524192
v 0.996890 3.227208 1.638694
v 1.316024 3.240798 1.539477
v 1.373617 3.148595 1.363654
v 1.192795 3.223918 1.704591
v 1.370138 3.117990 1.696710
v 1.051002 3.104399 1.795927
v 0.825054 2.941614 1.610656
v 1.463326 2.968797 1.412222
v 1.337948 2.933000 1.783176
v 1.461176 2.949883 1.618060
v 0.944804 2.927891 1.778600
v 1.140711 2.924600 1.844496
v 1.431134 2.783808 1.498686
v 1.231749 2.756493 1.765845
v 0.914764 2.761816 1.659224
v 1.289340 2.664289 1.590021
v 1.092106 2.655888 1.651342
v 1.277400 3.539192 -1.516807
v 1.039824 3.368034 -1.711611
v 1.375381 3.382325 -1.815937
v 1.579111 3.358976 -1.530216
v 1.369462 3.330257 -1.249306
v 1.194707 3.082032 -1.845418
v 1.528004 3.076434 -1.733307
v 1.524346 3.044254 -1.383113
v 1.334169 3.505461 -1.687265
v 1.136935 3.497061 -1.625944
v 1.194526 3.404857 -1.801769
v 0.995141 3.377542 -1.534609
v 1.134785 3.478147 -1.420107
v 1.453919 3.491737 -1.519324
v 1.511512 3.399534 -1.695147
v 1.330690 3.474856 -1.354210
v 1.508033 3.368929 -1.362091
v 0.965099 3.211468 -1.653983
v 1.285564 3.236749 -1.880420
v 1.088327 3.228349 -1.819099
v 1.601221 3.219736 -1.646579
v 1.481471 3.233459 -1.814523
v 1.475843 3.183939 -1.275625
v 1.599071 3.200821 -1.440741
v 1.056137 3.043360 -1.732633
v 1.375273 3.056951 -1.831851
v 1.569029 3.034747 -1.560115
v 1.233479 2.937432 -1.740514
v 1.429385 2.934142 -1.674617
v 1.427235 2.915227 -1.468780
v 0.118898 5.044072 -0.479171
v -0.118679 4.872914 -0.673975
v 0.216879 4.887205 -0.778301
v 0.420609 4.863856 -0.492580
v 0.210960 4.835137 -0.211670
v -0.122336 4.840734 -0.323781
v 0.036205 4.586912 -0.807783
v 0.369501 4.581314 -0.695671
v -0.173444 4.558192 -0.526873
v 0.175667 5.010341 -0.649629
v -0.021568 5.001941 -0.588309
v 0.036023 4.909737 -0.764133
v -0.163361 4.882421 -0.496974
v -0.023718 4.983027 -0.382471
v 0.295416 4.996617 -0.481688
v 0.353009 4.904413 -0.657511
v 0.172188 4.979737 -0.316575
v 0.349530 4.873808 -0.324456
v 0.030394 4.860217 -0.225238
v -0.193403 4.716347 -0.616348
v -0.195553 4.697433 -0.410509
v 0.127061 4.741630 -0.842784
v -0.070175 4.733229 -0.781464
v 0.442718 4.724616 -0.608943
v 0.322969 4.738339 -0.776888
v 0.317340 4.688819 -0.237989
v 0.440568 4.705701 -0.403105
v -0.102365 4.548240 -0.694997
v 0.216770 4.561831 -0.794215
v 0.410526 4.539627 -0.522479
v 0.074977 4.442312 -0.702878
v 0.270882 4.439022 -0.636981
vn 0.2761 -0.6926 0.6665
vn -0.6665 -0.6926 0.2761
vn -0.2761 -0.6926 -0.6665
vn 0.2761 -0.6926 -0.6665
vn 0.6665 -0.6926 0.2761
vn -0.2761 -0.6926 0.6665
vn -0.6665 -0.6926 -0.2761
vn 0.6665 -0.6926 -0.2761
vn 0.3420 0.4489 -0.8256
vn 0.8692 0.3389 0.3600
vn -0.3664 0.2886 0.8846
vn -0.8445 0.4054 -0.3498
vn 0.8445 0.4054 -0.3498
vn 0.3664 0.2886 0.8846
vn -0.8692 0.3389 0.3600
vn -0.3420 0.4489 -0.8256
vn -0.9022 0.2092 0.3773
vn -0.3586 0.3628 -0.8601
vn 0.3667 0.3399 -0.8660
vn 0.9105 0.1411 0.3886
vn -0.3836 0.1047 0.9176
vn -0.8800 0.3135 -0.3568
vn 0.8985 0.2529 -0.3587
vn 0.3751 0.0745 0.9240
vn 0.8899 0.3128 -0.3322
vn 0.3555 0.1908 0.9150
vn -0.8974 0.2222 0.3812
vn -0.3631 0.3441 -0.8659
vn 0.3741 0.3537 -0.8573
vn 0.8822 0.2453 0.4019
vn -0.3816 0.1813 0.9064
vn -0.8897 0.2896 -0.3529
vn 0.0988 -0.9876 0.1222
vn -0.0759 -0.9898 0.1201
vn -0.1964 -0.9642 -0.1784
vn 0.1032 -0.9490 -0.2980
vn 0.2237 -0.9747 0.0005
vn -0.1982 -0.9801 -0.0044
vn -0.0715 -0.9512 -0.3000
vn 0.2255 -0.9587 -0.1735
vn 0.4063 -0.8817 -0.2398
vn 0.1709 -0.9354 0.3094
vn -0.3809 -0.9216 0.0744
vn -0.1456 -0.8679 -0.4749
vn 0.1791 -0.8637 -0.4711
vn 0.4029 -0.9114 0.0835
vn -0.1537 -0.9396 0.3057
vn -0.3775 -0.8919 -0.2489
vn -0.8958 -0.1889 -0.4023
vn 0.9095 -0.1655 -0.3813
vn 0.3675 -0.2892 0.8839
vn -0.9036 -0.2574 0.3425
vn -0.3615 -0.1337 -0.9227
vn 0.3863 -0.1240 -0.9140
vn 0.9018 -0.2339 0.3635
vn -0.3803 -0.2989 0.8752
vn 0.3463 0.5175 -0.7825
vn 0.8203 0.4164 0.3921
vn -0.3586 0.3566 0.8627
vn -0.8326 0.4577 -0.3120
vn 0.8274 0.4793 -0.2926
vn 0.3290 0.3656 0.8707
vn -0.8397 0.3948 0.3728
vn -0.3413 0.5085 -0.7905
vn -0.6819 0.6521 0.3313
vn -0.2800 0.7438 -0.6069
vn 0.2746 0.7510 -0.6005
vn 0.6569 0.6695 0.3469
vn -0.2939 0.6213 0.7264
vn -0.6762 0.7028 -0.2210
vn 0.6626 0.7202 -0.2054
vn 0.2607 0.6285 0.7328
vn 0.5441 0.8258 -0.1485
vn 0.2121 0.7500 0.6265
vn -0.5665 0.7695 0.2948
vn -0.2345 0.8453 -0.4801
vn 0.2236 0.8512 -0.4748
vn 0.5393 0.7839 0.3077
vn -0.2460 0.7441 0.6212
vn -0.5618 0.8114 -0.1613
vn -0.0140 0.9957 0.0914
vn -0.0000 -1.0000 -0.0000
vn -0.1123 0.9670 -0.2287
vn -0.7066 0.6743 -0.2146
vn 0.2568 0.9608 -0.1046
vn 0.2528 0.9251 0.2832
vn -0.1189 0.9093 0.3988
vn -0.9067 0.3417 -0.2472
vn -0.0196 0.4150 -0.9096
vn 0.8882 0.3694 -0.2732
vn -0.7982 0.1680 -0.5785
vn 0.3146 0.2154 -0.9245
vn -0.3931 -0.6067 -0.6910
vn 0.4866 -0.5994 -0.6356
vn 0.2047 -0.7360 -0.6453
vn -0.0215 -0.5909 -0.8065
vn -0.4762 -0.7650 -0.4336
vn -0.7126 -0.6505 -0.2628
vn 0.5472 -0.2509 -0.7985
vn 0.3158 -0.0974 -0.9438
vn 0.0392 -0.2423 -0.9694
vn -0.5621 -0.2679 -0.7825
vn -0.7859 -0.1443 -0.6013
vn -0.8817 -0.3117 -0.3543
vn 0.8103 -0.0613 -0.5828
vn 0.7979 0.2499 -0.5485
vn 0.5777 0.4050 -0.7087
vn -0.2949 -0.0427 -0.9546
vn -0.2964 0.2683 -0.9166
vn -0.5310 0.3932 -0.7506
vn -0.9902 -0.1380 -0.0230
vn -0.9847 0.1740 0.0057
vn -0.9123 0.2927 0.2865
vn -0.4866 0.5994 0.6356
vn -0.2047 0.7360 0.6453
vn 0.4762 0.7650 0.4336
vn 0.7126 0.6505 0.2628
vn 0.7167 0.6861 -0.1250
vn 0.4836 0.8303 -0.2770
vn 0.4062 0.7217 -0.5605
vn -0.7122 0.6252 0.3192
vn -0.6181 0.7834 0.0655
vn -0.3445 0.9352 0.0823
vn 0.0370 0.7279 -0.6847
vn -0.1927 0.8416 -0.5045
vn -0.4744 0.7061 -0.5257
vn -0.1123 0.9670 -0.2288
vn 0.5621 0.2679 0.7825
vn -0.5472 0.2508 0.7985
vn 0.2950 0.0427 0.9546
vn -0.8103 0.0613 0.5828
vn -0.7167 -0.6861 0.1250
vn -0.8882 -0.3694 0.2732
vn -0.7979 -0.2499 0.5485
vn -0.5777 -0.4050 0.7087
vn 0.0196 -0.4150 0.9096
vn 0.2964 -0.2683 0.9166
vn -0.3146 -0.2154 0.9245
vn -0.3158 0.0974 0.9438
vn -0.0392 0.2423 0.9694
vn 0.0215 0.5909 0.8065
vn 0.3931 0.6067 0.6910
vn 0.2527 0.9252 0.2832
vn -0.5472 0.2509 0.7985
vn 0.2949 0.0427 0.9546
vn -0.0370 -0.7279 0.6847
vn -0.4836 -0.8303 0.2770
vn -0.4062 -0.7217 0.5605
vn 0.1927 -0.8416 0.5045
vn 0.4744 -0.7061 0.5257
vn 0.5310 -0.3932 0.7506
vn 0.7982 -0.1680 0.5785
vn 0.7859 0.1443 0.6013
vn 0.8817 0.3117 0.3543
vn -0.0705 0.9685 -0.2388
vn 0.2794 0.9578 -0.0681
vn 0.2249 0.9218 0.3158
vn -0.1586 0.9103 0.3824
vn 0.1027 0.4161 -0.9035
vn 0.9203 0.3590 -0.1555
vn 0.4596 0.2604 0.8491
vn 0.4337 0.2126 -0.8756
vn 0.9805 0.1261 0.1508
vn 0.1699 0.0382 0.9847
vn 0.5574 -0.6045 -0.5691
vn 0.6651 -0.6829 0.3022
vn 0.3944 -0.7123 0.5806
vn 0.6122 -0.7906 0.0127
vn 0.7400 -0.6334 -0.2263
vn 0.1726 -0.2728 0.9465
vn 0.4252 -0.4003 0.8118
vn 0.8632 -0.3528 0.3612
vn 0.9751 -0.1858 0.1208
vn 0.9381 -0.3033 -0.1673
vn 0.6426 -0.2565 -0.7220
vn 0.4337 -0.1001 -0.8955
vn -0.1610 0.2418 0.9569
vn 0.7149 -0.1781 0.6761
vn 0.7034 0.1343 0.6979
vn 0.8322 0.3008 0.4658
vn 0.8779 -0.0704 -0.4736
vn 0.8648 0.2410 -0.4404
vn 0.6689 0.3988 -0.6273
vn -0.2776 0.7377 0.6154
vn -0.0758 0.5897 0.8041
vn 0.3078 0.6012 0.7374
vn 0.4252 0.7588 0.4934
vn 0.6804 0.6416 0.3541
vn 0.7348 0.6776 -0.0298
vn 0.5250 0.8247 -0.2102
vn 0.4835 0.7174 -0.5016
vn -0.3412 0.9391 0.0397
vn 0.1335 0.7281 -0.6723
vn -0.1162 0.8444 -0.5229
vn 0.9902 0.1380 0.0230
vn 0.7066 -0.6743 0.2146
vn 0.6181 -0.7834 -0.0655
vn 0.7122 -0.6252 -0.3192
vn 0.9067 -0.3417 0.2472
vn 0.9847 -0.1740 -0.0057
vn 0.9123 -0.2927 -0.2865
vn 0.5472 -0.2508 -0.7985
vn -0.2950 -0.0427 -0.9546
vn 0.4061 0.7217 -0.5605
vn 0.4062 0.7217 -0.5606
vn 0.0371 0.7279 -0.6847
vn 0.2528 0.9252 0.2832
vt 0.100870 0.204516
vt 0.102753 0.203176
vt 0.099800 0.201390
vt 0.098943 0.203350
vt 0.135714 0.206400
vt 0.137972 0.205908
vt 0.136174 0.202617
vt 0.134541 0.204252
vt 0.132446 0.203425
vt 0.132964 0.201349
vt 0.130222 0.202847
vt 0.130657 0.204402
vt 0.098943 0.209600
vt 0.099800 0.210968
vt 0.102753 0.209949
vt 0.100870 0.208935
vt 0.101668 0.206829
vt 0.103976 0.206722
vt 0.135279 0.208609
vt 0.137305 0.209295
vt 0.128197 0.231936
vt 0.128208 0.229974
vt 0.125760 0.230088
vt 0.125256 0.232072
vt 0.121806 0.230600
vt 0.122890 0.228863
vt 0.121278 0.227017
vt 0.119870 0.228381
vt 0.136391 0.227079
vt 0.134983 0.225923
vt 0.133616 0.228157
vt 0.134748 0.229764
vt 0.131376 0.231405
vt 0.130810 0.229523
vt 0.128208 0.229220
vt 0.128249 0.231041
vt 0.094233 0.232501
vt 0.093918 0.230467
vt 0.090797 0.230467
vt 0.090482 0.232501
vt 0.101767 0.232501
vt 0.101452 0.230467
vt 0.098331 0.230467
vt 0.098017 0.232501
vt 0.131720 0.225135
vt 0.129602 0.226165
vt 0.101070 0.226525
vt 0.098714 0.226525
vt 0.097049 0.226007
vt 0.096125 0.229780
vt 0.095201 0.226007
vt 0.093535 0.226525
vt 0.091180 0.226525
vt 0.089514 0.226007
vt 0.088590 0.229780
vt 0.103659 0.229780
vt 0.102735 0.226007
vt 0.126905 0.226431
vt 0.124739 0.225506
vt 0.128208 0.222057
vt 0.126995 0.221539
vt 0.093017 0.221871
vt 0.091698 0.221871
vt 0.129394 0.221539
vt 0.128208 0.222116
vt 0.100551 0.221871
vt 0.099233 0.221871
vt 0.098300 0.221581
vt 0.093949 0.221581
vt 0.090766 0.221581
vt 0.101483 0.221581
vt 0.675542 0.306470
vt 0.667472 0.313818
vt 0.676075 0.319021
vt 0.677352 0.307565
vt 0.678629 0.319021
vt 0.687232 0.313818
vt 0.679161 0.306470
vt 0.679911 0.304298
vt 0.690795 0.303491
vt 0.687232 0.294090
vt 0.679161 0.302321
vt 0.677352 0.301697
vt 0.676075 0.291122
vt 0.667472 0.294090
vt 0.675542 0.302321
vt 0.674793 0.304298
vt 0.663909 0.303491
vt 0.678629 0.291122
vt 0.854028 0.143082
vt 0.857759 0.146193
vt 0.863185 0.131880
vt 0.858330 0.131733
vt 0.854028 0.119266
vt 0.857759 0.116157
vt 0.844662 0.108235
vt 0.843643 0.112985
vt 0.920844 0.119180
vt 0.917113 0.116071
vt 0.911687 0.131793
vt 0.916542 0.131646
vt 0.920844 0.142995
vt 0.917113 0.146106
vt 0.930210 0.150626
vt 0.931229 0.146579
vt 0.843643 0.146665
vt 0.844662 0.150712
vt 0.931229 0.112899
vt 0.930210 0.108149
vt 0.876682 0.082337
vt 0.875356 0.079723
vt 0.868509 0.090456
vt 0.870057 0.092722
vt 0.907520 0.091955
vt 0.905926 0.090160
vt 0.894483 0.102987
vt 0.896448 0.104366
vt 0.937049 0.105760
vt 0.937816 0.103125
vt 0.920909 0.100022
vt 0.920690 0.102758
vt 0.915056 0.115066
vt 0.909449 0.131315
vt 0.855373 0.101542
vt 0.857347 0.103449
vt 0.843643 0.106489
vt 0.845997 0.108235
vt 0.865423 0.131402
vt 0.859816 0.115153
vt 0.909638 0.094104
vt 0.909784 0.097031
vt 0.909638 0.077183
vt 0.899879 0.074552
vt 0.896978 0.084694
vt 0.888035 0.094717
vt 0.878289 0.098752
vt 0.882012 0.108149
vt 0.909449 0.112720
vt 0.900455 0.109693
vt 0.897623 0.120605
vt 0.905825 0.126684
vt 0.893225 0.138375
vt 0.887776 0.129742
vt 0.876682 0.131751
vt 0.879029 0.140946
vt 0.937816 0.092722
vt 0.924604 0.090297
vt 0.860475 0.083848
vt 0.850209 0.092512
vt 0.885493 0.113265
vt 0.881363 0.117097
vt 0.849536 0.076933
vt 0.845231 0.080567
vt 0.885738 0.074552
vt 0.884521 0.078806
vt 0.880770 0.083010
vt 0.876682 0.084702
vt 0.886681 0.108688
vt 0.876710 0.117940
vt 0.936208 0.079882
vt 0.930667 0.078865
vt 0.879307 0.076728
vt 0.878114 0.078066
vt 0.935174 0.074876
vt 0.933411 0.074552
vt 0.880256 0.110445
vt 0.878942 0.111665
vt 0.845013 0.074552
vt 0.843643 0.075708
vt 0.879694 0.075375
vt 0.876813 0.078604
vt 0.880634 0.108989
vt 0.877462 0.111933
vt 0.879855 0.108149
vt 0.878374 0.108417
vt 0.877060 0.109636
vt 0.876682 0.111093
vt 0.130222 0.206612
vt 0.131395 0.208759
vt 0.133490 0.209586
vt 0.142125 0.215398
vt 0.138458 0.221749
vt 0.145792 0.221749
vt 0.149459 0.228101
vt 0.156793 0.228101
vt 0.153126 0.221749
vt 0.200797 0.215398
vt 0.197131 0.221749
vt 0.204465 0.221749
vt 0.186129 0.215398
vt 0.182462 0.221749
vt 0.189796 0.221749
vt 0.171461 0.215398
vt 0.167794 0.221749
vt 0.175128 0.221749
vt 0.153126 0.234452
vt 0.134791 0.228101
vt 0.138458 0.234452
vt 0.142125 0.228101
vt 0.193463 0.228101
vt 0.197131 0.234452
vt 0.200797 0.228101
vt 0.145792 0.234452
vt 0.131124 0.234452
vt 0.142125 0.240804
vt 0.145792 0.247156
vt 0.149459 0.240804
vt 0.127457 0.240804
vt 0.131124 0.247156
vt 0.134791 0.240804
vt 0.138458 0.247156
vt 0.153126 0.247156
vt 0.156793 0.240804
vt 0.200797 0.240804
vt 0.204465 0.234452
vt 0.208132 0.228101
vt 0.160460 0.234452
vt 0.164127 0.228101
vt 0.171461 0.228101
vt 0.186129 0.228101
vt 0.160460 0.221749
vt 0.156793 0.215398
vt 0.096797 0.228101
vt 0.089978 0.239912
vt 0.103616 0.239912
vt 0.110435 0.251723
vt 0.124074 0.251723
vt 0.117254 0.239912
vt 0.205904 0.228101
vt 0.199085 0.239912
vt 0.212724 0.239912
vt 0.178627 0.228101
vt 0.171808 0.239912
vt 0.185447 0.239912
vt 0.151351 0.228101
vt 0.144531 0.239912
vt 0.158170 0.239912
vt 0.117254 0.263535
vt 0.083158 0.251723
vt 0.089978 0.263535
vt 0.096797 0.251723
vt 0.164989 0.251723
vt 0.171808 0.263535
vt 0.178627 0.251723
vt 0.137712 0.251723
vt 0.144531 0.263535
vt 0.151351 0.251723
vt 0.103616 0.263535
vt 0.158170 0.263535
vt 0.130893 0.263535
vt 0.124074 0.275346
vt 0.130893 0.287157
vt 0.137712 0.275346
vt 0.151351 0.275346
vt 0.164989 0.275346
vt 0.110435 0.275346
vt 0.205904 0.251723
vt 0.219543 0.251723
vt 0.130893 0.239912
vt 0.124074 0.228101
vt 0.203868 0.238516
vt 0.207322 0.232532
vt 0.200414 0.232532
vt 0.196959 0.226549
vt 0.190051 0.226549
vt 0.193505 0.232532
vt 0.148598 0.238516
vt 0.152053 0.232532
vt 0.145144 0.232532
vt 0.162416 0.238516
vt 0.165870 0.232532
vt 0.158961 0.232532
vt 0.176233 0.238516
vt 0.179688 0.232532
vt 0.172779 0.232532
vt 0.193505 0.220566
vt 0.169324 0.226549
vt 0.165870 0.220566
vt 0.162416 0.226549
vt 0.183142 0.226549
vt 0.179688 0.220566
vt 0.176233 0.226549
vt 0.172779 0.220566
vt 0.186596 0.220566
vt 0.176233 0.214583
vt 0.172779 0.208600
vt 0.169324 0.214583
vt 0.190051 0.214583
vt 0.186596 0.208600
vt 0.183142 0.214583
vt 0.179688 0.208600
vt 0.165870 0.208600
vt 0.162416 0.214583
vt 0.158961 0.220566
vt 0.155507 0.226549
vt 0.186596 0.232532
vt 0.190051 0.238516
vt 0.203868 0.226549
vt 0.155312 0.101916
vt 0.151272 0.108914
vt 0.159352 0.108914
vt 0.219956 0.101916
vt 0.215916 0.108914
vt 0.223997 0.108914
vt 0.203795 0.101916
vt 0.199755 0.108914
vt 0.207835 0.108914
vt 0.187634 0.101916
vt 0.183594 0.108914
vt 0.191674 0.108914
vt 0.147231 0.115912
vt 0.151272 0.122910
vt 0.155312 0.115912
vt 0.211876 0.115912
vt 0.215916 0.122910
vt 0.219956 0.115912
vt 0.195715 0.115912
vt 0.199755 0.122910
vt 0.203795 0.115912
vt 0.143191 0.122910
vt 0.207835 0.122910
vt 0.191674 0.122910
vt 0.139151 0.129908
vt 0.143191 0.136906
vt 0.147231 0.129908
vt 0.203795 0.129908
vt 0.207835 0.136906
vt 0.211876 0.129908
vt 0.195715 0.129908
vt 0.199755 0.136906
vt 0.215916 0.136906
vt 0.219956 0.129908
vt 0.187634 0.115912
vt 0.223997 0.122910
vt 0.228037 0.115912
vt 0.167433 0.108914
vt 0.175513 0.108914
vt 0.171473 0.101916
vt 0.086789 0.149112
vt 0.083562 0.154701
vt 0.090016 0.154701
vt 0.093242 0.160290
vt 0.099695 0.160290
vt 0.096469 0.154701
vt 0.138414 0.149112
vt 0.135188 0.154701
vt 0.141641 0.154701
vt 0.125508 0.149112
vt 0.122282 0.154701
vt 0.128735 0.154701
vt 0.112602 0.149112
vt 0.109375 0.154701
vt 0.115828 0.154701
vt 0.096469 0.165879
vt 0.080336 0.160290
vt 0.083562 0.165879
vt 0.086789 0.160290
vt 0.106149 0.160290
vt 0.109375 0.165879
vt 0.112602 0.160290
vt 0.090016 0.165879
vt 0.077109 0.165879
vt 0.102922 0.165879
vt 0.086789 0.171467
vt 0.090016 0.177056
vt 0.093242 0.171467
vt 0.099695 0.171467
vt 0.102922 0.177056
vt 0.106149 0.171467
vt 0.080336 0.171467
vt 0.083562 0.177056
vt 0.096469 0.177056
vt 0.138414 0.160290
vt 0.141641 0.165879
vt 0.144868 0.160290
vt 0.102922 0.154701
vt 0.099695 0.149112
vt 0.216651 0.245105
vt 0.221374 0.236925
vt 0.211929 0.236925
vt 0.207206 0.228746
vt 0.197761 0.228746
vt 0.202484 0.236925
vt 0.141091 0.245105
vt 0.145814 0.236925
vt 0.136369 0.236925
vt 0.159981 0.245105
vt 0.164704 0.236925
vt 0.155259 0.236925
vt 0.178871 0.245105
vt 0.183594 0.236925
vt 0.174149 0.236925
vt 0.226096 0.228746
vt 0.221374 0.220566
vt 0.216651 0.228746
vt 0.150536 0.228746
vt 0.145814 0.220566
vt 0.141091 0.228746
vt 0.169426 0.228746
vt 0.164704 0.220566
vt 0.159981 0.228746
vt 0.230819 0.220566
vt 0.155259 0.220566
vt 0.174149 0.220566
vt 0.235541 0.212386
vt 0.230819 0.204207
vt 0.226096 0.212386
vt 0.159981 0.212386
vt 0.155259 0.204207
vt 0.150536 0.212386
vt 0.145814 0.204207
vt 0.141091 0.212386
vt 0.216651 0.212386
vt 0.221374 0.204207
vt 0.169426 0.212386
vt 0.178871 0.228746
vt 0.136369 0.220566
vt 0.131647 0.228746
vt 0.211929 0.220566
vt 0.188316 0.228746
vt 0.193039 0.236925
vt 0.197761 0.245105
vt 0.135106 0.059333
vt 0.132643 0.063598
vt 0.137568 0.063598
vt 0.140031 0.067863
vt 0.144956 0.067863
vt 0.142494 0.063598
vt 0.174507 0.059333
vt 0.172044 0.063598
vt 0.176969 0.063598
vt 0.164657 0.059333
vt 0.162194 0.063598
vt 0.167119 0.063598
vt 0.154806 0.059333
vt 0.152344 0.063598
vt 0.157269 0.063598
vt 0.169582 0.067863
vt 0.172044 0.072129
vt 0.174507 0.067863
vt 0.159731 0.067863
vt 0.162194 0.072129
vt 0.164657 0.067863
vt 0.149881 0.067863
vt 0.152344 0.072129
vt 0.154806 0.067863
vt 0.167119 0.072129
vt 0.157269 0.072129
vt 0.147419 0.072129
vt 0.149881 0.076394
vt 0.154806 0.076394
vt 0.159731 0.076394
vt 0.164657 0.076394
vt 0.169582 0.076394
vt 0.176969 0.072129
vt 0.179432 0.067863
vt 0.147419 0.063598
vt 0.144956 0.059333
vt 0.130181 0.067863
vt 0.135106 0.067863
vt 0.118577 0.106543
vt 0.115427 0.111999
vt 0.121726 0.111999
vt 0.168973 0.106543
vt 0.165823 0.111999
vt 0.172123 0.111999
vt 0.156374 0.106543
vt 0.153224 0.111999
vt 0.159524 0.111999
vt 0.143775 0.106543
vt 0.140625 0.111999
vt 0.146925 0.111999
vt 0.162673 0.117454
vt 0.165823 0.122910
vt 0.168973 0.117454
vt 0.150074 0.117454
vt 0.153224 0.122910
vt 0.156374 0.117454
vt 0.137475 0.117454
vt 0.140625 0.122910
vt 0.143775 0.117454
vt 0.159524 0.122910
vt 0.146925 0.122910
vt 0.134326 0.122910
vt 0.156374 0.128365
vt 0.159524 0.133821
vt 0.162673 0.128365
vt 0.143775 0.128365
vt 0.146925 0.133821
vt 0.150074 0.128365
vt 0.137475 0.128365
vt 0.140625 0.133821
vt 0.153224 0.133821
vt 0.131176 0.117454
vt 0.134326 0.111999
vt 0.128026 0.111999
vt 0.131176 0.106543
vt 0.119280 0.072796
vt 0.117905 0.075177
vt 0.120656 0.075177
vt 0.122031 0.077559
vt 0.124781 0.077559
vt 0.123406 0.075177
vt 0.141282 0.072796
vt 0.139907 0.075177
vt 0.142658 0.075177
vt 0.135782 0.072796
vt 0.134407 0.075177
vt 0.137157 0.075177
vt 0.130281 0.072796
vt 0.128906 0.075177
vt 0.131657 0.075177
vt 0.123406 0.079941
vt 0.116530 0.077559
vt 0.117905 0.079941
vt 0.119280 0.077559
vt 0.138532 0.077559
vt 0.139907 0.079941
vt 0.141282 0.077559
vt 0.133032 0.077559
vt 0.134407 0.079941
vt 0.135782 0.077559
vt 0.120656 0.079941
vt 0.115155 0.079941
vt 0.137157 0.079941
vt 0.119280 0.082323
vt 0.120656 0.084705
vt 0.122031 0.082323
vt 0.113780 0.082323
vt 0.115155 0.084705
vt 0.116530 0.082323
vt 0.135782 0.082323
vt 0.138532 0.082323
vt 0.137157 0.084705
vt 0.139907 0.084705
vt 0.141282 0.082323
vt 0.117905 0.084705
vt 0.142658 0.079941
vt 0.144033 0.077559
vt 0.126156 0.075177
vt 0.124781 0.072796
vt 0.218636 0.216455
vt 0.220852 0.212617
vt 0.216420 0.212617
vt 0.214204 0.208779
vt 0.209772 0.208779
vt 0.211988 0.212617
vt 0.183183 0.216455
vt 0.185399 0.212617
vt 0.180967 0.212617
vt 0.192046 0.216455
vt 0.194262 0.212617
vt 0.189830 0.212617
vt 0.200909 0.216455
vt 0.203125 0.212617
vt 0.198693 0.212617
vt 0.211988 0.204941
vt 0.223067 0.208779
vt 0.220852 0.204941
vt 0.218636 0.208779
vt 0.187614 0.208779
vt 0.185399 0.204941
vt 0.183183 0.208779
vt 0.196478 0.208779
vt 0.194262 0.204941
vt 0.192046 0.208779
vt 0.216420 0.204941
vt 0.225283 0.204941
vt 0.189830 0.204941
vt 0.218636 0.201103
vt 0.216420 0.197265
vt 0.214204 0.201103
vt 0.227499 0.201103
vt 0.225283 0.197265
vt 0.223067 0.201103
vt 0.187614 0.201103
vt 0.185399 0.197265
vt 0.183183 0.201103
vt 0.220852 0.197265
vt 0.209772 0.201103
vt 0.180967 0.204941
vt 0.178751 0.208779
vt 0.207557 0.204941
vt 0.205341 0.208779
vt 0.200909 0.208779
vt 0.207557 0.212617
vt 0.209772 0.216455
s 0
usemtl Material
f 6/1/1 14/2/1 13/3/1 5/4/1
f 4/5/2 12/6/2 11/7/2 3/8/2
f 2/9/3 10/10/3 9/11/3 1/12/3
f 1/13/4 9/14/4 16/15/4 8/16/4
f 7/17/5 15/18/5 14/2/5 6/1/5
f 5/19/6 13/20/6 12/6/6 4/5/6
f 3/8/7 11/7/7 10/10/7 2/9/7
f 8/16/8 16/15/8 15/18/8 7/17/8
f 9/21/9 17/22/9 24/23/9 16/24/9
f 15/25/10 23/26/10 22/27/10 14/28/10
f 13/29/11 21/30/11 20/31/11 12/32/11
f 11/33/12 19/34/12 18/35/12 10/36/12
f 16/24/13 24/23/13 23/26/13 15/25/13
f 14/37/14 22/38/14 21/39/14 13/40/14
f 12/32/15 20/31/15 19/34/15 11/33/15
f 10/41/16 18/42/16 17/43/16 9/44/16
f 20/31/17 28/45/17 27/46/17 19/34/17
f 18/42/18 26/47/18 25/48/18 17/43/18
f 17/43/19 25/48/19 32/49/19 24/50/19
f 23/50/20 31/51/20 30/52/20 22/38/20
f 21/39/21 29/53/21 28/54/21 20/55/21
f 19/56/22 27/57/22 26/47/22 18/42/22
f 24/23/23 32/58/23 31/59/23 23/26/23
f 22/38/24 30/52/24 29/53/24 21/39/24
f 32/58/25 40/60/25 39/61/25 31/59/25
f 30/52/26 38/62/26 35/63/26 29/53/26
f 28/45/27 34/64/27 33/65/27 27/46/27
f 26/47/28 37/66/28 36/67/28 25/48/28
f 25/48/29 36/67/29 40/68/29 32/49/29
f 31/51/30 39/69/30 38/62/30 30/52/30
f 29/53/31 35/63/31 34/70/31 28/54/31
f 27/57/32 33/71/32 37/66/32 26/47/32
f 37/72/33 42/73/33 41/74/33 36/75/33
f 36/75/34 41/76/34 48/77/34 40/78/34
f 39/79/35 47/80/35 46/81/35 38/82/35
f 35/83/36 45/84/36 44/85/36 34/86/36
f 33/87/37 43/88/37 42/73/37 37/72/37
f 40/78/38 48/77/38 47/80/38 39/79/38
f 38/82/39 46/81/39 45/89/39 35/83/39
f 34/86/40 44/85/40 43/88/40 33/87/40
f 48/90/41 56/91/41 55/92/41 47/93/41
f 46/94/42 54/95/42 53/96/42 45/97/42
f 44/98/43 52/99/43 51/100/43 43/101/43
f 42/102/44 50/103/44 49/104/44 41/105/44
f 41/106/45 49/107/45 56/91/45 48/90/45
f 47/93/46 55/92/46 54/95/46 46/94/46
f 45/108/47 53/109/47 52/99/47 44/98/47
f 43/101/48 51/100/48 50/103/48 42/102/48
f 51/110/49 59/111/49 58/112/49 50/113/49
f 56/114/50 64/115/50 63/116/50 55/117/50
f 54/118/51 62/119/51 61/120/51 53/121/51
f 52/99/52 60/122/52 59/123/52 51/100/52
f 50/113/53 58/112/53 57/124/53 49/125/53
f 49/125/54 57/124/54 64/126/54 56/127/54
f 55/92/55 63/128/55 62/129/55 54/95/55
f 53/121/56 61/120/56 60/130/56 52/131/56
f 57/132/57 65/133/57 72/134/57 64/115/57
f 63/116/58 71/135/58 70/136/58 62/137/58
f 61/138/59 69/139/59 68/140/59 60/141/59
f 59/142/60 67/143/60 66/144/60 58/145/60
f 64/115/61 72/134/61 71/135/61 63/116/61
f 62/119/62 70/146/62 69/147/62 61/120/62
f 60/141/63 68/140/63 67/143/63 59/142/63
f 58/112/64 66/148/64 65/149/64 57/124/64
f 68/140/65 76/150/65 75/151/65 67/143/65
f 66/148/66 74/152/66 73/153/66 65/149/66
f 65/133/67 73/154/67 80/155/67 72/134/67
f 71/135/68 79/156/68 78/157/68 70/136/68
f 69/139/69 77/158/69 76/150/69 68/140/69
f 67/143/70 75/151/70 74/159/70 66/144/70
f 72/134/71 80/155/71 79/156/71 71/135/71
f 70/146/72 78/160/72 77/161/72 69/147/72
f 80/155/73 88/162/73 87/163/73 79/156/73
f 78/160/74 86/164/74 85/165/74 77/161/74
f 76/150/75 84/166/75 83/167/75 75/151/75
f 74/152/76 82/168/76 81/169/76 73/153/76
f 73/154/77 81/170/77 88/162/77 80/155/77
f 79/156/78 87/163/78 86/171/78 78/157/78
f 77/158/79 85/172/79 84/166/79 76/150/79
f 75/151/80 83/167/80 82/173/80 74/159/80
f 82/173/81 83/167/81 84/166/81 85/172/81 86/174/81 87/175/81 88/176/81 81/177/81
f 2/9/82 1/12/82 8/178/82 7/179/82 6/180/82 5/19/82 4/5/82 3/8/82
f 89/181/83 97/182/83 98/183/83
f 90/184/84 100/185/84 98/186/84
f 89/187/85 102/188/85 97/189/85
f 89/190/86 104/191/86 102/192/86
f 89/193/87 101/194/87 104/195/87
f 90/184/88 107/196/88 100/185/88
f 91/197/89 109/198/89 99/199/89
f 92/200/90 111/201/90 103/202/90
f 90/184/91 110/203/91 107/196/91
f 91/197/92 112/204/92 109/198/92
f 94/205/93 115/206/93 113/207/93
f 95/208/94 117/209/94 114/210/94
f 117/209/95 115/211/95 114/210/95
f 114/210/96 115/211/96 94/205/96
f 115/206/97 116/212/97 113/207/97
f 113/207/98 116/212/98 96/213/98
f 112/204/99 95/208/99 114/210/99
f 112/204/100 114/210/100 109/198/100
f 109/198/101 114/210/101 94/205/101
f 110/203/102 94/205/102 113/207/102
f 110/203/103 113/207/103 107/196/103
f 107/196/104 113/207/104 96/213/104
f 111/201/105 95/214/105 112/215/105
f 111/201/106 112/215/106 103/202/106
f 103/202/107 112/215/107 91/216/107
f 109/198/108 94/205/108 110/203/108
f 109/198/109 110/203/109 99/199/109
f 99/199/110 110/203/110 90/184/110
f 107/196/111 96/213/111 108/217/111
f 107/196/112 108/217/112 100/185/112
f 100/185/113 108/217/113 93/218/113
f 101/194/114 93/218/114 106/219/114
f 101/194/115 106/219/115 104/195/115
f 104/191/116 105/220/116 102/192/116
f 102/192/117 105/220/117 92/200/117
f 102/188/118 92/200/118 103/202/118
f 102/188/119 103/202/119 97/189/119
f 97/189/120 103/202/120 91/216/120
f 100/185/121 93/218/121 101/221/121
f 100/185/122 101/221/122 98/186/122
f 98/186/123 101/221/123 89/222/123
f 97/182/124 91/197/124 99/199/124
f 97/182/125 99/199/125 98/183/125
f 98/183/126 99/199/126 90/184/126
f 118/223/127 125/224/127 126/225/127
f 119/226/84 128/227/84 126/228/84
f 118/229/85 130/230/85 125/231/85
f 118/232/86 132/233/86 130/234/86
f 118/235/87 129/236/87 132/237/87
f 119/226/88 135/238/88 128/227/88
f 120/239/89 137/240/89 127/241/89
f 121/242/128 139/243/128 133/244/128
f 122/245/129 140/246/129 134/247/129
f 119/226/91 138/248/91 135/238/91
f 121/242/130 141/249/130 139/243/130
f 122/245/131 136/250/131 140/246/131
f 124/251/132 145/252/132 144/253/132
f 136/250/133 124/251/133 144/253/133
f 136/250/134 144/253/134 140/246/134
f 140/246/135 144/253/135 123/254/135
f 141/249/136 123/254/136 143/255/136
f 141/249/137 143/255/137 139/243/137
f 138/248/103 142/256/103 135/238/103
f 135/238/104 142/256/104 124/251/104
f 140/246/138 123/254/138 141/249/138
f 140/246/139 141/249/139 134/247/139
f 134/247/140 141/249/140 121/242/140
f 137/240/109 138/248/109 127/241/109
f 127/241/110 138/248/110 119/226/110
f 135/238/111 124/251/111 136/250/111
f 135/238/112 136/250/112 128/227/112
f 128/227/113 136/250/113 122/245/113
f 129/236/114 122/245/114 134/247/114
f 129/236/115 134/247/115 132/237/115
f 132/237/141 134/247/141 121/242/141
f 132/233/142 121/242/142 133/244/142
f 132/233/116 133/244/116 130/234/116
f 130/230/119 131/257/119 125/231/119
f 125/231/120 131/257/120 120/258/120
f 128/227/121 122/245/121 129/259/121
f 128/227/122 129/259/122 126/228/122
f 126/228/123 129/259/123 118/260/123
f 125/224/124 120/239/124 127/241/124
f 125/224/125 127/241/125 126/225/125
f 126/225/126 127/241/126 119/226/126
f 146/261/127 154/262/127 155/263/127
f 147/264/84 157/265/84 155/266/84
f 146/267/85 159/268/85 154/269/85
f 146/270/143 160/271/143 159/272/143
f 146/273/87 158/274/87 160/275/87
f 147/264/88 163/276/88 157/265/88
f 149/277/128 165/278/128 161/279/128
f 150/280/144 167/281/144 162/282/144
f 149/277/145 168/283/145 165/278/145
f 150/280/131 164/284/131 167/281/131
f 152/285/146 173/286/146 169/287/146
f 153/288/132 171/289/132 170/290/132
f 171/289/147 173/291/147 170/290/147
f 170/290/148 173/291/148 152/285/148
f 173/286/149 172/292/149 169/287/149
f 169/287/150 172/292/150 151/293/150
f 164/284/133 153/288/133 170/290/133
f 164/284/134 170/290/134 167/281/134
f 167/281/135 170/290/135 152/285/135
f 168/283/136 152/285/136 169/287/136
f 168/283/137 169/287/137 165/278/137
f 165/278/151 169/287/151 151/293/151
f 167/281/138 152/285/138 168/283/138
f 167/281/139 168/283/139 162/282/139
f 162/282/140 168/283/140 149/277/140
f 165/278/152 151/293/152 166/294/152
f 165/278/153 166/294/153 161/279/153
f 161/279/154 166/294/154 148/295/154
f 163/276/111 153/288/111 164/284/111
f 163/276/112 164/284/112 157/265/112
f 157/265/113 164/284/113 150/280/113
f 158/274/114 150/280/114 162/282/114
f 158/274/115 162/282/115 160/275/115
f 160/275/141 162/282/141 149/277/141
f 160/271/142 149/277/142 161/279/142
f 160/271/116 161/279/116 159/272/116
f 159/272/117 161/279/117 148/295/117
f 157/265/121 150/280/121 158/296/121
f 157/265/122 158/296/122 155/266/122
f 155/266/123 158/296/123 146/297/123
f 154/262/125 156/298/125 155/263/125
f 155/263/126 156/298/126 147/264/126
f 174/299/155 180/300/155 181/301/155
f 174/302/156 184/303/156 180/304/156
f 174/305/157 186/306/157 184/307/157
f 174/308/158 183/309/158 186/310/158
f 175/311/159 189/312/159 182/313/159
f 176/314/160 190/315/160 185/316/160
f 177/317/161 192/318/161 187/319/161
f 175/311/162 191/320/162 189/312/162
f 176/314/163 193/321/163 190/315/163
f 177/317/164 194/322/164 192/318/164
f 178/323/165 198/324/165 195/325/165
f 179/326/166 199/327/166 196/328/166
f 197/329/167 199/330/167 179/326/167
f 199/327/168 198/331/168 196/328/168
f 196/328/169 198/331/169 178/332/169
f 194/322/170 197/329/170 192/318/170
f 192/318/171 197/329/171 179/326/171
f 193/321/172 179/326/172 196/328/172
f 193/321/173 196/328/173 190/315/173
f 190/315/174 196/328/174 178/332/174
f 191/320/175 178/323/175 195/325/175
f 191/320/176 195/325/176 189/312/176
f 188/333/177 194/322/177 177/317/177
f 192/318/178 179/326/178 193/321/178
f 192/318/179 193/321/179 187/319/179
f 187/319/180 193/321/180 176/314/180
f 190/315/181 178/332/181 191/334/181
f 190/315/182 191/334/182 185/316/182
f 185/316/183 191/334/183 175/335/183
f 183/309/184 188/333/184 186/310/184
f 186/310/185 188/333/185 177/317/185
f 186/306/186 177/317/186 187/319/186
f 186/306/187 187/319/187 184/307/187
f 184/307/188 187/319/188 176/314/188
f 184/303/189 176/314/189 185/316/189
f 184/303/190 185/316/190 180/304/190
f 180/304/191 185/316/191 175/335/191
f 181/336/192 183/337/192 174/338/192
f 180/300/193 175/311/193 182/313/193
f 180/300/194 182/313/194 181/301/194
f 200/339/127 206/340/127 207/341/127
f 201/342/84 209/343/84 207/344/84
f 200/345/85 211/346/85 206/347/85
f 200/348/143 213/349/143 211/350/143
f 200/351/87 210/352/87 213/353/87
f 201/342/88 215/354/88 209/343/88
f 202/355/89 217/356/89 208/357/89
f 203/358/129 220/359/129 214/360/129
f 201/342/91 218/361/91 215/354/91
f 202/355/92 219/362/92 217/356/92
f 203/358/131 216/363/131 220/359/131
f 204/364/93 224/365/93 221/366/93
f 205/367/132 225/368/132 223/369/132
f 222/370/96 224/371/96 204/364/96
f 224/365/97 225/372/97 221/366/97
f 221/366/98 225/372/98 205/367/98
f 216/363/133 205/367/133 223/369/133
f 216/363/134 223/369/134 220/359/134
f 219/362/100 222/370/100 217/356/100
f 217/356/101 222/370/101 204/364/101
f 218/361/102 204/364/102 221/366/102
f 218/361/103 221/366/103 215/354/103
f 215/354/104 221/366/104 205/367/104
f 212/373/107 219/374/107 202/375/107
f 217/356/108 204/364/108 218/361/108
f 217/356/109 218/361/109 208/357/109
f 208/357/110 218/361/110 201/342/110
f 215/354/111 205/367/111 216/363/111
f 215/354/112 216/363/112 209/343/112
f 209/343/113 216/363/113 203/358/113
f 210/352/114 203/358/114 214/360/114
f 210/352/115 214/360/115 213/353/115
f 211/346/119 212/373/119 206/347/119
f 206/347/120 212/373/120 202/375/120
f 209/343/121 203/358/121 210/376/121
f 209/343/122 210/376/122 207/344/122
f 207/344/123 210/376/123 200/377/123
f 206/340/124 202/355/124 208/357/124
f 206/340/125 208/357/125 207/341/125
f 207/341/126 208/357/126 201/342/126
f 226/378/127 235/379/127 236/380/127
f 227/381/84 238/382/84 236/383/84
f 226/384/85 240/385/85 235/386/85
f 226/387/86 242/388/86 240/389/86
f 226/390/87 239/391/87 242/392/87
f 228/393/89 245/394/89 237/395/89
f 229/396/90 247/397/90 241/398/90
f 230/399/128 249/400/128 243/401/128
f 228/393/92 248/402/92 245/394/92
f 229/396/195 250/403/195 247/397/195
f 230/399/145 251/404/145 249/400/145
f 233/405/94 256/406/94 252/407/94
f 234/408/196 257/409/196 253/410/196
f 257/409/197 256/411/197 253/410/197
f 253/410/198 256/411/198 233/412/198
f 252/407/141 232/413/141 255/414/141
f 251/404/109 249/400/109 254/415/109
f 249/400/110 234/408/110 254/415/110
f 250/403/199 234/408/199 253/410/199
f 250/403/200 253/410/200 247/397/200
f 247/397/201 253/410/201 233/412/201
f 248/402/202 233/405/202 252/407/202
f 248/402/100 252/407/100 245/394/100
f 245/394/101 252/407/101 232/413/101
f 244/416/140 251/404/140 230/399/140
f 249/400/152 234/408/152 250/403/152
f 249/400/153 250/403/153 243/401/153
f 243/401/154 250/403/154 229/396/154
f 247/397/105 233/412/105 248/417/105
f 247/397/106 248/417/106 241/398/106
f 241/398/107 248/417/107 228/418/107
f 245/394/203 232/413/203 246/419/203
f 245/394/109 246/419/109 237/395/109
f 237/395/110 246/419/110 227/381/110
f 239/391/114 231/420/114 244/416/114
f 239/391/115 244/416/115 242/392/115
f 242/392/141 244/416/141 230/399/141
f 242/388/142 230/399/142 243/401/142
f 242/388/116 243/401/116 240/389/116
f 240/389/117 243/401/117 229/396/117
f 240/385/118 229/396/118 241/398/118
f 240/385/119 241/398/119 235/386/119
f 235/386/204 241/398/204 228/418/204
f 238/382/121 231/420/121 239/421/121
f 238/382/122 239/421/122 236/383/122
f 236/383/123 239/421/123 226/422/123
f 235/379/124 228/393/124 237/395/124
f 235/379/125 237/395/125 236/380/125
f 236/380/126 237/395/126 227/381/126
f 258/423/127 266/424/127 267/425/127
f 259/426/84 269/427/84 267/428/84
f 258/429/85 271/430/85 266/431/85
f 258/432/86 273/433/86 271/434/86
f 258/435/87 270/436/87 273/437/87
f 261/438/90 277/439/90 272/440/90
f 262/441/128 279/442/128 274/443/128
f 263/444/129 281/445/129 275/446/129
f 261/438/195 280/447/195 277/439/195
f 262/441/145 282/448/145 279/442/145
f 263/444/131 276/449/131 281/445/131
f 276/449/134 285/450/134 281/445/134
f 281/445/135 285/450/135 265/451/135
f 282/448/136 265/451/136 284/452/136
f 282/448/137 284/452/137 279/442/137
f 279/442/151 284/452/151 264/453/151
f 280/447/199 264/453/199 283/454/199
f 280/447/200 283/454/200 277/439/200
f 281/445/138 265/451/138 282/448/138
f 281/445/139 282/448/139 275/446/139
f 275/446/140 282/448/140 262/441/140
f 279/442/152 264/453/152 280/447/152
f 279/442/153 280/447/153 274/443/153
f 274/443/154 280/447/154 261/438/154
f 277/439/106 278/455/106 272/440/106
f 272/440/107 278/455/107 260/456/107
f 269/427/113 276/449/113 263/444/113
f 270/436/114 263/444/114 275/446/114
f 270/436/115 275/446/115 273/437/115
f 273/437/141 275/446/141 262/441/141
f 273/433/142 262/441/142 274/443/142
f 273/433/116 274/443/116 271/434/116
f 271/434/117 274/443/117 261/438/117
f 271/430/118 261/438/118 272/440/118
f 271/430/119 272/440/119 266/431/119
f 266/431/120 272/440/120 260/456/120
f 269/427/121 263/444/121 270/457/121
f 269/427/122 270/457/122 267/428/122
f 267/428/123 270/457/123 258/458/123
f 266/424/124 260/459/124 268/460/124
f 266/424/125 268/460/125 267/425/125
f 267/425/126 268/460/126 259/426/126
f 286/461/127 292/462/127 293/463/127
f 286/464/85 296/465/85 292/466/85
f 286/467/86 298/468/86 296/469/86
f 286/470/87 295/471/87 298/472/87
f 287/473/90 302/474/90 297/475/90
f 288/476/128 303/477/128 299/478/128
f 289/479/129 305/480/129 300/481/129
f 287/473/195 304/482/195 302/474/195
f 288/476/145 306/483/145 303/477/145
f 289/479/131 301/484/131 305/480/131
f 290/485/196 310/486/196 307/487/196
f 291/488/146 311/489/146 308/490/146
f 309/491/148 311/492/148 291/488/148
f 311/489/149 310/493/149 308/490/149
f 308/490/150 310/493/150 290/485/150
f 301/484/134 309/491/134 305/480/134
f 305/480/135 309/491/135 291/488/135
f 306/483/136 291/488/136 308/490/136
f 306/483/137 308/490/137 303/477/137
f 303/477/151 308/490/151 290/485/151
f 304/482/199 290/485/199 307/487/199
f 304/482/200 307/487/200 302/474/200
f 305/480/138 291/488/138 306/483/138
f 305/480/139 306/483/139 300/481/139
f 300/481/140 306/483/140 288/476/140
f 303/477/152 290/485/152 304/482/152
f 303/477/153 304/482/153 299/478/153
f 299/478/154 304/482/154 287/473/154
f 294/494/113 301/484/113 289/479/113
f 295/471/114 289/479/114 300/481/114
f 295/471/115 300/481/115 298/472/115
f 298/472/141 300/481/141 288/476/141
f 298/468/142 288/476/142 299/478/142
f 298/468/116 299/478/116 296/469/116
f 296/469/117 299/478/117 287/473/117
f 296/465/118 287/473/118 297/475/118
f 296/465/119 297/475/119 292/466/119
f 294/494/121 289/479/121 295/495/121
f 294/494/122 295/495/122 293/496/122
f 293/496/123 295/495/123 286/497/123
f 312/498/83 320/499/83 321/500/83
f 313/501/84 323/502/84 321/503/84
f 312/504/85 325/505/85 320/506/85
f 312/507/86 327/508/86 325/509/86
f 312/510/87 324/511/87 327/512/87
f 313/501/88 329/513/88 323/502/88
f 314/514/89 330/515/89 322/516/89
f 315/517/90 332/518/90 326/519/90
f 316/520/128 334/521/128 328/522/128
f 313/501/91 331/523/91 329/513/91
f 314/514/92 333/524/92 330/515/92
f 315/517/195 335/525/195 332/518/195
f 317/526/93 339/527/93 336/528/93
f 318/529/94 340/530/94 337/531/94
f 319/532/84 338/533/84 341/534/84
f 338/533/198 340/535/198 318/536/198
f 340/530/95 339/537/95 337/531/95
f 337/531/96 339/537/96 317/526/96
f 335/525/199 319/532/199 338/533/199
f 335/525/200 338/533/200 332/518/200
f 332/518/201 338/533/201 318/536/201
f 333/524/202 318/529/202 337/531/202
f 333/524/100 337/531/100 330/515/100
f 330/515/101 337/531/101 317/526/101
f 331/523/102 317/526/102 336/528/102
f 331/523/103 336/528/103 329/513/103
f 334/521/152 319/532/152 335/525/152
f 334/521/153 335/525/153 328/522/153
f 328/522/154 335/525/154 315/517/154
f 332/518/105 318/536/105 333/538/105
f 332/518/106 333/538/106 326/519/106
f 326/519/107 333/538/107 314/539/107
f 330/515/203 317/526/203 331/523/203
f 330/515/109 331/523/109 322/516/109
f 322/516/110 331/523/110 313/501/110
f 327/508/142 316/520/142 328/522/142
f 327/508/116 328/522/116 325/509/116
f 325/509/117 328/522/117 315/517/117
f 325/505/118 315/517/118 326/519/118
f 325/505/119 326/519/119 320/506/119
f 320/506/205 326/519/205 314/539/205
f 323/502/122 324/540/122 321/503/122
f 321/503/123 324/540/123 312/541/123
f 320/499/206 314/514/206 322/516/206
f 320/499/125 322/516/125 321/500/125
f 321/500/126 322/516/126 313/501/126
f 342/542/127 351/543/127 352/544/127
f 343/545/84 354/546/84 352/547/84
f 342/548/85 356/549/85 351/550/85
f 342/551/207 358/552/207 356/553/207
f 342/554/87 355/555/87 358/556/87
f 343/545/88 361/557/88 354/546/88
f 344/558/89 363/559/89 353/560/89
f 345/561/90 365/562/90 357/563/90
f 346/564/128 367/565/128 359/566/128
f 343/545/91 364/567/91 361/557/91
f 344/558/92 366/568/92 363/559/92
f 345/561/195 368/569/195 365/562/195
f 348/570/93 372/571/93 369/572/93
f 349/573/94 373/574/94 370/575/94
f 371/576/198 373/577/198 349/578/198
f 373/574/95 372/579/95 370/575/95
f 370/575/96 372/579/96 348/570/96
f 368/569/200 371/576/200 365/562/200
f 365/562/201 371/576/201 349/578/201
f 366/568/99 349/573/99 370/575/99
f 366/568/100 370/575/100 363/559/100
f 363/559/101 370/575/101 348/570/101
f 364/567/102 348/570/102 369/572/102
f 364/567/103 369/572/103 361/557/103
f 361/557/104 369/572/104 350/580/104
f 367/565/153 368/569/153 359/566/153
f 359/566/154 368/569/154 345/561/154
f 365/562/105 349/578/105 366/581/105
f 365/562/106 366/581/106 357/563/106
f 357/563/107 366/581/107 344/582/107
f 363/559/203 348/570/203 364/567/203
f 363/559/109 364/567/109 353/560/109
f 353/560/110 364/567/110 343/545/110
f 361/557/111 350/580/111 362/583/111
f 361/557/112 362/583/112 354/546/112
f 354/546/113 362/583/113 347/584/113
f 355/555/114 347/584/114 360/585/114
f 355/555/115 360/585/115 358/556/115
f 358/556/141 360/585/141 346/564/141
f 358/552/142 346/564/142 359/566/142
f 358/552/116 359/566/116 356/553/116
f 356/553/117 359/566/117 345/561/117
f 356/549/118 345/561/118 357/563/118
f 356/549/119 357/563/119 351/550/119
f 351/550/120 357/563/120 344/582/120
f 354/546/121 347/584/121 355/586/121
f 354/546/122 355/586/122 352/547/122
f 352/547/123 355/586/123 342/587/123
f 351/543/124 344/558/124 353/560/124
f 351/543/125 353/560/125 352/544/125
f 352/544/126 353/560/126 343/545/126
