# Blender 4.3.0
# www.blender.org
mtllib MushroomForest.mtl
o Mushroom_2_rotated
v -0.000000 0.000000 -0.490568
v -0.935432 0.000000 -0.103100
v -1.322900 0.000000 0.832332
v -0.935432 0.000000 1.767763
v -0.000000 0.000000 2.155232
v 0.935432 0.000000 1.767763
v 1.322900 0.000000 0.832332
v 0.935432 0.000000 -0.103100
v 0.000000 2.081216 -0.090630
v -0.691497 2.081216 0.195797
v -0.977924 2.081216 0.887294
v -0.691497 2.081216 1.578791
v 0.000000 2.081216 1.865218
v 0.691497 2.081216 1.578791
v 0.977924 2.081216 0.887294
v 0.691497 2.081216 0.195797
v -0.103545 3.584323 -0.418372
v -0.710027 3.665173 -0.168453
v -0.954316 3.803511 0.429880
v -0.693310 3.918301 1.026132
v -0.079903 3.942301 1.271026
v 0.526580 3.861452 1.021107
v 0.770868 3.723114 0.422774
v 0.509862 3.608324 -0.173478
v -1.666423 4.826795 0.223016
v -1.176275 5.042361 1.342727
v -0.068744 4.415179 -1.369933
v -1.207669 4.567008 -0.900605
v -0.024347 5.087430 1.802619
v 1.114577 4.935602 1.333291
v 1.573331 4.675815 0.209670
v 1.083183 4.460248 -0.910042
v -0.117292 3.538938 -3.242352
v -2.670603 3.879316 -2.190184
v -3.699066 4.461724 0.328818
v -2.600223 4.944993 2.839057
v -0.017760 5.046034 3.870069
v 2.535550 4.705654 2.817902
v 3.564013 4.123248 0.298899
v 2.465170 3.639977 -2.211340
v 3.251004 3.960118 -3.081076
v 4.680544 4.588828 0.184620
v 3.342565 5.346511 3.461715
v 0.020836 5.789327 4.830533
v -3.338819 5.657880 3.489238
v -4.768360 5.029170 0.223542
v -3.430380 4.271487 -3.053554
v -0.108651 3.828671 -4.422371
v 2.726925 5.595915 -2.806178
v 3.899659 6.111683 -0.127140
v 2.802037 6.733254 2.561251
v 0.077032 7.096521 3.684171
v -2.679086 6.988688 2.583829
v -3.851821 6.472920 -0.095210
v -2.754199 5.851349 -2.783600
v -0.029193 5.488082 -3.906520
v 0.989314 7.706765 -1.348138
v 1.375551 7.876631 -0.465803
v 1.014052 8.081344 0.419611
v 0.116578 8.200986 0.789442
v -0.791142 8.165470 0.427047
v -1.177379 7.995604 -0.455287
v -0.815881 7.790891 -1.340702
v 0.081593 7.671250 -1.710533
v 0.333704 8.486636 -0.795278
v 0.423516 8.526135 -0.590108
v 0.339456 8.573737 -0.384221
v 0.130765 8.601558 -0.298224
v -0.080308 8.593300 -0.382492
v -0.170120 8.553800 -0.587663
v -0.086060 8.506198 -0.793549
v 0.122630 8.478377 -0.879546
vn 0.9118 0.1611 -0.3777
vn 0.3796 0.1277 0.9163
vn -0.9146 0.1416 0.3788
vn -0.3768 0.1748 -0.9097
vn 0.3768 0.1748 -0.9097
vn 0.9146 0.1416 0.3788
vn -0.3796 0.1277 0.9163
vn -0.9118 0.1611 -0.3777
vn 0.3741 -0.1743 -0.9109
vn 0.9127 0.2048 0.3536
vn -0.3675 0.2680 0.8905
vn -0.9244 -0.0907 -0.3706
vn 0.9199 0.0097 -0.3919
vn 0.3801 0.3021 0.8742
vn -0.9180 0.1135 0.3801
vn -0.3843 -0.2164 -0.8975
vn -0.7798 -0.4559 0.4291
vn -0.3501 -0.6992 -0.6233
vn 0.2784 -0.7285 -0.6259
vn 0.7375 -0.5266 0.4229
vn -0.3293 -0.3844 0.8624
vn -0.7884 -0.5863 -0.1863
vn 0.7289 -0.6570 -0.1926
vn 0.2992 -0.4137 0.8599
vn 0.0471 -0.9987 -0.0201
vn 0.1838 -0.9386 0.2920
vn -0.2679 -0.9175 0.2939
vn -0.1400 -0.9900 -0.0194
vn 0.1812 -0.9774 0.1088
vn 0.0533 -0.9050 0.4221
vn -0.1338 -0.8963 0.4229
vn -0.2704 -0.9564 0.1107
vn -0.2226 -0.9464 -0.2340
vn -0.4648 -0.8092 0.3593
vn 0.1434 -0.7854 0.6021
vn 0.3856 -0.9226 0.0088
vn -0.4697 -0.8828 0.0123
vn -0.2109 -0.7689 0.6035
vn 0.3905 -0.8491 0.3557
vn 0.1317 -0.9629 -0.2355
vn -0.3303 0.2946 -0.8967
vn -0.7946 0.5575 0.2405
vn 0.3713 0.6031 0.7059
vn 0.8356 0.3402 -0.4313
vn -0.8039 0.4166 -0.4245
vn -0.3078 0.6348 0.7087
vn 0.8449 0.4811 0.2337
vn 0.3488 0.2629 -0.8995
vn -0.4955 0.7798 -0.3826
vn -0.1753 0.9206 0.3489
vn 0.5687 0.8214 0.0423
vn 0.2485 0.6806 -0.6892
vn -0.1898 0.7011 -0.6874
vn -0.4895 0.8708 0.0466
vn 0.2630 0.9002 0.3471
vn 0.5627 0.7305 -0.3870
vn 0.2452 0.6894 -0.6817
vn -0.1856 0.7094 -0.6799
vn -0.4801 0.8762 0.0415
vn 0.2594 0.9052 0.3367
vn 0.5540 0.7384 -0.3846
vn -0.4860 0.7868 -0.3804
vn -0.1713 0.9252 0.3385
vn 0.5599 0.8278 0.0372
vn 0.0447 0.9772 -0.2077
vn -0.0000 -1.0000 -0.0000
vt 0.203925 0.244558
vt 0.202458 0.244222
vt 0.203111 0.240007
vt 0.204196 0.240255
vt 0.207469 0.244222
vt 0.206001 0.244558
vt 0.205730 0.240255
vt 0.206815 0.240007
vt 0.175847 0.272013
vt 0.174379 0.271677
vt 0.175033 0.267462
vt 0.176118 0.267710
vt 0.179390 0.271677
vt 0.177923 0.272013
vt 0.177652 0.267710
vt 0.178737 0.267462
vt 0.189790 0.269738
vt 0.187714 0.269738
vt 0.187985 0.265718
vt 0.189519 0.265718
vt 0.204533 0.247482
vt 0.202458 0.247482
vt 0.202728 0.244558
vt 0.204263 0.244558
vt 0.188075 0.262707
vt 0.189430 0.262707
vt 0.204286 0.236942
vt 0.205641 0.236942
vt 0.184218 0.266444
vt 0.183298 0.267672
vt 0.181706 0.266367
vt 0.182519 0.265282
vt 0.176207 0.264397
vt 0.177562 0.264397
vt 0.203328 0.236723
vt 0.206599 0.236723
vt 0.175249 0.264178
vt 0.178520 0.264178
vt 0.183668 0.264947
vt 0.180916 0.263338
vt 0.183075 0.262707
vt 0.182178 0.243532
vt 0.181264 0.242574
vt 0.182451 0.241139
vt 0.184168 0.242938
vt 0.182178 0.244887
vt 0.184168 0.245482
vt 0.203691 0.235252
vt 0.206235 0.235252
vt 0.179390 0.265374
vt 0.175613 0.262707
vt 0.178157 0.262707
vt 0.181264 0.245845
vt 0.182451 0.247281
vt 0.181706 0.267564
vt 0.179390 0.267623
vt 0.634448 0.325451
vt 0.634448 0.328990
vt 0.628986 0.331188
vt 0.628986 0.323254
vt 0.640213 0.322949
vt 0.636836 0.322949
vt 0.634339 0.317643
vt 0.641910 0.317643
vt 0.640213 0.331493
vt 0.642601 0.328990
vt 0.647263 0.331188
vt 0.641910 0.336798
vt 0.636836 0.331493
vt 0.634339 0.336798
vt 0.642601 0.325451
vt 0.647263 0.323254
vt 0.642671 0.358685
vt 0.642671 0.355146
vt 0.647533 0.352949
vt 0.647533 0.360883
vt 0.643500 0.314761
vt 0.650464 0.322060
vt 0.667397 0.357052
vt 0.671602 0.351442
vt 0.674761 0.352636
vt 0.669290 0.359934
vt 0.671602 0.343508
vt 0.667397 0.337897
vt 0.669290 0.335015
vt 0.674761 0.342314
vt 0.650464 0.332381
vt 0.643500 0.339680
vt 0.633651 0.314761
vt 0.633651 0.339680
vt 0.652233 0.323650
vt 0.650464 0.315681
vt 0.655143 0.314761
vt 0.656594 0.321298
vt 0.667397 0.335327
vt 0.667397 0.344810
vt 0.663516 0.342794
vt 0.663516 0.335015
vt 0.660807 0.352754
vt 0.651488 0.354506
vt 0.650464 0.350749
vt 0.658110 0.349312
vt 0.666185 0.335015
vt 0.658745 0.331658
vt 0.661936 0.327868
vt 0.668040 0.330622
vt 0.639307 0.352949
vt 0.628986 0.352949
vt 0.629913 0.348223
vt 0.638380 0.348223
vt 0.649629 0.352949
vt 0.640234 0.348223
vt 0.648702 0.348223
vt 0.632752 0.341986
vt 0.635541 0.341986
vt 0.653484 0.341786
vt 0.655265 0.339639
vt 0.643074 0.341986
vt 0.645863 0.341986
vt 0.664270 0.318716
vt 0.666030 0.320880
vt 0.663793 0.316563
vt 0.655265 0.337077
vt 0.650966 0.342259
vt 0.668040 0.321787
vt 0.667133 0.317768
vt 0.667542 0.318271
vt 0.667022 0.317267
vt 0.652175 0.338466
vt 0.652175 0.337870
vt 0.651175 0.339075
vt 0.651761 0.338965
vt 0.668009 0.318482
vt 0.633822 0.339680
vt 0.634471 0.339680
vt 0.644144 0.339680
vt 0.644792 0.339680
vt 0.651175 0.337637
vt 0.651761 0.337527
vt 0.650761 0.338732
vt 0.650761 0.338136
s 0
usemtl Material
f 7/1/1 8/2/1 16/3/1 15/4/1
f 5/5/2 6/6/2 14/7/2 13/8/2
f 3/9/3 4/10/3 12/11/3 11/12/3
f 1/13/4 2/14/4 10/15/4 9/16/4
f 8/17/5 1/18/5 9/19/5 16/20/5
f 6/6/6 7/1/6 15/4/6 14/7/6
f 4/21/7 5/22/7 13/23/7 12/24/7
f 2/14/8 3/9/8 11/12/8 10/15/8
f 16/20/9 9/19/9 17/25/9 24/26/9
f 14/7/10 15/4/10 23/27/10 22/28/10
f 12/29/11 13/30/11 21/31/11 20/32/11
f 10/15/12 11/12/12 19/33/12 18/34/12
f 15/4/13 16/3/13 24/35/13 23/27/13
f 13/8/14 14/7/14 22/28/14 21/36/14
f 11/12/15 12/11/15 20/37/15 19/33/15
f 9/16/16 10/15/16 18/34/16 17/38/16
f 19/39/17 20/32/17 26/40/17 25/41/17
f 17/42/18 18/43/18 28/44/18 27/45/18
f 24/46/19 17/42/19 27/45/19 32/47/19
f 22/28/20 23/27/20 31/48/20 30/49/20
f 20/32/21 21/31/21 29/50/21 26/40/21
f 18/34/22 19/33/22 25/51/22 28/52/22
f 23/53/23 24/46/23 32/47/23 31/54/23
f 21/31/24 22/55/24 30/56/24 29/50/24
f 26/57/25 29/58/25 37/59/25 36/60/25
f 28/61/26 25/62/26 35/63/26 34/64/26
f 31/65/27 32/66/27 40/67/27 39/68/27
f 29/58/28 30/69/28 38/70/28 37/59/28
f 25/62/29 26/57/29 36/60/29 35/63/29
f 27/71/30 28/61/30 34/64/30 33/72/30
f 32/73/31 27/74/31 33/75/31 40/76/31
f 30/69/32 31/65/32 39/68/32 38/70/32
f 33/72/33 34/64/33 47/77/33 48/78/33
f 35/79/34 36/80/34 45/81/34 46/82/34
f 37/83/35 38/84/35 43/85/35 44/86/35
f 39/68/36 40/67/36 41/87/36 42/88/36
f 34/64/37 35/63/37 46/89/37 47/77/37
f 36/80/38 37/83/38 44/86/38 45/81/38
f 38/70/39 39/68/39 42/88/39 43/90/39
f 40/67/40 33/72/40 48/78/40 41/87/40
f 48/91/41 47/92/41 55/93/41 56/94/41
f 46/95/42 45/96/42 53/97/42 54/98/42
f 44/99/43 43/100/43 51/101/43 52/102/43
f 42/103/44 41/104/44 49/105/44 50/106/44
f 47/107/45 46/108/45 54/109/45 55/110/45
f 45/96/46 44/99/46 52/102/46 53/97/46
f 43/111/47 42/107/47 50/112/47 51/113/47
f 41/104/48 48/91/48 56/94/48 49/105/48
f 55/110/49 54/109/49 62/114/49 63/115/49
f 53/97/50 52/102/50 60/116/50 61/117/50
f 51/113/51 50/112/51 58/118/51 59/119/51
f 49/105/52 56/94/52 64/120/52 57/121/52
f 56/94/53 55/93/53 63/122/53 64/120/53
f 54/98/54 53/97/54 61/117/54 62/123/54
f 52/102/55 51/101/55 59/124/55 60/116/55
f 50/106/56 49/105/56 57/121/56 58/125/56
f 57/121/57 64/120/57 72/126/57 65/127/57
f 64/120/58 63/122/58 71/128/58 72/126/58
f 62/123/59 61/117/59 69/129/59 70/130/59
f 60/116/60 59/124/60 67/131/60 68/132/60
f 58/125/61 57/121/61 65/127/61 66/133/61
f 63/115/62 62/114/62 70/134/62 71/135/62
f 61/117/63 60/116/63 68/132/63 69/129/63
f 59/119/64 58/118/64 66/136/64 67/137/64
f 72/138/65 71/139/65 70/130/65 69/129/65 68/132/65 67/131/65 66/140/65 65/141/65
f 2/14/66 1/18/66 8/2/66 7/1/66 6/6/66 5/22/66 4/10/66 3/9/66
