# Blender 4.3.0
# www.blender.org
mtllib Ring.mtl
o Circle
v 0.000000 0.000000 -4.997866
v -0.975035 0.000000 -4.901833
v -1.912601 0.000000 -4.617425
v -2.776665 0.000000 -4.155573
v -3.534025 0.000000 -3.534025
v -4.155573 0.000000 -2.776665
v -4.617425 0.000000 -1.912601
v -4.901833 0.000000 -0.975035
v -4.997866 0.000000 0.000000
v -4.901833 0.000000 0.975035
v -4.617425 0.000000 1.912601
v -4.155573 0.000000 2.776665
v -3.534025 0.000000 3.534025
v -2.776665 0.000000 4.155573
v -1.912601 0.000000 4.617425
v -0.975035 0.000000 4.901833
v 0.000000 0.000000 4.997866
v 0.975035 0.000000 4.901833
v 1.912601 0.000000 4.617425
v 2.776665 0.000000 4.155573
v 3.534025 0.000000 3.534025
v 4.155573 0.000000 2.776665
v 4.617425 0.000000 1.912601
v 4.901833 0.000000 0.975035
v 4.997866 0.000000 0.000000
v 4.901833 0.000000 -0.975035
v 4.617425 0.000000 -1.912601
v 4.155573 0.000000 -2.776665
v 3.534025 0.000000 -3.534025
v 2.776665 0.000000 -4.155573
v 1.912601 0.000000 -4.617425
v 0.975035 0.000000 -4.901833
v -0.000000 -0.127695 -4.717443
v -0.920328 -0.127695 -4.626799
v -1.805288 -0.127695 -4.358349
v -2.620871 -0.127695 -3.922411
v -3.335736 -0.127695 -3.335736
v -3.922411 -0.127695 -2.620871
v -4.358349 -0.127695 -1.805288
v -4.626799 -0.127695 -0.920328
v -4.717443 -0.127695 -0.000000
v -4.626799 -0.127695 0.920328
v -4.358349 -0.127695 1.805288
v -3.922411 -0.127695 2.620871
v -3.335736 -0.127695 3.335736
v -2.620871 -0.127695 3.922411
v -1.805288 -0.127695 4.358349
v -0.920328 -0.127695 4.626799
v -0.000000 -0.127695 4.717443
v 0.920328 -0.127695 4.626799
v 1.805288 -0.127695 4.358349
v 2.620871 -0.127695 3.922411
v 3.335736 -0.127695 3.335736
v 3.922411 -0.127695 2.620871
v 4.358349 -0.127695 1.805288
v 4.626799 -0.127695 0.920328
v 4.717443 -0.127695 -0.000000
v 4.626799 -0.127695 -0.920328
v 4.358349 -0.127695 -1.805288
v 3.922411 -0.127695 -2.620871
v 3.335736 -0.127695 -3.335736
v 2.620871 -0.127695 -3.922411
v 1.805288 -0.127695 -4.358349
v 0.920328 -0.127695 -4.626799
vn -0.0408 -0.9093 -0.4141
vn 0.3216 -0.9093 -0.2640
vn -0.1208 -0.9093 0.3982
vn -0.1208 -0.9093 -0.3982
vn 0.2640 -0.9093 -0.3216
vn -0.0408 -0.9093 0.4141
vn -0.1961 -0.9093 -0.3670
vn 0.1961 -0.9093 -0.3670
vn 0.0408 -0.9093 0.4141
vn -0.2640 -0.9093 -0.3216
vn 0.1208 -0.9093 -0.3982
vn 0.1208 -0.9093 0.3982
vn -0.3216 -0.9093 -0.2640
vn 0.0408 -0.9093 -0.4141
vn 0.1961 -0.9093 0.3670
vn -0.3670 -0.9093 -0.1961
vn 0.2640 -0.9093 0.3216
vn -0.3982 -0.9093 -0.1208
vn 0.3216 -0.9093 0.2640
vn -0.4141 -0.9093 -0.0408
vn 0.3670 -0.9093 0.1961
vn -0.4141 -0.9093 0.0408
vn 0.3982 -0.9093 0.1208
vn -0.3982 -0.9093 0.1208
vn 0.4141 -0.9093 0.0408
vn -0.3670 -0.9093 0.1961
vn 0.4141 -0.9093 -0.0408
vn -0.3216 -0.9093 0.2640
vn 0.3982 -0.9093 -0.1208
vn -0.2640 -0.9093 0.3216
vn 0.3670 -0.9093 -0.1961
vn -0.1961 -0.9093 0.3670
vt 0.000000 0.000000
s 0
f 2/1/1 1/1/1 33/1/1 34/1/1
f 29/1/2 28/1/2 60/1/2 61/1/2
f 16/1/3 15/1/3 47/1/3 48/1/3
f 3/1/4 2/1/4 34/1/4 35/1/4
f 30/1/5 29/1/5 61/1/5 62/1/5
f 17/1/6 16/1/6 48/1/6 49/1/6
f 4/1/7 3/1/7 35/1/7 36/1/7
f 31/1/8 30/1/8 62/1/8 63/1/8
f 18/1/9 17/1/9 49/1/9 50/1/9
f 5/1/10 4/1/10 36/1/10 37/1/10
f 32/1/11 31/1/11 63/1/11 64/1/11
f 19/1/12 18/1/12 50/1/12 51/1/12
f 6/1/13 5/1/13 37/1/13 38/1/13
f 1/1/14 32/1/14 64/1/14 33/1/14
f 20/1/15 19/1/15 51/1/15 52/1/15
f 7/1/16 6/1/16 38/1/16 39/1/16
f 21/1/17 20/1/17 52/1/17 53/1/17
f 8/1/18 7/1/18 39/1/18 40/1/18
f 22/1/19 21/1/19 53/1/19 54/1/19
f 9/1/20 8/1/20 40/1/20 41/1/20
f 23/1/21 22/1/21 54/1/21 55/1/21
f 10/1/22 9/1/22 41/1/22 42/1/22
f 24/1/23 23/1/23 55/1/23 56/1/23
f 11/1/24 10/1/24 42/1/24 43/1/24
f 25/1/25 24/1/25 56/1/25 57/1/25
f 12/1/26 11/1/26 43/1/26 44/1/26
f 26/1/27 25/1/27 57/1/27 58/1/27
f 13/1/28 12/1/28 44/1/28 45/1/28
f 27/1/29 26/1/29 58/1/29 59/1/29
f 14/1/30 13/1/30 45/1/30 46/1/30
f 28/1/31 27/1/31 59/1/31 60/1/31
f 15/1/32 14/1/32 46/1/32 47/1/32
