# Blender 4.3.0
# www.blender.org
mtllib Rock.mtl
o Rock
v -1.878292 -1.327156 0.000000
v -1.519560 1.327156 1.104012
v 1.878292 1.327156 -0.000000
v 0.273245 0.624799 1.786344
v 0.828915 0.624805 1.605794
v 0.923841 1.327156 1.313661
v 0.426826 1.761235 1.313658
v 0.024732 1.327156 1.605791
v 0.828915 0.624805 -1.605794
v 0.273245 0.624799 -1.786344
v 0.024732 1.327156 -1.605791
v 0.426826 1.761235 -1.313658
v 0.923841 1.327156 -1.313661
v -1.105531 0.156990 -1.404821
v -1.677710 0.156984 -0.617301
v -1.519560 1.327156 -0.130571
v -0.849646 2.050363 -0.617297
v -0.593764 1.327156 -1.404826
v -0.273662 -2.194134 -0.842258
v -1.266338 -1.327156 -0.842264
v -1.076745 0.075633 -1.425735
v 0.033082 0.075645 -1.786344
v 0.529431 -1.327156 -1.425730
v 1.519560 -1.327156 0.580103
v 0.529478 -1.327156 -1.425714
v 0.828936 0.624745 -1.605778
v 1.793169 0.697316 -0.261970
v 1.519560 -1.327156 0.580153
v 1.676399 -0.166678 0.621333
v 1.108961 -0.166684 1.402329
v 0.601434 -1.327156 1.402334
v 0.855196 -2.044372 0.621329
v 0.269880 -1.327156 1.510064
v -0.110391 -0.252419 1.786344
v -0.960670 -0.252428 1.510069
v -1.105924 -1.327156 1.063050
v -0.345399 -1.991379 1.063046
v 0.254843 2.247321 -0.784340
v -0.667202 2.247322 -0.484745
v -0.667202 2.247322 0.484745
v 0.254843 2.247321 0.784340
v 0.824706 2.247327 -0.000000
v 0.685370 -2.408383 -0.288332
v 0.478460 -1.705069 -1.074212
v 1.067605 -1.815064 0.251735
v -0.568934 -2.470710 0.000000
v -0.175807 -2.470706 -0.541088
v 0.602972 -2.408383 0.163479
v 0.460278 -2.470706 0.334408
v -0.175807 -2.470706 0.541088
vn 0.8017 0.1339 0.5825
vn -0.8017 -0.1339 0.5825
vn -0.8017 -0.1339 -0.5825
vn 0.7470 -0.6586 0.0915
vn 0.8017 0.1339 -0.5825
vn -0.3062 0.1339 0.9425
vn -0.9910 0.1339 -0.0000
vn -0.2267 0.6796 -0.6977
vn 0.5935 0.6796 0.4312
vn -0.2267 0.6796 0.6977
vn 0.3062 -0.1339 -0.9425
vn 0.9910 -0.1339 -0.0000
vn -0.7336 0.6796 -0.0000
vn -0.3062 0.1339 -0.9425
vn 0.2913 0.3336 0.8966
vn 0.2913 0.3336 -0.8966
vn 0.3062 -0.1339 0.9425
vn -0.7627 0.3336 -0.5541
vn 0.2163 -0.7868 -0.5781
vn -0.2913 -0.3336 -0.8966
vn 0.2267 -0.6796 0.6977
vn 0.6841 -0.2992 0.6652
vn 0.8345 -0.2887 -0.4693
vn -0.2913 -0.3336 0.8966
vn -0.5935 -0.6796 0.4312
vn -0.0000 1.0000 -0.0000
vn 0.5935 0.6796 -0.4312
vn 0.8895 -0.1983 -0.4117
vn 0.0404 -0.9987 -0.0294
vn -0.5935 -0.6796 -0.4312
vt 0.232982 0.226303
vt 0.312474 0.226303
vt 0.363637 0.314921
vt 0.229930 0.314921
vt 0.205874 0.273256
vt 0.818182 0.157461
vt 0.926382 0.157461
vt 0.963191 0.221216
vt 0.909091 0.314921
vt 0.684409 0.240678
vt 0.732455 0.157461
vt 0.767351 0.245504
vt 0.687195 0.245504
vt 0.315865 0.157461
vt 0.312474 0.088618
vt 0.336100 0.047695
vt 0.363639 0.000004
vt 0.342908 0.110628
vt 0.315869 0.157461
vt 0.385209 0.277557
vt 0.521398 0.273252
vt 0.521400 0.273256
vt 0.497344 0.314921
vt 0.054101 0.221216
vt 0.127719 0.221217
vt 0.157764 0.273256
vt 0.133708 0.314921
vt 0.000000 0.314921
vt 0.807430 0.314921
vt 0.569511 0.356587
vt 0.593566 0.314921
vt 0.647116 0.314921
vt 0.687195 0.384339
vt 0.676280 0.403245
vt 0.596448 0.403245
vt 0.205875 0.356587
vt 0.312644 0.403245
vt 0.232812 0.403245
vt 0.157763 0.356587
vt 0.130826 0.403245
vt 0.050994 0.403245
vt 0.540269 0.157461
vt 0.540273 0.157461
vt 0.588319 0.240678
vt 0.569510 0.273256
vt 0.767351 0.384339
vt 0.858098 0.403245
vt 0.778266 0.403245
vt 0.164529 0.157461
vt 0.193235 0.157461
vt 0.545453 0.000004
vt 0.572991 0.047695
vt 0.588318 0.074243
vt 0.535320 0.121186
vt 0.154282 0.047695
vt 0.209356 0.047695
vt 0.232982 0.088618
vt 0.127719 0.093704
vt 0.493434 0.121186
vt 0.963191 0.093704
vt 0.881555 0.047695
vt 0.936628 0.047695
vt 0.494462 0.403245
vt 0.521399 0.356587
vt 0.414630 0.403245
vt 0.699736 0.047695
vt 0.754809 0.047695
vt 0.684409 0.074243
s 0
usemtl None.003
f 30/1/1 29/2/1 3/3/1 6/4/1 5/5/1
f 1/6/2 36/7/2 35/8/2 2/9/2
f 21/10/3 20/11/3 1/6/3 15/12/3 14/13/3
f 28/14/4 32/15/4 49/16/4 48/17/4 43/17/4 45/18/4 24/19/4
f 27/20/5 26/21/5 9/22/5 13/23/5 3/3/5
f 35/24/6 34/25/6 4/26/6 8/27/6 2/28/6
f 1/6/7 2/9/7 16/29/7 15/12/7
f 12/30/8 11/31/8 18/32/8 17/33/8 39/34/8 38/35/8
f 7/36/9 6/4/9 3/3/9 42/37/9 41/38/9
f 2/28/10 8/27/10 7/39/10 41/40/10 40/41/10
f 26/21/11 25/42/11 23/43/11 22/44/11 10/45/11 9/22/11
f 29/2/12 28/14/12 24/19/12 27/20/12 3/3/12
f 17/46/13 16/29/13 2/9/13 40/47/13 39/48/13
f 22/44/14 21/10/14 14/13/14 18/32/14 11/31/14 10/45/14
f 4/26/15 5/5/15 6/4/15 7/36/15 8/27/15
f 9/22/16 10/45/16 11/31/16 12/30/16 13/23/16
f 34/25/17 33/49/17 31/50/17 30/1/17 5/5/17 4/26/17
f 14/13/18 15/12/18 16/29/18 17/46/18 18/32/18
f 48/51/19 47/52/19 19/53/19 23/43/19 25/42/19 44/54/19 43/51/19
f 19/53/20 20/11/20 21/10/20 22/44/20 23/43/20
f 50/55/21 49/56/21 32/57/21 31/50/21 33/49/21 37/58/21
f 28/14/22 29/2/22 30/1/22 31/50/22 32/57/22
f 24/19/23 45/18/23 44/59/23 25/42/23 26/21/23 27/20/23
f 33/49/24 34/25/24 35/24/24 36/7/24 37/60/24
f 46/61/25 50/62/25 37/60/25 36/7/25 1/6/25
f 38/63/26 39/34/26 40/47/26 41/40/26 42/37/26
f 3/3/27 13/23/27 12/64/27 38/63/27 42/65/27
f 43/17/28 44/54/28 45/18/28
f 46/61/29 47/66/29 48/51/29 49/16/29 50/55/29
f 47/66/30 46/67/30 1/6/30 20/11/30 19/68/30
