# Blender 4.3.0
# www.blender.org
mtllib Stump.mtl
o Stump_2
v 0.000000 0.000000 -1.747759
v -1.235852 0.000000 -1.235852
v -1.747759 0.000000 0.000000
v -1.235852 0.000000 1.235852
v 0.000000 0.000000 1.747759
v 1.235852 0.000000 1.235852
v 1.747759 0.000000 0.000000
v 1.235852 0.000000 -1.235852
v 0.000000 0.244159 -1.747759
v -1.235852 0.244159 -1.235852
v -1.747759 0.244159 0.000000
v -1.235852 0.244159 1.235852
v 0.000000 0.244159 1.747759
v 1.235852 0.244159 1.235852
v 1.747759 0.244159 0.000000
v 1.235852 0.244159 -1.235852
v 0.000000 0.244159 -2.361057
v -1.669520 0.244159 -1.669520
v -2.361057 0.244159 0.000000
v -1.669520 0.244159 1.669520
v 0.000000 0.244159 2.361057
v 1.669520 0.244159 1.669520
v 2.361057 0.244159 0.000000
v 1.669520 0.244159 -1.669520
v 0.000000 -1.333284 -2.361057
v -1.669520 -1.333284 -1.669520
v -2.361057 -1.333284 0.000000
v -1.669520 -1.333284 1.669520
v 0.000000 -1.333284 2.361057
v 1.669520 -1.333284 1.669520
v 2.361057 -1.333284 0.000000
v 1.669520 -1.333284 -1.669520
v 0.000000 -2.423910 -2.981239
v -2.108054 -2.423910 -2.108054
v -2.981239 -2.423910 0.000000
v -2.108054 -2.423910 2.108054
v 0.000000 -2.423910 2.981239
v 2.108054 -2.423910 2.108054
v 2.981239 -2.423910 0.000000
v 2.108054 -2.423910 -2.108054
v -1.235852 0.504501 -1.235852
v 0.000000 0.504501 -1.747759
v -1.747759 0.504501 0.000000
v -1.235852 0.504501 1.235852
v 1.235852 0.504501 1.470695
v 0.000000 0.504501 1.747759
v 1.747759 0.504501 0.000000
v -1.669520 0.504501 -1.669520
v 0.000000 0.504501 -2.361057
v -2.361057 0.504501 0.000000
v -1.669520 0.504501 1.669520
v 1.669520 0.504501 1.904363
v 0.000000 0.504501 2.361057
v 2.361057 0.504501 0.000000
v 1.276637 0.000000 1.137389
v 1.276637 0.244159 1.137389
v 1.724616 0.244159 1.536506
v 1.724616 -1.333284 1.536506
v 2.177623 -2.423910 1.940102
v 1.276637 0.411004 0.869235
v 1.724616 0.411004 1.268352
v 1.256244 0.000000 1.186621
v 1.256244 0.244159 1.186621
v 1.697068 0.244159 1.603013
v 1.697068 -1.333284 1.603013
v 2.142839 -2.423910 2.024078
vn -0.9239 -0.0000 0.3827
vn -0.3827 -0.0000 -0.9239
vn 0.9239 -0.0000 -0.3827
vn 0.3827 -0.0000 0.9239
vn -0.3827 -0.0000 0.9239
vn -0.9239 -0.0000 -0.3827
vn 0.3827 -0.0000 -0.9239
vn 0.9239 -0.0000 0.3827
vn -0.0000 -0.0000 -1.0000
vn -0.0000 1.0000 -0.0000
vn 0.2991 -0.3923 0.8698
vn -0.8733 0.3263 -0.3617
vn -0.2794 0.3948 -0.8753
vn 0.8179 0.4651 -0.3388
vn 0.3388 0.4651 0.8179
vn -0.8179 0.4651 0.3388
vn -0.3388 0.4651 -0.8179
vn 0.3388 0.4651 -0.8179
vn 0.8179 0.4651 0.3388
vn -0.3388 0.4651 0.8179
vn -0.8179 0.4651 -0.3388
vn -0.0000 -1.0000 -0.0000
vn 0.5258 0.6565 -0.5409
vn 0.8772 0.2552 0.4066
vn 0.7071 -0.0000 0.7071
vn -1.0000 -0.0000 -0.0000
vn 1.0000 -0.0000 -0.0000
vn 0.7869 0.5239 0.3260
vn -0.0274 0.9970 0.0730
vn -0.8684 -0.2637 -0.4200
vn 0.8733 -0.3263 0.3617
vn -0.3687 0.8382 0.4018
vn -0.7869 -0.5239 -0.3260
vt 0.471849 0.509342
vt 0.471850 0.504848
vt 0.472972 0.504847
vt 0.472971 0.509342
vt 0.469513 0.522126
vt 0.469809 0.517350
vt 0.470923 0.517310
vt 0.470627 0.522085
vt 0.471832 0.499962
vt 0.471849 0.505228
vt 0.470726 0.505227
vt 0.470710 0.499961
vt 0.492820 0.522879
vt 0.493224 0.518494
vt 0.494330 0.518421
vt 0.493926 0.522806
vt 0.492820 0.512358
vt 0.493926 0.512285
vt 0.471849 0.498946
vt 0.471849 0.498701
vt 0.472971 0.498701
vt 0.472971 0.498946
vt 0.469513 0.511238
vt 0.470627 0.511198
vt 0.471832 0.511198
vt 0.470710 0.511196
vt 0.472836 0.517732
vt 0.472836 0.515031
vt 0.474023 0.514988
vt 0.474023 0.517689
vt 0.492820 0.514278
vt 0.490467 0.519960
vt 0.487647 0.519960
vt 0.490826 0.512285
vt 0.486734 0.479191
vt 0.486832 0.473243
vt 0.487787 0.472690
vt 0.487904 0.479024
vt 0.490981 0.495149
vt 0.490981 0.488999
vt 0.493586 0.487920
vt 0.493586 0.496228
vt 0.474168 0.497690
vt 0.492820 0.525642
vt 0.490826 0.527635
vt 0.472110 0.517267
vt 0.471950 0.522349
vt 0.489103 0.481848
vt 0.489101 0.487920
vt 0.487904 0.487920
vt 0.487906 0.481848
vt 0.496355 0.481848
vt 0.496353 0.487920
vt 0.461377 0.498979
vt 0.461377 0.505443
vt 0.454213 0.506149
vt 0.454213 0.499685
vt 0.462288 0.513659
vt 0.455123 0.514366
vt 0.475394 0.499438
vt 0.475395 0.499117
vt 0.482647 0.499124
vt 0.482646 0.499446
vt 0.487904 0.487416
vt 0.480816 0.488424
vt 0.479646 0.480199
vt 0.489103 0.473545
vt 0.496355 0.473545
vt 0.475395 0.514295
vt 0.475373 0.507181
vt 0.482625 0.507189
vt 0.482647 0.514303
vt 0.479744 0.474251
vt 0.487619 0.507620
vt 0.487647 0.516603
vt 0.474176 0.479875
vt 0.474300 0.472365
vt 0.482568 0.494108
vt 0.477866 0.497438
vt 0.475653 0.490260
vt 0.448851 0.505851
vt 0.448851 0.497690
vt 0.450001 0.516226
vt 0.487647 0.497438
vt 0.487646 0.497843
vt 0.501370 0.472365
vt 0.501370 0.482849
vt 0.456268 0.497690
vt 0.448851 0.490272
vt 0.448851 0.479782
vt 0.456268 0.472365
vt 0.465923 0.472365
vt 0.466341 0.472365
vt 0.466759 0.472365
vt 0.474176 0.479782
vt 0.474176 0.490272
vt 0.466759 0.497690
vt 0.425877 0.105372
vt 0.434096 0.105372
vt 0.439908 0.111184
vt 0.439908 0.119404
vt 0.434096 0.125216
vt 0.433769 0.125216
vt 0.433441 0.125216
vt 0.425877 0.125216
vt 0.420065 0.119404
vt 0.420065 0.111184
vt 0.466908 0.504643
vt 0.462559 0.500295
vt 0.463639 0.497690
vt 0.469513 0.503564
vt 0.474169 0.512199
vt 0.472847 0.511831
vt 0.472836 0.509342
vt 0.474169 0.509701
vt 0.466908 0.510793
vt 0.469513 0.511872
vt 0.496035 0.489317
vt 0.496305 0.495133
vt 0.493586 0.495877
vt 0.462559 0.515141
vt 0.463639 0.517746
vt 0.475394 0.499759
vt 0.474176 0.507180
vt 0.474626 0.500977
vt 0.470724 0.497691
vt 0.469513 0.499959
vt 0.469527 0.497690
vt 0.495509 0.518343
vt 0.495105 0.522728
vt 0.448851 0.518867
vt 0.448851 0.516226
vt 0.450048 0.516226
vt 0.450048 0.518866
vt 0.469513 0.511195
vt 0.469530 0.505225
vt 0.462559 0.498863
vt 0.462559 0.505326
vt 0.474033 0.512200
vt 0.474033 0.514988
vt 0.472836 0.514987
vt 0.472836 0.512199
vt 0.487906 0.473545
vt 0.490509 0.488999
vt 0.490981 0.493523
vt 0.488376 0.494430
vt 0.482645 0.499767
vt 0.487645 0.498249
vt 0.472971 0.499191
vt 0.473739 0.500345
vt 0.474169 0.504847
vt 0.471849 0.499191
vt 0.474198 0.498048
vt 0.490509 0.494914
vt 0.487904 0.495907
s 0
usemtl Material
f 8/1/1 7/2/1 15/3/1 16/4/1
f 6/5/2 5/6/2 13/7/2 14/8/2
f 4/9/3 3/10/3 11/11/3 12/12/3
f 2/13/4 1/14/4 9/15/4 10/16/4
f 1/14/5 8/17/5 16/18/5 9/15/5
f 62/19/6 6/20/6 14/21/6 63/22/6
f 5/6/7 4/23/7 12/24/7 13/7/7
f 3/10/8 2/25/8 10/26/8 11/11/8
f 23/27/9 15/28/9 47/29/9 54/30/9
f 9/31/10 16/32/10 24/33/10 17/34/10
f 21/35/11 22/36/11 52/37/11 53/38/11
f 13/39/10 12/40/10 20/41/10 21/42/10
f 63/22/12 14/21/12 45/43/12
f 16/32/10 15/44/10 23/45/10 24/33/10
f 14/8/13 13/7/13 46/46/13 45/47/13
f 19/48/1 20/49/1 51/50/1 50/51/1
f 20/49/1 19/48/1 27/52/1 28/53/1
f 18/54/2 17/55/2 25/56/2 26/57/2
f 17/55/7 24/58/7 32/59/7 25/56/7
f 64/60/8 22/61/8 30/62/8 65/63/8
f 21/35/5 20/64/5 28/65/5 29/66/5
f 19/48/6 18/67/6 26/68/6 27/52/6
f 24/69/3 23/70/3 31/71/3 32/72/3
f 22/36/4 21/35/4 29/66/4 30/73/4
f 32/72/14 31/71/14 39/74/14 40/75/14
f 30/73/15 29/66/15 37/76/15 38/77/15
f 28/65/16 27/78/16 35/79/16 36/80/16
f 26/57/17 25/56/17 33/81/17 34/82/17
f 25/56/18 32/59/18 40/83/18 33/81/18
f 65/63/19 30/62/19 38/84/19 66/85/19
f 29/66/20 28/65/20 36/80/20 37/76/20
f 27/52/21 26/68/21 34/86/21 35/87/21
f 34/88/22 33/89/22 40/90/22 39/91/22 59/92/22 66/93/22 38/94/22 37/95/22 36/96/22 35/97/22
f 2/98/10 3/99/10 4/100/10 5/101/10 6/102/10 62/103/10 55/104/10 7/105/10 8/106/10 1/107/10
f 41/108/10 42/109/10 49/110/10 48/111/10
f 63/112/23 45/113/23 52/114/23 64/115/23
f 43/116/10 41/108/10 48/111/10 50/117/10
f 45/118/10 46/119/10 53/120/10 52/41/10
f 44/121/10 43/116/10 50/117/10 51/122/10
f 57/123/24 23/70/24 54/124/24 61/125/24
f 20/126/25 12/12/25 44/127/25 51/128/25
f 10/16/4 9/15/4 42/129/4 41/130/4
f 13/131/26 21/132/26 53/133/26 46/134/26
f 11/11/8 10/26/8 41/135/8 43/136/8
f 17/55/2 18/54/2 48/137/2 49/138/2
f 9/139/27 17/140/27 49/141/27 42/142/27
f 12/12/3 11/11/3 43/136/3 44/127/3
f 18/67/6 19/48/6 50/51/6 48/143/6
f 64/60/28 57/123/28 61/125/28
f 47/144/29 60/145/29 61/146/29 54/50/29
f 31/71/19 58/147/19 59/148/19 39/74/19
f 23/70/8 57/123/8 58/147/8 31/71/8
f 15/3/30 56/149/30 60/150/30 47/151/30
f 7/2/6 55/152/6 56/149/6 15/3/6
f 22/61/31 64/60/31 52/153/31
f 60/145/32 63/154/32 64/155/32 61/146/32
f 58/147/19 65/63/19 66/85/19 59/148/19
f 57/123/8 64/60/8 65/63/8 58/147/8
f 56/149/33 63/22/33 60/150/33
f 55/152/6 62/19/6 63/22/6 56/149/6
