# Blender 4.3.0
# www.blender.org
mtllib TrashBag.mtl
o TrashBag
v -1.144983 -0.790442 -0.266265
v -1.053993 1.065799 0.566760
v -0.925170 0.332890 -0.848483
v -0.644914 0.345835 -0.974857
v -0.891661 1.007389 -0.673288
v -0.788396 1.029222 -0.764829
v -0.640178 0.903305 -0.856861
v -0.557884 0.984052 -0.855170
v -0.248658 0.895866 -0.820479
v -0.258039 1.087360 -0.670123
v 0.579915 0.729906 -0.389051
v 0.077771 1.354242 0.065680
v -1.345972 0.848920 0.116709
v -1.165801 -0.517683 0.514624
v -1.162498 1.076444 0.438923
v -1.193117 1.216186 0.274307
v -0.070103 1.667048 0.565059
v -0.005518 1.649867 0.507996
v -0.015223 1.706576 0.305219
v -0.931739 1.251434 0.564183
v -0.713511 1.664407 0.098737
v -0.873720 1.345691 0.438688
v -1.191033 1.272989 -0.128040
v -0.005589 1.352375 -0.073500
v -0.743401 1.401666 -0.452979
v -0.098010 1.321590 -0.245104
v -0.147373 1.648104 -0.017696
v -0.649700 1.251688 -0.647150
v -0.802081 1.190926 -0.693650
v -0.194404 1.322634 -0.361348
v -0.674072 1.146677 -0.754975
v -0.123835 -0.883338 -0.592376
v 0.383723 -0.611584 -0.528284
v 0.552785 -0.566646 -0.251084
v -0.408478 -0.960058 -0.163622
v -1.273830 -0.836585 0.029019
v -1.038500 -0.978557 0.271312
v -1.228947 -0.869483 0.190417
v 0.068976 -0.697825 0.515997
v -1.245362 -0.816220 -0.162367
v -1.175347 -0.839620 0.334166
v -1.280451 -0.613780 0.229219
v -1.278570 -0.776619 -0.182297
v -1.361703 -0.363176 -0.049253
v -1.354117 -0.567419 -0.177840
v -1.318690 0.545432 -0.153783
v -1.101251 0.289364 -0.562644
v -1.030561 0.439932 -0.528123
v -1.360374 0.972292 -0.041863
v -1.329739 1.050599 -0.075655
v -0.673886 0.553698 -0.800290
v -1.221831 1.195211 -0.225829
v -1.219847 1.279595 0.059282
v -1.098269 1.147934 -0.407005
v -1.060005 1.075552 -0.462801
v -0.420482 -0.854859 0.582445
v 0.253143 -0.557511 0.734088
v 0.019273 -0.601210 0.828107
v -0.567007 -0.837236 0.643181
v -0.906138 -0.843686 0.593162
v -0.072311 -0.341741 0.882243
v -0.823781 -0.258596 0.756652
v 0.413940 0.338952 0.546430
v 0.053410 0.089680 0.828211
v -0.346890 0.177488 0.862912
v -0.997559 0.013556 0.746026
v 0.135008 0.466456 0.711642
v -0.017092 0.583543 0.793795
v -0.793491 0.284886 0.862534
v -1.239595 -0.120050 0.434767
v 0.363825 0.769029 0.499404
v 0.011391 1.118837 0.794127
v -0.628272 0.979999 0.833695
v -1.292960 0.679705 0.405446
v -1.253601 0.789068 0.477165
v -0.129289 1.350830 0.752960
v -0.980537 1.033118 0.693101
v 0.462597 -0.540453 -0.545851
v 0.598907 -0.558476 -0.325874
v 0.443096 -0.483312 -0.642472
v 0.597061 -0.493574 -0.488161
v 0.762346 -0.366645 -0.034050
v 0.624370 -0.369480 0.209789
v 0.528250 -0.295019 0.351674
v 0.507552 -0.426817 0.357735
v 0.398854 -0.261238 0.525200
v 0.813318 -0.294542 -0.124767
v 0.800708 -0.245840 0.034379
v 0.733056 -0.195279 0.181777
v 0.499377 -0.189209 0.404758
v 0.727278 -0.153789 -0.439189
v 0.860292 -0.091071 -0.068605
v 0.830877 -0.062058 0.055356
v 0.765482 -0.044243 0.168806
v 0.655245 -0.060405 0.275991
v 0.535663 -0.002548 0.364777
v 0.881176 0.231425 -0.172907
v 0.752807 0.694923 -0.018647
v 0.802186 0.614835 0.015483
v 0.489404 0.868532 0.324419
v -1.083297 -0.714091 -0.332879
v -0.522755 -0.500093 -0.865390
v -0.253973 -0.581605 -0.907033
v -0.058803 -0.606508 -0.926854
v 0.067654 -0.187439 -0.924937
v -0.901746 0.292987 -0.881261
v -0.317125 -0.001484 -0.971086
v 0.106296 0.148950 -0.880844
v -0.567874 0.262832 -1.013238
v 0.209920 0.422676 -0.796262
v -0.480206 0.541733 -0.912123
v -0.365828 0.521352 -0.931453
v -0.067828 0.627672 -0.870963
v -0.227905 1.739918 0.477751
v -0.329110 1.799772 0.270313
v -0.259371 1.867606 0.327347
v -0.349831 1.904086 0.339670
v -0.304459 2.015654 0.468755
v -0.279627 2.033712 0.367119
v -0.409525 2.035511 0.375542
v -0.404188 2.118584 0.545793
v -0.518761 2.191312 0.583717
v -0.983063 1.171564 0.588776
v -0.185466 -0.752863 -0.823459
v -0.470660 -0.716574 -0.739117
v -0.943905 -0.729510 -0.320366
v -1.144262 -0.373403 -0.650028
v -1.188728 -0.028662 -0.717978
v -1.078103 0.222976 -0.785084
v -0.760952 0.364489 -0.918301
v -1.004583 1.108734 -0.556032
v 0.334265 0.761397 -0.599815
v 0.456854 0.343894 -0.697461
v 0.285063 0.016384 -0.835456
v 0.021682 -0.457356 -0.911152
v 0.638360 -0.547044 -0.200196
v 0.081650 1.439712 0.155284
v 0.139273 1.281877 0.586370
v 0.545954 0.441727 0.384111
v 0.696550 0.284489 0.188713
v -0.943577 -0.997147 0.431731
v -0.869006 -0.955758 0.530556
v -1.262707 0.468557 0.427492
v -1.137107 -0.248106 0.554451
v -1.093265 -0.677315 0.556047
v -1.329224 -0.826473 0.185652
v -1.242847 -0.864597 0.281173
v -1.170359 1.023449 0.456005
v -1.186367 1.269459 0.191244
v -1.140773 1.316489 0.007584
v -1.131206 1.204601 -0.331883
v -0.398668 1.676899 0.584057
v -0.562103 1.514549 0.614661
v -0.462656 1.664770 0.579924
v -0.764064 1.389415 0.580162
v -0.029080 1.664851 0.539217
v -0.179481 1.698904 0.554022
v -0.550486 1.639462 0.525497
v -0.995003 1.213141 0.476323
v 0.155084 1.367335 0.427492
v -0.052792 1.702233 0.505696
v -0.439622 1.751627 0.390494
v -0.676398 1.472691 0.566025
v -0.219318 1.788886 0.243916
v -0.583525 1.665465 0.407289
v -0.767859 1.523288 0.316695
v -1.028585 1.329159 0.225344
v -0.033574 1.688345 0.115026
v -0.261142 1.776858 0.107866
v -0.454964 1.766387 0.033804
v -0.624303 1.727069 0.044230
v -0.868352 1.475692 0.106323
v -0.016965 1.646250 0.132291
v -0.185618 1.722904 0.026147
v -0.995436 1.371073 -0.212035
v -1.034099 1.353778 -0.120397
v 0.365721 0.975361 -0.122178
v -0.875223 1.249220 -0.588125
v 0.098607 1.105388 -0.275457
v -0.138824 1.395968 -0.240441
v -0.372963 1.503530 -0.261869
v -0.986491 1.172710 -0.556481
v -0.743116 1.107625 -0.777389
v -0.073760 1.618002 0.587309
v -0.856683 1.318295 0.588186
v 0.015757 1.639514 0.376955
v -0.176614 1.758528 0.392864
v 0.004391 1.639963 0.202168
v -0.004649 1.685562 0.205520
v -0.066605 1.728774 0.167706
v -0.466488 1.788867 0.127740
v -0.082671 1.710413 0.075056
v -0.627323 1.684636 -0.057077
v -0.956829 1.387044 0.149374
v -0.900100 1.330886 -0.464563
v -1.107142 1.251181 -0.292982
v -0.068079 1.653307 0.054062
v 0.457200 0.773870 -0.457932
v -0.065832 1.176061 -0.411828
v 0.115831 0.957981 -0.554836
v -0.906925 1.141571 -0.656417
v 0.095503 -0.702692 -0.860697
v -0.277200 -0.850327 -0.653416
v -0.506139 -0.813605 -0.577930
v -0.798938 -0.819496 -0.268589
v 0.060203 -0.752066 -0.834774
v 0.341964 -0.595441 -0.640440
v 0.025219 -0.809848 -0.681497
v -0.370811 -0.933982 -0.440963
v -0.981062 -0.796524 -0.246423
v 0.219618 -0.758906 -0.062612
v -0.277063 -0.965449 -0.120628
v -0.223962 -0.951755 0.224055
v -0.527069 -1.015758 0.271721
v -0.449238 -0.996369 0.337872
v 0.438806 -0.502204 0.411556
v 0.324746 -0.537974 0.654122
v -0.671982 -0.952362 0.508160
v 0.371890 -0.511894 0.582724
v -0.048450 -0.724650 0.591007
v -0.815662 -0.977631 0.488162
v -0.339044 -0.755082 -0.768751
v -0.079702 -0.831586 -0.728971
v -0.194891 -0.938556 -0.348714
v -1.070534 -0.788960 -0.260431
v 0.506147 -0.577762 -0.394975
v -0.016867 -0.880055 -0.334712
v -0.774827 -0.861256 -0.201725
v -1.012296 -0.795722 -0.170221
v -0.131508 -0.944713 0.025883
v -0.604160 -0.945089 -0.084612
v -0.883860 -0.817776 -0.146067
v -1.138734 -0.857241 0.055578
v 0.584884 -0.505497 0.081811
v -0.077386 -0.901802 0.136782
v -0.378089 -1.008220 0.183912
v -0.449694 -1.015065 0.106278
v -0.725141 -0.978485 0.121450
v -0.961068 -0.933367 0.119896
v -0.916625 -0.993572 0.302963
v 0.484405 -0.469981 0.357935
v -0.830711 -0.994829 0.426817
v -0.971011 -1.009081 0.327947
v -1.275746 -0.838392 0.269139
v -1.118215 -0.436763 -0.620301
v -1.319725 -0.818277 -0.040499
v -1.205699 -0.298513 -0.635381
v -1.367478 -0.590148 -0.087041
v -1.280164 -0.400449 0.330066
v -1.152125 0.088921 -0.751472
v -1.350016 0.031625 0.159741
v -1.382566 0.010743 -0.102103
v -1.368294 -0.051180 -0.270523
v -1.236265 0.006081 -0.547310
v -0.994661 0.363521 -0.658488
v -0.584255 0.433690 -0.908968
v -1.295809 -0.082262 0.330114
v -1.352049 0.464626 0.148297
v -1.272485 0.720056 -0.220527
v -1.234728 0.630279 -0.276599
v -1.372369 0.902500 0.031613
v -1.285941 1.144473 -0.107076
v -1.335127 1.158772 0.074676
v -1.248655 1.133724 0.269723
v -1.285183 1.170852 0.192488
v -1.289983 1.207092 0.138816
v -0.996212 -0.927286 0.487972
v -1.061824 -0.945449 0.343538
v -1.073156 -0.848900 0.437825
v -1.228267 -0.745989 0.305796
v -1.316622 -0.813063 0.226269
v -1.335550 -0.826829 0.086222
v -1.226619 -0.782169 -0.233326
v -1.177102 -0.685372 -0.338108
v -1.204339 -0.642757 0.378331
v -1.317553 -0.380983 0.108948
v -1.363190 -0.629288 0.049148
v -1.320408 -0.674775 -0.190222
v -1.228883 -0.569054 -0.392514
v -1.249282 -0.370430 0.416906
v -1.283790 -0.482828 0.225028
v -1.373065 -0.208855 -0.132130
v -1.331703 -0.255594 -0.358457
v -1.318766 -0.276860 0.281051
v -1.373888 0.241069 0.037766
v -1.360373 0.484272 -0.002062
v -1.368278 0.105657 -0.242240
v -1.174497 0.155407 -0.569837
v -1.322133 0.145341 0.276211
v -1.312576 0.249329 -0.294103
v -1.245847 0.194519 -0.408551
v -1.283543 0.404351 0.384213
v -1.329529 0.384550 0.298954
v -1.366011 0.618942 0.122869
v -1.259750 1.019956 -0.237440
v -1.147990 0.912390 -0.352220
v -0.987690 0.637942 -0.507589
v -0.827763 0.529295 -0.677710
v -1.309720 1.060953 0.121735
v -1.353790 1.095638 0.019022
v -1.268007 1.215872 -0.023621
v -1.211311 1.141837 0.330492
v -1.038892 -0.830462 0.541378
v 0.165650 -0.545218 0.846218
v -0.898138 -0.904368 0.572161
v -0.982178 -0.308801 0.677291
v 0.225766 -0.522947 0.807580
v 0.022992 -0.533914 0.873097
v -0.888260 -0.561361 0.673344
v 0.090070 -0.396616 0.890220
v -0.526963 -0.105543 0.838834
v 0.215570 0.244966 0.718575
v -0.142338 0.619472 0.830591
v -0.623093 0.624078 0.859868
v 0.176747 0.943302 0.676227
v -1.273749 0.881129 0.394800
v -1.190538 0.664879 0.583739
v -1.061393 0.845065 0.681511
v -0.009833 1.615583 0.542951
v -0.987675 0.935759 0.722780
v 0.469774 -0.425652 0.423729
v 0.146646 -0.595369 0.753533
v -0.948266 -0.926035 0.534075
v 0.341745 -0.488293 0.658660
v 0.323138 -0.140833 0.655103
v 0.251988 -0.095637 0.738580
v -0.188392 -0.544202 0.836703
v 0.554264 0.278934 0.385415
v 0.395354 0.096598 0.573691
v 0.149148 -0.410851 0.860729
v -0.912070 0.079177 0.815876
v 0.375408 0.513836 0.554570
v -0.061305 0.293539 0.850963
v 0.259634 0.580457 0.625009
v 0.194712 0.705838 0.688892
v 0.124094 0.923455 0.732912
v -0.167641 0.849134 0.790092
v -0.764031 0.650758 0.881191
v -1.020890 0.289702 0.756162
v 0.120307 1.152350 0.661243
v -0.072581 1.107927 0.817734
v -0.400389 1.092728 0.788393
v -0.821913 0.750415 0.850640
v 0.024209 1.368479 0.665160
v -0.006974 1.267777 0.766690
v -0.299301 1.314340 0.769397
v -0.783968 1.194742 0.726736
v -0.445833 1.507382 0.657369
v -0.767601 1.336827 0.654900
v -0.995811 1.125314 0.623723
v 0.664205 -0.494800 0.001279
v 0.609846 -0.437466 0.191689
v 0.207447 -0.576199 -0.822211
v 0.274786 -0.175309 -0.805784
v 0.502349 0.020754 -0.647848
v 0.797194 -0.237181 -0.316600
v 0.836490 0.176984 -0.294212
v 0.798822 0.423068 -0.300794
v 0.809580 0.501890 -0.245832
v 0.820152 0.543509 0.037651
v 0.737685 0.706937 -0.104334
v 0.667302 0.757317 -0.159270
v 0.299372 1.100926 0.080739
v 0.371204 1.054093 0.143646
v 0.308975 1.118704 0.283793
v 0.123846 1.423153 0.520987
v 0.525476 -0.480918 0.249121
v 0.494277 -0.556651 -0.483955
v 0.107301 -0.642648 -0.881806
v 0.639617 -0.520613 -0.373786
v 0.677736 -0.520598 -0.229581
v 0.671326 -0.518138 -0.100680
v 0.648204 -0.464101 0.094601
v 0.596507 -0.368212 -0.564403
v 0.685646 -0.356129 -0.465600
v 0.733897 -0.414614 -0.317374
v 0.765813 -0.402331 -0.154431
v 0.412166 -0.134509 0.498470
v 0.864543 -0.036710 -0.220399
v 0.885154 0.108488 -0.091476
v 0.822031 0.397267 0.059096
v 0.855999 0.378102 -0.198585
v 0.723891 0.444970 0.140424
v 0.792356 0.621888 -0.149350
v 0.390435 0.903864 0.408486
v 0.719425 0.642565 -0.305477
v 0.348828 1.040809 0.406257
v 0.235416 1.195227 0.495456
v 0.652472 0.695296 -0.338172
v 0.204222 1.236402 0.173319
v -0.849177 -0.557160 -0.621049
v -1.070295 -0.354648 -0.660276
v 0.068396 -0.638906 -0.898245
v -1.077936 -0.077585 -0.750129
v -0.737616 -0.177011 -0.883594
v 0.058484 -0.090603 -0.904680
v -0.069374 0.039905 -0.935562
v 0.401007 0.331216 -0.720101
v 0.410480 0.204038 -0.750604
v -0.433550 0.233134 -1.023132
v 0.461957 0.483601 -0.657163
v -0.508079 0.316150 -1.014167
v -0.511468 0.482381 -0.913969
v -0.470454 0.410665 -0.960375
v -0.344466 0.398537 -0.964460
v 0.415723 0.543721 -0.657744
v 0.292894 0.693132 -0.662775
v -1.097571 -0.591978 -0.467742
v -1.072433 -0.529773 -0.556296
v -0.988343 -0.503813 -0.599669
v -1.178109 -0.264624 -0.681438
v -0.686197 -0.624647 -0.676925
v -0.273448 -0.660295 -0.862872
v -0.060122 -0.730802 -0.864539
v 0.008036 -0.714962 -0.879664
v -1.195215 -0.122940 -0.704769
v -1.038142 -0.268764 -0.696830
v -0.215601 -0.380254 -0.943797
v -0.099996 -0.432628 -0.951380
v -0.077952 -0.449553 -0.946660
v -0.492744 -0.112472 -0.946671
v 0.302020 0.132859 -0.796808
v -0.731597 0.304259 -0.958011
v -0.233557 0.144208 -0.985741
v -0.633234 0.614391 -0.832118
v -0.149355 0.460171 -0.923791
v -0.755622 0.886583 -0.784325
v -0.495665 0.818034 -0.901471
v -0.224202 0.751264 -0.887293
v -0.351897 1.802546 0.427763
v -0.296690 1.886634 0.314140
v -0.253116 1.817677 0.410208
v -0.375032 1.808044 0.378931
v -0.374028 1.740403 0.476483
v -0.171472 1.777969 0.292140
v -0.357249 1.938006 0.431436
v -0.268709 1.901147 0.381623
v -0.367916 1.906820 0.381354
v -0.295908 1.896371 0.414085
v -0.343931 1.860691 0.416226
v -0.523030 2.157330 0.589823
v -0.502889 2.170684 0.385501
v -0.262632 2.032185 0.413096
v -0.393194 2.025631 0.484900
v -0.294719 2.118371 0.558429
v -0.347567 2.072394 0.350672
v -0.394171 2.147094 0.452723
v -0.141777 2.176367 0.420501
v -0.193825 2.187584 0.538971
v -0.174788 2.171291 0.373134
v -0.288901 2.167881 0.394622
v -0.311504 2.143713 0.531468
v -0.394854 2.140973 0.380934
v -0.155991 2.177431 0.530091
v -0.572042 2.189317 0.582064
v -0.583131 2.203900 0.435262
v -0.597430 2.203466 0.495760
v -0.518898 2.211037 0.447484
v -0.564348 1.764094 0.089280
v -0.786990 1.569640 -0.134968
v 0.038788 1.344722 -0.010001
v -0.544684 1.496569 -0.320359
v -0.055157 1.371495 -0.133611
v 0.062985 -0.706379 -0.871918
v 0.571047 -0.544784 -0.106331
v -0.848876 0.427692 -0.733045
v -1.311809 0.852096 -0.149212
v 0.065816 0.915184 0.769425
v -1.133762 0.120906 0.605829
v -0.900151 0.554105 0.838677
v -0.870008 1.055259 0.752403
v -0.625851 1.375833 0.687242
v -0.919523 1.235532 0.623853
v 0.421540 -0.338231 -0.708577
v 0.438518 0.633260 -0.611387
v -0.443615 -0.407872 -0.921087
v -0.358884 0.782066 -0.908691
v -0.421673 2.022477 0.420241
v -0.180789 2.195440 0.437084
vn -0.7183 0.2978 0.6288
vn -0.7101 0.3434 0.6147
vn -0.7123 0.3088 0.6303
vn -0.7840 0.5210 0.3374
vn -0.5969 0.5795 0.5549
vn -0.3993 0.8107 0.4282
vn -0.4349 0.8655 0.2486
vn -0.1821 0.9539 -0.2385
vn -0.8046 0.2237 -0.5502
vn 0.5240 0.2660 0.8091
vn -0.1384 0.4253 0.8944
vn -0.2949 0.3963 0.8695
vn -0.4884 0.6187 0.6154
vn 0.8203 0.3545 0.4489
vn 0.0648 0.5181 0.8528
vn -0.5464 0.5632 0.6199
vn 0.7181 0.6582 0.2260
vn 0.3867 0.7395 0.5510
vn 0.1846 0.8209 0.5404
vn 0.1304 0.9054 0.4041
vn -0.0174 0.8628 0.5053
vn -0.4437 0.8338 0.3284
vn -0.6149 0.7067 0.3499
vn 0.9116 0.3853 -0.1435
vn 0.8930 0.4465 -0.0569
vn 0.9052 0.4250 0.0064
vn 0.7304 0.6660 0.1513
vn 0.1547 0.9413 0.2999
vn 0.1645 -0.1630 0.9728
vn -0.4611 0.8308 0.3116
vn -0.6921 0.6145 0.3786
vn 0.9408 0.2063 -0.2690
vn 0.6341 0.7521 -0.1796
vn 0.6099 0.7860 -0.1010
vn 0.4162 0.9092 -0.0087
vn 0.3008 0.9242 -0.2353
vn 0.0719 0.9914 -0.1098
vn -0.5526 0.8318 0.0518
vn -0.8665 0.4985 -0.0262
vn 0.8366 0.1100 -0.5367
vn 0.6800 0.3997 -0.6146
vn -0.6974 0.7153 0.0433
vn -0.6077 0.7429 0.2808
vn 0.7203 0.5374 -0.4386
vn 0.3999 0.6070 -0.6867
vn -0.3571 0.8104 -0.4645
vn -0.5810 0.7408 -0.3372
vn -0.4202 0.8470 -0.3257
vn 0.5012 0.7649 -0.4047
vn 0.7386 0.5028 -0.4491
vn 0.2003 0.7122 -0.6728
vn -0.2611 0.7569 -0.5991
vn 0.5202 0.7682 -0.3732
vn 0.8410 0.4775 -0.2544
vn 0.7298 0.6758 -0.1035
vn 0.5803 0.5501 -0.6005
vn -0.4757 0.4330 -0.7657
vn 0.2604 0.7118 -0.6523
vn 0.2570 0.6046 -0.7540
vn -0.4496 0.1179 -0.8854
vn -0.5569 0.1922 -0.8080
vn -0.2410 -0.9658 -0.0953
vn -0.4806 -0.8708 0.1034
vn -0.6618 -0.7047 0.2560
vn 0.2038 -0.6250 -0.7535
vn -0.4876 -0.7322 -0.4755
vn -0.2940 -0.7863 -0.5434
vn 0.5102 -0.8452 -0.1594
vn 0.3195 -0.6094 -0.7256
vn -0.0237 -0.7839 -0.6204
vn -0.3882 -0.8380 -0.3834
vn 0.6481 -0.5869 -0.4853
vn -0.0316 -0.9312 -0.3630
vn -0.1670 -0.8622 -0.4783
vn 0.6233 -0.7071 -0.3339
vn -0.2109 -0.9129 -0.3495
vn -0.3004 -0.9267 -0.2256
vn -0.3193 -0.9413 0.1099
vn -0.0807 -0.9965 -0.0226
vn 0.2365 -0.9667 -0.0981
vn -0.0022 -0.9930 -0.1179
vn 0.1040 -0.9905 -0.0899
vn 0.2237 -0.9572 0.1834
vn 0.1476 -0.9805 0.1295
vn 0.5249 -0.8489 0.0620
vn 0.4849 -0.8689 0.0996
vn 0.0240 -0.9803 -0.1961
vn -0.1627 -0.9616 -0.2208
vn -0.4004 -0.9136 -0.0706
vn -0.0849 -0.9483 -0.3059
vn -0.1168 -0.9790 -0.1671
vn 0.3576 -0.9046 0.2320
vn 0.1403 -0.9712 0.1925
vn 0.5317 -0.8191 0.2153
vn 0.3374 -0.9409 0.0281
vn 0.2890 -0.9350 0.2055
vn -0.1728 -0.9161 -0.3618
vn -0.2139 -0.8717 -0.4409
vn -0.2405 -0.8895 -0.3885
vn 0.3910 -0.8804 0.2682
vn -0.0546 -0.9981 0.0278
vn -0.3635 -0.8740 -0.3226
vn 0.7778 -0.5244 0.3463
vn 0.4874 -0.8673 0.1013
vn 0.1929 -0.8590 0.4743
vn 0.0560 -0.9649 0.2568
vn 0.7392 -0.6239 0.2537
vn 0.0312 -0.9644 0.2627
vn 0.0251 -0.9939 0.1076
vn 0.4202 -0.8936 0.1580
vn -0.0439 -0.9093 0.4139
vn -0.9592 -0.2525 -0.1271
vn -0.9615 0.0278 -0.2735
vn -0.4893 0.4934 -0.7192
vn -0.6294 0.2079 -0.7487
vn -0.8063 -0.3326 -0.4891
vn -0.7681 -0.4912 0.4107
vn -0.5230 -0.2883 0.8021
vn -0.6051 -0.6991 -0.3810
vn -0.8719 -0.3430 0.3496
vn -0.7228 -0.2773 0.6330
vn -0.6847 0.1136 0.7200
vn -0.9899 -0.1266 0.0634
vn -0.8532 -0.3784 -0.3588
vn -0.3510 -0.5993 -0.7195
vn -0.1353 -0.5871 -0.7981
vn -0.9413 -0.2492 0.2279
vn -0.9638 -0.0160 0.2662
vn -0.9543 0.1083 0.2785
vn -0.9876 -0.0326 -0.1535
vn -0.8454 -0.2088 -0.4916
vn -0.7678 -0.0160 0.6404
vn -0.9171 -0.1382 0.3739
vn -0.9546 -0.2175 0.2035
vn -0.9828 -0.0967 0.1573
vn -0.8830 -0.0141 0.4692
vn -0.9464 0.0306 0.3215
vn -0.9912 -0.0394 0.1264
vn -0.9671 0.1503 -0.2051
vn -0.9958 0.0164 -0.0904
vn -0.7706 0.4624 -0.4386
vn -0.9370 0.0739 0.3415
vn -0.9675 -0.0534 0.2470
vn -0.7273 0.3363 0.5983
vn -0.9786 -0.0123 -0.2055
vn -0.9415 0.1282 -0.3116
vn -0.8686 0.0089 -0.4955
vn -0.7731 0.0687 -0.6305
vn -0.6831 0.0143 -0.7301
vn -0.7411 -0.0540 -0.6693
vn -0.7448 -0.0550 -0.6650
vn -0.6491 0.4634 -0.6032
vn -0.9930 0.0906 -0.0761
vn -0.8257 0.4901 -0.2791
vn -0.9145 0.3828 -0.1310
vn -0.7982 -0.2306 -0.5566
vn -0.9151 -0.0769 0.3958
vn -0.7241 0.6896 -0.0099
vn -0.4755 0.8735 -0.1039
vn -0.6274 0.6639 -0.4069
vn -0.7253 0.3580 -0.5881
vn -0.8470 0.1952 0.4944
vn -0.5454 0.5862 0.5991
vn -0.6118 0.6875 0.3912
vn -0.3802 0.9098 0.1663
vn -0.8512 -0.0470 -0.5227
vn -0.6318 -0.0470 0.7737
vn -0.7962 -0.0763 0.6002
vn 0.0828 -0.7892 0.6085
vn -0.2744 -0.7956 0.5402
vn 0.7561 -0.4370 0.4872
vn 0.2768 -0.8716 0.4045
vn 0.1411 -0.8040 0.5776
vn 0.8678 0.0708 0.4918
vn 0.5466 -0.0233 0.8371
vn 0.1110 -0.5566 0.8233
vn -0.0394 -0.5539 0.8317
vn -0.0872 -0.4885 0.8682
vn -0.3820 -0.2300 0.8951
vn 0.8670 -0.0961 0.4889
vn 0.8830 0.0521 0.4664
vn 0.7617 0.0026 0.6479
vn 0.4698 0.1464 0.8705
vn -0.1904 -0.1516 0.9699
vn -0.2169 -0.2158 0.9520
vn -0.4159 -0.1686 0.8936
vn 0.7566 0.0155 0.6536
vn 0.6009 0.1107 0.7916
vn -0.1044 -0.0182 0.9944
vn -0.1585 -0.2106 0.9646
vn 0.7612 0.0440 0.6470
vn 0.5054 0.2100 0.8369
vn 0.4481 0.1539 0.8807
vn 0.0706 -0.0713 0.9950
vn 0.0613 0.0774 0.9951
vn 0.0009 0.0074 1.0000
vn -0.5934 -0.0795 0.8010
vn 0.7321 0.1755 0.6582
vn 0.7830 0.0920 0.6151
vn 0.4568 -0.0305 0.8891
vn 0.5267 0.0378 0.8492
vn 0.0615 0.1799 0.9818
vn 0.1379 -0.0615 0.9885
vn -0.8334 -0.0259 0.5521
vn 0.7661 0.2339 0.5987
vn 0.7782 0.2513 0.5756
vn 0.6710 0.2316 0.7044
vn 0.7611 0.3283 0.5594
vn 0.0784 0.2739 0.9586
vn -0.0943 0.1276 0.9873
vn -0.2507 0.2798 0.9267
vn -0.1688 0.2781 0.9456
vn 0.6302 0.4458 0.6357
vn -0.0110 0.4528 0.8916
vn -0.1669 0.3470 0.9229
vn -0.1495 0.4090 0.9002
vn -0.4850 0.4384 0.7567
vn -0.7407 0.1795 0.6475
vn 0.0843 0.5124 0.8546
vn -0.2610 0.5390 0.8009
vn -0.3269 0.5517 0.7673
vn -0.1549 -0.2777 -0.9481
vn -0.5669 0.7383 0.3654
vn -0.8156 0.5646 -0.1267
vn 0.8104 -0.1272 0.5719
vn 0.8067 0.0400 0.5896
vn 0.8088 0.0460 0.5863
vn 0.7755 0.2406 0.5837
vn 0.7708 0.2331 0.5929
vn 0.7880 0.3273 0.5214
vn 0.8244 -0.4405 0.3554
vn 0.5122 -0.8549 -0.0830
vn 0.5397 -0.7678 0.3451
vn 0.6235 -0.6554 0.4262
vn 0.6489 -0.3627 -0.6689
vn 0.4711 -0.7143 -0.5175
vn 0.4575 -0.7745 -0.4368
vn 0.6357 -0.3991 -0.6608
vn 0.8582 -0.2952 0.4200
vn 0.4147 -0.0324 -0.9094
vn 0.4597 0.0553 -0.8863
vn 0.6076 -0.1770 -0.7742
vn 0.7138 -0.3616 -0.5998
vn 0.8631 -0.3061 -0.4017
vn 0.7797 -0.4789 -0.4033
vn 0.9192 -0.3631 -0.1527
vn 0.9195 -0.3689 0.1358
vn 0.7724 -0.4030 0.4909
vn 0.8074 -0.0734 0.5855
vn 0.7831 -0.0947 0.6147
vn 0.8485 0.0224 0.5287
vn 0.4993 -0.1586 -0.8518
vn 0.6516 -0.0953 -0.7525
vn 0.6230 -0.1210 -0.7728
vn 0.7330 0.0032 0.6802
vn 0.7315 0.0563 -0.6795
vn 0.8601 -0.0620 -0.5064
vn 0.9379 0.0033 -0.3470
vn 0.9929 -0.0418 -0.1116
vn 0.9919 -0.1256 -0.0172
vn 0.9639 -0.0914 0.2501
vn 0.9542 0.0554 0.2939
vn 0.8672 0.0126 0.4979
vn 0.6873 0.0910 0.7206
vn 0.6313 0.1321 0.7642
vn 0.6651 0.1090 0.7387
vn 0.7176 0.3040 -0.6266
vn 0.7108 0.2430 -0.6601
vn 0.8900 0.1727 -0.4219
vn 0.9844 0.1738 0.0277
vn 0.6667 0.1165 0.7362
vn 0.5889 0.5340 -0.6067
vn 0.8500 0.3988 -0.3442
vn 0.6927 0.0718 0.7176
vn 0.5313 0.6695 -0.5192
vn 0.6926 0.6664 -0.2761
vn 0.7864 0.4320 0.4415
vn 0.6694 0.1383 0.7299
vn 0.6756 0.6775 -0.2909
vn 0.5307 0.7874 -0.3137
vn 0.8470 0.5203 0.1091
vn 0.6845 0.6727 -0.2809
vn 0.7387 0.6738 0.0174
vn 0.8562 0.5077 -0.0960
vn 0.8604 0.5077 0.0430
vn 0.3267 -0.1036 -0.9394
vn -0.3716 -0.7501 -0.5470
vn -0.4575 -0.7138 -0.5304
vn -0.3688 -0.7081 -0.6021
vn -0.4847 -0.6451 -0.5907
vn -0.2658 -0.5804 -0.7697
vn -0.0193 -0.3854 -0.9225
vn -0.1801 -0.5253 -0.8316
vn -0.4358 -0.5294 -0.7279
vn -0.0941 -0.4454 -0.8904
vn 0.1266 -0.3291 -0.9358
vn -0.5107 -0.0847 -0.8556
vn -0.3078 -0.1447 -0.9404
vn -0.2384 -0.3055 -0.9219
vn -0.1195 -0.1562 -0.9805
vn -0.0031 0.1367 -0.9906
vn 0.1911 -0.0248 -0.9813
vn 0.1942 -0.0995 -0.9759
vn 0.2048 -0.5082 -0.8366
vn 0.2195 0.2196 -0.9506
vn 0.1468 0.2922 -0.9450
vn -0.4225 0.4142 -0.8062
vn -0.3522 0.3895 -0.8511
vn -0.4053 -0.0818 -0.9105
vn 0.4168 0.1206 -0.9010
vn 0.3388 0.2432 -0.9089
vn 0.3361 0.2497 -0.9081
vn -0.2480 0.5519 -0.7962
vn -0.2217 0.2321 -0.9471
vn 0.2918 0.1086 -0.9503
vn 0.4332 0.3250 -0.8407
vn 0.1639 0.2502 -0.9542
vn 0.3581 0.1493 -0.9217
vn -0.4704 0.2738 -0.8389
vn -0.4867 -0.0659 -0.8711
vn 0.0029 0.3457 -0.9384
vn 0.1118 0.2760 -0.9546
vn 0.0593 0.0853 -0.9946
vn 0.4271 0.2635 -0.8649
vn -0.5314 -0.0063 -0.8471
vn -0.1516 0.0835 -0.9849
vn -0.0295 0.0877 -0.9957
vn 0.0219 0.2762 -0.9609
vn 0.4053 0.4749 -0.7812
vn -0.7153 0.5708 0.4031
vn -0.6540 0.6815 -0.3284
vn -0.6157 -0.7259 0.3066
vn 0.9790 0.1986 0.0457
vn 0.0866 0.4516 -0.8880
vn -0.0966 -0.5534 0.8273
vn 0.3076 0.8994 -0.3107
vn -0.0954 0.9283 -0.3595
vn 0.5798 0.7595 0.2951
vn -0.0805 0.7008 0.7088
vn 0.2174 -0.0428 0.9751
vn -0.2746 0.6094 0.7438
vn -0.0819 0.3546 -0.9314
vn -0.1070 0.9941 -0.0181
vn -0.5547 -0.7792 0.2916
vn -0.0373 0.1813 0.9827
vn -0.7158 -0.6763 -0.1740
vn -0.6517 0.5634 0.5078
vn -0.8136 0.4762 0.3335
vn -0.8052 0.2946 0.5147
vn -0.7177 0.0059 -0.6963
vn -0.6271 0.5378 -0.5635
vn -0.5769 0.3899 0.7178
vn -0.6944 0.6917 0.1985
vn -0.6185 0.6785 0.3964
vn -0.4523 0.7670 0.4551
vn -0.4802 0.8546 0.1977
vn 0.0649 0.4082 0.9106
vn -0.5283 0.7358 0.4237
vn -0.4871 0.4897 0.7232
vn -0.6051 0.7620 -0.2305
vn 0.7258 0.4442 0.5253
vn -0.2821 0.8734 0.3969
vn -0.0012 0.8804 0.4742
vn 0.3647 0.9228 0.1246
vn 0.9781 0.1985 -0.0631
vn 0.8584 0.5031 0.0996
vn 0.1046 0.0821 0.9911
vn -0.4232 0.8810 0.2117
vn -0.2424 0.9568 0.1604
vn 0.2964 0.9432 -0.1499
vn -0.6731 0.6602 0.3333
vn -0.6108 0.7019 0.3665
vn 0.8870 0.3973 -0.2353
vn 0.9252 0.2469 -0.2881
vn 0.5607 0.7883 -0.2534
vn -0.3962 0.8510 -0.3447
vn 0.0463 0.9916 -0.1205
vn 0.0348 0.9729 -0.2286
vn -0.1454 0.9580 -0.2471
vn -0.5321 0.8172 0.2214
vn -0.6687 0.6890 0.2794
vn -0.7503 0.6244 0.2172
vn -0.7608 0.6085 0.2257
vn 0.2718 0.8993 -0.3425
vn 0.1287 0.8781 -0.4608
vn -0.2174 0.8940 -0.3918
vn -0.7229 0.6890 -0.0521
vn -0.6199 0.7841 0.0316
vn 0.7944 0.3680 -0.4833
vn -0.4584 0.8885 0.0217
vn 0.6205 0.6720 -0.4042
vn 0.6393 0.6767 -0.3652
vn 0.0786 0.7833 -0.6167
vn 0.8002 0.3430 -0.4919
vn 0.5982 0.4067 -0.6905
vn -0.2183 0.8231 -0.5243
vn -0.5989 0.7491 -0.2830
vn -0.3039 0.7655 -0.5671
vn -0.5780 0.6224 -0.5277
vn -0.6155 0.6325 -0.4702
vn 0.5713 0.7288 -0.3775
vn 0.6374 0.5817 -0.5054
vn 0.6973 0.6065 -0.3820
vn 0.6147 0.6888 -0.3843
vn 0.7035 0.5736 -0.4196
vn 0.5296 0.5716 -0.6267
vn 0.3745 0.6039 -0.7036
vn 0.1827 0.7577 -0.6265
vn 0.0228 0.7965 -0.6042
vn -0.1081 0.7608 -0.6399
vn -0.4991 0.5642 -0.6577
vn -0.5575 0.5555 -0.6169
vn 0.5161 0.6897 -0.5078
vn -0.0961 0.7011 -0.7066
vn 0.4831 0.6323 -0.6056
vn 0.3699 0.7007 -0.6101
vn 0.3026 0.6710 -0.6769
vn 0.2399 0.6457 -0.7249
vn -0.7342 0.2031 -0.6478
vn 0.4190 0.6178 -0.6654
vn 0.4205 0.6778 -0.6031
vn -0.3250 -0.9442 -0.0540
vn -0.0145 0.5169 -0.8559
vn -0.2273 0.2514 -0.9408
vn -0.6654 0.0181 -0.7463
vn 0.0703 -0.6875 -0.7228
vn 0.0358 -0.9775 -0.2080
vn -0.1888 -0.9732 -0.1316
vn -0.1016 -0.8173 -0.5672
vn -0.4838 -0.7852 0.3864
vn -0.5033 -0.7990 0.3291
vn 0.0561 -0.8051 -0.5904
vn -0.2538 -0.8082 -0.5314
vn 0.0084 -0.7188 -0.6952
vn -0.3460 -0.7682 -0.5386
vn -0.1725 -0.6852 -0.7077
vn -0.3466 -0.8474 -0.4023
vn -0.0616 -0.9191 -0.3891
vn 0.3079 -0.9147 -0.2616
vn 0.6385 -0.6623 -0.3920
vn 0.5230 -0.8416 -0.1348
vn 0.3791 -0.8877 -0.2612
vn 0.4826 -0.8355 -0.2626
vn 0.5581 -0.7664 -0.3181
vn 0.3449 -0.9294 -0.1313
vn 0.0251 -0.9949 -0.0972
vn 0.2018 -0.9793 0.0175
vn -0.1590 -0.9858 -0.0548
vn 0.4875 -0.8714 -0.0547
vn 0.4701 -0.8561 -0.2145
vn 0.2859 -0.9563 0.0617
vn 0.4656 -0.8849 -0.0107
vn 0.3122 -0.9500 0.0004
vn 0.0659 -0.9910 -0.1168
vn 0.2602 -0.9469 0.1888
vn 0.2008 -0.9777 -0.0611
vn 0.0973 -0.9920 0.0799
vn -0.1407 -0.9609 -0.2384
vn -0.3281 -0.8830 -0.3357
vn -0.1029 -0.9436 -0.3147
vn 0.5279 -0.8269 0.1938
vn 0.4869 -0.7944 0.3631
vn -0.0956 -0.9883 -0.1191
vn -0.4582 -0.8885 -0.0223
vn -0.0784 -0.9833 -0.1645
vn -0.1665 -0.8857 -0.4333
vn 0.4954 -0.8552 0.1522
vn 0.5156 -0.8317 0.2060
vn 0.3605 -0.8521 0.3795
vn 0.0491 -0.9726 0.2273
vn 0.2056 -0.9667 -0.1525
vn 0.0211 -0.8694 -0.4937
vn 0.3288 -0.8562 0.3985
vn 0.3874 -0.8738 0.2939
vn -0.8918 0.3782 -0.2483
vn 0.1087 -0.9187 0.3797
vn 0.7297 -0.6368 0.2492
vn 0.0748 -0.8447 0.5300
vn 0.3659 -0.8908 0.2694
vn 0.3032 -0.8890 0.3431
vn -0.6346 -0.3901 -0.6672
vn -0.7727 -0.1929 -0.6048
vn -0.9315 0.2042 -0.3010
vn -0.7827 0.5693 -0.2514
vn -0.2885 0.8063 -0.5163
vn -0.6379 0.6889 -0.3444
vn -0.4314 0.8159 -0.3850
vn -0.5441 0.0904 -0.8341
vn -0.2542 0.5380 -0.8037
vn -0.6061 -0.0111 -0.7953
vn -0.6992 -0.6178 0.3597
vn -0.9398 0.0818 0.3319
vn -0.7706 -0.5327 0.3498
vn -0.5986 -0.5945 0.5369
vn -0.4580 -0.4221 0.7823
vn -0.5433 -0.0532 0.8378
vn 0.8753 0.4795 0.0634
vn -0.5413 -0.6933 -0.4757
vn -0.2760 -0.8361 -0.4741
vn -0.8123 -0.3924 0.4314
vn -0.7073 -0.1937 0.6799
vn -0.8940 -0.0998 0.4369
vn -0.7279 0.1052 0.6776
vn -0.8330 0.1433 0.5343
vn -0.9790 -0.1886 -0.0772
vn -0.9417 -0.2514 -0.2234
vn -0.9966 0.0118 0.0816
vn -0.6739 -0.3560 -0.6474
vn -0.6086 -0.5280 -0.5922
vn -0.1826 -0.7185 -0.6711
vn -0.8409 -0.2588 0.4753
vn -0.8913 -0.0082 0.4534
vn -0.6560 -0.4538 -0.6031
vn -0.6363 -0.4991 -0.5883
vn -0.8096 -0.3522 -0.4696
vn -0.8850 -0.2053 0.4180
vn -0.7694 -0.0124 0.6386
vn -0.8898 0.0019 0.4564
vn -0.9907 -0.1193 0.0652
vn -0.9093 -0.1397 -0.3921
vn -0.9580 0.0777 0.2761
vn -0.9900 -0.0603 0.1279
vn -0.9957 -0.0421 -0.0823
vn -0.9968 -0.0333 -0.0722
vn -0.9681 -0.0698 -0.2406
vn -0.9234 0.0636 -0.3785
vn -0.8386 0.2439 -0.4870
vn -0.9984 0.0517 -0.0232
vn -0.9963 0.0596 -0.0612
vn -0.8826 0.1863 -0.4317
vn -0.9772 0.0010 0.2125
vn -0.9060 0.0752 -0.4166
vn -0.8494 0.2843 -0.4447
vn -0.9604 -0.0460 0.2748
vn -0.9369 0.0262 -0.3486
vn -0.9842 0.1601 0.0754
vn -0.9958 0.0658 0.0637
vn -0.7171 0.2744 -0.6407
vn -0.8267 0.0037 -0.5626
vn -0.8675 0.1982 -0.4561
vn -0.6757 0.1710 -0.7170
vn -0.6518 0.5622 -0.5090
vn -0.7730 0.4468 -0.4503
vn -0.8844 -0.0292 0.4658
vn -0.9033 0.1286 0.4093
vn -0.8767 -0.0313 0.4801
vn -0.9914 -0.0530 0.1200
vn -0.8664 -0.2838 -0.4110
vn 0.2798 -0.4706 -0.8368
vn -0.7551 0.0929 -0.6490
vn -0.9430 -0.1354 -0.3039
vn -0.7751 0.1568 -0.6121
vn -0.8946 0.2194 -0.3893
vn -0.9066 0.1302 0.4014
vn -0.7204 -0.0085 -0.6935
vn -0.8045 0.0319 -0.5931
vn -0.6393 0.2150 -0.7383
vn -0.6264 0.0399 -0.7784
vn -0.9344 0.2282 0.2734
vn -0.9183 -0.0496 0.3927
vn -0.8533 0.3524 -0.3844
vn -0.7364 0.6501 -0.1873
vn -0.7262 0.6800 -0.1008
vn -0.8364 0.4921 -0.2413
vn -0.6894 0.5509 0.4705
vn -0.7788 0.3388 0.5279
vn -0.8432 0.2257 0.4880
vn -0.8674 0.3730 0.3294
vn -0.5794 0.7882 0.2075
vn -0.5510 0.7290 -0.4063
vn -0.7952 0.2896 0.5327
vn -0.9630 0.1324 0.2348
vn -0.5874 0.5598 0.5845
vn -0.3503 0.9281 0.1265
vn -0.7707 0.2984 -0.5630
vn -0.5589 -0.5756 0.5969
vn -0.6127 -0.0742 0.7869
vn -0.9859 -0.1303 0.1046
vn -0.9315 0.1072 0.3477
vn -0.7426 0.3170 0.5899
vn 0.8789 -0.2578 0.4013
vn -0.4555 -0.7407 0.4938
vn -0.3733 -0.2576 0.8912
vn 0.8392 -0.3268 0.4347
vn 0.7448 -0.3089 0.5915
vn 0.3707 -0.8465 0.3821
vn 0.2807 -0.8671 0.4116
vn 0.1426 -0.8052 0.5757
vn -0.0346 -0.6406 0.7671
vn -0.2271 -0.6873 0.6899
vn 0.5683 -0.6426 0.5139
vn 0.2472 -0.1574 0.9561
vn -0.4094 -0.4489 0.7943
vn 0.7819 0.0523 0.6211
vn -0.1504 -0.3754 0.9146
vn -0.1303 -0.1115 0.9852
vn -0.2139 -0.2543 0.9432
vn 0.8691 0.0130 0.4945
vn 0.7114 0.0244 0.7023
vn 0.7728 0.0479 0.6328
vn 0.6469 0.0827 0.7581
vn 0.6218 0.1083 0.7756
vn -0.1601 -0.1283 0.9787
vn -0.4002 -0.1629 0.9018
vn 0.8073 -0.1036 0.5810
vn 0.0732 0.1029 0.9920
vn 0.4557 0.1442 0.8784
vn -0.4231 -0.2360 0.8748
vn -0.0184 -0.0731 0.9972
vn -0.1294 -0.1478 0.9805
vn -0.7467 -0.0860 0.6596
vn -0.6543 -0.1874 0.7326
vn 0.7278 0.1290 0.6736
vn 0.5395 0.0489 0.8405
vn 0.5245 0.0870 0.8470
vn 0.4505 0.1912 0.8721
vn 0.3152 0.1371 0.9391
vn 0.0312 0.0261 0.9992
vn 0.3678 -0.0236 0.9296
vn 0.5896 0.1961 0.7835
vn 0.7171 0.0659 0.6938
vn 0.6170 -0.0795 0.7830
vn 0.4598 -0.0303 0.8875
vn 0.7136 0.0910 0.6947
vn 0.1668 -0.1254 0.9780
vn 0.1234 0.1056 0.9867
vn 0.0368 0.1775 0.9834
vn -0.0855 -0.0747 0.9935
vn -0.2956 -0.0325 0.9547
vn 0.1501 0.0028 0.9887
vn -0.2321 0.1594 0.9596
vn -0.8683 -0.0714 0.4908
vn -0.5217 -0.0278 0.8526
vn -0.6462 0.0576 0.7610
vn -0.7683 -0.0543 0.6378
vn 0.7285 0.2135 0.6509
vn 0.6796 0.2900 0.6738
vn -0.4692 0.1772 0.8651
vn 0.2402 0.2044 0.9489
vn 0.0362 0.2654 0.9635
vn -0.0317 0.4271 0.9036
vn -0.1209 0.1394 0.9828
vn -0.6271 0.0715 0.7757
vn 0.6839 0.3861 0.6191
vn -0.8675 -0.0138 0.4972
vn -0.4941 0.4016 0.7710
vn 0.6055 0.4183 0.6771
vn 0.2682 0.3813 0.8847
vn 0.2294 0.4780 0.8479
vn -0.1278 0.4234 0.8969
vn -0.3155 0.4568 0.8317
vn 0.4579 -0.8237 -0.3346
vn -0.4350 0.4061 0.8037
vn -0.4729 0.6262 0.6199
vn -0.5387 0.3719 0.7560
vn 0.7849 -0.4188 0.4567
vn 0.7838 0.2334 0.5755
vn 0.7838 0.2335 0.5754
vn 0.6633 -0.5778 -0.4756
vn 0.6276 -0.6506 0.4276
vn 0.5796 -0.8137 0.0444
vn 0.6502 -0.4015 -0.6450
vn 0.8011 -0.5457 0.2459
vn 0.5720 -0.8062 -0.1511
vn 0.3976 0.2032 -0.8948
vn 0.6476 -0.4423 -0.6205
vn 0.8046 -0.1760 0.5671
vn 0.5373 -0.0191 -0.8432
vn 0.8664 0.0684 0.4947
vn 0.5001 -0.1289 -0.8563
vn 0.6614 -0.0008 -0.7501
vn 0.7959 -0.0855 -0.5993
vn 0.8100 -0.5635 -0.1621
vn 0.7894 -0.4382 -0.4299
vn 0.9273 -0.3300 -0.1766
vn 0.7961 -0.5928 0.1222
vn 0.8738 -0.4413 0.2043
vn 0.7869 -0.4268 0.4457
vn 0.9665 -0.2324 -0.1090
vn 0.6551 -0.2970 0.6947
vn 0.6920 -0.1172 0.7124
vn 0.6478 -0.1503 -0.7468
vn 0.8559 -0.0402 -0.5155
vn 0.9514 -0.2302 0.2044
vn 0.8585 -0.1721 0.4830
vn 0.6905 -0.1019 0.7161
vn 0.7399 0.1203 -0.6619
vn 0.6110 0.0504 0.7900
vn 0.7290 0.0112 0.6845
vn 0.7314 0.0165 -0.6817
vn 0.9026 0.1103 -0.4160
vn 0.9864 0.1117 0.1204
vn 0.9321 0.0150 0.3620
vn 0.6956 0.0497 0.7167
vn 0.9666 0.2535 -0.0374
vn 0.9414 0.2829 -0.1838
vn 0.6494 0.4524 -0.6113
vn 0.6542 0.7515 -0.0852
vn 0.7903 0.2742 -0.5479
vn 0.8230 0.5641 -0.0662
vn 0.8563 0.5156 -0.0290
vn 0.7867 0.3551 0.5049
vn 0.6540 0.0338 0.7557
vn 0.7414 0.6167 -0.2647
vn 0.6364 0.7626 -0.1161
vn 0.7209 0.6864 0.0961
vn 0.7700 0.5841 0.2566
vn 0.5415 0.7855 -0.2996
vn 0.5721 0.6827 -0.4546
vn 0.7285 0.6199 -0.2917
vn 0.8711 0.4668 0.1525
vn 0.8023 0.5795 -0.1434
vn -0.3135 -0.5006 -0.8069
vn 0.3311 -0.3702 -0.8679
vn 0.3370 0.0198 -0.9413
vn -0.0280 -0.7704 -0.6369
vn -0.0781 -0.7815 -0.6191
vn -0.4725 -0.7180 -0.5111
vn -0.1997 -0.6203 -0.7585
vn -0.3320 -0.5390 -0.7741
vn 0.3404 -0.3653 -0.8664
vn -0.0160 -0.4301 -0.9027
vn -0.0578 -0.2935 -0.9542
vn -0.0648 -0.4060 -0.9116
vn -0.2922 -0.4176 -0.8604
vn 0.1861 -0.3700 -0.9102
vn 0.0645 -0.1546 -0.9859
vn -0.4635 -0.4993 -0.7320
vn -0.4580 -0.4942 -0.7389
vn -0.1508 -0.4470 -0.8817
vn -0.3985 -0.3136 -0.8619
vn -0.2327 -0.3058 -0.9232
vn -0.4260 -0.3242 -0.8447
vn -0.1504 -0.2417 -0.9586
vn -0.0115 -0.0227 -0.9997
vn 0.1893 -0.0467 -0.9808
vn -0.1414 -0.1710 -0.9751
vn -0.1267 0.1916 -0.9733
vn 0.1275 -0.1088 -0.9858
vn -0.5478 0.3151 -0.7750
vn -0.4951 0.0560 -0.8671
vn -0.4057 -0.1880 -0.8945
vn -0.2178 -0.1201 -0.9686
vn 0.3445 0.0246 -0.9385
vn -0.3706 -0.1374 -0.9186
vn 0.4005 0.1497 -0.9040
vn 0.1103 0.2985 -0.9480
vn 0.2665 0.2435 -0.9325
vn -0.4035 0.3584 -0.8419
vn -0.2720 0.1843 -0.9445
vn -0.1668 -0.2045 -0.9646
vn 0.0453 -0.1949 -0.9798
vn 0.2382 -0.0903 -0.9670
vn 0.2180 0.1764 -0.9599
vn 0.4510 0.2224 -0.8644
vn 0.3097 0.2463 -0.9184
vn -0.0833 0.6341 -0.7688
vn -0.0619 0.0521 -0.9967
vn 0.2362 0.1260 -0.9635
vn 0.5111 0.3945 -0.7636
vn 0.3466 0.3602 -0.8661
vn 0.0188 0.4889 -0.8721
vn 0.1108 0.2787 -0.9540
vn 0.3244 0.1373 -0.9359
vn -0.7232 -0.2097 -0.6580
vn -0.3672 0.2215 -0.9034
vn -0.1205 0.2381 -0.9638
vn 0.2292 0.4479 -0.8642
vn 0.4282 0.3236 -0.8437
vn -0.6569 -0.0481 -0.7525
vn -0.5190 -0.0999 -0.8490
vn -0.3180 -0.0435 -0.9471
vn -0.1782 0.2018 -0.9631
vn 0.4005 0.4230 -0.8128
vn 0.0129 0.6393 0.7689
vn 0.4022 0.5775 -0.7104
vn -0.1840 0.4966 -0.8482
vn 0.5535 0.7219 -0.4154
vn 0.6924 0.6763 0.2514
vn -0.8878 -0.3027 -0.3468
vn 0.5981 0.6272 0.4989
vn -0.9160 0.0796 -0.3933
vn -0.5223 0.6983 0.4895
vn -0.7503 -0.5178 0.4110
vn -0.8350 0.1115 0.5388
vn -0.7393 -0.5653 -0.3658
vn -0.9129 0.0756 -0.4011
vn -0.1512 0.9680 0.2003
vn -0.9156 -0.2235 0.3342
vn 0.6935 0.3460 0.6320
vn -0.2356 0.9685 -0.0803
vn 0.3955 0.2703 -0.8778
vn -0.3533 0.9295 0.1058
vn -0.4095 0.0650 -0.9100
vn 0.7946 -0.1905 0.5764
vn -0.2981 -0.1363 -0.9448
vn 0.9926 0.0710 -0.0985
vn 0.0417 -0.4557 0.8891
vn 0.3769 0.9229 0.0782
vn 0.0621 -0.6597 0.7489
vn 0.1364 -0.5315 0.8360
vn 0.7178 -0.6724 0.1805
vn -0.2618 0.9642 0.0408
vn 0.4574 0.8857 -0.0799
vn 0.4482 0.8848 0.1276
vn 0.4024 -0.6234 0.6704
vn 0.7333 -0.5697 -0.3712
vn -0.0178 0.9882 0.1524
vn 0.1822 -0.0961 -0.9786
vn -0.1318 0.8099 -0.5716
vn 0.1338 0.8460 -0.5162
vn 0.3785 0.1174 0.9181
vn -0.6531 -0.7542 0.0685
vn -0.5946 -0.3576 -0.7201
vt 0.598352 0.710076
vt 0.613636 0.723172
vt 0.596033 0.727565
vt 0.617744 0.754182
vt 0.617711 0.773986
vt 0.680182 0.738919
vt 0.670587 0.750000
vt 0.659091 0.750000
vt 0.691938 0.727273
vt 0.742496 0.738831
vt 0.761364 0.746216
vt 0.750000 0.750000
vt 0.772727 0.728615
vt 0.757631 0.727273
vt 0.784091 0.745808
vt 0.772727 0.750000
vt 0.823222 0.704841
vt 0.865614 0.747059
vt 0.807463 0.737123
vt 0.682569 0.581770
vt 0.665889 0.602669
vt 0.637989 0.519151
vt 0.669418 0.655658
vt 0.671028 0.673645
vt 0.612607 0.672672
vt 0.633897 0.698535
vt 0.693916 0.710891
vt 0.670218 0.715909
vt 0.698384 0.554800
vt 0.694722 0.631754
vt 0.701023 0.687606
vt 0.710624 0.615880
vt 0.719194 0.639656
vt 0.719237 0.653815
vt 0.725388 0.664346
vt 0.755434 0.501126
vt 0.745282 0.536668
vt 0.715124 0.506008
vt 0.724352 0.549381
vt 0.745438 0.586598
vt 0.733811 0.608077
vt 0.727272 0.636352
vt 0.722682 0.650068
vt 0.722650 0.643174
vt 0.721564 0.650666
vt 0.728223 0.686698
vt 0.741842 0.716656
vt 0.767176 0.543243
vt 0.764515 0.592145
vt 0.750003 0.620970
vt 0.734996 0.639956
vt 0.776625 0.614309
vt 0.758999 0.653689
vt 0.738670 0.647721
vt 0.736214 0.656685
vt 0.761364 0.693182
vt 0.755239 0.704545
vt 0.754193 0.689218
vt 0.798157 0.585222
vt 0.784091 0.703489
vt 0.772000 0.705273
vt 0.780400 0.685509
vt 0.795455 0.511364
vt 0.806818 0.522727
vt 0.786753 0.506072
vt 0.813660 0.611002
vt 0.789132 0.632737
vt 0.795455 0.686028
vt 0.777513 0.677033
vt 0.784091 0.715909
vt 0.795455 0.725115
vt 0.829001 0.502487
vt 0.854798 0.504715
vt 0.820249 0.524794
vt 0.818182 0.534091
vt 0.835363 0.618945
vt 0.815077 0.636923
vt 0.824025 0.663748
vt 0.806818 0.676568
vt 0.807230 0.657246
vt 0.860989 0.570039
vt 0.829545 0.545455
vt 0.840909 0.555427
vt 0.829508 0.568589
vt 0.843291 0.590227
vt 0.851600 0.666177
vt 0.843021 0.697637
vt 0.867362 0.613431
vt 0.833948 0.640092
vt 0.875000 0.632997
vt 0.870091 0.650912
vt 0.875000 0.674876
vt 0.871240 0.693559
vt 0.238636 0.748694
vt 0.227273 0.750000
vt 0.238412 0.720573
vt 0.308935 0.702294
vt 0.329981 0.704095
vt 0.282175 0.748314
vt 0.363108 0.713665
vt 0.348406 0.750000
vt 0.143447 0.572887
vt 0.175744 0.586522
vt 0.133056 0.596375
vt 0.156062 0.664924
vt 0.125000 0.670455
vt 0.146571 0.641090
vt 0.130337 0.695630
vt 0.170705 0.500000
vt 0.185748 0.529571
vt 0.138134 0.523356
vt 0.174579 0.613636
vt 0.207867 0.646192
vt 0.197711 0.509007
vt 0.194734 0.612084
vt 0.179469 0.625000
vt 0.172614 0.702108
vt 0.210289 0.561811
vt 0.226802 0.613636
vt 0.244439 0.636818
vt 0.211163 0.607019
vt 0.238773 0.676431
vt 0.222083 0.697384
vt 0.170231 0.730148
vt 0.247710 0.590909
vt 0.233175 0.602273
vt 0.226577 0.590594
vt 0.212515 0.747860
vt 0.268850 0.538685
vt 0.250736 0.544454
vt 0.243656 0.498329
vt 0.238636 0.545094
vt 0.249368 0.579545
vt 0.264241 0.590909
vt 0.263470 0.620606
vt 0.257593 0.698358
vt 0.265985 0.711077
vt 0.277195 0.500000
vt 0.261364 0.500000
vt 0.304739 0.516050
vt 0.277737 0.602273
vt 0.272396 0.613306
vt 0.297537 0.615486
vt 0.272727 0.677601
vt 0.269805 0.653242
vt 0.284928 0.627754
vt 0.314533 0.660727
vt 0.302980 0.676211
vt 0.327901 0.517313
vt 0.308926 0.558886
vt 0.370636 0.568341
vt 0.319457 0.598720
vt 0.381124 0.613636
vt 0.355091 0.634254
vt 0.340434 0.664385
vt 0.383311 0.545665
vt 0.386590 0.579564
vt 0.356400 0.599563
vt 0.378763 0.679399
vt 0.421024 0.999172
vt 0.409091 1.000000
vt 0.409482 0.974220
vt 0.494559 0.965348
vt 0.477273 0.999617
vt 0.465592 1.000125
vt 0.545455 0.974131
vt 0.543267 0.995062
vt 0.526530 0.984834
vt 0.556818 0.983100
vt 0.622474 0.991838
vt 0.588130 0.997221
vt 0.564356 0.984811
vt 0.404096 0.760124
vt 0.424684 0.805137
vt 0.397456 0.802272
vt 0.417014 0.826854
vt 0.393400 0.848189
vt 0.376359 0.842984
vt 0.393464 0.897727
vt 0.422118 0.913906
vt 0.391727 0.913159
vt 0.425519 0.757766
vt 0.448004 0.767456
vt 0.447957 0.827523
vt 0.429258 0.839322
vt 0.441467 0.851727
vt 0.395742 0.863636
vt 0.444479 0.879522
vt 0.386339 0.886364
vt 0.383308 0.871268
vt 0.440946 0.918219
vt 0.421876 0.927032
vt 0.437207 0.954675
vt 0.401911 0.948061
vt 0.475826 0.818801
vt 0.458428 0.848295
vt 0.468067 0.854685
vt 0.465909 0.881172
vt 0.476150 0.886183
vt 0.454163 0.916576
vt 0.448338 0.897727
vt 0.454545 0.952272
vt 0.508044 0.743637
vt 0.477273 0.781508
vt 0.490704 0.731178
vt 0.489109 0.802009
vt 0.501467 0.841846
vt 0.518806 0.786925
vt 0.508334 0.862014
vt 0.488636 0.891309
vt 0.517906 0.868368
vt 0.511364 0.886851
vt 0.500000 0.927297
vt 0.488905 0.928425
vt 0.534091 0.968535
vt 0.518612 0.970025
vt 0.515892 0.954545
vt 0.556818 0.764546
vt 0.545455 0.766845
vt 0.545455 0.746865
vt 0.545455 0.810093
vt 0.531655 0.818290
vt 0.556818 0.840909
vt 0.545455 0.840909
vt 0.541030 0.856697
vt 0.556818 0.863387
vt 0.545455 0.875173
vt 0.530002 0.896663
vt 0.545455 0.913972
vt 0.525743 0.908203
vt 0.545427 0.954518
vt 0.577662 0.960007
vt 0.568182 0.813777
vt 0.556818 0.826865
vt 0.556818 0.799787
vt 0.579546 0.818053
vt 0.568182 0.863431
vt 0.585840 0.766755
vt 0.598616 0.809065
vt 0.594267 0.828215
vt 0.591258 0.876482
vt 0.617072 0.897727
vt 0.601216 0.904651
vt 0.617159 0.920455
vt 0.615547 0.929436
vt 0.567778 0.904168
vt 0.585939 0.944094
vt 0.614083 0.804473
vt 0.625000 0.795587
vt 0.613576 0.843747
vt 0.604463 0.862945
vt 0.622339 0.886364
vt 0.465909 0.776697
vt 0.483561 0.715001
vt 0.534725 0.712028
vt 0.416338 0.636154
vt 0.412194 0.705442
vt 0.432681 0.556058
vt 0.439444 0.587683
vt 0.402755 0.592273
vt 0.442548 0.615101
vt 0.465909 0.500595
vt 0.429118 0.489438
vt 0.470836 0.602650
vt 0.441143 0.602273
vt 0.458494 0.620419
vt 0.429614 0.687849
vt 0.459747 0.707797
vt 0.443182 0.693971
vt 0.480287 0.478220
vt 0.492064 0.528702
vt 0.477273 0.543416
vt 0.508065 0.546675
vt 0.488129 0.582418
vt 0.509475 0.619587
vt 0.473627 0.617523
vt 0.488636 0.664402
vt 0.483589 0.693883
vt 0.465631 0.643532
vt 0.509366 0.512277
vt 0.511364 0.593665
vt 0.511471 0.641108
vt 0.479977 0.636364
vt 0.514775 0.673989
vt 0.526205 0.507331
vt 0.532708 0.564901
vt 0.525147 0.542882
vt 0.522727 0.616959
vt 0.534091 0.626929
vt 0.537953 0.647727
vt 0.518600 0.659091
vt 0.541809 0.686174
vt 0.515463 0.690627
vt 0.554612 0.514003
vt 0.556818 0.554427
vt 0.545455 0.568182
vt 0.539741 0.545364
vt 0.545213 0.599154
vt 0.534091 0.606434
vt 0.556818 0.617982
vt 0.545455 0.625000
vt 0.545455 0.638113
vt 0.545455 0.659091
vt 0.583721 0.520673
vt 0.568182 0.547867
vt 0.583937 0.568246
vt 0.573115 0.618441
vt 0.588254 0.638868
vt 0.561623 0.636364
vt 0.583675 0.652616
vt 0.558319 0.649228
vt 0.556818 0.659091
vt 0.580046 0.672459
vt 0.561468 0.675104
vt 0.582813 0.685085
vt 0.623097 0.603428
vt 0.601517 0.681062
vt 0.611490 0.702399
vt 0.570399 0.715124
vt 0.574524 0.727273
vt 0.602273 0.704545
vt 0.613636 0.715909
vt 0.646642 0.727273
vt 0.521184 0.457333
vt 0.540131 0.455679
vt 0.571780 0.467212
vt 0.590190 0.469299
vt 0.606417 0.469450
vt 0.376551 0.435826
vt 0.424657 0.460889
vt 0.382236 0.476348
vt 0.390601 0.346849
vt 0.443506 0.367942
vt 0.384962 0.368656
vt 0.418554 0.399685
vt 0.429060 0.412073
vt 0.446906 0.421567
vt 0.444740 0.245072
vt 0.440686 0.297698
vt 0.389377 0.237563
vt 0.455168 0.325092
vt 0.413438 0.305665
vt 0.384569 0.323802
vt 0.470758 0.301109
vt 0.465607 0.415838
vt 0.488636 0.272668
vt 0.459412 0.277093
vt 0.477273 0.254568
vt 0.447250 0.207593
vt 0.477273 0.284091
vt 0.477273 0.314175
vt 0.488636 0.317627
vt 0.477273 0.338578
vt 0.451908 0.345820
vt 0.488636 0.349310
vt 0.477273 0.361534
vt 0.488636 0.371098
vt 0.477456 0.374817
vt 0.488636 0.392693
vt 0.484066 0.438293
vt 0.469628 0.434769
vt 0.500000 0.244284
vt 0.488636 0.208933
vt 0.511364 0.253126
vt 0.498829 0.282531
vt 0.495772 0.295455
vt 0.501198 0.445759
vt 0.527774 0.302122
vt 0.514458 0.317721
vt 0.534091 0.329586
vt 0.522727 0.344241
vt 0.507228 0.348479
vt 0.505097 0.369688
vt 0.545717 0.394414
vt 0.534460 0.413170
vt 0.502169 0.391209
vt 0.500598 0.412669
vt 0.534091 0.246177
vt 0.552205 0.232553
vt 0.551405 0.306004
vt 0.584507 0.315020
vt 0.560253 0.323936
vt 0.545455 0.328974
vt 0.593877 0.183722
vt 0.607449 0.287754
vt 0.569255 0.348305
vt 0.580597 0.430608
vt 0.616858 0.268021
vt 0.602063 0.336550
vt 0.586887 0.353111
vt 0.598008 0.420166
vt 0.560533 0.390649
vt 0.602114 0.302014
vt 0.622256 0.332289
vt 0.614327 0.350943
vt 0.625000 0.369962
vt 0.613636 0.378284
vt 0.602273 0.389296
vt 0.602273 0.407802
vt 0.617560 0.417452
vt 0.477273 0.210879
vt 0.412857 0.068182
vt 0.415445 0.079545
vt 0.375006 0.052111
vt 0.414887 0.090909
vt 0.403946 0.102273
vt 0.375000 0.090909
vt 0.409091 0.013169
vt 0.404034 0.047581
vt 0.387698 0.007911
vt 0.420455 0.037572
vt 0.451875 0.117152
vt 0.390528 0.125000
vt 0.383374 0.113636
vt 0.442657 0.056818
vt 0.464361 0.069646
vt 0.397118 0.136364
vt 0.469248 0.097153
vt 0.465909 0.162808
vt 0.400147 0.152780
vt 0.477273 0.000903
vt 0.488634 0.004309
vt 0.467142 0.006395
vt 0.478886 0.049267
vt 0.465909 0.122011
vt 0.476471 0.122198
vt 0.488636 0.135449
vt 0.477273 0.183372
vt 0.511364 0.090909
vt 0.507652 0.102573
vt 0.502267 0.088642
vt 0.500000 0.151566
vt 0.511835 0.156666
vt 0.522727 0.011408
vt 0.511455 0.026585
vt 0.511364 0.006126
vt 0.534091 0.025197
vt 0.522727 0.042142
vt 0.559046 0.113636
vt 0.519522 0.108082
vt 0.530141 0.161828
vt 0.522727 0.252627
vt 0.545455 0.008263
vt 0.569088 0.024184
vt 0.550636 0.045424
vt 0.533889 0.062277
vt 0.583730 0.087969
vt 0.533589 0.090909
vt 0.579545 0.061389
vt 0.545615 0.073877
vt 0.595992 0.108028
vt 0.576663 0.014918
vt 0.592664 0.038382
vt 0.590515 0.011008
vt 0.614028 0.040226
vt 0.593945 0.072276
vt 0.612748 0.101384
vt 0.625000 0.051822
vt 0.619334 0.067342
vt 0.613636 0.083375
vt 0.625000 0.094842
vt 0.578274 0.135948
vt 0.622756 0.120284
vt 0.722518 0.651229
vt 0.727269 0.654794
vt 0.721574 0.649475
vt 0.727268 0.651862
vt 0.727268 0.653411
vt 0.731610 0.643250
vt 0.727269 0.642226
vt 0.724644 0.642644
vt 0.732934 0.645986
vt 0.732415 0.650405
vt 0.732625 0.647191
vt 0.721592 0.647505
vt 0.722087 0.644848
vt 0.730251 0.643393
vt 0.727268 0.644674
vt 0.727269 0.643028
vt 0.729392 0.646195
vt 0.727268 0.647354
vt 0.724469 0.648903
vt 0.723495 0.646569
vt 0.724386 0.643413
vt 0.723744 0.644623
vt 0.729607 0.648788
vt 0.730212 0.651762
vt 0.722198 0.650352
vt 0.723923 0.650837
vt 0.732993 0.653631
vt 0.636984 0.738636
vt 0.875000 0.720711
vt 0.738636 0.750000
vt 0.685592 0.500319
vt 0.749609 0.678772
vt 0.768250 0.668303
vt 0.796623 0.501169
vt 0.872067 0.546046
vt 0.848561 0.645240
vt 0.254729 0.746171
vt 0.167870 0.749130
vt 0.125000 0.727531
vt 0.129002 0.625000
vt 0.130808 0.613636
vt 0.157405 0.625000
vt 0.327722 0.750000
vt 0.129358 0.636364
vt 0.125000 0.647727
vt 0.200629 0.594826
vt 0.221849 0.500472
vt 0.223044 0.546378
vt 0.488636 0.998762
vt 0.508936 0.968336
vt 0.500000 0.997866
vt 0.459929 0.976537
vt 0.448066 0.999623
vt 0.433719 0.996381
vt 0.519512 0.980488
vt 0.522727 1.000000
vt 0.534091 1.000000
vt 0.511364 1.000000
vt 0.568182 1.000000
vt 0.556818 1.000000
vt 0.477273 0.938802
vt 0.513490 0.932280
vt 0.532564 0.852485
vt 0.568182 0.767079
vt 0.576629 0.737001
vt 0.556818 0.733740
vt 0.625000 0.845348
vt 0.555875 0.680875
vt 0.417015 0.385950
vt 0.576719 0.372448
vt 0.625000 0.340909
vt 0.388358 0.178126
vt 0.431818 0.022900
vt 0.448066 0.014304
vt 0.497621 0.073175
vt 0.478980 0.100566
vt 0.500000 0.007609
vt 0.610334 0.110334
vt 0.617819 0.024236
vt 0.625000 0.141535
vt 0.732103 0.652668
vt 0.733047 0.647708
vt 0.727268 0.653226
vt 0.732902 0.641782
vt 0.727270 0.642018
vt 0.721637 0.642223
s 0
f 320/1/1 350/2/1 318/3/1
f 318/3/2 2/4/2 148/5/2
f 2/6/3 15/7/3 148/8/3
f 20/9/4 159/10/4 2/6/4
f 159/10/5 15/7/5 2/6/5
f 167/11/6 149/12/6 159/10/6
f 194/13/7 167/11/7 22/14/7
f 23/15/8 150/16/8 194/13/8
f 182/17/9 131/18/9 151/19/9
f 156/20/10 17/21/10 319/22/10
f 152/23/11 154/24/11 348/25/11
f 348/25/12 154/24/12 153/26/12
f 163/27/13 155/28/13 153/26/13
f 319/22/14 18/29/14 156/20/14
f 17/21/15 157/30/15 152/23/15
f 158/31/16 163/27/16 154/24/16
f 18/29/17 161/32/17 156/20/17
f 156/20/18 161/32/18 17/21/18
f 17/21/19 161/32/19 157/30/19
f 161/32/20 114/33/20 157/30/20
f 434/34/21 152/23/21 157/30/21
f 162/35/22 158/31/22 154/24/22
f 163/27/23 20/9/23 155/28/23
f 137/36/24 188/37/24 160/38/24
f 160/38/25 188/37/25 186/39/25
f 186/39/26 189/40/26 19/41/26
f 18/29/27 19/41/27 161/32/27
f 161/32/28 187/42/28 114/33/28
f 440/43/29 439/44/29 436/45/29
f 162/35/30 165/46/30 158/31/30
f 158/31/31 166/47/31 163/27/31
f 173/48/32 189/40/32 188/37/32
f 168/49/33 190/50/33 189/40/33
f 189/40/34 190/50/34 19/41/34
f 19/41/35 190/50/35 435/51/35
f 192/52/36 169/53/36 190/50/36
f 164/54/37 169/53/37 115/55/37
f 171/56/38 21/57/38 459/58/38
f 166/47/39 22/14/39 20/9/39
f 197/59/40 168/49/40 173/48/40
f 197/59/41 192/52/41 168/49/41
f 175/60/42 172/61/42 460/62/42
f 172/61/43 194/13/43 22/14/43
f 461/63/44 24/64/44 12/65/44
f 27/66/45 174/67/45 192/52/45
f 195/68/46 460/62/46 193/69/46
f 195/68/47 175/60/47 460/62/47
f 176/70/48 196/71/48 23/15/48
f 11/72/49 198/73/49 179/74/49
f 24/64/50 463/75/50 12/65/50
f 181/76/51 462/77/51 174/67/51
f 29/78/52 178/79/52 25/80/52
f 198/73/53 200/81/53 179/74/53
f 26/82/54 199/83/54 180/84/54
f 199/83/55 200/81/55 30/85/55
f 180/84/56 30/85/56 27/66/56
f 29/78/57 183/86/57 201/87/57
f 10/88/58 28/89/58 181/76/58
f 10/88/59 9/90/59 8/91/59
f 183/86/60 7/92/60 6/93/60
f 183/86/61 6/93/61 201/87/61
f 272/94/62 246/95/62 36/96/62
f 37/97/63 243/98/63 147/99/63
f 141/100/64 267/101/64 243/98/64
f 464/102/65 206/103/65 415/104/65
f 205/105/66 391/106/66 204/107/66
f 205/105/67 126/108/67 391/106/67
f 78/109/68 207/110/68 202/111/68
f 202/111/69 206/103/69 464/102/69
f 206/103/70 223/112/70 415/104/70
f 228/113/71 205/105/71 204/107/71
f 78/109/72 368/114/72 207/110/72
f 32/115/73 209/116/73 223/112/73
f 228/113/74 210/117/74 205/105/74
f 207/110/75 33/118/75 206/103/75
f 35/119/76 231/120/76 224/121/76
f 231/120/77 228/113/77 209/116/77
f 228/113/78 232/122/78 210/117/78
f 229/123/79 225/124/79 210/117/79
f 230/125/80 212/126/80 227/127/80
f 212/126/81 35/119/81 224/121/81
f 36/96/82 40/128/82 225/124/82
f 234/129/83 465/130/83 136/131/83
f 136/131/84 465/130/84 34/132/84
f 465/130/85 211/133/85 34/132/85
f 211/133/86 235/134/86 230/125/86
f 237/135/87 35/119/87 212/126/87
f 35/119/88 237/135/88 231/120/88
f 228/113/89 231/120/89 232/122/89
f 233/136/90 36/96/90 229/123/90
f 38/137/91 36/96/91 233/136/91
f 351/138/92 234/129/92 372/139/92
f 234/129/93 367/140/93 465/130/93
f 465/130/94 367/140/94 235/134/94
f 235/134/95 213/141/95 236/142/95
f 213/141/96 215/143/96 236/142/96
f 37/97/97 239/144/97 238/145/97
f 239/144/98 233/136/98 232/122/98
f 37/97/99 233/136/99 239/144/99
f 367/140/100 234/129/100 351/138/100
f 214/146/101 242/147/101 240/148/101
f 233/136/102 37/97/102 38/137/102
f 241/149/103 216/150/103 367/140/103
f 217/151/104 39/152/104 216/150/104
f 56/153/105 218/154/105 215/143/105
f 221/155/106 242/147/106 215/143/106
f 219/156/107 216/150/107 241/149/107
f 221/155/108 141/100/108 242/147/108
f 242/147/109 141/100/109 243/98/109
f 57/157/110 220/158/110 217/151/110
f 221/155/111 142/159/111 141/100/111
f 245/160/112 408/161/112 101/162/112
f 254/163/113 128/164/113 416/165/113
f 298/166/114 256/167/114 466/168/114
f 298/166/115 51/169/115 256/167/115
f 131/170/116 5/171/116 425/172/116
f 267/173/117 269/174/117 268/175/117
f 41/176/118 244/177/118 147/178/118
f 246/179/119 43/180/119 40/181/119
f 303/182/120 145/183/120 269/174/120
f 275/184/121 270/185/121 269/174/121
f 42/186/122 271/187/122 244/177/122
f 277/188/123 272/189/123 146/190/123
f 246/179/124 278/191/124 43/180/124
f 273/192/125 274/193/125 1/194/125
f 274/193/126 101/162/126 1/194/126
f 249/195/127 281/196/127 275/184/127
f 281/196/128 276/197/128 42/186/128
f 44/198/129 277/188/129 276/197/129
f 282/199/130 45/200/130 248/201/130
f 278/191/131 45/200/131 279/202/131
f 70/203/132 280/204/132 144/205/132
f 284/206/133 249/195/133 280/204/133
f 284/206/134 281/196/134 249/195/134
f 251/207/135 282/199/135 276/197/135
f 257/208/136 284/206/136 70/203/136
f 257/208/137 251/207/137 284/206/137
f 285/209/138 252/210/138 251/207/138
f 286/211/139 46/212/139 287/213/139
f 252/210/140 287/213/140 253/214/140
f 48/215/141 47/216/141 291/217/141
f 13/218/142 292/219/142 143/220/142
f 293/221/143 289/222/143 257/208/143
f 293/221/144 50/223/144 294/224/144
f 50/223/145 467/225/145 294/224/145
f 262/226/146 295/227/146 467/225/146
f 295/227/147 259/228/147 467/225/147
f 259/228/148 296/229/148 260/230/148
f 260/230/149 296/229/149 297/231/149
f 296/229/150 55/232/150 297/231/150
f 297/231/151 55/232/151 298/166/151
f 298/166/152 466/168/152 48/215/152
f 300/233/153 49/234/153 261/235/153
f 263/236/154 301/237/154 300/233/154
f 301/237/155 262/226/155 50/223/155
f 55/232/156 131/170/156 51/169/156
f 264/238/157 265/239/157 263/236/157
f 266/240/158 53/241/158 263/236/158
f 53/241/159 150/242/159 23/243/159
f 23/243/160 196/244/160 151/245/160
f 52/246/161 151/245/161 54/247/161
f 264/238/162 302/248/162 265/239/162
f 302/248/163 15/249/163 16/250/163
f 16/250/164 149/251/164 266/240/164
f 149/251/165 167/252/165 53/241/165
f 54/247/166 131/170/166 55/232/166
f 144/205/167 14/253/167 306/254/167
f 469/255/168 70/203/168 144/205/168
f 218/154/169 59/256/169 142/159/169
f 142/159/170 323/257/170 141/100/170
f 324/258/171 307/259/171 57/157/171
f 322/260/172 58/261/172 56/153/172
f 56/153/173 58/261/173 218/154/173
f 86/262/174 324/258/174 321/263/174
f 307/259/175 330/264/175 304/265/175
f 304/265/176 308/266/176 58/261/176
f 58/261/177 308/266/177 59/256/177
f 59/256/178 308/266/178 305/267/178
f 309/268/179 145/183/179 60/269/179
f 378/270/180 329/271/180 325/272/180
f 86/262/181 325/272/181 324/258/181
f 325/272/182 63/273/182 326/274/182
f 330/264/183 64/275/183 310/276/183
f 311/277/184 62/278/184 327/279/184
f 62/278/185 309/268/185 327/279/185
f 306/254/186 145/183/186 309/268/186
f 328/280/187 63/273/187 329/271/187
f 326/274/188 312/281/188 330/264/188
f 65/282/189 311/277/189 61/283/189
f 331/284/190 62/278/190 311/277/190
f 139/285/191 63/273/191 328/280/191
f 67/286/192 312/281/192 332/287/192
f 333/288/193 64/275/193 312/281/193
f 333/288/194 65/282/194 64/275/194
f 313/289/195 314/290/195 333/288/195
f 314/290/196 69/291/196 65/282/196
f 331/284/197 339/292/197 66/293/197
f 71/294/198 332/287/198 139/285/198
f 315/295/199 335/296/199 334/297/199
f 336/298/200 68/299/200 67/286/200
f 72/300/201 468/301/201 336/298/201
f 313/289/202 337/302/202 314/290/202
f 314/290/203 338/303/203 69/291/203
f 469/255/204 143/220/204 70/203/204
f 138/304/205 340/305/205 71/294/205
f 340/305/206 315/295/206 71/294/206
f 340/305/207 336/298/207 315/295/207
f 344/306/208 345/307/208 340/305/208
f 345/307/209 76/308/209 341/309/209
f 341/309/210 346/310/210 342/311/210
f 73/312/211 347/313/211 343/314/211
f 347/313/212 471/315/212 343/314/212
f 344/306/213 184/316/213 345/307/213
f 76/308/214 152/23/214 346/310/214
f 346/310/215 472/317/215 347/313/215
f 346/310/216 348/25/216 472/317/216
f 347/313/217 349/318/217 471/315/217
f 317/319/218 318/3/218 75/320/218
f 184/316/219 152/23/219 76/308/219
f 348/25/220 153/26/220 472/317/220
f 472/317/221 153/26/221 349/318/221
f 77/321/222 473/322/222 320/1/222
f 349/318/223 153/26/223 473/322/223
f 473/322/224 185/323/224 350/2/224
f 140/324/225 329/271/225 378/270/225
f 383/325/226 139/285/226 140/324/226
f 139/285/227 328/280/227 140/324/227
f 138/304/228 71/294/228 385/326/228
f 388/327/229 138/304/229 385/326/229
f 366/328/230 138/304/230 388/327/230
f 367/329/231 85/330/231 241/331/231
f 79/332/232 371/333/232 136/334/232
f 351/335/233 373/336/233 367/329/233
f 352/337/234 85/330/234 373/336/234
f 369/338/235 80/339/235 202/340/235
f 80/339/236 81/341/236 78/342/236
f 78/342/237 81/341/237 368/343/237
f 374/344/238 81/341/238 80/339/238
f 83/345/239 352/337/239 373/336/239
f 354/346/240 353/347/240 135/348/240
f 135/348/241 353/347/241 393/349/241
f 474/350/242 374/344/242 353/347/242
f 375/351/243 81/341/243 374/344/243
f 356/352/244 376/353/244 375/351/244
f 376/353/245 370/354/245 81/341/245
f 87/355/246 377/356/246 376/353/246
f 88/357/247 82/358/247 377/356/247
f 89/359/248 83/345/248 373/336/248
f 90/360/249 84/361/249 83/345/249
f 90/360/250 85/330/250 84/361/250
f 378/270/251 86/262/251 85/330/251
f 134/362/252 354/346/252 105/363/252
f 399/364/253 355/365/253 134/362/253
f 399/364/254 91/366/254 355/365/254
f 96/367/255 378/270/255 90/360/255
f 399/364/256 357/368/256 91/366/256
f 91/366/257 357/368/257 379/369/257
f 357/368/258 97/370/258 379/369/258
f 97/370/259 380/371/259 379/369/259
f 380/371/260 92/372/260 379/369/260
f 380/371/261 93/373/261 92/372/261
f 360/374/262 381/375/262 380/371/262
f 381/375/263 94/376/263 93/373/263
f 94/376/264 381/375/264 95/377/264
f 95/377/265 381/375/265 96/367/265
f 381/375/266 383/325/266 140/324/266
f 401/378/267 475/379/267 358/380/267
f 475/379/268 386/381/268 358/380/268
f 358/380/269 359/382/269 382/383/269
f 382/383/270 360/374/270 97/370/270
f 360/374/271 383/325/271 381/375/271
f 132/384/272 11/385/272 475/379/272
f 386/381/273 384/386/273 359/382/273
f 100/387/274 383/325/274 360/374/274
f 132/384/275 198/388/275 11/385/275
f 362/389/276 361/390/276 386/381/276
f 387/391/277 100/387/277 99/392/277
f 388/327/278 385/326/278 100/387/278
f 389/393/279 362/389/279 386/381/279
f 177/394/280 363/395/280 362/389/280
f 137/396/281 390/397/281 363/395/281
f 390/397/282 364/398/282 363/395/282
f 390/397/283 365/399/283 364/398/283
f 137/396/284 160/400/284 390/397/284
f 160/400/285 387/391/285 365/399/285
f 420/401/286 105/363/286 135/348/286
f 410/402/287 391/403/287 126/404/287
f 412/405/288 125/406/288 204/407/288
f 408/408/289 409/409/289 101/410/289
f 245/411/290 409/409/290 408/408/290
f 413/412/291 124/413/291 222/414/291
f 392/415/292 417/416/292 410/402/292
f 413/412/293 414/417/293 124/413/293
f 102/418/294 125/406/294 412/405/294
f 414/417/295 104/419/295 415/420/295
f 415/420/296 104/419/296 393/349/296
f 128/421/297 250/422/297 416/423/297
f 416/423/298 250/422/298 394/424/298
f 416/423/299 394/424/299 392/415/299
f 103/425/300 418/426/300 104/419/300
f 396/427/301 419/428/301 418/426/301
f 419/428/302 105/363/302 420/401/302
f 104/419/303 420/401/303 393/349/303
f 107/429/304 397/430/304 421/431/304
f 396/427/305 422/432/305 105/363/305
f 422/432/306 398/433/306 134/362/306
f 130/434/307 106/435/307 3/436/307
f 4/437/308 423/438/308 130/434/308
f 106/435/309 423/438/309 250/422/309
f 110/439/310 398/433/310 108/440/310
f 398/433/311 406/441/311 399/364/311
f 406/441/312 401/378/312 133/442/312
f 256/443/313 404/444/313 402/445/313
f 402/445/314 109/446/314 4/437/314
f 426/447/315 108/440/315 424/448/315
f 406/441/316 475/379/316 401/378/316
f 405/449/317 400/450/317 402/445/317
f 113/451/318 110/439/318 108/440/318
f 403/452/319 111/453/319 404/444/319
f 425/454/320 427/455/320 111/453/320
f 404/444/321 111/453/321 405/449/321
f 405/449/322 112/456/322 426/447/322
f 112/456/323 477/457/323 426/447/323
f 110/439/324 113/451/324 406/441/324
f 427/455/325 6/458/325 7/459/325
f 111/453/326 7/459/326 112/456/326
f 112/456/327 428/460/327 477/457/327
f 428/460/328 8/461/328 477/457/328
f 407/462/329 9/463/329 132/384/329
f 430/464/330 433/465/330 434/34/330
f 115/55/331 162/35/331 433/465/331
f 444/466/332 457/467/332 478/468/332
f 116/469/333 437/470/333 432/471/333
f 446/472/334 442/473/334 453/474/334
f 121/475/335 444/466/335 445/476/335
f 450/477/336 479/478/336 448/479/336
f 450/477/337 451/480/337 479/478/337
f 121/475/338 447/481/338 122/482/338
f 445/476/339 452/483/339 121/475/339
f 454/484/340 449/485/340 445/476/340
f 445/476/341 449/485/341 452/483/341
f 446/472/342 453/474/342 450/477/342
f 458/486/343 456/487/343 457/467/343
f 441/488/344 455/489/344 444/466/344
f 441/488/345 122/482/345 455/489/345
f 457/467/346 456/487/346 120/490/346
f 350/2/347 185/323/347 123/491/347
f 350/2/348 123/491/348 2/4/348
f 318/3/349 350/2/349 2/4/349
f 201/87/350 5/492/350 131/18/350
f 185/323/351 2/6/351 123/491/351
f 185/323/352 20/9/352 2/6/352
f 20/9/353 22/14/353 159/10/353
f 22/14/354 167/11/354 159/10/354
f 159/10/355 149/12/355 16/493/355
f 194/13/356 150/16/356 167/11/356
f 184/316/357 17/21/357 152/23/357
f 153/26/358 155/28/358 185/323/358
f 153/26/359 154/24/359 163/27/359
f 155/28/360 20/9/360 185/323/360
f 319/22/361 366/494/361 18/29/361
f 154/24/362 152/23/362 434/34/362 162/35/362
f 157/30/363 114/33/363 434/34/363
f 435/51/364 187/42/364 161/32/364 19/41/364
f 186/39/365 188/37/365 189/40/365
f 18/29/366 186/39/366 19/41/366
f 440/43/367 430/464/367 432/471/367 439/44/367
f 459/58/368 165/46/368 162/35/368 191/495/368
f 162/35/369 115/55/369 191/495/369
f 164/54/370 435/51/370 190/50/370 169/53/370
f 165/46/371 166/47/371 158/31/371
f 163/27/372 166/47/372 20/9/372
f 188/37/373 137/36/373 173/48/373
f 173/48/374 168/49/374 189/40/374
f 168/49/375 192/52/375 190/50/375
f 171/56/376 459/58/376 193/69/376 460/62/376
f 115/55/377 169/53/377 191/495/377
f 169/53/378 170/496/378 191/495/378
f 170/496/379 459/58/379 191/495/379
f 165/46/380 459/58/380 21/57/380
f 165/46/381 21/57/381 166/47/381
f 21/57/382 172/61/382 166/47/382
f 166/47/383 172/61/383 22/14/383
f 192/52/384 174/67/384 169/53/384
f 174/67/385 170/496/385 169/53/385
f 170/496/386 193/69/386 459/58/386
f 21/57/387 171/56/387 460/62/387 172/61/387
f 176/70/388 194/13/388 172/61/388 175/60/388
f 180/84/389 173/48/389 137/36/389 12/65/389
f 176/70/390 23/15/390 194/13/390
f 12/65/391 177/497/391 461/63/391
f 461/63/392 177/497/392 24/64/392
f 170/496/393 174/67/393 462/77/393 25/80/393
f 173/48/394 180/84/394 197/59/394
f 197/59/395 27/66/395 192/52/395
f 193/69/396 170/496/396 25/80/396 195/68/396
f 196/71/397 176/70/397 175/60/397 195/68/397
f 25/80/398 178/79/398 195/68/398
f 178/79/399 182/17/399 195/68/399
f 151/19/400 196/71/400 195/68/400 182/17/400
f 179/74/401 24/64/401 177/497/401 11/72/401
f 26/82/402 180/84/402 463/75/402 179/74/402
f 24/64/403 179/74/403 463/75/403
f 199/83/404 26/82/404 179/74/404 200/81/404
f 12/65/405 463/75/405 180/84/405
f 197/59/406 180/84/406 27/66/406
f 27/66/407 181/76/407 174/67/407
f 181/76/408 28/89/408 462/77/408
f 462/77/409 28/89/409 25/80/409
f 28/89/410 29/78/410 25/80/410
f 29/78/411 201/87/411 178/79/411
f 178/79/412 201/87/412 182/17/412
f 198/73/413 132/498/413 200/81/413
f 29/78/414 28/89/414 31/499/414 183/86/414
f 180/84/415 199/83/415 30/85/415
f 30/85/416 10/88/416 181/76/416
f 30/85/417 181/76/417 27/66/417
f 31/499/418 28/89/418 10/88/418 8/91/418
f 182/17/419 201/87/419 131/18/419
f 200/81/420 132/498/420 10/88/420
f 30/85/421 200/81/421 10/88/421
f 272/94/422 36/96/422 38/137/422 146/500/422
f 31/499/423 8/91/423 183/86/423
f 183/86/424 8/91/424 7/92/424
f 201/87/425 6/93/425 5/492/425
f 225/124/426 1/501/426 101/502/426
f 225/124/427 40/128/427 1/501/427
f 36/96/428 246/95/428 40/128/428
f 124/503/429 414/504/429 223/112/429 203/505/429
f 147/99/430 243/98/430 268/506/430
f 243/98/431 267/101/431 268/506/431
f 415/104/432 223/112/432 414/504/432
f 222/507/433 124/503/433 203/505/433 204/107/433
f 101/502/434 126/108/434 210/117/434 225/124/434
f 222/507/435 204/107/435 125/508/435
f 205/105/436 210/117/436 126/108/436
f 204/107/437 203/505/437 209/116/437 228/113/437
f 223/112/438 209/116/438 203/505/438
f 223/112/439 206/103/439 208/509/439 32/115/439
f 202/111/440 207/110/440 206/103/440
f 208/509/441 206/103/441 33/118/441 227/127/441
f 368/114/442 79/510/442 226/511/442
f 207/110/443 368/114/443 226/511/443
f 207/110/444 226/511/444 33/118/444
f 32/115/445 208/509/445 227/127/445 224/121/445
f 209/116/446 32/115/446 224/121/446 231/120/446
f 34/132/447 226/511/447 79/510/447 136/131/447
f 232/122/448 229/123/448 210/117/448
f 227/127/449 226/511/449 34/132/449 211/133/449
f 33/118/450 226/511/450 227/127/450
f 236/142/451 237/135/451 230/125/451 235/134/451
f 211/133/452 230/125/452 227/127/452
f 227/127/453 212/126/453 224/121/453
f 229/123/454 36/96/454 225/124/454
f 372/139/455 234/129/455 136/131/455
f 230/125/456 237/135/456 212/126/456
f 237/135/457 236/142/457 215/143/457 214/146/457
f 231/120/458 237/135/458 238/145/458
f 231/120/459 238/145/459 232/122/459
f 232/122/460 233/136/460 229/123/460
f 211/133/461 465/130/461 235/134/461
f 235/134/462 367/140/462 213/141/462
f 238/145/463 237/135/463 214/146/463 240/148/463
f 147/99/464 146/500/464 38/137/464 37/97/464
f 240/148/465 37/97/465 238/145/465
f 238/145/466 239/144/466 232/122/466
f 367/140/467 216/150/467 39/152/467
f 367/140/468 39/152/468 213/141/468
f 213/141/469 39/152/469 215/143/469
f 214/146/470 215/143/470 242/147/470
f 240/148/471 242/147/471 243/98/471
f 37/97/472 240/148/472 243/98/472
f 215/143/473 39/152/473 220/158/473 56/153/473
f 217/151/474 220/158/474 39/152/474
f 250/512/475 254/163/475 288/513/475 129/514/475
f 218/154/476 221/155/476 215/143/476
f 219/156/477 217/151/477 216/150/477
f 218/154/478 142/159/478 221/155/478
f 57/157/479 322/260/479 220/158/479
f 220/158/480 322/260/480 56/153/480
f 247/515/481 411/516/481 127/517/481
f 247/515/482 416/165/482 411/516/482
f 254/163/483 250/512/483 128/164/483
f 129/514/484 288/513/484 47/216/484 255/518/484
f 130/519/485 466/168/485 256/167/485 4/520/485
f 255/518/486 3/521/486 129/514/486
f 3/521/487 255/518/487 466/168/487 130/519/487
f 403/522/488 404/523/488 51/169/488 425/172/488
f 256/167/489 51/169/489 404/523/489
f 51/169/490 131/170/490 425/172/490
f 146/190/491 147/178/491 244/177/491 271/187/491
f 146/190/492 271/187/492 276/197/492 277/188/492
f 267/173/493 303/182/493 269/174/493
f 268/175/494 269/174/494 41/176/494
f 268/175/495 41/176/495 147/178/495
f 41/176/496 270/185/496 244/177/496
f 186/39/497 18/29/497 366/494/497 160/38/497
f 40/181/498 43/180/498 273/192/498
f 40/181/499 273/192/499 1/194/499
f 269/174/500 145/183/500 275/184/500
f 269/174/501 270/185/501 41/176/501
f 275/184/502 42/186/502 270/185/502
f 270/185/503 42/186/503 244/177/503
f 42/186/504 276/197/504 271/187/504
f 246/179/505 272/189/505 277/188/505 248/201/505
f 45/200/506 278/191/506 246/179/506 248/201/506
f 248/201/507 277/188/507 44/198/507 282/199/507
f 273/192/508 43/180/508 274/193/508
f 274/193/509 127/517/509 245/160/509
f 274/193/510 245/160/510 101/162/510
f 14/253/511 275/184/511 145/183/511
f 275/184/512 281/196/512 42/186/512
f 279/202/513 274/193/513 43/180/513 278/191/513
f 127/517/514 274/193/514 279/202/514 247/515/514
f 45/200/515 247/515/515 279/202/515
f 275/184/516 14/253/516 280/204/516 249/195/516
f 144/205/517 280/204/517 14/253/517
f 70/203/518 284/206/518 280/204/518
f 276/197/519 281/196/519 284/206/519 251/207/519
f 247/515/520 45/200/520 283/524/520 416/165/520
f 276/197/521 282/199/521 44/198/521
f 251/207/522 252/210/522 282/199/522
f 45/200/523 282/199/523 253/214/523
f 282/199/524 252/210/524 253/214/524
f 45/200/525 253/214/525 283/524/525
f 416/165/526 283/524/526 253/214/526 254/163/526
f 291/217/527 254/163/527 287/213/527 290/525/527
f 285/209/528 286/211/528 252/210/528
f 252/210/529 286/211/529 287/213/529
f 287/213/530 46/212/530 290/525/530
f 285/209/531 251/207/531 289/222/531 258/526/531
f 253/214/532 287/213/532 254/163/532
f 254/163/533 291/217/533 288/513/533
f 257/208/534 289/222/534 251/207/534
f 46/212/535 286/211/535 467/225/535 259/228/535
f 258/526/536 467/225/536 286/211/536
f 258/526/537 286/211/537 285/209/537
f 48/215/538 291/217/538 290/525/538 297/231/538
f 46/212/539 259/228/539 260/230/539
f 46/212/540 260/230/540 290/525/540
f 290/525/541 260/230/541 297/231/541
f 255/518/542 47/216/542 48/215/542 466/168/542
f 291/217/543 47/216/543 288/513/543
f 257/208/544 70/203/544 143/220/544 292/219/544
f 293/221/545 292/219/545 13/218/545 261/235/545
f 257/208/546 292/219/546 293/221/546
f 258/526/547 289/222/547 293/221/547 294/224/547
f 261/235/548 49/234/548 293/221/548
f 293/221/549 49/234/549 50/223/549
f 54/247/550 296/229/550 295/227/550 52/246/550
f 294/224/551 467/225/551 258/526/551
f 50/223/552 262/226/552 467/225/552
f 295/227/553 262/226/553 52/246/553
f 261/235/554 13/218/554 299/527/554 300/233/554
f 259/228/555 295/227/555 296/229/555
f 296/229/556 54/247/556 55/232/556
f 297/231/557 298/166/557 48/215/557
f 298/166/558 55/232/558 51/169/558
f 299/527/559 316/528/559 264/238/559
f 263/236/560 300/233/560 299/527/560 264/238/560
f 50/223/561 49/234/561 300/233/561 301/237/561
f 23/243/562 52/246/562 301/237/562 53/241/562
f 263/236/563 53/241/563 301/237/563
f 262/226/564 301/237/564 52/246/564
f 16/250/565 266/240/565 265/239/565 302/248/565
f 316/528/566 148/5/566 264/238/566
f 264/238/567 148/5/567 302/248/567
f 263/236/568 265/239/568 266/240/568
f 266/240/569 149/251/569 53/241/569
f 52/246/570 23/243/570 151/245/570
f 302/248/571 148/5/571 15/249/571
f 13/218/572 74/529/572 316/528/572 299/527/572
f 16/250/573 15/249/573 159/530/573
f 53/241/574 167/252/574 150/242/574
f 54/247/575 151/245/575 131/170/575
f 323/257/576 303/182/576 267/173/576
f 306/254/577 14/253/577 145/183/577
f 74/529/578 13/218/578 143/220/578
f 75/320/579 316/528/579 74/529/579
f 148/5/580 316/528/580 75/320/580 318/3/580
f 219/156/581 241/149/581 321/263/581 324/258/581
f 323/257/582 267/173/582 141/100/582
f 303/182/583 305/267/583 60/269/583 145/183/583
f 219/156/584 324/258/584 217/151/584
f 217/151/585 324/258/585 57/157/585
f 322/260/586 57/157/586 304/265/586
f 322/260/587 304/265/587 58/261/587
f 218/154/588 58/261/588 59/256/588
f 142/159/589 59/256/589 305/267/589
f 142/159/590 305/267/590 323/257/590
f 57/157/591 307/259/591 304/265/591
f 310/276/592 308/266/592 304/265/592 330/264/592
f 305/267/593 303/182/593 323/257/593
f 324/258/594 326/274/594 307/259/594
f 327/279/595 60/269/595 305/267/595 308/266/595
f 61/283/596 327/279/596 308/266/596 310/276/596
f 60/269/597 327/279/597 309/268/597
f 86/262/598 378/270/598 325/272/598
f 325/272/599 329/271/599 63/273/599
f 324/258/600 325/272/600 326/274/600
f 307/259/601 326/274/601 330/264/601
f 312/281/602 326/274/602 63/273/602 332/287/602
f 61/283/603 311/277/603 327/279/603
f 62/278/604 306/254/604 309/268/604
f 140/324/605 328/280/605 329/271/605
f 61/283/606 310/276/606 64/275/606 65/282/606
f 330/264/607 312/281/607 64/275/607
f 306/254/608 62/278/608 331/284/608 66/293/608
f 65/282/609 69/291/609 311/277/609
f 69/291/610 331/284/610 311/277/610
f 469/255/611 144/205/611 66/293/611 339/292/611
f 66/293/612 144/205/612 306/254/612
f 139/285/613 332/287/613 63/273/613
f 334/297/614 67/286/614 332/287/614
f 67/286/615 68/299/615 333/288/615
f 67/286/616 333/288/616 312/281/616
f 68/299/617 313/289/617 333/288/617
f 333/288/618 314/290/618 65/282/618
f 468/301/619 313/289/619 68/299/619 336/298/619
f 71/294/620 334/297/620 332/287/620
f 71/294/621 315/295/621 334/297/621
f 334/297/622 335/296/622 67/286/622
f 335/296/623 336/298/623 67/286/623
f 335/296/624 315/295/624 336/298/624
f 341/309/625 337/302/625 468/301/625 72/300/625
f 73/312/626 338/303/626 337/302/626 342/311/626
f 313/289/627 468/301/627 337/302/627
f 337/302/628 341/309/628 342/311/628
f 470/531/629 331/284/629 69/291/629 338/303/629
f 314/290/630 337/302/630 338/303/630
f 343/314/631 470/531/631 338/303/631 73/312/631
f 143/220/632 469/255/632 317/319/632 74/529/632
f 331/284/633 470/531/633 339/292/633
f 339/292/634 470/531/634 317/319/634
f 339/292/635 317/319/635 469/255/635
f 72/300/636 336/298/636 340/305/636 345/307/636
f 138/304/637 344/306/637 340/305/637
f 320/1/638 470/531/638 343/314/638 471/315/638
f 72/300/639 345/307/639 341/309/639
f 341/309/640 76/308/640 346/310/640
f 73/312/641 342/311/641 347/313/641
f 342/311/642 346/310/642 347/313/642
f 318/3/643 317/319/643 470/531/643 320/1/643
f 344/306/644 138/304/644 366/328/644 319/22/644
f 317/319/645 75/320/645 74/529/645
f 77/321/646 320/1/646 471/315/646 349/318/646
f 319/22/647 17/21/647 344/306/647
f 344/306/648 17/21/648 184/316/648
f 345/307/649 184/316/649 76/308/649
f 346/310/650 152/23/650 348/25/650
f 347/313/651 472/317/651 349/318/651
f 370/354/652 79/332/652 368/343/652 81/341/652
f 77/321/653 349/318/653 473/322/653
f 473/322/654 153/26/654 185/323/654
f 320/1/655 473/322/655 350/2/655
f 85/330/656 321/263/656 241/331/656
f 385/326/657 71/294/657 383/325/657
f 383/325/658 71/294/658 139/285/658
f 202/340/659 80/339/659 78/342/659
f 367/329/660 373/336/660 85/330/660
f 136/334/661 371/333/661 372/532/661
f 369/338/662 353/347/662 80/339/662
f 351/335/663 372/532/663 82/358/663 373/336/663
f 79/332/664 370/354/664 371/333/664
f 393/349/665 353/347/665 369/338/665
f 353/347/666 374/344/666 80/339/666
f 85/330/667 352/337/667 83/345/667 84/361/667
f 474/350/668 353/347/668 354/346/668 355/365/668
f 85/330/669 86/262/669 321/263/669
f 105/363/670 354/346/670 135/348/670
f 374/344/671 474/350/671 355/365/671 91/366/671
f 375/351/672 374/344/672 91/366/672 356/352/672
f 371/333/673 370/354/673 376/353/673 377/356/673
f 375/351/674 376/353/674 81/341/674
f 356/352/675 87/355/675 376/353/675
f 372/532/676 371/333/676 377/356/676 82/358/676
f 87/355/677 88/357/677 377/356/677
f 373/336/678 82/358/678 88/357/678 89/359/678
f 87/355/679 356/352/679 379/369/679 92/372/679
f 89/359/680 90/360/680 83/345/680
f 90/360/681 378/270/681 85/330/681
f 134/362/682 355/365/682 354/346/682
f 91/366/683 379/369/683 356/352/683
f 88/357/684 87/355/684 92/372/684 93/373/684
f 89/359/685 88/357/685 93/373/685 94/376/685
f 90/360/686 89/359/686 94/376/686 95/377/686
f 357/368/687 133/442/687 401/378/687 358/380/687
f 90/360/688 95/377/688 96/367/688
f 96/367/689 140/324/689 378/270/689
f 133/442/690 357/368/690 399/364/690
f 382/383/691 97/370/691 357/368/691 358/380/691
f 97/370/692 360/374/692 380/371/692
f 380/371/693 381/375/693 93/373/693
f 96/367/694 381/375/694 140/324/694
f 360/374/695 382/383/695 384/386/695 99/392/695
f 359/382/696 384/386/696 382/383/696
f 389/393/697 386/381/697 475/379/697 11/385/697
f 98/533/698 361/390/698 363/395/698 364/398/698
f 358/380/699 386/381/699 359/382/699
f 361/390/700 98/533/700 384/386/700
f 384/386/701 98/533/701 99/392/701
f 99/392/702 100/387/702 360/374/702
f 100/387/703 385/326/703 383/325/703
f 386/381/704 361/390/704 384/386/704
f 362/389/705 363/395/705 361/390/705
f 387/391/706 98/533/706 364/398/706 365/399/706
f 98/533/707 387/391/707 99/392/707
f 362/389/708 389/393/708 11/385/708 177/394/708
f 387/391/709 388/327/709 100/387/709
f 363/395/710 177/394/710 12/534/710 137/396/710
f 388/327/711 387/391/711 160/400/711 366/328/711
f 390/397/712 160/400/712 365/399/712
f 413/412/713 125/406/713 102/418/713 103/425/713
f 393/349/714 369/338/714 202/340/714
f 393/349/715 420/401/715 135/348/715
f 101/410/716 409/409/716 126/404/716
f 409/409/717 410/402/717 126/404/717
f 391/403/718 412/405/718 204/407/718
f 409/409/719 245/411/719 410/402/719
f 125/406/720 413/412/720 222/414/720
f 464/535/721 393/349/721 202/340/721
f 245/411/722 127/536/722 392/415/722
f 127/536/723 411/537/723 392/415/723
f 245/411/724 392/415/724 410/402/724
f 410/402/725 417/416/725 391/403/725
f 415/420/726 393/349/726 464/535/726
f 411/537/727 416/423/727 392/415/727
f 417/416/728 102/418/728 412/405/728
f 391/403/729 417/416/729 412/405/729
f 104/419/730 414/417/730 413/412/730 103/425/730
f 102/418/731 417/416/731 395/538/731 476/539/731
f 392/415/732 394/424/732 417/416/732
f 417/416/733 394/424/733 395/538/733
f 103/425/734 102/418/734 476/539/734 418/426/734
f 418/426/735 476/539/735 421/431/735 397/430/735
f 397/430/736 396/427/736 418/426/736
f 104/419/737 418/426/737 419/428/737
f 419/428/738 396/427/738 105/363/738
f 104/419/739 419/428/739 420/401/739
f 129/540/740 3/436/740 106/435/740
f 250/422/741 129/540/741 106/435/741
f 394/424/742 250/422/742 395/538/742
f 395/538/743 421/431/743 476/539/743
f 396/427/744 397/430/744 108/440/744 422/432/744
f 395/538/745 250/422/745 423/438/745 109/446/745
f 108/440/746 398/433/746 422/432/746
f 105/363/747 422/432/747 134/362/747
f 134/362/748 398/433/748 399/364/748
f 106/435/749 130/434/749 423/438/749
f 4/437/750 109/446/750 423/438/750
f 421/431/751 395/538/751 109/446/751 400/450/751
f 107/429/752 421/431/752 400/450/752 424/448/752
f 397/430/753 107/429/753 424/448/753 108/440/753
f 429/541/754 113/451/754 426/447/754 477/457/754
f 110/439/755 406/441/755 398/433/755
f 399/364/756 406/441/756 133/442/756
f 256/443/757 402/445/757 4/437/757
f 402/445/758 400/450/758 109/446/758
f 400/450/759 426/447/759 424/448/759
f 407/462/760 132/384/760 406/441/760
f 406/441/761 132/384/761 475/379/761
f 402/445/762 404/444/762 405/449/762
f 405/449/763 426/447/763 400/450/763
f 426/447/764 113/451/764 108/440/764
f 425/454/765 5/542/765 427/455/765
f 403/452/766 425/454/766 111/453/766
f 405/449/767 111/453/767 112/456/767
f 9/463/768 429/541/768 477/457/768 8/461/768
f 406/441/769 113/451/769 407/462/769
f 427/455/770 5/542/770 6/458/770
f 111/453/771 427/455/771 7/459/771
f 112/456/772 7/459/772 428/460/772
f 428/460/773 7/459/773 8/461/773
f 9/463/774 407/462/774 113/451/774 429/541/774
f 114/33/775 432/471/775 430/464/775 434/34/775
f 9/463/776 10/543/776 132/384/776
f 115/55/777 117/544/777 431/545/777 164/54/777
f 164/54/778 431/545/778 116/469/778 435/51/778
f 435/51/779 116/469/779 432/471/779 187/42/779
f 120/490/780 117/544/780 438/546/780 478/468/780
f 432/471/781 114/33/781 187/42/781
f 433/465/782 117/544/782 115/55/782
f 434/34/783 433/465/783 162/35/783
f 478/468/784 438/546/784 436/45/784 444/466/784
f 440/43/785 438/546/785 433/465/785 430/464/785
f 478/468/786 457/467/786 120/490/786
f 117/544/787 433/465/787 438/546/787
f 452/483/788 451/480/788 447/481/788 121/475/788
f 438/546/789 440/43/789 436/45/789
f 432/471/790 437/470/790 439/44/790
f 453/474/791 447/481/791 451/480/791
f 119/547/792 116/469/792 431/545/792 446/472/792
f 451/480/793 452/483/793 449/485/793
f 446/472/794 431/545/794 117/544/794 120/490/794
f 443/548/795 118/549/795 439/44/795 437/470/795
f 442/473/796 446/472/796 120/490/796
f 119/547/797 443/548/797 437/470/797 116/469/797
f 436/45/798 439/44/798 118/549/798 444/466/798
f 479/478/799 449/485/799 454/484/799 448/479/799
f 445/476/800 444/466/800 118/549/800
f 121/475/801 441/488/801 444/466/801
f 454/484/802 118/549/802 443/548/802 448/479/802
f 479/478/803 451/480/803 449/485/803
f 447/481/804 453/474/804 458/486/804
f 122/482/805 447/481/805 458/486/805
f 118/549/806 454/484/806 445/476/806
f 450/477/807 448/479/807 443/548/807 119/547/807
f 457/467/808 455/489/808 122/482/808 458/486/808
f 119/547/809 446/472/809 450/477/809
f 450/477/810 453/474/810 451/480/810
f 458/486/811 453/474/811 442/473/811 456/487/811
f 441/488/812 121/475/812 122/482/812
f 444/466/813 455/489/813 457/467/813
f 120/490/814 456/487/814 442/473/814
