# Blender 4.3.0
# www.blender.org
mtllib Tree.mtl
o Blob_tree
v 1.316337 -1.374480 -1.480262
v -1.235413 -0.566882 -0.394250
v 0.389437 0.104615 -2.809699
v 2.871092 0.413608 -2.713453
v 3.438314 -0.260924 -0.737892
v 0.165587 -1.119419 0.811017
v -1.298226 1.232098 -1.237608
v 1.724298 2.107158 -2.737666
v 3.221232 1.815184 -1.260617
v 2.004626 0.893379 0.805445
v -0.951285 0.812979 1.073463
v 0.888166 2.367853 -0.431145
v 0.843021 -0.849494 -2.289419
v -0.429255 -1.434081 -0.967063
v -0.930178 -0.585259 -1.667555
v -0.711128 -0.989568 0.406976
v 0.638053 -1.579567 -0.240014
v 2.493229 -0.621060 -2.341336
v 1.949874 0.227538 -3.055532
v 2.665191 -1.029454 -1.146769
v 3.344663 -0.006128 -1.820899
v 2.110786 -0.889835 0.163096
v -1.295134 0.207986 0.568547
v -0.545822 -0.179476 1.269661
v -0.780141 0.698466 -2.288257
v -1.524553 0.383462 -0.717289
v 2.447870 1.357748 -2.926911
v 1.105765 1.244094 -3.171185
v 3.603431 0.818181 -0.996041
v 3.231848 1.217318 -2.163949
v 0.988969 -0.248276 1.129746
v 3.190442 0.306775 0.135023
v -1.360771 1.192466 0.145257
v 0.077990 1.970011 -2.488273
v 2.637020 2.181616 -2.064661
v 3.146791 1.536324 -0.170073
v 0.015256 0.697581 1.293994
v -0.493574 2.030955 -0.899935
v -0.488012 1.547574 0.588745
v 1.403503 2.574725 -1.770162
v 2.470853 2.383799 -0.811774
v 1.500929 1.812717 0.471910
v 6.528446 2.698426 -4.558526
v 4.888423 5.989782 1.048749
v 3.084168 4.720859 -5.342074
v 5.533160 3.626740 -10.472116
v 9.422951 4.123111 -8.209676
v 9.001014 5.585183 -1.064148
v 3.428383 8.857475 -2.333106
v 3.823478 7.406910 -9.391597
v 7.671952 7.034187 -11.138124
v 9.980837 8.215307 -5.609340
v 7.025165 9.398108 0.389388
v 6.537336 10.237408 -6.395406
v 4.503407 3.225276 -4.858551
v 5.603887 3.966257 -1.157865
v 3.579707 5.154882 -1.619437
v 7.005719 5.668141 0.960694
v 7.997622 3.731253 -2.367286
v 5.995539 2.580281 -7.920059
v 3.961416 3.773161 -8.349398
v 8.263511 2.865891 -6.615140
v 7.623379 3.421103 -9.997058
v 9.807523 4.544890 -4.728251
v 5.821713 7.913844 1.857234
v 8.261380 7.671634 0.574089
v 2.701480 6.841763 -3.586223
v 3.722651 7.594784 0.239348
v 4.332103 5.351263 -10.691778
v 2.946312 5.985416 -7.765865
v 8.880551 5.423948 -10.388546
v 6.584666 5.119588 -11.787954
v 10.026299 6.974263 -2.982917
v 10.295513 6.107463 -7.241629
v 4.978355 9.598258 -0.147377
v 3.256880 8.391534 -6.221211
v 5.589257 7.354117 -11.083214
v 9.286813 7.823780 -8.944955
v 8.887460 9.213065 -2.157778
v 4.730528 10.084600 -4.203126
v 6.863429 10.401619 -2.619842
v 4.979453 9.226512 -8.395965
v 7.252684 9.016672 -9.374256
v 8.562365 9.710561 -6.095349
v 7.666639 1.512602 -13.548462
v 7.008558 2.654759 -11.202785
v 6.284576 2.346077 -13.798964
v 7.267268 2.068077 -15.885320
v 8.828098 2.196218 -14.964767
v 8.658791 2.558675 -12.060653
v 6.422696 3.907274 -12.466434
v 6.581234 3.546711 -15.335370
v 8.125486 3.451974 -16.045679
v 9.051958 3.752367 -13.797096
v 7.865954 4.038800 -11.360458
v 7.670206 4.585788 -14.048613
v 6.854064 1.732710 -13.652087
v 7.295647 1.913934 -12.148545
v 6.483418 2.403818 -12.296194
v 7.858152 2.528826 -11.248025
v 8.256166 1.857571 -12.639695
v 7.452803 1.569987 -14.896936
v 6.636583 2.060570 -15.031559
v 8.362858 1.643622 -14.366007
v 8.105996 1.971021 -15.701672
v 8.982414 2.256571 -13.558879
v 7.383052 3.399318 -10.819447
v 8.362002 3.342368 -11.340315
v 6.131016 3.139891 -13.030500
v 6.540776 3.322045 -11.476623
v 6.785327 2.764817 -15.919509
v 6.229259 2.927425 -14.729242
v 8.610454 2.784456 -15.795937
v 7.689198 2.706261 -16.365252
v 9.070202 3.174117 -12.785021
v 9.178226 2.959930 -14.515720
v 7.044643 4.135581 -11.568961
v 6.353878 3.841915 -14.036392
v 7.289776 3.578254 -16.013752
v 8.773471 3.699577 -15.143711
v 8.613226 4.044071 -12.385222
v 6.945200 4.456407 -13.176340
v 7.801056 4.533942 -12.533072
v 7.045084 4.243655 -14.880416
v 7.957249 4.190164 -15.278318
v 8.482777 4.365679 -13.944976
v 6.454726 1.806301 1.771602
v 7.358327 2.311500 4.255165
v 5.297955 2.676113 2.528464
v 4.928574 2.940182 0.250378
v 6.737736 2.828968 0.129561
v 8.237164 2.437700 2.618045
v 6.365324 3.845210 3.842229
v 4.876506 4.229323 1.388291
v 5.748728 4.319139 -0.070952
v 7.785034 4.035287 1.262313
v 8.179292 3.689911 3.936472
v 6.627956 4.905306 2.018174
v 5.759503 2.045576 2.194541
v 6.971492 1.836789 3.182452
v 6.291436 2.348136 3.626921
v 8.016346 2.201298 3.712409
v 7.487421 1.907734 2.235993
v 5.549797 2.206180 0.828948
v 4.873668 2.714875 1.286210
v 6.601314 2.141775 0.753647
v 5.706859 2.799443 -0.097584
v 7.641925 2.528258 1.176458
v 7.984205 2.933463 4.506168
v 8.499017 3.011430 3.525465
v 5.705726 3.247337 3.395458
v 6.919097 3.026593 4.441700
v 4.612857 3.622549 0.642274
v 4.827927 3.475772 1.940190
v 6.188937 3.609975 -0.286468
v 5.106546 3.679775 -0.236415
v 8.269615 3.217733 1.937434
v 7.382177 3.452666 0.450785
v 7.401755 3.836734 4.254706
v 5.441300 4.182982 2.615093
v 5.094940 4.433078 0.453411
v 6.811881 4.328171 0.334462
v 8.236624 3.956729 2.697882
v 6.487759 4.557440 3.096399
v 7.556506 4.468113 3.142156
v 5.608358 4.786961 1.635889
v 6.135759 4.836866 0.791739
v 7.323182 4.666028 1.595250
v 0.105000 -0.925202 -6.015766
v 0.304805 2.902800 -4.942382
v -2.054126 0.637722 -7.443705
v -0.756569 -1.825320 -9.479762
v 2.068995 -2.147548 -8.585276
v 2.527271 1.444299 -4.953819
v -0.816654 3.944376 -7.214482
v -1.329950 0.659119 -10.681846
v 1.289695 -0.605893 -10.995815
v 3.389287 0.888050 -8.568455
v 2.339128 4.184906 -6.384132
v 1.260758 2.693141 -9.838033
v -1.166209 -0.347193 -6.508100
v -0.055698 1.155287 -4.622952
v -1.199283 2.043200 -5.448034
v 1.589838 2.340150 -4.606582
v 1.389971 0.168204 -5.001633
v -0.453443 -2.014793 -7.917835
v -1.634824 -1.085917 -8.717033
v 1.174263 -2.022099 -7.259289
v 0.622722 -2.293457 -9.089875
v 2.607909 -0.785699 -6.715766
v 1.522967 3.919311 -5.567276
v 2.784761 3.094908 -5.451727
v -1.931898 2.564762 -7.207472
v -0.250048 3.783411 -5.936850
v -1.232939 -0.757940 -10.347810
v -2.183514 0.535932 -9.357254
v 1.812850 -1.646210 -10.025078
v 0.125303 -1.415612 -10.529494
v 3.329056 1.302234 -6.456767
v 3.081871 -1.111319 -8.861513
v 0.943973 4.538995 -6.779714
v -1.785230 2.468175 -9.332211
v -0.027309 -0.019519 -11.225498
v 2.666276 -0.289798 -10.346128
v 3.081455 3.127265 -6.855623
v 0.000802 3.777818 -8.615319
v 1.930604 4.016699 -7.681657
v -0.229091 1.740455 -10.767401
v 1.516076 0.813022 -11.035145
v 2.719434 1.977609 -9.382415
v 5.948930 -8.376866 -6.401463
v 7.091737 -8.376865 -6.401464
v 7.091739 -7.652339 -7.285242
v 5.948932 -7.652341 -7.285241
v 5.948933 -9.752680 -7.099016
v 7.091740 -9.752680 -7.099017
v 7.091739 -9.547766 -8.223301
v 5.948931 -9.547769 -8.223300
v 5.699048 -12.027804 -6.608716
v 7.341617 -12.027804 -6.608716
v 7.341618 -12.542974 -8.168406
v 5.699049 -12.542974 -8.168406
v 5.699049 -14.434784 -5.171741
v 7.341618 -14.434788 -5.171741
v 7.341619 -15.042851 -6.697612
v 5.699050 -15.042849 -6.697612
v 5.699049 -16.646330 -4.664176
v 7.341618 -16.646332 -4.664176
v 7.341619 -16.829487 -6.296497
v 5.699051 -16.829489 -6.296499
v 5.330559 -20.281754 -4.290561
v 7.710109 -20.281754 -4.290562
v 7.710111 -20.281752 -6.670112
v 5.330559 -20.281754 -6.670114
v 6.820152 0.580093 -4.728208
v 6.220517 0.580093 -4.728209
v 6.220514 0.950063 -5.200102
v 6.820146 0.950064 -5.200103
v 6.820148 1.886460 -2.731909
v 6.220516 1.886460 -2.731908
v 6.220516 2.062634 -3.305072
v 6.820151 2.062633 -3.305069
v 6.820152 3.989394 -3.585880
v 6.220518 3.989395 -3.585882
v 6.220516 3.745862 -4.133834
v 6.820148 3.745862 -4.133834
v 6.036676 -2.834666 -0.886991
v 5.546274 -2.817971 -0.971511
v 5.620720 -2.490044 -1.338722
v 6.111123 -2.506740 -1.254202
v 6.034614 -0.141860 0.542578
v 5.543112 -0.096843 0.476847
v 5.622782 0.180880 0.071330
v 6.114282 0.135865 0.137063
v 6.034611 2.198825 2.573608
v 5.543114 2.251001 2.513405
v 5.622780 2.572901 2.141976
v 6.114279 2.520725 2.202180
v 5.497104 -1.928468 -8.443870
v 6.060087 -1.957085 -8.463432
v 6.094247 -1.444898 -8.229648
v 5.531263 -1.416281 -8.210084
v 8.022545 3.247867 -9.290164
v 7.628611 3.247867 -8.886466
v 7.273311 3.515661 -9.233170
v 7.667246 3.515661 -9.636868
v 2.893969 -4.994182 -4.897067
v 2.893967 -4.994181 -5.518403
v 3.331604 -4.553117 -5.518402
v 3.331603 -4.553117 -4.897067
v 0.389467 1.128437 -4.897065
v 0.389465 1.128440 -5.518402
v 0.989822 1.288539 -5.518404
v 0.989823 1.288536 -4.897067
v 7.269233 1.566318 -13.690013
v 7.811224 1.566319 -13.533790
v 7.758483 2.097257 -13.350812
v 7.216490 2.097257 -13.507037
v 0.746463 -2.018606 -8.193537
v 1.358021 -2.018606 -8.303367
v 1.375396 -1.405097 -8.206599
v 0.763844 -1.405095 -8.096770
v 0.402089 -1.079053 -1.206066
v -0.178328 -1.079052 -1.427812
v -0.105468 -0.492210 -1.618516
v 0.474951 -0.492210 -1.396772
v 7.091739 -2.709064 -5.941728
v 5.948932 -2.709066 -5.941728
v 5.948930 -2.279707 -4.882641
v 7.091737 -2.279707 -4.882642
v 7.091738 -3.549592 -5.600976
v 5.948931 -3.549592 -5.600974
v 5.948933 -3.120234 -4.541885
v 7.091740 -3.120235 -4.541887
v 7.091736 -4.390120 -5.260221
v 5.948929 -4.390120 -5.260220
v 5.948929 -3.960761 -4.201135
v 7.091737 -3.960760 -4.201136
v 5.948929 -5.836072 -4.146126
v 7.091737 -5.836072 -4.146128
v 7.091736 -5.346852 -5.178926
v 5.948929 -5.346852 -5.178924
v 5.948931 -6.411570 -4.418731
v 7.091738 -6.411569 -4.418732
v 7.091737 -5.922348 -5.451530
v 5.866783 -5.833381 -5.577693
v 5.948930 -7.829567 -5.674736
v 7.091737 -7.829567 -5.674738
v 7.091738 -6.927489 -6.376355
v 5.948931 -6.927490 -6.376354
v 5.841559 -10.712664 -6.868861
v 7.199110 -10.712666 -6.868860
v 7.199110 -10.852355 -8.219194
v 5.841560 -10.852355 -8.219198
v 5.541337 -18.254650 -4.501343
v 7.499328 -18.254652 -4.501343
v 7.499328 -18.254648 -6.459334
v 5.541338 -18.254650 -6.459335
v 6.875191 0.164832 -4.786641
v 6.165475 0.164832 -4.786639
v 6.165478 0.384856 -5.461382
v 6.875192 0.384857 -5.461387
v 6.970831 -0.716663 -4.973485
v 6.069837 -0.716662 -4.973488
v 6.069839 -0.437335 -5.830087
v 6.970833 -0.437335 -5.830085
v 6.820149 1.417551 -3.346620
v 6.220518 1.417550 -3.346619
v 6.220518 1.926809 -3.663186
v 6.820149 1.926809 -3.663187
v 6.820150 2.569584 -2.954854
v 6.220516 2.569584 -2.954855
v 6.220517 2.326051 -3.502804
v 6.820149 2.326051 -3.502805
v 6.706438 -4.659112 -2.996456
v 5.786997 -4.659114 -3.190506
v 5.898569 -3.890269 -3.719151
v 6.818010 -3.890268 -3.525102
v 6.509703 -4.127620 -2.381375
v 5.718386 -4.127621 -2.548383
v 5.814411 -3.465918 -3.003356
v 6.605728 -3.465917 -2.836348
v 6.340147 -3.669546 -1.851254
v 5.659263 -3.669546 -1.994961
v 5.741888 -3.100184 -2.386440
v 6.422769 -3.100183 -2.242740
v 6.186131 -3.253461 -1.369733
v 5.605549 -3.253461 -1.492267
v 5.676003 -2.767977 -1.826074
v 6.256585 -2.767976 -1.703541
v 6.034613 -2.412853 -0.657629
v 5.543113 -2.375578 -0.728038
v 5.622782 -2.145609 -1.162424
v 6.114281 -2.182885 -1.092015
v 6.034615 0.170522 0.815745
v 5.543115 0.222698 0.755539
v 5.622782 0.544599 0.384116
v 6.114282 0.492423 0.444322
v 5.813306 -2.134116 -6.538473
v 6.715756 -2.134116 -6.791578
v 6.712662 -1.196915 -6.802608
v 5.810209 -1.196914 -6.549505
v 5.705668 -2.072346 -7.180286
v 6.473939 -2.072345 -7.395748
v 6.471302 -1.274494 -7.405143
v 5.703030 -1.274493 -7.189683
v 5.611472 -2.018284 -7.741989
v 6.262307 -2.018283 -7.924517
v 6.260076 -1.342391 -7.932477
v 5.609239 -1.342390 -7.749949
v 6.179111 0.116508 -10.231777
v 6.724988 0.006042 -10.142491
v 6.728161 0.370000 -9.711583
v 6.182280 0.480465 -9.800870
v 7.136964 0.954097 -10.154327
v 6.743029 0.954097 -9.750628
v 6.387728 1.221892 -10.097329
v 6.872086 1.144198 -10.545174
v 5.288250 -6.603560 -4.711620
v 5.288249 -6.603560 -5.703859
v 5.784642 -5.744416 -4.711617
v 4.618840 -6.155282 -4.764878
v 4.618840 -6.155279 -5.650598
v 5.061944 -5.388367 -5.650595
v 5.061944 -5.388369 -4.764875
v 4.025158 -5.757712 -4.812110
v 4.025159 -5.757710 -5.603359
v 4.420999 -5.072594 -5.603360
v 4.421000 -5.072597 -4.812109
v 3.475863 -5.389864 -4.855809
v 3.475862 -5.389864 -5.559651
v 3.827976 -4.780430 -5.559652
v 3.827976 -4.780431 -4.855811
v 1.633436 -2.871492 -4.897069
v 1.633437 -2.871491 -5.518404
v 2.168993 -2.556460 -5.518403
v 2.168995 -2.556461 -4.897066
v 1.142045 -1.707450 -4.884409
v 1.170224 -1.753020 -5.610654
v 1.747055 -1.551087 -5.518402
v 1.732437 -1.627402 -4.773542
v 0.995253 -1.143257 -4.897066
v 0.995256 -1.143258 -5.518401
v 1.595612 -0.983162 -5.518399
v 1.595609 -0.983163 -4.897063
v 6.473265 0.535565 -10.928514
v 7.015254 0.535563 -10.772290
v 6.420527 1.066503 -10.745535
v 1.176374 -2.408371 -5.799671
v 1.787931 -2.408373 -5.909500
v 1.805304 -1.794862 -5.812736
v 1.644958 -2.290562 -4.459305
v 1.064538 -2.290561 -4.681048
v 5.948931 -6.411570 -4.418731
v 7.091738 -6.411569 -4.418732
v 7.091737 -5.922348 -5.451530
v 5.866783 -5.833381 -5.577693
vn -0.1153 -0.8627 -0.4923
vn -0.7011 -0.7080 0.0852
vn 0.0938 -0.8093 -0.5799
vn 0.3121 -0.8843 -0.3473
vn 0.2528 -0.9673 -0.0217
vn -0.8373 -0.4502 0.3104
vn -0.5173 -0.3228 -0.7926
vn 0.3567 -0.0510 -0.9328
vn 0.9756 -0.1796 -0.1266
vn 0.3187 -0.5765 0.7524
vn -0.9596 -0.2451 0.1378
vn -0.4178 -0.0254 -0.9082
vn 0.7031 0.1584 -0.6933
vn 0.9468 -0.0697 0.3142
vn 0.0657 -0.3970 0.9155
vn -0.7021 0.7120 -0.0113
vn -0.1436 0.8715 -0.4688
vn 0.5825 0.8110 -0.0536
vn 0.3867 0.4943 0.7785
vn -0.1106 0.5950 0.7961
vn -0.0771 0.8252 0.5596
vn -0.0375 0.6248 0.7798
vn 0.1772 0.4200 0.8900
vn 0.1039 0.8772 0.4687
vn 0.3520 0.7271 0.5894
vn 0.6707 0.7064 0.2264
vn 0.0294 0.9861 0.1637
vn 0.2760 0.9540 -0.1173
vn 0.2001 0.9065 -0.3717
vn -0.2531 0.9660 0.0518
vn -0.3381 0.9279 -0.1573
vn -0.6259 0.7376 -0.2535
vn -0.3193 0.9010 0.2937
vn -0.4783 0.8348 0.2728
vn -0.5338 0.6738 0.5110
vn -0.2090 0.1068 0.9721
vn 0.0868 -0.0831 0.9928
vn 0.2314 0.0697 0.9703
vn 0.5599 0.2182 0.7993
vn 0.9112 0.1294 0.3912
vn 0.9064 0.3904 0.1617
vn 0.7863 0.5195 -0.3346
vn 0.6583 0.4669 -0.5905
vn 0.4439 0.5973 -0.6680
vn -0.1699 0.5369 -0.8264
vn -0.4581 0.1719 -0.8721
vn -0.7245 0.4007 -0.5608
vn -0.9710 0.2362 -0.0371
vn -0.9842 0.0105 0.1770
vn -0.8858 0.1322 0.4448
vn 0.4361 -0.1352 0.8897
vn 0.4591 -0.3956 0.7954
vn 0.6307 -0.5564 0.5409
vn 0.9323 0.3065 -0.1919
vn 0.9532 0.0032 -0.3022
vn 0.8706 -0.0567 -0.4886
vn 0.1368 0.3646 -0.9211
vn 0.1761 0.0343 -0.9838
vn -0.1347 -0.2217 -0.9658
vn -0.9015 -0.0245 -0.4321
vn -0.8894 -0.1105 -0.4436
vn -0.9120 -0.3501 -0.2136
vn -0.7171 -0.1588 0.6786
vn -0.7257 -0.4267 0.5397
vn -0.4004 -0.6285 0.6669
vn 0.2595 -0.8364 0.4828
vn 0.3549 -0.9018 0.2464
vn 0.5755 -0.7511 0.3236
vn 0.7432 -0.6341 -0.2134
vn 0.6760 -0.6620 -0.3236
vn 0.6800 -0.4551 -0.5748
vn 0.3893 -0.4343 -0.8123
vn 0.0611 -0.6195 -0.7826
vn -0.0944 -0.5108 -0.8545
vn -0.2670 -0.9211 0.2833
vn -0.2899 -0.9264 0.2402
vn -0.0170 -0.9849 -0.1722
vn -0.3462 -0.5706 -0.7447
vn -0.3252 -0.7086 -0.6262
vn -0.7765 -0.6046 -0.1774
vn -0.2796 -0.9220 0.2677
vn -0.0863 -0.7481 0.6580
vn -0.2615 -0.9623 0.0753
vn 0.1155 -0.9932 0.0166
vn 0.3354 -0.9188 0.2082
vn -0.0192 -0.3794 0.9250
vn -0.9396 -0.3023 0.1603
vn -0.6924 -0.5428 -0.4753
vn 0.6926 -0.5303 -0.4890
vn 0.9158 -0.2855 0.2826
vn -0.6062 -0.0397 0.7943
vn -0.9873 -0.1569 -0.0257
vn -0.4335 -0.4045 -0.8053
vn 0.9062 -0.2234 -0.3590
vn 0.8923 -0.0370 0.4500
vn -0.5728 0.8090 0.1320
vn -0.7097 0.6268 -0.3215
vn 0.0839 0.6722 -0.7356
vn 0.7423 0.6299 -0.2284
vn 0.4435 0.8571 0.2620
vn 0.2602 0.9634 -0.0644
vn 0.4934 0.8671 0.0688
vn 0.7206 0.6927 0.0280
vn 0.2819 0.9097 -0.3051
vn 0.5267 0.7643 -0.3721
vn 0.4966 0.6332 -0.5936
vn -0.0857 0.9145 -0.3954
vn -0.1811 0.7872 -0.5896
vn -0.5215 0.6400 -0.5643
vn -0.3303 0.9207 -0.2080
vn -0.6145 0.7649 -0.1930
vn -0.7226 0.6894 -0.0507
vn -0.1233 0.9918 -0.0325
vn -0.2395 0.9621 0.1300
vn 0.0099 0.9488 0.3159
vn 0.6942 0.5471 0.4678
vn 0.8751 0.3073 0.3739
vn 0.9022 0.3958 0.1714
vn 0.9213 0.3146 -0.2286
vn 0.8984 0.1046 -0.4266
vn 0.7322 0.2557 -0.6312
vn 0.0225 0.3098 -0.9505
vn -0.4279 0.0929 -0.8990
vn -0.6602 0.2780 -0.6978
vn -0.9255 0.2818 -0.2529
vn -0.9776 0.1876 -0.0957
vn -0.9409 0.3387 0.0009
vn -0.7600 0.5448 0.3543
vn -0.5781 0.4885 0.6536
vn -0.1020 0.7401 0.6648
vn 0.9922 0.1182 0.0387
vn 0.9833 -0.1560 0.0939
vn 0.9238 -0.3788 -0.0562
vn 0.5211 -0.0062 -0.8535
vn 0.5058 -0.4601 -0.7297
vn 0.0938 -0.6947 -0.7132
vn -0.8978 0.0542 -0.4370
vn -0.8829 -0.3127 -0.3504
vn -0.9132 -0.3804 -0.1465
vn -0.9539 0.2116 0.2130
vn -0.9452 -0.1610 0.2840
vn -0.8018 -0.3317 0.4971
vn 0.4560 0.4110 0.7894
vn 0.4536 -0.1137 0.8839
vn 0.6751 -0.2924 0.6773
vn 0.7117 -0.6188 0.3324
vn 0.6026 -0.7737 0.1953
vn 0.7356 -0.6774 0.0008
vn 0.5472 -0.8032 -0.2354
vn 0.2352 -0.9510 -0.2006
vn -0.0050 -0.9255 -0.3786
vn -0.4441 -0.8544 -0.2699
vn -0.4957 -0.8665 -0.0590
vn -0.7262 -0.6875 0.0048
vn 0.5206 -0.6613 0.5401
vn 0.1898 -0.8229 0.5355
vn 0.0966 -0.9237 0.3706
vn -0.7418 -0.6476 0.1742
vn -0.5330 -0.7850 0.3157
vn -0.5233 -0.7058 0.4775
vn -0.2796 -0.9400 0.1954
vn -0.0863 -0.7968 0.5980
vn -0.2615 -0.9652 0.0004
vn 0.1155 -0.9915 -0.0605
vn 0.3354 -0.9322 0.1363
vn -0.0192 -0.4500 0.8928
vn -0.9396 -0.3138 0.1364
vn -0.6924 -0.5043 -0.5160
vn 0.6926 -0.4908 -0.5287
vn 0.9158 -0.3066 0.2596
vn -0.6062 -0.1012 0.7888
vn -0.9873 -0.1544 -0.0378
vn -0.4335 -0.3408 -0.8342
vn 0.9062 -0.1949 -0.3752
vn 0.8923 -0.0718 0.4458
vn -0.5728 0.7963 0.1944
vn -0.7097 0.6499 -0.2719
vn 0.0839 0.7273 -0.6812
vn 0.7423 0.6458 -0.1788
vn 0.4435 0.8342 0.3277
vn 0.2602 0.9655 0.0106
vn 0.4934 0.8591 0.1359
vn 0.7206 0.6885 0.0817
vn 0.2819 0.9306 -0.2336
vn 0.5267 0.7908 -0.3117
vn 0.4966 0.6774 -0.5427
vn -0.0857 0.9424 -0.3232
vn -0.1811 0.8305 -0.5267
vn -0.5215 0.6819 -0.5129
vn -0.3303 0.9340 -0.1360
vn -0.6145 0.7776 -0.1331
vn -0.7226 0.6913 0.0029
vn -0.1233 0.9914 0.0446
vn -0.2395 0.9492 0.2043
vn 0.0099 0.9214 0.3885
vn 0.6942 0.5092 0.5088
vn 0.8751 0.2774 0.3967
vn 0.9022 0.3813 0.2016
vn 0.9213 0.3314 -0.2035
vn 0.8984 0.1373 -0.4172
vn 0.7322 0.3039 -0.6095
vn 0.0225 0.3826 -0.9236
vn -0.4279 0.1624 -0.8891
vn -0.6602 0.3313 -0.6741
vn -0.9255 0.3006 -0.2303
vn -0.9776 0.1945 -0.0809
vn -0.9409 0.3376 0.0272
vn -0.7600 0.5156 0.3955
vn -0.5781 0.4363 0.6896
vn -0.1020 0.6863 0.7202
vn 0.9922 0.1148 0.0477
vn 0.9833 -0.1628 0.0815
vn 0.9238 -0.3733 -0.0854
vn 0.5211 0.0600 -0.8514
vn 0.5058 -0.4021 -0.7632
vn 0.0938 -0.6372 -0.7649
vn -0.8978 0.0880 -0.4315
vn -0.8829 -0.2846 -0.3736
vn -0.9132 -0.3678 -0.1756
vn -0.9539 0.1944 0.2287
vn -0.9452 -0.1825 0.2707
vn -0.8018 -0.3693 0.4698
vn 0.4560 0.3485 0.8189
vn 0.4536 -0.1820 0.8724
vn 0.6751 -0.3441 0.6525
vn 0.7117 -0.6428 0.2833
vn 0.6026 -0.7866 0.1347
vn 0.7356 -0.6754 -0.0517
vn 0.5472 -0.7825 -0.2970
vn 0.2352 -0.9326 -0.2738
vn -0.0050 -0.8934 -0.4493
vn -0.4441 -0.8309 -0.3354
vn -0.4957 -0.8593 -0.1261
vn -0.7261 -0.6858 -0.0485
vn 0.5206 -0.7012 0.4871
vn 0.1898 -0.8620 0.4700
vn 0.0966 -0.9497 0.2979
vn -0.7418 -0.6592 0.1235
vn -0.5330 -0.8072 0.2538
vn -0.5233 -0.7407 0.4213
vn -0.2595 -0.9588 0.1158
vn 0.1406 -0.9231 0.3578
vn -0.3548 -0.9333 -0.0553
vn -0.0809 -0.9431 -0.3225
vn 0.2166 -0.9360 -0.2773
vn 0.4071 -0.6631 0.6281
vn -0.7460 -0.3382 0.5737
vn -0.9260 -0.3558 -0.1265
vn 0.2117 -0.3395 -0.9165
vn 0.8531 -0.3627 -0.3750
vn -0.0837 -0.2993 0.9505
vn -0.8574 -0.1396 0.4953
vn -0.8626 -0.1164 -0.4923
vn 0.5145 -0.0926 -0.8525
vn 0.9693 -0.1833 -0.1638
vn -0.2514 0.7203 0.6465
vn -0.6403 0.6978 0.3211
vn -0.1981 0.8771 -0.4375
vn 0.6079 0.6700 -0.4261
vn 0.6654 0.7229 0.1865
vn 0.3598 0.9308 0.0648
vn 0.6053 0.7959 0.0105
vn 0.7385 0.6448 -0.1970
vn 0.2392 0.9594 -0.1495
vn 0.3784 0.8442 -0.3797
vn 0.2109 0.7935 -0.5708
vn -0.1113 0.9937 -0.0108
vn -0.3173 0.9375 -0.1428
vn -0.6120 0.7903 0.0292
vn -0.2120 0.9378 0.2750
vn -0.4674 0.7858 0.4049
vn -0.4948 0.6676 0.5563
vn 0.0657 0.9471 0.3141
vn 0.0510 0.8655 0.4983
vn 0.3535 0.7916 0.4984
vn 0.9242 0.3623 0.1208
vn 0.9787 0.1669 -0.1197
vn 0.9095 0.3172 -0.2687
vn 0.6967 0.3723 -0.6132
vn 0.5330 0.2394 -0.8116
vn 0.3149 0.4495 -0.8359
vn -0.4308 0.6058 -0.6688
vn -0.8154 0.3841 -0.4331
vn -0.8651 0.4925 -0.0948
vn -0.8460 0.3495 0.4027
vn -0.8226 0.2087 0.5289
vn -0.7126 0.3195 0.6246
vn -0.3365 0.3975 0.8537
vn -0.0371 0.2457 0.9686
vn 0.4084 0.4796 0.7767
vn 0.8612 0.0988 -0.4985
vn 0.8322 -0.1783 -0.5250
vn 0.6616 -0.3391 -0.6688
vn -0.0267 0.2755 -0.9609
vn -0.0578 -0.1938 -0.9793
vn -0.4326 -0.4207 -0.7974
vn -0.9638 0.1953 0.1818
vn -0.9736 -0.1797 0.1410
vn -0.9024 -0.3108 0.2985
vn -0.6339 0.1296 0.7625
vn -0.6583 -0.2456 0.7116
vn -0.4581 -0.4770 0.7501
vn 0.8739 0.1278 0.4689
vn 0.8247 -0.3987 0.4012
vn 0.8639 -0.4993 0.0664
vn 0.6492 -0.6938 -0.3117
vn 0.4573 -0.7949 -0.3988
vn 0.4811 -0.6398 -0.5993
vn 0.1762 -0.6807 -0.7110
vn -0.0902 -0.8317 -0.5478
vn -0.3786 -0.7490 -0.5438
vn -0.6695 -0.7177 -0.1916
vn -0.6019 -0.7986 -0.0015
vn -0.7246 -0.6507 0.2272
vn 0.5944 -0.8024 -0.0534
vn 0.2890 -0.9535 0.0861
vn 0.1054 -0.9943 -0.0171
vn -0.6397 -0.6688 0.3788
vn -0.4175 -0.8452 0.3336
vn -0.3084 -0.8237 0.4758
vn -0.5020 -0.5076 0.7003
vn -0.1604 0.2094 0.9646
vn -0.5126 -0.6715 0.5351
vn -0.2192 -0.8175 0.5326
vn 0.0663 -0.7193 0.6915
vn 0.0044 0.5199 0.8542
vn -0.9219 0.0110 0.3872
vn -0.7539 -0.5829 -0.3030
vn 0.2157 -0.9096 -0.3551
vn 0.8161 -0.3398 0.4675
vn -0.1997 0.6756 0.7097
vn -0.9964 0.0553 0.0644
vn -0.4101 -0.6786 -0.6094
vn 0.6199 -0.7003 -0.3541
vn 0.8825 0.0042 0.4704
vn -0.2515 0.9329 -0.2577
vn -0.4896 0.4389 -0.7534
vn 0.1494 -0.0512 -0.9874
vn 0.8639 0.1797 -0.4704
vn 0.7099 0.6345 -0.3058
vn 0.4992 0.6607 -0.5606
vn 0.7197 0.5873 -0.3703
vn 0.8968 0.3399 -0.2831
vn 0.4759 0.5174 -0.7111
vn 0.6744 0.2754 -0.6851
vn 0.4427 -0.0953 -0.8916
vn 0.1638 0.5456 -0.8219
vn -0.0156 0.2502 -0.9681
vn -0.2805 0.2115 -0.9362
vn -0.0381 0.7277 -0.6848
vn -0.2637 0.7144 -0.6482
vn -0.4528 0.8152 -0.3612
vn 0.1664 0.8165 -0.5528
vn 0.0923 0.9021 -0.4215
vn 0.2969 0.9306 -0.2141
vn 0.8414 0.5061 0.1895
vn 0.9623 0.1759 0.2074
vn 0.9909 0.1348 0.0018
vn 0.9429 -0.0983 -0.3183
vn 0.6800 -0.5442 -0.4915
vn 0.4627 -0.4692 -0.7522
vn -0.0446 -0.4496 -0.8921
vn -0.3289 -0.4499 -0.8303
vn -0.4753 -0.2326 -0.8485
vn -0.8345 0.1788 -0.5211
vn -0.9763 0.2022 -0.0766
vn -0.7753 0.6263 -0.0820
vn -0.3679 0.8882 0.2751
vn -0.1712 0.8417 0.5120
vn 0.1140 0.9056 0.4084
vn 0.9853 -0.1602 0.0595
vn 0.9046 -0.3437 0.2520
vn 0.7245 -0.6396 0.2571
vn 0.1395 -0.6372 -0.7580
vn 0.0431 -0.8463 -0.5309
vn -0.1604 -0.8664 -0.4729
vn -0.8183 -0.1844 -0.5444
vn -0.8637 -0.4087 -0.2950
vn -0.9534 -0.2910 0.0799
vn -0.7151 0.5800 0.3902
vn -0.7217 0.5215 0.4551
vn -0.5134 0.4799 0.7114
vn 0.3915 0.6853 0.6140
vn 0.2581 0.5101 0.8205
vn 0.4891 0.1811 0.8532
vn 0.5426 -0.5086 0.6685
vn 0.3531 -0.6881 0.6339
vn 0.5014 -0.7617 0.4104
vn 0.0544 -0.9900 0.1304
vn -0.0722 -0.9832 0.1675
vn -0.3067 -0.9502 -0.0557
vn -0.6295 -0.7765 0.0280
vn -0.7142 -0.6041 0.3535
vn -0.8350 -0.4436 0.3255
vn 0.1745 -0.1917 0.9658
vn 0.1262 -0.1888 0.9739
vn -0.1675 -0.5573 0.8132
vn -0.8182 -0.2425 0.5213
vn -0.6997 -0.2977 0.6495
vn -0.4330 0.2477 0.8667
vn -1.0000 -0.0000 -0.0000
vn -0.0000 -0.5071 -0.8619
vn 1.0000 -0.0000 -0.0000
vn -0.9843 -0.1634 0.0663
vn -0.0000 0.5126 0.8586
vn 0.9966 0.0786 0.0256
vn 0.9249 0.1150 0.3625
vn -0.9643 0.2518 0.0821
vn -0.9955 0.0923 -0.0208
vn -0.0000 -0.0300 -0.9995
vn 0.9141 -0.0018 -0.4056
vn 0.9955 0.0923 -0.0208
vn -0.0000 0.1940 0.9810
vn -0.9955 0.0947 0.0025
vn -0.0000 -0.0031 -1.0000
vn 0.9955 0.0947 0.0025
vn -0.0000 0.2331 0.9724
vn -0.0000 0.4436 -0.8962
vn -0.0000 -0.4522 0.8919
vn -0.0000 0.4020 0.9156
vn -0.0000 0.7818 -0.6235
vn -0.0623 0.9698 -0.2356
vn -0.0000 -0.7988 0.6016
vn -0.9975 0.0409 0.0573
vn 0.0650 0.5296 -0.8457
vn -0.0000 -0.4281 0.9037
vn -0.0000 0.3757 0.9267
vn -0.4932 0.4884 -0.7198
vn -0.0000 -0.3757 -0.9267
vn -0.0000 0.0580 0.9983
vn 0.7154 0.0285 0.6981
vn 0.8458 0.3494 -0.4032
vn -0.0692 -0.6739 0.7355
vn -0.1572 0.7451 -0.6482
vn -0.9282 0.0355 -0.3705
vn -0.3371 0.3286 0.8823
vn -0.1745 0.1582 -0.9719
vn 0.2607 0.3376 -0.9045
vn -0.2577 0.9662 -0.0000
vn -0.9967 -0.0494 -0.0641
vn -0.9919 0.0515 0.1160
vn 0.3398 0.8801 0.3316
vn -0.0000 0.7557 0.6549
vn 0.9857 0.0049 0.1684
vn -0.0000 -0.6631 0.7486
vn 0.6904 0.2334 0.6847
vn 0.9852 0.0603 -0.1605
vn -0.0931 0.9473 0.3064
vn -0.0000 -0.4020 -0.9156
vn 0.9621 0.2650 0.0640
vn -0.0000 -1.0000 -0.0000
vn 0.0649 0.6347 -0.7700
vn -0.0000 0.9138 -0.4061
vn -0.0000 -0.0847 -0.9964
vn -0.8505 -0.4642 -0.2472
vn -0.0912 0.7547 -0.6497
vn -0.0748 -0.7933 -0.6042
vn -0.9896 0.1243 -0.0727
vn 0.9143 0.4037 0.0323
vn -0.7133 -0.7008 0.0016
vn 0.0111 0.9930 -0.1178
vn -0.9725 0.1984 -0.1222
vn -0.9952 0.0564 -0.0805
vn 0.9024 -0.3899 0.1834
vn -0.2623 -0.4216 0.8680
vn 0.0447 -0.8218 -0.5680
vn 0.0113 -0.6019 0.7985
vn -0.3193 0.2821 0.9047
vn 0.1110 -0.6626 -0.7407
vn 0.8642 0.2423 -0.4409
vn -0.0000 0.2237 0.9747
vn -0.0000 -0.2191 -0.9757
vn -0.0000 0.1007 0.9949
vn 0.9946 0.1034 -0.0053
vn -0.0000 0.1135 -0.9935
vn -0.9946 0.1034 -0.0053
vn -0.0000 0.1034 0.9946
vn 0.9946 0.1034 -0.0000
vn -0.0000 0.1034 -0.9946
vn -0.9946 0.1034 -0.0000
vn -0.0000 -0.1393 0.9902
vn -0.9942 0.0956 0.0492
vn -0.0000 0.4196 -0.9077
vn 0.9942 0.0956 0.0492
vn -0.0000 -0.2074 0.9783
vn -0.9944 0.1009 0.0329
vn -0.0000 0.4092 -0.9125
vn 0.9944 0.1009 0.0329
vn -0.0000 -0.7951 0.6065
vn -0.0000 0.9350 -0.3546
vn -0.0000 -0.8552 0.5184
vn -0.0000 0.8440 -0.5364
vn -0.0000 0.4061 0.9138
vn -0.0000 -0.4061 -0.9138
vn -0.0000 0.3103 0.9507
vn -0.0000 -0.6003 -0.7998
vn -0.1316 -0.7705 0.6237
vn -0.9887 0.0451 -0.1430
vn 0.1051 0.8608 -0.4980
vn 0.9622 0.0452 0.2687
vn -0.9887 0.0452 -0.1430
vn 0.9622 0.0451 0.2687
vn -0.1331 -0.7682 0.6263
vn -0.9879 0.0492 -0.1471
vn 0.1062 0.8714 -0.4789
vn 0.9629 0.0559 0.2639
vn -0.1626 -0.4744 0.8652
vn -0.9876 0.0729 -0.1392
vn 0.1634 0.4448 -0.8806
vn 0.9876 -0.0741 0.1383
vn -0.1595 -0.4614 0.8728
vn -0.9870 0.0751 -0.1418
vn 0.1595 0.4624 -0.8722
vn 0.9870 -0.0751 0.1419
vn -0.1595 -0.6494 0.7436
vn -0.9870 0.1051 -0.1213
vn 0.1595 0.6441 -0.7482
vn 0.9870 -0.1052 0.1212
vn -0.1600 -0.6465 0.7460
vn -0.9871 0.1048 -0.1209
vn 0.1600 0.6465 -0.7460
vn 0.9871 -0.1048 0.1209
vn -0.0257 -0.9955 -0.0915
vn 0.9284 -0.0013 -0.3717
vn -0.0322 0.9929 -0.1149
vn -0.9862 -0.0013 0.1653
vn -0.0418 -0.9930 -0.1102
vn 0.9130 0.0524 -0.4045
vn -0.0141 0.9748 -0.2225
vn -0.9866 -0.0045 0.1632
vn -0.0333 -0.6474 -0.7614
vn 0.9667 -0.1796 0.1825
vn 0.0304 0.6311 0.7751
vn -0.9684 0.1757 -0.1771
vn 0.6299 -0.4748 0.6147
vn -0.6984 -0.0000 0.7157
vn -0.5952 0.4638 -0.6562
vn 0.7574 -0.0250 -0.6524
vn -0.5564 -0.8309 -0.0000
vn 0.0448 0.0521 -0.9976
vn 0.4658 0.8846 -0.0231
vn -0.0572 0.0331 0.9978
vn -0.0572 0.0331 -0.9978
vn 0.4419 0.8970 -0.0000
vn -0.5623 -0.8269 -0.0000
vn -0.0532 0.0400 -0.9978
vn 0.4164 0.9092 -0.0000
vn -0.0532 0.0400 0.9978
vn -0.8598 -0.5106 -0.0000
vn -0.0000 -0.0000 -1.0000
vn 0.8642 0.5032 -0.0000
vn -0.0000 -0.0000 1.0000
vn -0.9646 -0.2636 -0.0113
vn 0.0497 0.0917 -0.9945
vn 0.9721 0.2336 0.0234
vn -0.1095 0.0859 0.9903
vn -0.9662 -0.2577 -0.0000
vn 0.9662 0.2577 -0.0000
vn 0.0935 -0.9413 -0.3244
vn 0.9505 0.0532 0.3062
vn -0.1753 0.9430 0.2830
vn -0.9609 -0.0000 -0.2770
vn -0.0280 -0.9874 -0.1557
vn 0.9843 -0.0000 -0.1768
vn 0.0676 0.9881 0.1378
vn -0.9859 -0.0284 0.1647
vn -0.1173 -0.9445 0.3069
vn -0.9342 -0.0001 -0.3568
vn 0.0275 0.9456 -0.3242
vn 0.9378 0.0197 0.3467
vt 0.179896 0.935444
vt 0.179370 0.937019
vt 0.179027 0.935381
vt 0.179351 0.937931
vt 0.180238 0.937953
vt 0.179843 0.934122
vt 0.180839 0.934613
vt 0.180476 0.936598
vt 0.188860 0.934433
vt 0.188890 0.933639
vt 0.189922 0.934049
vt 0.188183 0.936722
vt 0.188232 0.935432
vt 0.188934 0.936533
vt 0.198712 0.934429
vt 0.198674 0.933524
vt 0.199627 0.934123
vt 0.177482 0.931853
vt 0.178351 0.932299
vt 0.177513 0.932871
vt 0.203599 0.934056
vt 0.203590 0.935802
vt 0.202937 0.934930
vt 0.189458 0.935120
vt 0.198750 0.932364
vt 0.199413 0.931726
vt 0.199703 0.932933
vt 0.199371 0.935053
vt 0.176559 0.932169
vt 0.202693 0.933563
vt 0.189866 0.935940
vt 0.190492 0.934842
vt 0.190621 0.936101
vt 0.175046 0.956090
vt 0.175204 0.957595
vt 0.174286 0.956619
vt 0.173384 0.955104
vt 0.174243 0.955446
vt 0.173185 0.955894
vt 0.202011 0.935974
vt 0.201507 0.937029
vt 0.201097 0.935618
vt 0.201734 0.933313
vt 0.201974 0.934183
vt 0.201097 0.933797
vt 0.172604 0.958797
vt 0.172255 0.957027
vt 0.173216 0.957378
vt 0.172428 0.955414
vt 0.173938 0.958473
vt 0.174391 0.959070
vt 0.173184 0.959448
vt 0.172255 0.959289
vt 0.202642 0.936928
vt 0.176559 0.933324
vt 0.177461 0.933799
vt 0.178372 0.933454
vt 0.177970 0.934271
vt 0.200313 0.934746
vt 0.200388 0.933722
vt 0.200462 0.932494
vt 0.189801 0.937340
vt 0.190621 0.933962
vt 0.176576 0.931064
vt 0.198237 0.935129
vt 0.202204 0.932895
vt 0.189925 0.933361
vt 0.203345 0.933258
vt 0.181526 0.935714
vt 0.181002 0.937506
vt 0.181526 0.934256
vt 0.177849 0.931228
vt 0.180659 0.933763
vt 0.197810 0.934149
vt 0.197810 0.932821
vt 0.178558 0.937037
vt 0.178372 0.935459
vt 0.187883 0.934513
vt 0.184111 0.949177
vt 0.183429 0.952308
vt 0.182235 0.949012
vt 0.182848 0.954326
vt 0.184780 0.954128
vt 0.183436 0.946147
vt 0.185569 0.947200
vt 0.185546 0.951071
vt 0.176582 0.934271
vt 0.178372 0.935024
vt 0.176475 0.936203
vt 0.202190 0.947391
vt 0.202474 0.950759
vt 0.200617 0.949370
vt 0.202203 0.942454
vt 0.202479 0.944477
vt 0.200635 0.942652
vt 0.181156 0.959557
vt 0.182873 0.961100
vt 0.180888 0.961316
vt 0.176939 0.951979
vt 0.176692 0.948433
vt 0.178556 0.950358
vt 0.174849 0.934983
vt 0.200618 0.945468
vt 0.183690 0.962818
vt 0.182897 0.964553
vt 0.182407 0.963258
vt 0.176932 0.945389
vt 0.178475 0.943827
vt 0.178557 0.946428
vt 0.178489 0.953934
vt 0.192353 0.950983
vt 0.190621 0.952651
vt 0.191585 0.949055
vt 0.199039 0.944220
vt 0.198744 0.947266
vt 0.197579 0.945366
vt 0.180312 0.963187
vt 0.180911 0.964770
vt 0.178522 0.963807
vt 0.180139 0.948299
vt 0.180372 0.945447
vt 0.181526 0.948420
vt 0.188685 0.952771
vt 0.187459 0.950162
vt 0.189415 0.950088
vt 0.188472 0.946686
vt 0.190365 0.946768
vt 0.187037 0.946895
vt 0.190185 0.943995
vt 0.188226 0.944038
vt 0.178507 0.961672
vt 0.192056 0.945271
vt 0.191884 0.942789
vt 0.193168 0.944617
vt 0.193168 0.947540
vt 0.199034 0.950809
vt 0.197579 0.949280
vt 0.180379 0.951707
vt 0.180033 0.954326
vt 0.179020 0.959557
vt 0.198757 0.942587
vt 0.200629 0.952855
vt 0.198751 0.952794
vt 0.174849 0.937147
vt 0.189422 0.954326
vt 0.184777 0.944147
vt 0.182840 0.943831
vt 0.183681 0.942546
vt 0.202198 0.953208
vt 0.178372 0.937188
vt 0.176582 0.937953
vt 0.176593 0.954149
vt 0.175488 0.950697
vt 0.187037 0.948802
vt 0.175488 0.946777
vt 0.186499 0.945659
vt 0.181526 0.945854
vt 0.203599 0.947457
vt 0.186484 0.952169
vt 0.181526 0.951984
vt 0.171207 0.935798
vt 0.170934 0.937088
vt 0.170455 0.935745
vt 0.170704 0.937953
vt 0.171479 0.937867
vt 0.170937 0.934580
vt 0.171793 0.935013
vt 0.171784 0.936588
vt 0.200381 0.935540
vt 0.201097 0.935846
vt 0.200355 0.936293
vt 0.174148 0.962436
vt 0.174264 0.963788
vt 0.173517 0.963230
vt 0.174158 0.960455
vt 0.174265 0.961267
vt 0.173526 0.960534
vt 0.179522 0.931874
vt 0.180433 0.931740
vt 0.180002 0.932440
vt 0.183025 0.935450
vt 0.182922 0.934028
vt 0.183669 0.934798
vt 0.199679 0.935842
vt 0.173517 0.961665
vt 0.181179 0.931900
vt 0.181526 0.932573
vt 0.180991 0.932453
vt 0.183023 0.932807
vt 0.183646 0.932179
vt 0.183669 0.933221
vt 0.183651 0.936233
vt 0.171988 0.941808
vt 0.171381 0.942582
vt 0.171583 0.941116
vt 0.172885 0.961164
vt 0.172766 0.962386
vt 0.172302 0.961623
vt 0.170628 0.938455
vt 0.171393 0.938532
vt 0.170773 0.939147
vt 0.184305 0.933970
vt 0.184404 0.932827
vt 0.184871 0.934018
vt 0.170616 0.942724
vt 0.169997 0.941745
vt 0.170770 0.941648
vt 0.170225 0.940325
vt 0.170982 0.940274
vt 0.184407 0.935338
vt 0.169997 0.939232
vt 0.179522 0.933249
vt 0.180445 0.933091
vt 0.180197 0.933763
vt 0.171582 0.939563
vt 0.171995 0.939194
vt 0.172140 0.940383
vt 0.172883 0.963808
vt 0.172302 0.963194
vt 0.184279 0.936390
vt 0.181095 0.933273
vt 0.172775 0.960508
vt 0.173524 0.964628
vt 0.172773 0.964603
vt 0.199679 0.936717
vt 0.200381 0.937029
vt 0.174156 0.964770
vt 0.201097 0.936720
vt 0.182898 0.936322
vt 0.182449 0.934938
vt 0.172385 0.935704
vt 0.182449 0.933365
vt 0.171477 0.933804
vt 0.172169 0.934432
vt 0.170701 0.933681
vt 0.170173 0.934494
vt 0.174716 0.962462
vt 0.172163 0.937082
vt 0.170173 0.936990
vt 0.192117 0.934838
vt 0.191301 0.935939
vt 0.191445 0.934513
vt 0.190677 0.936757
vt 0.191421 0.936990
vt 0.192382 0.933663
vt 0.192967 0.934428
vt 0.192281 0.935855
vt 0.190801 0.937340
vt 0.196307 0.931929
vt 0.196438 0.930956
vt 0.197106 0.931464
vt 0.195643 0.933883
vt 0.195865 0.932940
vt 0.196369 0.933811
vt 0.195077 0.932976
vt 0.195297 0.933880
vt 0.194516 0.933733
vt 0.118657 0.899466
vt 0.118676 0.899516
vt 0.118640 0.899505
vt 0.175859 0.941655
vt 0.176518 0.941187
vt 0.176410 0.942159
vt 0.196750 0.932699
vt 0.196057 0.934585
vt 0.194381 0.932455
vt 0.118621 0.899445
vt 0.174542 0.937177
vt 0.173841 0.937914
vt 0.174179 0.936573
vt 0.174849 0.934559
vt 0.174849 0.935793
vt 0.174356 0.935017
vt 0.173571 0.933678
vt 0.174317 0.933858
vt 0.173598 0.934516
vt 0.172385 0.935571
vt 0.172846 0.934418
vt 0.172916 0.935642
vt 0.173070 0.937953
vt 0.172557 0.936936
vt 0.173308 0.937022
vt 0.173662 0.935717
vt 0.175554 0.939856
vt 0.175991 0.940969
vt 0.175301 0.940867
vt 0.176046 0.938864
vt 0.175301 0.938741
vt 0.176456 0.940188
vt 0.193706 0.933126
vt 0.193706 0.931918
vt 0.193932 0.934133
vt 0.174018 0.933325
vt 0.196948 0.934313
vt 0.197153 0.933451
vt 0.197579 0.932458
vt 0.176432 0.943363
vt 0.177067 0.942846
vt 0.177254 0.943827
vt 0.177230 0.941887
vt 0.177254 0.941193
vt 0.194281 0.931098
vt 0.195082 0.931772
vt 0.194625 0.934585
vt 0.195259 0.934382
vt 0.175725 0.942663
vt 0.175691 0.937953
vt 0.176599 0.938314
vt 0.176839 0.939328
vt 0.193168 0.935421
vt 0.192367 0.936601
vt 0.195643 0.932694
vt 0.193168 0.933298
vt 0.192511 0.932875
vt 0.191694 0.933361
vt 0.195643 0.931983
vt 0.190621 0.935628
vt 0.190960 0.934309
vt 0.177443 0.954935
vt 0.176569 0.956525
vt 0.176132 0.954880
vt 0.176105 0.958100
vt 0.177407 0.958176
vt 0.181622 0.958943
vt 0.180372 0.958770
vt 0.180755 0.957386
vt 0.182340 0.957624
vt 0.182945 0.959557
vt 0.176612 0.959448
vt 0.180186 0.940915
vt 0.180518 0.943068
vt 0.179084 0.942302
vt 0.180414 0.937953
vt 0.180465 0.938963
vt 0.179188 0.938102
vt 0.182855 0.956258
vt 0.181469 0.956120
vt 0.182307 0.955028
vt 0.175751 0.964279
vt 0.175049 0.961798
vt 0.176526 0.962992
vt 0.175204 0.958601
vt 0.179029 0.939620
vt 0.180148 0.956062
vt 0.179508 0.955380
vt 0.180695 0.954937
vt 0.183664 0.955784
vt 0.177258 0.964770
vt 0.197422 0.936974
vt 0.196270 0.938113
vt 0.196117 0.936273
vt 0.178060 0.938803
vt 0.177776 0.940861
vt 0.177254 0.939391
vt 0.190973 0.938199
vt 0.192225 0.938484
vt 0.191084 0.939496
vt 0.188604 0.940136
vt 0.189677 0.938773
vt 0.189679 0.940910
vt 0.195357 0.939096
vt 0.194525 0.939129
vt 0.195058 0.937899
vt 0.190004 0.942789
vt 0.191161 0.941264
vt 0.188581 0.942272
vt 0.178056 0.963730
vt 0.177345 0.961241
vt 0.178507 0.961354
vt 0.192538 0.940072
vt 0.193168 0.938940
vt 0.195222 0.934585
vt 0.194525 0.935965
vt 0.197136 0.934937
vt 0.178507 0.964761
vt 0.175994 0.960003
vt 0.177341 0.959448
vt 0.188581 0.938270
vt 0.189960 0.937461
vt 0.191550 0.937340
vt 0.192680 0.937728
vt 0.122455 0.826817
vt 0.122404 0.826849
vt 0.122405 0.826811
vt 0.178135 0.943133
vt 0.197579 0.938246
vt 0.196373 0.939363
vt 0.174978 0.959809
vt 0.179033 0.943827
vt 0.175204 0.956782
vt 0.195419 0.940087
vt 0.177985 0.959307
vt 0.178507 0.957850
vt 0.174716 0.963743
vt 0.183690 0.957787
vt 0.179508 0.956918
vt 0.181526 0.938825
vt 0.181384 0.940843
vt 0.178115 0.956339
vt 0.522071 0.451903
vt 0.522134 0.451926
vt 0.522078 0.452027
vt 0.522013 0.452008
vt 0.521930 0.451974
vt 0.521990 0.451978
vt 0.522013 0.452081
vt 0.521953 0.452077
vt 0.516083 0.452581
vt 0.515431 0.452846
vt 0.514801 0.451749
vt 0.515468 0.451525
vt 0.517376 0.447870
vt 0.516001 0.447198
vt 0.515551 0.447416
vt 0.522602 0.451496
vt 0.522670 0.451496
vt 0.522666 0.451599
vt 0.522599 0.451599
vt 0.522751 0.452430
vt 0.522719 0.452446
vt 0.522671 0.452403
vt 0.522545 0.452391
vt 0.522602 0.452374
vt 0.522583 0.452398
vt 0.515232 0.446565
vt 0.515684 0.446560
vt 0.515072 0.446924
vt 0.522069 0.452082
vt 0.522013 0.452078
vt 0.522006 0.452150
vt 0.521956 0.452147
vt 0.522727 0.452355
vt 0.522755 0.452381
vt 0.522688 0.452360
vt 0.514792 0.451008
vt 0.515370 0.450948
vt 0.522660 0.451654
vt 0.522604 0.451654
vt 0.522060 0.452122
vt 0.522014 0.452132
vt 0.521999 0.452204
vt 0.521957 0.452201
vt 0.514800 0.450436
vt 0.515281 0.450527
vt 0.522655 0.451694
vt 0.522608 0.451694
vt 0.522091 0.452178
vt 0.522055 0.452209
vt 0.521977 0.452282
vt 0.521936 0.452279
vt 0.515201 0.449607
vt 0.515579 0.449925
vt 0.522657 0.451749
vt 0.522610 0.451749
vt 0.522545 0.452322
vt 0.522588 0.452306
vt 0.522619 0.452331
vt 0.475292 0.495543
vt 0.514008 0.456556
vt 0.514194 0.456805
vt 0.522121 0.452199
vt 0.522094 0.452238
vt 0.522766 0.451285
vt 0.522766 0.451332
vt 0.522730 0.451333
vt 0.522730 0.451286
vt 0.522302 0.452495
vt 0.522322 0.452492
vt 0.522316 0.452518
vt 0.515590 0.449290
vt 0.515890 0.449686
vt 0.522106 0.451331
vt 0.522106 0.451284
vt 0.522136 0.451285
vt 0.522136 0.451332
vt 0.522964 0.452289
vt 0.522978 0.452238
vt 0.523003 0.452246
vt 0.522990 0.452291
vt 0.522166 0.451240
vt 0.522213 0.451246
vt 0.522202 0.451266
vt 0.522160 0.451264
vt 0.522536 0.452297
vt 0.522579 0.452282
vt 0.522298 0.451283
vt 0.522345 0.451281
vt 0.522347 0.451304
vt 0.522300 0.451306
vt 0.522654 0.452346
vt 0.522636 0.452389
vt 0.522979 0.451449
vt 0.523026 0.451448
vt 0.523026 0.451484
vt 0.522979 0.451485
vt 0.522124 0.452250
vt 0.522128 0.452282
vt 0.523017 0.452320
vt 0.515898 0.448130
vt 0.515725 0.447773
vt 0.523033 0.452353
vt 0.522160 0.451304
vt 0.522202 0.451305
vt 0.522207 0.451340
vt 0.522166 0.451338
vt 0.523026 0.451519
vt 0.523022 0.451584
vt 0.522985 0.451585
vt 0.522979 0.451521
vt 0.522883 0.452343
vt 0.522916 0.452344
vt 0.522902 0.452358
vt 0.522144 0.451244
vt 0.522156 0.451266
vt 0.522137 0.451267
vt 0.522337 0.451350
vt 0.522298 0.451352
vt 0.521997 0.451337
vt 0.522024 0.451341
vt 0.522002 0.451348
vt 0.523010 0.452630
vt 0.523017 0.452597
vt 0.523032 0.452639
vt 0.522213 0.451375
vt 0.522171 0.451373
vt 0.522536 0.452309
vt 0.522511 0.452307
vt 0.522511 0.452283
vt 0.522536 0.452285
vt 0.522464 0.452308
vt 0.522444 0.452309
vt 0.522444 0.452284
vt 0.522464 0.452282
vt 0.522444 0.452287
vt 0.522422 0.452308
vt 0.522422 0.452285
vt 0.515985 0.448851
vt 0.523009 0.452211
vt 0.522487 0.452309
vt 0.522487 0.452283
vt 0.522511 0.452284
vt 0.522511 0.452309
vt 0.515826 0.448666
vt 0.522422 0.452286
vt 0.522422 0.452309
vt 0.522401 0.452309
vt 0.522401 0.452286
vt 0.522981 0.452210
vt 0.522981 0.452231
vt 0.522965 0.452231
vt 0.522965 0.452211
vt 0.481178 0.495059
vt 0.478893 0.497962
vt 0.512428 0.455565
vt 0.512203 0.455704
vt 0.512261 0.455288
vt 0.523009 0.452231
vt 0.522087 0.451272
vt 0.522106 0.451309
vt 0.522087 0.451332
vt 0.522044 0.451302
vt 0.522064 0.451280
vt 0.522064 0.451332
vt 0.522058 0.451678
vt 0.522058 0.451579
vt 0.522156 0.451579
vt 0.522156 0.451678
vt 0.522985 0.451403
vt 0.523026 0.451393
vt 0.523026 0.451440
vt 0.522979 0.451448
vt 0.522487 0.452284
vt 0.522487 0.452309
vt 0.522464 0.452309
vt 0.522464 0.452285
vt 0.522164 0.452249
vt 0.522441 0.451430
vt 0.522479 0.451432
vt 0.522477 0.451462
vt 0.522441 0.451470
vt 0.521999 0.452605
vt 0.522018 0.452640
vt 0.521971 0.452643
vt 0.521963 0.452619
vt 0.515733 0.448267
vt 0.511938 0.455725
vt 0.511939 0.455281
vt 0.522087 0.451321
vt 0.522064 0.451286
vt 0.522085 0.451295
vt 0.522965 0.451656
vt 0.523009 0.451673
vt 0.523005 0.451692
vt 0.522966 0.451687
vt 0.518164 0.447199
vt 0.517063 0.445899
vt 0.522589 0.451602
vt 0.522563 0.451602
vt 0.522555 0.451573
vt 0.522578 0.451556
vt 0.522885 0.452320
vt 0.522920 0.452315
vt 0.514439 0.456617
vt 0.521973 0.452434
vt 0.521996 0.452439
vt 0.521986 0.452466
vt 0.521963 0.452464
vt 0.514139 0.454352
vt 0.513886 0.454451
vt 0.513936 0.454218
vt 0.514093 0.454010
vt 0.523006 0.452101
vt 0.523000 0.452125
vt 0.522981 0.452131
vt 0.522983 0.452099
vt 0.522735 0.451721
vt 0.522740 0.451750
vt 0.522725 0.451736
vt 0.522712 0.451718
vt 0.522707 0.451754
vt 0.522697 0.451760
vt 0.522604 0.451404
vt 0.522671 0.451404
vt 0.523021 0.451788
vt 0.515603 0.453629
vt 0.521926 0.451900
vt 0.521986 0.451904
vt 0.522085 0.451829
vt 0.522153 0.451834
vt 0.522597 0.451337
vt 0.522678 0.451337
vt 0.523016 0.451722
vt 0.515518 0.454254
vt 0.521926 0.451841
vt 0.521997 0.451845
vt 0.522077 0.451770
vt 0.522158 0.451768
vt 0.522589 0.451253
vt 0.522687 0.451253
vt 0.523009 0.451638
vt 0.515409 0.455143
vt 0.521926 0.451757
vt 0.522013 0.451762
vt 0.522067 0.451687
vt 0.522164 0.451684
vt 0.523018 0.451637
vt 0.522994 0.451638
vt 0.522991 0.451621
vt 0.523020 0.451620
vt 0.514582 0.446620
vt 0.514600 0.446358
vt 0.514859 0.446441
vt 0.514733 0.446724
vt 0.522813 0.451331
vt 0.522791 0.451333
vt 0.522792 0.451310
vt 0.522817 0.451307
vt 0.522774 0.452489
vt 0.522749 0.452492
vt 0.522739 0.452478
vt 0.522765 0.452465
vt 0.522791 0.451275
vt 0.522824 0.451272
vt 0.522849 0.451333
vt 0.522824 0.451333
vt 0.522824 0.451308
vt 0.522849 0.451308
vt 0.513573 0.446883
vt 0.513684 0.446646
vt 0.513833 0.446570
vt 0.513905 0.446822
vt 0.522791 0.451333
vt 0.522766 0.451333
vt 0.522767 0.451318
vt 0.522791 0.451319
vt 0.522753 0.452575
vt 0.522732 0.452587
vt 0.522735 0.452556
vt 0.522759 0.452561
vt 0.522824 0.451252
vt 0.522849 0.451252
vt 0.522766 0.451256
vt 0.522791 0.451257
vt 0.521956 0.452753
vt 0.521931 0.452754
vt 0.521931 0.452694
vt 0.521956 0.452693
vt 0.513139 0.445989
vt 0.513379 0.445883
vt 0.513656 0.446504
vt 0.513416 0.446611
vt 0.522323 0.452373
vt 0.522302 0.452368
vt 0.522303 0.452309
vt 0.522324 0.452314
vt 0.522826 0.452600
vt 0.522818 0.452623
vt 0.522758 0.452600
vt 0.522767 0.452577
vt 0.521931 0.452665
vt 0.521956 0.452664
vt 0.522302 0.452297
vt 0.522323 0.452302
vt 0.522017 0.452690
vt 0.521984 0.452690
vt 0.521982 0.452663
vt 0.522020 0.452663
vt 0.515463 0.448720
vt 0.515384 0.448376
vt 0.522999 0.451721
vt 0.522966 0.451716
vt 0.522575 0.452431
vt 0.522542 0.452426
vt 0.522014 0.452712
vt 0.521985 0.452712
vt 0.515151 0.448767
vt 0.515083 0.448471
vt 0.522994 0.451746
vt 0.522966 0.451742
vt 0.522568 0.452460
vt 0.522540 0.452455
vt 0.522011 0.452733
vt 0.521987 0.452733
vt 0.514868 0.448809
vt 0.514809 0.448556
vt 0.522990 0.451768
vt 0.522965 0.451765
vt 0.522562 0.452486
vt 0.522538 0.452482
vt 0.522009 0.452753
vt 0.521988 0.452754
vt 0.514572 0.448851
vt 0.514575 0.448634
vt 0.522985 0.451788
vt 0.522965 0.451784
vt 0.522556 0.452508
vt 0.522536 0.452509
vt 0.522346 0.452335
vt 0.522326 0.452336
vt 0.522326 0.452318
vt 0.522346 0.452319
vt 0.514357 0.448800
vt 0.514411 0.448590
vt 0.523003 0.451803
vt 0.522984 0.451807
vt 0.522983 0.451793
vt 0.523002 0.451788
vt 0.522561 0.452522
vt 0.522542 0.452528
vt 0.522345 0.452426
vt 0.522324 0.452427
vt 0.513264 0.448522
vt 0.513294 0.448307
vt 0.523009 0.451902
vt 0.522990 0.451906
vt 0.522595 0.452624
vt 0.522575 0.452628
vt 0.522345 0.452438
vt 0.522325 0.452439
vt 0.513078 0.448518
vt 0.513084 0.448302
vt 0.523008 0.451919
vt 0.522989 0.451922
vt 0.522597 0.452643
vt 0.522576 0.452645
vt 0.522346 0.452517
vt 0.522326 0.452518
vt 0.511904 0.448493
vt 0.511910 0.448276
vt 0.523002 0.452010
vt 0.522983 0.452014
vt 0.522607 0.452752
vt 0.522587 0.452754
vt 0.521957 0.452593
vt 0.521987 0.452581
vt 0.522744 0.452341
vt 0.522768 0.452363
vt 0.522445 0.451404
vt 0.522478 0.451406
vt 0.516136 0.446573
vt 0.523036 0.452442
vt 0.521951 0.452570
vt 0.521977 0.452560
vt 0.522760 0.452328
vt 0.522780 0.452348
vt 0.522448 0.451381
vt 0.522476 0.451382
vt 0.519260 0.448943
vt 0.523022 0.452460
vt 0.521944 0.452541
vt 0.521967 0.452539
vt 0.522776 0.452316
vt 0.522784 0.452337
vt 0.522452 0.451368
vt 0.522475 0.451363
vt 0.523028 0.452491
vt 0.523005 0.452484
vt 0.522987 0.452014
vt 0.523009 0.452020
vt 0.522964 0.452429
vt 0.522950 0.452443
vt 0.523009 0.452224
vt 0.522991 0.452231
vt 0.522982 0.452014
vt 0.522965 0.452008
vt 0.522965 0.451904
vt 0.522983 0.451914
vt 0.522160 0.451375
vt 0.522137 0.451374
vt 0.522055 0.451605
vt 0.522019 0.451605
vt 0.522017 0.451577
vt 0.522058 0.451577
vt 0.522742 0.451547
vt 0.522709 0.451561
vt 0.522697 0.451527
vt 0.522736 0.451518
vt 0.522725 0.451441
vt 0.522689 0.451438
vt 0.522689 0.451407
vt 0.522725 0.451407
vt 0.514081 0.456210
vt 0.514465 0.456264
vt 0.522053 0.451630
vt 0.522020 0.451630
vt 0.522747 0.451573
vt 0.522718 0.451586
vt 0.522721 0.451468
vt 0.522689 0.451465
vt 0.514145 0.455904
vt 0.514488 0.455952
vt 0.522051 0.451653
vt 0.522022 0.451653
vt 0.522752 0.451598
vt 0.522726 0.451608
vt 0.522718 0.451493
vt 0.522689 0.451490
vt 0.514204 0.455620
vt 0.514510 0.455663
vt 0.522049 0.451678
vt 0.522023 0.451678
vt 0.522757 0.451624
vt 0.522733 0.451627
vt 0.522714 0.451513
vt 0.522689 0.451511
vt 0.514260 0.455386
vt 0.514530 0.455355
vt 0.521971 0.451348
vt 0.521946 0.451347
vt 0.521946 0.451259
vt 0.521971 0.451260
vt 0.512169 0.456591
vt 0.511904 0.456612
vt 0.522541 0.451610
vt 0.522533 0.451586
vt 0.522987 0.451291
vt 0.522964 0.451292
vt 0.522964 0.451268
vt 0.522988 0.451265
vt 0.511932 0.455031
vt 0.512197 0.455009
vt 0.521944 0.452547
vt 0.521918 0.452546
vt 0.521918 0.452522
vt 0.521943 0.452519
vt 0.522454 0.451643
vt 0.522445 0.451619
vt 0.522987 0.451388
vt 0.522964 0.451389
vt 0.511904 0.454031
vt 0.512169 0.454010
vt 0.521944 0.452643
vt 0.521918 0.452643
vt 0.521995 0.452317
vt 0.522018 0.452322
vt 0.522479 0.451363
vt 0.522456 0.451363
vt 0.522452 0.451236
vt 0.522479 0.451237
vt 0.522301 0.452373
vt 0.522324 0.452373
vt 0.522986 0.452754
vt 0.522964 0.452745
vt 0.521956 0.452653
vt 0.521982 0.452653
vt 0.521982 0.452754
vt 0.521956 0.452754
vt 0.521971 0.451254
vt 0.521997 0.451253
vt 0.521997 0.451347
vt 0.521999 0.451236
vt 0.522024 0.451236
vt 0.522507 0.451483
vt 0.522529 0.451470
vt 0.522725 0.451406
vt 0.522699 0.451407
vt 0.522699 0.451263
vt 0.522725 0.451263
vt 0.522589 0.451748
vt 0.522563 0.451749
vt 0.469510 0.496502
vt 0.471520 0.496525
vt 0.471520 0.508172
vt 0.469628 0.507801
vt 0.513776 0.454657
vt 0.513886 0.454906
s 0
usemtl Material
f 1/1/1 14/2/1 13/3/1
f 2/4/2 14/2/2 16/5/2
f 1/1/3 13/3/3 18/6/3
f 1/1/4 18/6/4 20/7/4
f 1/1/5 20/7/5 17/8/5
f 2/9/6 16/10/6 23/11/6
f 3/12/7 15/13/7 25/14/7
f 4/15/8 19/16/8 27/17/8
f 5/18/9 21/19/9 29/20/9
f 6/21/10 22/22/10 31/23/10
f 2/9/11 23/11/11 26/24/11
f 3/25/12 25/26/12 28/27/12
f 4/15/13 27/17/13 30/28/13
f 5/18/14 29/20/14 32/29/14
f 6/21/15 31/23/15 24/30/15
f 7/31/16 33/32/16 38/33/16
f 8/34/17 34/35/17 40/36/17
f 9/37/18 35/38/18 41/39/18
f 10/40/19 36/41/19 42/42/19
f 11/43/20 37/44/20 39/45/20
f 39/46/21 42/47/21 12/48/21
f 39/45/22 37/44/22 42/42/22
f 37/44/23 10/40/23 42/42/23
f 42/47/24 41/39/24 12/48/24
f 42/47/25 36/49/25 41/39/25
f 36/49/26 9/37/26 41/39/26
f 41/39/27 40/36/27 12/48/27
f 41/39/28 35/38/28 40/36/28
f 35/38/29 8/34/29 40/36/29
f 40/36/30 38/50/30 12/48/30
f 40/36/31 34/35/31 38/50/31
f 34/35/32 7/51/32 38/50/32
f 38/50/33 39/46/33 12/48/33
f 38/50/34 33/52/34 39/46/34
f 33/52/35 11/53/35 39/46/35
f 24/30/36 37/44/36 11/43/36
f 24/30/37 31/23/37 37/44/37
f 31/23/38 10/40/38 37/44/38
f 32/54/39 36/41/39 10/40/39
f 32/29/40 29/20/40 36/55/40
f 29/20/41 9/56/41 36/55/41
f 30/57/42 35/58/42 9/56/42
f 30/28/43 27/17/43 35/59/43
f 27/17/44 8/60/44 35/59/44
f 28/27/45 34/61/45 8/60/45
f 28/27/46 25/26/46 34/61/46
f 25/14/47 7/31/47 34/62/47
f 26/24/48 33/32/48 7/31/48
f 26/24/49 23/11/49 33/32/49
f 23/11/50 11/63/50 33/32/50
f 31/23/51 32/54/51 10/40/51
f 31/23/52 22/22/52 32/54/52
f 22/64/53 5/18/53 32/29/53
f 29/20/54 30/57/54 9/56/54
f 29/20/55 21/19/55 30/57/55
f 21/65/56 4/15/56 30/28/56
f 27/17/57 28/27/57 8/60/57
f 27/17/58 19/16/58 28/27/58
f 19/16/59 3/25/59 28/27/59
f 25/14/60 26/24/60 7/31/60
f 25/14/61 15/13/61 26/24/61
f 15/13/62 2/9/62 26/24/62
f 23/66/63 24/30/63 11/43/63
f 23/11/64 16/10/64 24/67/64
f 16/68/65 6/21/65 24/30/65
f 17/8/66 22/69/66 6/70/66
f 17/8/67 20/7/67 22/69/67
f 20/7/68 5/71/68 22/69/68
f 20/72/69 21/19/69 5/18/69
f 20/7/70 18/6/70 21/73/70
f 18/74/71 4/15/71 21/65/71
f 18/74/72 19/16/72 4/15/72
f 18/74/73 13/75/73 19/16/73
f 13/75/74 3/25/74 19/16/74
f 16/5/75 17/8/75 6/70/75
f 16/5/76 14/2/76 17/8/76
f 14/2/77 1/1/77 17/8/77
f 13/3/78 15/76/78 3/77/78
f 13/3/79 14/2/79 15/76/79
f 14/78/80 2/9/80 15/13/80
f 43/79/81 56/80/81 55/81/81
f 44/82/82 56/80/82 58/83/82
f 43/79/83 55/81/83 60/84/83
f 43/79/84 60/84/84 62/85/84
f 43/79/85 62/85/85 59/86/85
f 44/87/86 58/88/86 65/89/86
f 45/90/87 57/91/87 67/92/87
f 46/93/88 61/94/88 69/95/88
f 47/96/89 63/97/89 71/98/89
f 48/99/90 64/100/90 73/101/90
f 44/87/91 65/89/91 68/102/91
f 45/90/92 67/92/92 70/103/92
f 46/104/93 69/105/93 72/106/93
f 47/107/94 71/108/94 74/109/94
f 48/99/95 73/101/95 66/110/95
f 49/111/96 75/112/96 80/113/96
f 50/114/97 76/115/97 82/116/97
f 51/117/98 77/118/98 83/119/98
f 52/120/99 78/121/99 84/122/99
f 53/123/100 79/124/100 81/125/100
f 81/125/101 84/126/101 54/127/101
f 81/125/102 79/124/102 84/126/102
f 79/124/103 52/128/103 84/126/103
f 84/126/104 83/129/104 54/127/104
f 84/126/105 78/130/105 83/129/105
f 78/131/106 51/117/106 83/119/106
f 83/129/107 82/132/107 54/127/107
f 83/129/108 77/133/108 82/132/108
f 77/133/109 50/134/109 82/132/109
f 82/132/110 80/113/110 54/127/110
f 82/132/111 76/135/111 80/113/111
f 76/115/112 49/136/112 80/137/112
f 80/113/113 81/125/113 54/127/113
f 80/113/114 75/112/114 81/125/114
f 75/112/115 53/123/115 81/125/115
f 66/110/116 79/138/116 53/139/116
f 66/110/117 73/101/117 79/138/117
f 73/101/118 52/120/118 79/138/118
f 74/109/119 78/121/119 52/120/119
f 74/140/120 71/98/120 78/131/120
f 71/98/121 51/117/121 78/131/121
f 72/106/122 77/118/122 51/117/122
f 72/106/123 69/105/123 77/118/123
f 69/95/124 50/114/124 77/141/124
f 70/103/125 76/115/125 50/114/125
f 70/103/126 67/92/126 76/115/126
f 67/92/127 49/136/127 76/115/127
f 68/142/128 75/143/128 49/136/128
f 68/102/129 65/89/129 75/144/129
f 65/145/130 53/123/130 75/112/130
f 73/101/131 74/109/131 52/120/131
f 73/101/132 64/100/132 74/109/132
f 64/100/133 47/107/133 74/109/133
f 71/98/134 72/106/134 51/117/134
f 71/98/135 63/97/135 72/106/135
f 63/146/136 46/147/136 72/148/136
f 69/95/137 70/103/137 50/114/137
f 69/95/138 61/94/138 70/103/138
f 61/94/139 45/90/139 70/103/139
f 67/92/140 68/142/140 49/136/140
f 67/92/141 57/91/141 68/142/141
f 57/91/142 44/149/142 68/142/142
f 65/89/143 66/150/143 53/151/143
f 65/89/144 58/88/144 66/150/144
f 58/152/145 48/99/145 66/110/145
f 59/153/146 64/100/146 48/99/146
f 59/86/147 62/85/147 64/154/147
f 62/155/148 47/107/148 64/100/148
f 62/85/149 63/146/149 47/156/149
f 62/85/150 60/84/150 63/146/150
f 60/84/151 46/147/151 63/146/151
f 60/84/152 61/157/152 46/147/152
f 60/84/153 55/81/153 61/157/153
f 55/158/154 45/90/154 61/94/154
f 58/83/155 59/86/155 48/159/155
f 58/83/156 56/80/156 59/86/156
f 56/80/157 43/79/157 59/86/157
f 55/158/158 57/91/158 45/90/158
f 55/81/159 56/80/159 57/160/159
f 56/80/160 44/82/160 57/160/160
f 85/161/161 98/162/161 97/163/161
f 86/164/162 98/162/162 100/165/162
f 85/161/163 97/163/163 102/166/163
f 85/161/164 102/166/164 104/167/164
f 85/161/165 104/167/165 101/168/165
f 86/169/166 100/170/166 107/171/166
f 87/172/167 99/173/167 109/174/167
f 88/175/168 103/176/168 111/177/168
f 89/178/169 105/179/169 113/180/169
f 90/181/170 106/182/170 115/183/170
f 86/169/171 107/171/171 110/184/171
f 87/172/172 109/174/172 112/185/172
f 88/186/173 111/187/173 114/188/173
f 89/189/174 113/190/174 116/191/174
f 90/181/175 115/183/175 108/192/175
f 91/193/176 117/194/176 122/195/176
f 92/196/177 118/197/177 124/198/177
f 93/199/178 119/200/178 125/201/178
f 94/202/179 120/203/179 126/204/179
f 95/205/180 121/206/180 123/207/180
f 123/207/181 126/208/181 96/209/181
f 123/207/182 121/206/182 126/208/182
f 121/210/183 94/202/183 126/204/183
f 126/208/184 125/201/184 96/209/184
f 126/208/185 120/211/185 125/201/185
f 120/212/186 93/213/186 125/214/186
f 125/201/187 124/215/187 96/209/187
f 125/201/188 119/200/188 124/215/188
f 119/200/189 92/216/189 124/215/189
f 124/215/190 122/195/190 96/209/190
f 124/215/191 118/217/191 122/195/191
f 118/197/192 91/218/192 122/219/192
f 122/195/193 123/207/193 96/209/193
f 122/195/194 117/194/194 123/207/194
f 117/194/195 95/205/195 123/207/195
f 108/192/196 121/210/196 95/220/196
f 108/192/197 115/183/197 121/210/197
f 115/183/198 94/202/198 121/210/198
f 116/191/199 120/203/199 94/202/199
f 116/191/200 113/190/200 120/203/200
f 113/180/201 93/213/201 120/212/201
f 114/188/202 119/221/202 93/213/202
f 114/188/203 111/187/203 119/221/203
f 111/177/204 92/196/204 119/222/204
f 112/185/205 118/197/205 92/196/205
f 112/185/206 109/174/206 118/197/206
f 109/174/207 91/218/207 118/197/207
f 110/223/208 117/224/208 91/218/208
f 110/184/209 107/171/209 117/225/209
f 107/171/210 95/226/210 117/225/210
f 115/183/211 116/191/211 94/202/211
f 115/183/212 106/182/212 116/191/212
f 106/182/213 89/189/213 116/191/213
f 113/180/214 114/188/214 93/213/214
f 113/180/215 105/179/215 114/188/215
f 105/179/216 88/186/216 114/188/216
f 111/177/217 112/185/217 92/196/217
f 111/177/218 103/176/218 112/185/218
f 103/176/219 87/172/219 112/185/219
f 109/174/220 110/223/220 91/218/220
f 109/174/221 99/173/221 110/223/221
f 99/173/222 86/227/222 110/223/222
f 107/171/223 108/228/223 95/226/223
f 107/171/224 100/170/224 108/228/224
f 100/229/225 90/181/225 108/192/225
f 101/230/226 106/182/226 90/181/226
f 101/168/227 104/167/227 106/231/227
f 104/232/228 89/189/228 106/182/228
f 104/167/229 105/233/229 89/234/229
f 104/167/230 102/166/230 105/233/230
f 102/166/231 88/235/231 105/233/231
f 102/166/232 103/236/232 88/235/232
f 102/166/233 97/163/233 103/236/233
f 97/237/234 87/172/234 103/176/234
f 100/165/235 101/168/235 90/238/235
f 100/165/236 98/162/236 101/168/236
f 98/162/237 85/161/237 101/168/237
f 97/237/238 99/173/238 87/172/238
f 97/163/239 98/162/239 99/239/239
f 98/162/240 86/164/240 99/239/240
f 127/240/241 140/241/241 139/242/241
f 128/243/242 140/241/242 142/244/242
f 127/240/243 139/242/243 144/245/243
f 127/240/244 144/245/244 146/246/244
f 127/240/245 146/246/245 143/247/245
f 128/243/246 142/244/246 149/248/246
f 129/249/247 141/250/247 151/251/247
f 130/252/248 145/253/248 153/254/248
f 131/255/249 147/256/249 155/257/249
f 132/258/250 148/259/250 157/260/250
f 128/261/251 149/262/251 152/263/251
f 129/249/252 151/251/252 154/264/252
f 130/252/253 153/254/253 156/265/253
f 131/255/254 155/257/254 158/266/254
f 132/258/255 157/260/255 150/267/255
f 133/268/256 159/269/256 164/270/256
f 134/271/257 160/272/257 166/273/257
f 135/274/258 161/275/258 167/276/258
f 136/277/259 162/278/259 168/279/259
f 137/280/260 163/281/260 165/282/260
f 165/282/261 168/279/261 138/283/261
f 165/282/262 163/281/262 168/279/262
f 163/284/263 136/285/263 168/286/263
f 168/279/264 167/276/264 138/283/264
f 168/279/265 162/278/265 167/276/265
f 162/278/266 135/274/266 167/276/266
f 167/276/267 166/273/267 138/283/267
f 167/276/268 161/275/268 166/273/268
f 161/275/269 134/271/269 166/273/269
f 166/273/270 164/270/270 138/283/270
f 166/273/271 160/272/271 164/270/271
f 160/272/272 133/268/272 164/270/272
f 164/270/273 165/282/273 138/283/273
f 164/270/274 159/269/274 165/282/274
f 159/269/275 137/280/275 165/282/275
f 150/287/276 163/284/276 137/288/276
f 150/287/277 157/289/277 163/284/277
f 157/289/278 136/285/278 163/284/278
f 158/266/279 162/290/279 136/291/279
f 158/266/280 155/257/280 162/290/280
f 155/257/281 135/292/281 162/290/281
f 156/293/282 161/275/282 135/274/282
f 156/265/283 153/254/283 161/294/283
f 153/254/284 134/295/284 161/294/284
f 154/264/285 160/296/285 134/295/285
f 154/264/286 151/251/286 160/296/286
f 151/297/287 133/298/287 160/299/287
f 152/263/288 159/300/288 133/298/288
f 152/263/289 149/262/289 159/300/289
f 149/262/290 137/301/290 159/300/290
f 157/302/291 158/266/291 136/291/291
f 157/302/292 148/303/292 158/266/292
f 148/303/293 131/255/293 158/266/293
f 155/257/294 156/304/294 135/292/294
f 155/257/295 147/256/295 156/304/295
f 147/256/296 130/305/296 156/304/296
f 153/254/297 154/264/297 134/295/297
f 153/254/298 145/253/298 154/264/298
f 145/253/299 129/249/299 154/264/299
f 151/297/300 152/263/300 133/298/300
f 151/297/301 141/306/301 152/263/301
f 141/306/302 128/261/302 152/263/302
f 149/307/303 150/287/303 137/288/303
f 149/307/304 142/308/304 150/287/304
f 142/308/305 132/309/305 150/287/305
f 143/247/306 148/310/306 132/311/306
f 143/247/307 146/246/307 148/310/307
f 146/312/308 131/255/308 148/303/308
f 146/312/309 147/256/309 131/255/309
f 146/246/310 144/245/310 147/313/310
f 144/245/311 130/314/311 147/313/311
f 144/245/312 145/315/312 130/314/312
f 144/245/313 139/242/313 145/315/313
f 139/316/314 129/249/314 145/253/314
f 142/244/315 143/247/315 132/311/315
f 142/244/316 140/241/316 143/247/316
f 140/241/317 127/240/317 143/247/317
f 139/242/318 141/317/318 129/318/318
f 139/242/319 140/241/319 141/317/319
f 140/241/320 128/243/320 141/317/320
f 169/319/321 182/320/321 181/321/321
f 170/322/322 182/320/322 184/323/322
f 169/324/323 181/325/323 186/326/323
f 169/324/324 186/326/324 188/327/324
f 169/324/325 188/327/325 185/328/325
f 170/322/326 184/323/326 191/329/326
f 171/330/327 183/331/327 193/332/327
f 172/333/328 187/334/328 195/335/328
f 173/336/329 189/337/329 197/338/329
f 174/339/330 190/340/330 199/341/330
f 170/322/331 191/329/331 194/342/331
f 171/330/332 193/332/332 196/343/332
f 172/344/333 195/345/333 198/346/333
f 173/336/334 197/338/334 200/347/334
f 174/339/335 199/341/335 192/348/335
f 175/349/336 201/350/336 206/351/336
f 176/352/337 202/353/337 208/354/337
f 177/355/338 203/356/338 209/357/338
f 178/358/339 204/359/339 210/360/339
f 179/361/340 205/362/340 207/363/340
f 207/364/341 210/360/341 180/365/341
f 207/364/342 205/366/342 210/360/342
f 205/367/343 178/368/343 210/369/343
f 210/360/344 209/357/344 180/365/344
f 210/360/345 204/359/345 209/357/345
f 204/359/346 177/355/346 209/357/346
f 209/357/347 208/370/347 180/365/347
f 209/357/348 203/356/348 208/370/348
f 203/356/349 176/371/349 208/370/349
f 208/372/350 206/351/350 180/373/350
f 208/372/351 202/374/351 206/351/351
f 202/374/352 175/349/352 206/351/352
f 206/351/353 207/363/353 180/373/353
f 206/351/354 201/350/354 207/363/354
f 201/350/355 179/361/355 207/363/355
f 192/348/356 205/367/356 179/375/356
f 192/348/357 199/341/357 205/367/357
f 199/341/358 178/368/358 205/367/358
f 200/376/359 204/377/359 178/368/359
f 200/378/360 197/379/360 204/359/360
f 197/379/361 177/355/361 204/359/361
f 198/380/362 203/356/362 177/355/362
f 198/380/363 195/381/363 203/356/363
f 195/382/364 176/383/364 203/384/364
f 196/343/365 202/353/365 176/352/365
f 196/343/366 193/332/366 202/353/366
f 193/332/367 175/385/367 202/353/367
f 194/386/368 201/350/368 175/349/368
f 194/386/369 191/387/369 201/350/369
f 191/387/370 179/361/370 201/350/370
f 199/341/371 200/376/371 178/368/371
f 199/341/372 190/340/372 200/376/372
f 190/340/373 173/388/373 200/376/373
f 197/379/374 198/380/374 177/355/374
f 197/338/375 189/337/375 198/346/375
f 189/337/376 172/344/376 198/346/376
f 195/335/377 196/343/377 176/352/377
f 195/335/378 187/334/378 196/343/378
f 187/334/379 171/330/379 196/343/379
f 193/332/380 194/389/380 175/385/380
f 193/332/381 183/331/381 194/389/381
f 183/390/382 170/322/382 194/342/382
f 191/387/383 192/391/383 179/361/383
f 191/329/384 184/323/384 192/392/384
f 184/323/385 174/393/385 192/392/385
f 185/394/386 190/340/386 174/339/386
f 185/328/387 188/327/387 190/395/387
f 188/327/388 173/336/388 190/395/388
f 188/327/389 189/337/389 173/336/389
f 188/327/390 186/326/390 189/337/390
f 186/326/391 172/344/391 189/337/391
f 186/326/392 187/396/392 172/344/392
f 186/397/393 181/398/393 187/334/393
f 181/398/394 171/330/394 187/334/394
f 184/323/395 185/399/395 174/393/395
f 184/323/396 182/320/396 185/399/396
f 182/320/397 169/319/397 185/399/397
f 181/398/398 183/331/398 171/330/398
f 181/321/399 182/320/399 183/390/399
f 182/320/400 170/322/400 183/390/400
f 226/400/401 223/401/401 219/402/401 222/403/401
f 225/404/402 226/405/402 222/406/402 221/407/402
f 224/408/403 225/409/403 221/410/403 220/411/403
f 359/412/404 288/413/404 289/414/404
f 223/415/405 224/416/405 220/417/405 219/418/405
f 326/419/406 323/420/406 290/421/406
f 335/422/407 298/423/407 338/424/407
f 325/425/408 362/426/408 324/427/408
f 222/403/409 219/402/409 311/428/409 314/429/409
f 221/407/410 222/406/410 314/430/410 313/431/410
f 360/432/411 361/433/411 287/434/411
f 220/411/412 221/410/412 313/435/412 312/436/412
f 219/418/413 220/417/413 312/437/413 311/438/413
f 314/429/414 311/428/414 215/439/414 218/440/414
f 313/431/415 314/430/415 218/441/415 217/442/415
f 312/436/416 313/435/416 217/443/416 216/444/416
f 311/438/417 312/437/417 216/445/417 215/446/417
f 218/440/401 215/439/401 211/447/401 214/448/401
f 217/442/418 218/441/418 214/449/418 213/450/418
f 216/444/403 217/443/403 213/451/403 212/452/403
f 215/446/419 216/445/419 212/453/419 211/454/419
f 300/455/403 301/456/403 295/457/403
f 304/458/420 381/459/420 303/460/420
f 214/448/401 211/447/401 307/461/401 310/462/401
f 213/463/421 214/464/421 310/465/421 309/466/421
f 378/467/422 408/468/422 377/469/422
f 212/452/403 213/451/403 309/470/403 308/471/403
f 211/472/423 212/473/423 308/474/423 307/475/423
f 417/476/424 414/477/424 299/478/424 302/479/424
f 416/480/425 417/481/425 302/482/425 301/483/425
f 415/484/403 416/485/403 301/456/403 300/455/403
f 414/486/426 415/487/426 300/488/426 299/489/426
f 298/423/403 295/457/403 291/490/403 294/491/403
f 297/492/427 298/493/427 294/494/427 293/495/427
f 310/462/428 380/496/428 306/497/428
f 296/498/401 297/499/401 293/500/401 292/501/401
f 295/502/429 296/503/429 292/504/429 291/505/429
f 294/491/403 291/490/403 287/434/403 290/421/403
f 290/506/430 323/507/430 324/508/430 289/509/430
f 373/510/431 375/511/431 376/512/431
f 293/495/427 294/494/427 290/506/427 289/509/427
f 292/501/401 293/500/401 289/414/401 288/413/401
f 407/513/432 378/514/432 375/515/432
f 299/489/433 300/488/433 335/516/433 336/517/433
f 411/518/434 399/519/434 400/520/434
f 406/521/435 371/522/435 408/523/435
f 291/505/429 292/504/429 288/524/429 287/525/429
f 286/526/436 285/527/436 284/528/436 283/529/436
f 282/530/437 281/531/437 280/532/437 279/533/437
f 278/534/438 277/531/438 276/535/438 275/536/438
f 308/471/403 309/470/403 305/537/403 304/538/403
f 274/539/439 273/540/439 272/541/439 271/542/439
f 302/479/440 299/478/440 336/543/440 296/498/440
f 362/426/441 359/412/441 289/414/441 324/427/441
f 266/544/442 265/545/442 264/546/442 263/547/442
f 258/548/443 257/549/443 256/550/443 255/551/443
f 300/455/444 295/457/444 298/423/444 335/422/444
f 307/552/445 308/553/445 304/458/445 303/460/445
f 412/554/446 397/555/446 401/556/446
f 361/433/447 326/419/447 290/421/447 287/434/447
f 305/557/448 416/557/448 415/557/448 304/557/448
f 304/558/449 415/558/449 414/559/449 381/560/449
f 381/561/450 414/562/450 417/563/450 306/563/450
f 306/557/448 417/557/448 416/557/448 305/557/448
f 234/564/451 233/565/451 232/566/451 231/567/451
f 309/568/452 310/569/452 306/570/452 305/571/452
f 246/572/453 245/573/453 244/574/453 243/575/453
f 295/502/454 301/483/454 302/482/454 296/503/454
f 380/496/455 310/462/455 307/461/455 379/576/455
f 361/577/456 362/578/456 325/579/456 326/580/456
f 360/581/457 287/582/457 288/583/457 359/584/457
f 296/498/458 336/543/458 337/585/458 297/499/458
f 397/555/459 396/586/459 400/587/459 401/556/459
f 394/588/460 413/563/460 409/589/460 395/590/460
f 298/591/461 297/592/461 337/593/461 338/594/461
f 408/523/462 371/522/462 374/595/462 377/596/462
f 413/597/463 398/598/463 399/599/463 409/600/463
f 372/601/464 407/602/464 375/511/464 373/510/464
f 379/603/465 307/552/465 303/460/465 381/459/465
f 406/604/466 407/605/466 372/606/466 371/607/466
f 394/608/467 397/609/467 412/610/467 413/611/467
f 373/612/468 376/613/468 377/614/468 374/615/468
f 395/616/469 409/617/469 410/618/469 396/619/469
f 410/618/470 411/620/470 400/621/470 396/619/470
f 227/622/471 228/623/471 224/416/471 223/415/471
f 228/624/403 229/625/403 225/409/403 224/408/403
f 229/626/472 230/627/472 226/405/472 225/404/472
f 230/628/401 227/629/401 223/401/401 226/400/401
f 315/630/473 316/631/473 228/623/473 227/622/473
f 316/632/474 317/633/474 229/625/474 228/624/474
f 317/634/475 318/635/475 230/627/475 229/626/475
f 318/636/476 315/637/476 227/629/476 230/628/476
f 231/638/477 232/639/477 316/631/477 315/630/477
f 232/640/478 233/641/478 317/633/478 316/632/478
f 233/642/479 234/643/479 318/635/479 317/634/479
f 234/644/480 231/645/480 315/637/480 318/636/480
f 235/646/481 236/647/481 320/648/481 319/649/481
f 236/650/482 237/651/482 321/652/482 320/653/482
f 237/654/483 238/655/483 322/656/483 321/657/483
f 238/658/484 235/659/484 319/660/484 322/661/484
f 319/649/485 320/648/485 324/508/485 323/507/485
f 320/653/486 321/652/486 325/425/486 324/427/486
f 321/657/487 322/656/487 326/662/487 325/663/487
f 322/661/488 319/660/488 323/420/488 326/419/488
f 239/664/489 240/665/489 328/666/489 327/667/489
f 240/668/401 241/669/401 329/670/401 328/671/401
f 241/672/490 242/673/490 330/674/490 329/675/490
f 242/676/403 239/677/403 327/678/403 330/679/403
f 327/667/491 328/666/491 236/680/491 235/681/491
f 328/671/401 329/670/401 237/651/401 236/650/401
f 329/675/492 330/674/492 238/682/492 237/683/492
f 330/679/403 327/678/403 235/659/403 238/658/403
f 243/684/493 244/685/493 332/686/493 331/687/493
f 244/688/401 245/689/401 333/690/401 332/691/401
f 245/692/494 246/693/494 334/694/494 333/695/494
f 246/696/403 243/697/403 331/698/403 334/699/403
f 331/687/495 332/686/495 240/700/495 239/701/495
f 332/691/401 333/690/401 241/669/401 240/668/401
f 333/695/496 334/694/496 242/702/496 241/703/496
f 334/699/403 331/698/403 239/677/403 242/676/403
f 339/704/497 340/705/497 336/706/497 335/707/497
f 340/708/498 341/709/498 337/585/498 336/543/498
f 341/710/499 342/711/499 338/594/499 337/593/499
f 342/712/500 339/713/500 335/422/500 338/424/500
f 343/714/497 344/715/497 340/705/497 339/704/497
f 344/716/501 345/717/501 341/709/501 340/708/501
f 345/718/499 346/719/499 342/711/499 341/710/499
f 346/720/500 343/721/500 339/713/500 342/712/500
f 347/722/497 348/723/497 344/715/497 343/714/497
f 348/724/498 349/725/498 345/717/498 344/716/498
f 349/726/499 350/727/499 346/719/499 345/718/499
f 350/728/502 347/729/502 343/721/502 346/720/502
f 247/730/503 248/731/503 348/723/503 347/722/503
f 248/732/504 249/733/504 349/725/504 348/724/504
f 249/734/505 250/735/505 350/727/505 349/726/505
f 250/736/506 247/737/506 347/729/506 350/728/506
f 351/738/507 352/739/507 248/740/507 247/741/507
f 352/742/508 353/743/508 249/733/508 248/732/508
f 353/744/509 354/745/509 250/746/509 249/747/509
f 354/748/510 351/749/510 247/737/510 250/736/510
f 251/750/511 252/751/511 352/739/511 351/738/511
f 252/752/512 253/753/512 353/743/512 352/742/512
f 253/754/513 254/755/513 354/745/513 353/744/513
f 254/756/514 251/757/514 351/749/514 354/748/514
f 355/758/515 356/759/515 252/751/515 251/750/515
f 356/760/516 357/761/516 253/753/516 252/752/516
f 357/762/517 358/763/517 254/755/517 253/754/517
f 358/764/518 355/765/518 251/757/518 254/756/518
f 255/766/519 256/767/519 356/759/519 355/758/519
f 256/768/520 257/769/520 357/761/520 356/760/520
f 257/770/521 258/771/521 358/763/521 357/762/521
f 258/772/522 255/773/522 355/765/522 358/764/522
f 363/774/523 364/775/523 360/581/523 359/584/523
f 364/776/524 365/777/524 361/433/524 360/432/524
f 365/778/525 366/779/525 362/578/525 361/577/525
f 366/780/526 363/781/526 359/412/526 362/426/526
f 367/782/523 368/783/523 364/775/523 363/774/523
f 368/784/524 369/785/524 365/777/524 364/776/524
f 369/786/525 370/787/525 366/779/525 365/778/525
f 370/788/526 367/789/526 363/781/526 366/780/526
f 259/790/527 260/791/527 368/783/527 367/782/527
f 260/792/528 261/793/528 369/785/528 368/784/528
f 261/794/529 262/795/529 370/787/529 369/786/529
f 262/796/530 259/797/530 367/789/530 370/788/530
f 371/607/531 372/606/531 260/791/531 259/790/531
f 372/601/532 373/510/532 261/793/532 260/792/532
f 373/612/533 374/615/533 262/798/533 261/799/533
f 374/595/534 371/522/534 259/797/534 262/796/534
f 263/800/535 264/801/535 376/512/535 375/511/535
f 264/802/536 265/803/536 377/614/536 376/613/536
f 265/804/537 266/805/537 378/806/537 377/807/537
f 266/808/538 263/809/538 375/515/538 378/514/538
f 382/810/539 383/811/539 380/812/539 379/813/539
f 383/814/540 384/815/540 306/816/540 380/817/540
f 384/818/541 385/819/541 381/820/541 306/821/541
f 385/822/542 382/823/542 379/603/542 381/459/542
f 386/824/539 387/825/539 383/811/539 382/810/539
f 387/826/543 388/827/543 384/815/543 383/814/543
f 388/828/544 389/829/544 385/819/544 384/818/544
f 389/830/542 386/831/542 382/823/542 385/822/542
f 390/832/539 391/833/539 387/825/539 386/824/539
f 391/834/543 392/835/543 388/827/543 387/826/543
f 392/836/544 393/837/544 389/829/544 388/828/544
f 393/838/542 390/839/542 386/831/542 389/830/542
f 267/840/545 268/841/545 391/833/545 390/832/545
f 268/842/546 269/843/546 392/835/546 391/834/546
f 269/844/547 270/845/547 393/837/547 392/836/547
f 270/846/548 267/847/548 390/839/548 393/838/548
f 394/848/549 395/849/549 268/850/549 267/851/549
f 395/616/550 396/619/550 269/843/550 268/842/550
f 396/586/551 397/555/551 270/852/551 269/853/551
f 397/609/552 394/608/552 267/847/552 270/846/552
f 402/854/553 403/855/553 399/599/553 398/598/553
f 403/856/554 404/857/554 400/858/554 399/859/554
f 404/860/555 405/861/555 401/556/555 400/587/555
f 405/862/556 402/863/556 398/864/556 401/865/556
f 271/866/557 272/867/557 403/855/557 402/854/557
f 272/868/550 273/869/550 404/857/550 403/856/550
f 273/870/558 274/871/558 405/861/558 404/860/558
f 274/872/552 271/873/552 402/863/552 405/862/552
f 275/874/559 276/875/559 407/605/559 406/604/559
f 276/876/560 277/877/560 378/878/560 407/879/560
f 277/880/561 278/881/561 408/468/561 378/467/561
f 278/882/562 275/883/562 406/521/562 408/523/562
f 279/884/563 280/885/563 410/886/563 409/887/563
f 280/888/564 281/889/564 411/890/564 410/848/564
f 281/891/565 282/892/565 399/519/565 411/518/565
f 282/893/566 279/894/566 409/600/566 399/599/566
f 283/895/567 284/896/567 413/897/567 412/898/567
f 284/899/568 285/900/568 398/598/568 413/597/568
f 285/901/569 286/902/569 401/903/569 398/904/569
f 286/905/570 283/906/570 412/554/570 401/556/570
