# Blender 4.3.0
# www.blender.org
mtllib UpgradeBoat.mtl
o Cylinder.009
v 0.000000 -0.413276 -0.159277
v 0.000000 0.542135 -0.159277
v 0.074020 -0.413276 -0.141033
v 0.074020 0.542135 -0.141033
v 0.131082 -0.413276 -0.090480
v 0.131082 0.542135 -0.090480
v 0.158115 -0.413276 -0.019199
v 0.158115 0.542135 -0.019199
v 0.148926 -0.413276 0.056480
v 0.148926 0.542135 0.056480
v 0.105620 -0.413276 0.119220
v 0.105620 0.542135 0.119220
v 0.038117 -0.413276 0.154648
v 0.038117 0.542135 0.154648
v -0.038117 -0.413276 0.154648
v -0.038117 0.542135 0.154648
v -0.105620 -0.413276 0.119220
v -0.105620 0.542135 0.119220
v -0.148926 -0.413276 0.056480
v -0.148926 0.542135 0.056480
v -0.158115 -0.413276 -0.019199
v -0.158115 0.542135 -0.019199
v -0.131082 -0.413276 -0.090480
v -0.131082 0.542135 -0.090480
v -0.074020 -0.413276 -0.141033
v -0.074020 0.542135 -0.141033
v -2.498528 1.029953 6.431459
v -2.637862 1.243869 6.431459
v -3.121104 1.029953 5.140232
v -3.261666 1.243869 5.140232
v -0.246679 1.029953 6.431459
v -0.148590 1.243869 6.431459
v 0.365665 1.038723 5.140232
v 0.475214 1.243869 5.140232
v -3.590668 1.416464 4.375515
v -3.590668 1.416464 -1.105152
v 0.804216 1.416464 4.375515
v 0.804216 1.416464 -1.105152
v -2.800390 1.416464 -1.310646
v -1.862281 1.416464 -1.480832
v -0.924171 1.416464 -1.480832
v 0.013938 1.416464 -1.310646
v -0.111047 1.416464 6.614413
v -0.975283 1.416464 7.306166
v -1.811170 1.416464 7.306166
v -2.675405 1.416464 6.614413
v -1.393226 1.416464 -1.480832
v -1.393226 1.416464 7.528703
v -3.738499 1.416464 4.463245
v -3.738499 1.416464 -1.217318
v 0.013938 1.416464 -1.577379
v 0.952047 1.416464 -1.217318
v 0.952047 1.416464 4.463245
v -2.771136 1.416464 6.829589
v -2.800390 1.416464 -1.577379
v -1.862281 1.416464 -1.747565
v -1.393226 1.416464 -1.747565
v -0.924171 1.416464 -1.747565
v -0.015316 1.416464 6.829589
v -0.924171 1.416464 7.557056
v -1.393226 1.416464 7.806807
v -1.862281 1.416464 7.557056
v -0.300859 0.628604 -1.056352
v -0.397884 0.628604 5.716105
v -1.029104 0.628604 -1.099190
v -1.068781 0.628604 6.253106
v -1.757348 0.628604 -1.099190
v -1.717671 0.628604 6.253106
v -2.485593 0.628604 -1.056352
v -2.388568 0.628604 5.716105
v -1.393226 0.628604 -1.099190
v -1.393226 0.628604 6.425858
v -3.099078 0.628604 3.978072
v -3.099078 0.628604 -0.723510
v 0.312626 0.628604 -0.723510
v 0.312626 0.628604 3.978072
v -3.095181 0.475656 3.861098
v -3.308134 0.494190 3.813792
v -3.095181 0.475656 -0.769753
v -3.308135 0.494193 -0.927298
v 0.308729 0.475656 3.861099
v 0.521681 0.494190 3.813792
v 0.308729 0.475656 -0.769753
v 0.521683 0.494193 -0.927298
v -0.250723 0.475656 -0.948203
v -0.244279 0.494198 -1.398082
v -1.011974 0.475656 -1.080810
v -1.010244 0.494198 -1.457547
v -1.774478 0.475656 -1.080810
v -1.776208 0.494198 -1.457547
v -2.542173 0.494198 -1.398082
v -2.535729 0.475656 -0.948203
v -2.514675 0.475656 5.288383
v -2.518284 0.494187 5.745900
v -1.774478 0.475656 5.885815
v -1.776207 0.494186 6.339871
v -1.011974 0.475656 5.885815
v -1.010245 0.494186 6.339871
v -0.268168 0.494187 5.745900
v -0.271778 0.475656 5.288383
v -1.393226 0.494198 -1.457547
v -1.393226 0.475656 -1.080897
v -1.393226 0.494185 6.543792
v -1.393226 0.475656 6.090556
v -3.483968 1.029953 3.997202
v -3.483968 1.243869 3.997202
v -3.483968 1.029953 2.705976
v -3.483968 1.243869 2.705976
v 0.697516 1.029953 3.997202
v 0.697516 1.243869 3.997202
v 0.697516 1.029953 2.705976
v 0.697516 1.243869 2.705976
v -2.163616 0.992569 1.574041
v -2.163616 0.992569 -1.427910
v -3.534703 0.992569 1.574041
v -3.500206 0.992569 -1.049401
v -3.500206 1.207595 -1.049401
v -2.309411 1.207595 1.428246
v -2.163616 1.134243 1.574041
v -2.163616 1.134243 -1.427910
v -2.309411 1.207595 -1.386623
v -3.532786 1.207595 1.428246
v -3.534703 1.134243 1.574041
v -0.641453 0.992569 1.574041
v 0.729633 0.992569 1.574041
v 0.695138 0.992569 -1.049401
v 0.695138 1.207595 -1.049401
v -0.498412 1.207595 1.428246
v -0.641453 1.134243 1.574041
v -0.641453 0.992569 -1.282115
v -0.498625 0.992569 -1.387462
v -0.498523 1.207595 -1.387434
v -0.641453 1.134243 -1.282115
v 0.727717 1.207595 1.428246
v 0.729633 1.134243 1.574041
v 0.804216 1.416464 2.129064
v 0.804216 1.416464 2.864079
v 0.952047 1.416464 2.077274
v 0.952047 1.416464 2.987417
v 0.746700 0.976405 2.719417
v 0.736791 0.955170 2.219074
v 0.717992 1.278275 2.724755
v 0.729826 1.297241 2.300691
v -1.393226 0.628604 0.312800
v -1.393226 0.628604 1.387761
v -1.037326 0.628604 0.424431
v -1.042124 0.628604 1.313560
v -1.747750 0.628604 0.679374
v -1.746050 0.628604 0.994524
v -1.894086 0.628604 0.830435
v -0.939061 0.628604 0.493026
v -1.315280 0.628604 0.232593
v -1.393226 0.475656 1.107059
v -1.393226 0.475656 0.551209
v -1.723731 0.475656 0.833898
v -1.170217 0.475656 1.291185
v -1.280717 0.475656 0.454372
v -1.112838 0.475656 0.800645
v -2.732803 -0.413276 3.956876
v -2.732803 0.542135 3.956876
v -2.658783 -0.413276 3.975120
v -2.658783 0.542135 3.975120
v -2.601721 -0.413276 4.025673
v -2.601721 0.542135 4.025673
v -2.574688 -0.413276 4.096954
v -2.574688 0.542135 4.096954
v -2.583877 -0.413276 4.172633
v -2.583877 0.542135 4.172633
v -2.627183 -0.413276 4.235373
v -2.627183 0.542135 4.235373
v -2.694686 -0.413276 4.270801
v -2.694686 0.542135 4.270801
v -2.770921 -0.413276 4.270801
v -2.770921 0.542135 4.270801
v -2.838423 -0.413276 4.235373
v -2.838423 0.542135 4.235373
v -2.881730 -0.413276 4.172633
v -2.881730 0.542135 4.172633
v -2.890918 -0.413276 4.096954
v -2.890918 0.542135 4.096954
v -2.863885 -0.413276 4.025673
v -2.863885 0.542135 4.025673
v -2.806823 -0.413276 3.975120
v -2.806823 0.542135 3.975120
v -2.732803 -0.413276 -0.159277
v -2.732803 0.542135 -0.159277
v -2.658783 -0.413276 -0.141033
v -2.658783 0.542135 -0.141033
v -2.601721 -0.413276 -0.090480
v -2.601721 0.542135 -0.090480
v -2.574688 -0.413276 -0.019199
v -2.574688 0.542135 -0.019199
v -2.583877 -0.413276 0.056480
v -2.583877 0.542135 0.056480
v -2.627183 -0.413276 0.119220
v -2.627183 0.542135 0.119220
v -2.694686 -0.413276 0.154649
v -2.694686 0.542135 0.154649
v -2.770921 -0.413276 0.154649
v -2.770921 0.542135 0.154649
v -2.838423 -0.413276 0.119220
v -2.838423 0.542135 0.119220
v -2.881730 -0.413276 0.056480
v -2.881730 0.542135 0.056480
v -2.890918 -0.413276 -0.019199
v -2.890918 0.542135 -0.019199
v -2.863885 -0.413276 -0.090480
v -2.863885 0.542135 -0.090480
v -2.806823 -0.413276 -0.141033
v -2.806823 0.542135 -0.141033
v 0.000000 -0.413276 3.956876
v 0.000000 0.542135 3.956876
v 0.074020 -0.413276 3.975120
v 0.074020 0.542135 3.975120
v 0.131082 -0.413276 4.025673
v 0.131082 0.542135 4.025673
v 0.158115 -0.413276 4.096954
v 0.158115 0.542135 4.096954
v 0.148926 -0.413276 4.172633
v 0.148926 0.542135 4.172633
v 0.105620 -0.413276 4.235373
v 0.105620 0.542135 4.235373
v 0.038117 -0.413276 4.270801
v 0.038117 0.542135 4.270801
v -0.038117 -0.413276 4.270801
v -0.038117 0.542135 4.270801
v -0.105620 -0.413276 4.235373
v -0.105620 0.542135 4.235373
v -0.148926 -0.413276 4.172633
v -0.148926 0.542135 4.172633
v -0.158115 -0.413276 4.096954
v -0.158115 0.542135 4.096954
v -0.131082 -0.413276 4.025673
v -0.131082 0.542135 4.025673
v -0.074020 -0.413276 3.975120
v -0.074020 0.542135 3.975120
v -1.418698 -0.413276 5.946838
v -1.418698 0.542135 5.946838
v -1.344679 -0.413276 5.965082
v -1.344679 0.542135 5.965082
v -1.287616 -0.413276 6.015635
v -1.287616 0.542135 6.015635
v -1.260583 -0.413276 6.086916
v -1.260583 0.542135 6.086916
v -1.269772 -0.413276 6.162595
v -1.269772 0.542135 6.162595
v -1.313078 -0.413276 6.225336
v -1.313078 0.542135 6.225336
v -1.380581 -0.413276 6.260764
v -1.380581 0.542135 6.260764
v -1.456816 -0.413276 6.260764
v -1.456816 0.542135 6.260764
v -1.524318 -0.413276 6.225336
v -1.524318 0.542135 6.225336
v -1.567625 -0.413276 6.162595
v -1.567625 0.542135 6.162595
v -1.576814 -0.413276 6.086916
v -1.576814 0.542135 6.086916
v -1.549780 -0.413276 6.015635
v -1.549780 0.542135 6.015635
v -1.492718 -0.413276 5.965082
v -1.492718 0.542135 5.965082
v -1.447614 -0.413276 2.045977
v -1.447614 0.542135 2.045977
v -1.373594 -0.413276 2.064221
v -1.373594 0.542135 2.064221
v -1.316532 -0.413276 2.114774
v -1.316532 0.542135 2.114774
v -1.289498 -0.413276 2.186055
v -1.289498 0.542135 2.186055
v -1.298687 -0.413276 2.261734
v -1.298687 0.542135 2.261734
v -1.341994 -0.413276 2.324474
v -1.341994 0.542135 2.324474
v -1.409496 -0.413276 2.359903
v -1.409496 0.542135 2.359903
v -1.485731 -0.413276 2.359903
v -1.485731 0.542135 2.359903
v -1.553234 -0.413276 2.324474
v -1.553234 0.542135 2.324474
v -1.596540 -0.413276 2.261734
v -1.596540 0.542135 2.261734
v -1.605729 -0.413276 2.186055
v -1.605729 0.542135 2.186055
v -1.578696 -0.413276 2.114774
v -1.578696 0.542135 2.114774
v -1.521634 -0.413276 2.064221
v -1.521634 0.542135 2.064221
vn 0.2393 -0.0000 -0.9709
vn 0.6631 -0.0000 -0.7485
vn 0.9350 -0.0000 -0.3546
vn 0.9927 -0.0000 0.1205
vn 0.8230 -0.0000 0.5681
vn 0.4647 -0.0000 0.8855
vn -0.0000 -0.0000 1.0000
vn -0.4647 -0.0000 0.8855
vn -0.8230 -0.0000 0.5681
vn -0.9927 -0.0000 0.1205
vn -0.9350 -0.0000 -0.3546
vn -0.0000 1.0000 -0.0000
vn -0.6631 -0.0000 -0.7485
vn -0.2393 -0.0000 -0.9709
vn -0.0000 -1.0000 -0.0000
vn -0.7759 -0.5076 0.3745
vn -0.0000 -0.0000 -1.0000
vn 0.8239 -0.4082 0.3930
vn 0.0015 -1.0000 -0.0034
vn -0.7589 -0.5726 0.3102
vn 0.1287 -0.2670 -0.9551
vn 0.7589 -0.5726 0.3102
vn -0.4080 -0.3652 -0.8368
vn 0.9062 -0.4229 -0.0000
vn -0.7340 0.6093 -0.3000
vn 0.8484 0.5294 -0.0000
vn -0.1163 0.3982 0.9099
vn -0.0000 0.4359 0.9000
vn -0.2957 0.7773 -0.5553
vn -0.9062 -0.4229 -0.0000
vn -0.0000 -0.3000 -0.9539
vn 0.4080 -0.3652 -0.8368
vn 0.2996 -0.7705 0.5626
vn -0.2996 -0.7705 0.5626
vn -0.4227 -0.7365 0.5281
vn 0.4227 -0.7365 0.5281
vn -0.1287 -0.2670 -0.9551
vn 0.1163 0.3982 0.9099
vn -0.3124 0.4886 0.8146
vn -0.4167 0.7452 -0.5206
vn -0.8484 0.5294 -0.0000
vn 0.2957 0.7773 -0.5553
vn 0.7340 0.6093 -0.3000
vn 0.4167 0.7452 -0.5206
vn 0.3124 0.4886 0.8146
vn -0.0867 -0.9962 -0.0000
vn -0.0254 -0.9983 -0.0518
vn 0.0867 -0.9962 -0.0000
vn 0.0960 -0.9946 0.0392
vn 0.0254 -0.9983 -0.0518
vn 0.0056 -0.9990 -0.0448
vn -0.0000 -0.9988 -0.0492
vn -0.0056 -0.9990 -0.0448
vn -0.0960 -0.9946 0.0392
vn -0.0325 -0.9987 0.0404
vn 0.0218 -0.9989 0.0408
vn 0.0325 -0.9987 0.0404
vn -0.0218 -0.9989 0.0408
vn -1.0000 -0.0000 -0.0000
vn 1.0000 -0.0000 -0.0000
vn 0.9999 -0.0000 0.0131
vn 0.2725 -0.0000 0.9622
vn 0.4494 0.8933 -0.0000
vn -0.0000 0.8933 0.4494
vn 0.9999 -0.0000 -0.0131
vn 0.2725 -0.0000 -0.9622
vn -0.4564 0.8898 -0.0000
vn -0.5934 0.0002 -0.8049
vn 0.6985 0.0374 0.7147
vn 0.9985 0.0551 0.0019
vn 0.7024 0.1378 -0.6984
vn -0.7502 0.6548 -0.0918
vn 0.1402 0.6666 -0.7321
vn -0.4187 0.8675 0.2686
vn -0.3888 0.7290 0.5634
vn 0.4404 0.7626 0.4738
vn 0.4898 0.7022 0.5167
vn 0.5566 0.6321 0.5391
vn 0.5080 0.6580 -0.5559
vn 0.4705 0.7748 -0.4222
vt 0.635461 0.866756
vt 0.635461 0.931904
vt 0.625438 0.931904
vt 0.625438 0.866756
vt 0.615415 0.931904
vt 0.615415 0.866756
vt 0.605392 0.931904
vt 0.605392 0.866756
vt 0.595370 0.931904
vt 0.595370 0.866756
vt 0.585347 0.931904
vt 0.585347 0.866756
vt 0.575324 0.931904
vt 0.575324 0.866756
vt 0.565301 0.931904
vt 0.565301 0.866756
vt 0.555278 0.931904
vt 0.555278 0.866756
vt 0.545255 0.931904
vt 0.545255 0.866756
vt 0.535233 0.931904
vt 0.535233 0.866756
vt 0.525210 0.931904
vt 0.525210 0.866756
vt 0.552271 0.861871
vt 0.537738 0.865453
vt 0.523206 0.861871
vt 0.512003 0.851946
vt 0.506695 0.837951
vt 0.508499 0.823093
vt 0.517002 0.810775
vt 0.530255 0.803820
vt 0.545222 0.803820
vt 0.558475 0.810775
vt 0.566977 0.823093
vt 0.568781 0.837951
vt 0.563474 0.851946
vt 0.515187 0.931904
vt 0.515187 0.866756
vt 0.505164 0.931904
vt 0.505164 0.866756
vt 0.602887 0.865453
vt 0.617419 0.861871
vt 0.628622 0.851946
vt 0.633930 0.837951
vt 0.632126 0.823093
vt 0.623623 0.810775
vt 0.610370 0.803820
vt 0.595403 0.803820
vt 0.582150 0.810775
vt 0.573648 0.823093
vt 0.571843 0.837951
vt 0.577151 0.851946
vt 0.588354 0.861871
vt 0.766382 0.736243
vt 0.814363 0.736243
vt 0.814363 0.784224
vt 0.766382 0.784224
vt 0.814363 0.832206
vt 0.766382 0.832206
vt 0.814363 0.880187
vt 0.766382 0.880187
vt 0.814363 0.928169
vt 0.766382 0.928169
vt 0.718400 0.832206
vt 0.718400 0.880187
vt 0.862345 0.832206
vt 0.862345 0.880187
vt 0.266215 0.922698
vt 0.266215 0.824683
vt 0.286211 0.824683
vt 0.286211 0.922698
vt 0.304387 0.822564
vt 0.304387 0.724550
vt 0.324384 0.724550
vt 0.324384 0.822564
vt 0.235923 0.824683
vt 0.235923 0.922698
vt 0.215926 0.922698
vt 0.215926 0.824683
vt 0.284242 0.822564
vt 0.284242 0.724550
vt 0.304239 0.724550
vt 0.304239 0.822564
vt 0.045655 0.922549
vt 0.045655 0.824534
vt 0.103644 0.824534
vt 0.108899 0.873559
vt 0.118306 0.871302
vt 0.119664 0.824534
vt 0.145640 0.824534
vt 0.145640 0.922549
vt 0.142186 0.802417
vt 0.139469 0.821455
vt 0.049812 0.727695
vt 0.139469 0.727629
vt 0.048908 0.804558
vt 0.048642 0.784541
vt 0.048561 0.774542
vt 0.142610 0.774542
vt 0.142546 0.783451
vt 0.145788 0.724550
vt 0.243803 0.724550
vt 0.243803 0.824534
vt 0.145788 0.824534
vt 0.256068 0.922697
vt 0.256068 0.824683
vt 0.266066 0.824683
vt 0.266066 0.922697
vt 0.306505 0.922697
vt 0.306505 0.824683
vt 0.316504 0.824683
vt 0.316504 0.922697
vt 0.050307 0.974511
vt 0.050430 0.964513
vt 0.140110 0.964513
vt 0.140272 0.974511
vt 0.077755 0.974511
vt 0.080591 0.968663
vt 0.074454 0.967158
vt 0.069752 0.971561
vt 0.070782 0.974511
vt 0.286360 0.922697
vt 0.286360 0.824683
vt 0.306357 0.824683
vt 0.306357 0.922697
vt 0.263948 0.724550
vt 0.263948 0.822565
vt 0.253950 0.822565
vt 0.253950 0.724550
vt 0.243951 0.822565
vt 0.243951 0.724550
vt 0.050920 0.944516
vt 0.052260 0.929863
vt 0.138823 0.929746
vt 0.139454 0.944516
vt 0.165785 0.829948
vt 0.185782 0.829457
vt 0.185782 0.919137
vt 0.165785 0.918481
vt 0.195781 0.829335
vt 0.195781 0.849809
vt 0.187113 0.854005
vt 0.195781 0.856782
vt 0.195781 0.919300
vt 0.264097 0.822565
vt 0.264097 0.724550
vt 0.284094 0.724550
vt 0.284094 0.822565
vt 0.195929 0.922698
vt 0.195929 0.824683
vt 0.236071 0.922697
vt 0.236071 0.824683
vt 0.048642 0.764544
vt 0.048908 0.744526
vt 0.045655 0.724550
vt 0.145640 0.724550
vt 0.049812 0.821390
vt 0.045655 0.804538
vt 0.102720 0.821428
vt 0.142186 0.746667
vt 0.145640 0.744547
vt 0.045655 0.744547
vt 0.045655 0.764544
vt 0.045655 0.784541
vt 0.045655 0.774542
vt 0.145640 0.804538
vt 0.145640 0.784541
vt 0.142413 0.765665
vt 0.145640 0.764544
vt 0.145640 0.774542
vt 0.068102 0.784315
vt 0.069155 0.787033
vt 0.079458 0.784183
vt 0.071326 0.764815
vt 0.066208 0.774542
vt 0.075345 0.764863
vt 0.073593 0.760761
vt 0.065303 0.776683
vt 0.114744 0.821437
vt 0.112837 0.821436
vt 0.105722 0.821430
vt 0.151132 0.831287
vt 0.151015 0.917850
vt 0.145788 0.924667
vt 0.145788 0.824683
vt 0.165662 0.824683
vt 0.145640 0.924529
vt 0.145640 0.944516
vt 0.045655 0.944393
vt 0.045655 0.924519
vt 0.045655 0.964476
vt 0.045655 0.944516
vt 0.185782 0.824683
vt 0.195781 0.824683
vt 0.165785 0.824683
vt 0.185745 0.824683
vt 0.165785 0.924667
vt 0.145799 0.924667
vt 0.185782 0.924667
vt 0.165791 0.924667
vt 0.145640 0.964568
vt 0.145640 0.974511
vt 0.145640 0.944522
vt 0.145640 0.964513
vt 0.045655 0.974511
vt 0.045655 0.964513
vt 0.195781 0.924667
vt 0.185837 0.924667
vt 0.808543 0.720330
vt 0.865711 0.720330
vt 0.865711 0.777498
vt 0.808543 0.777498
vt 0.865711 0.834667
vt 0.808543 0.834667
vt 0.865711 0.891835
vt 0.808543 0.891835
vt 0.865711 0.949003
vt 0.808543 0.949003
vt 0.751375 0.834667
vt 0.751375 0.891835
vt 0.922879 0.834667
vt 0.922879 0.891835
vt 0.851811 0.822363
vt 0.851811 0.870188
vt 0.897048 0.870450
vt 0.896927 0.822363
vt 0.801172 0.822363
vt 0.834537 0.873002
vt 0.801172 0.873002
vt 0.801172 0.721083
vt 0.801172 0.771723
vt 0.834537 0.771723
vt 0.834537 0.721083
vt 0.750532 0.822363
vt 0.750532 0.873002
vt 0.851811 0.777247
vt 0.851811 0.723543
vt 0.851811 0.771026
vt 0.851811 0.873073
vt 0.834537 0.923642
vt 0.851811 0.918257
vt 0.801172 0.923642
vt 0.855682 0.846970
vt 0.902861 0.846970
vt 0.902979 0.897138
vt 0.855682 0.896863
vt 0.802853 0.846970
vt 0.855682 0.896863
vt 0.837660 0.899799
vt 0.802853 0.899799
vt 0.802853 0.741314
vt 0.837660 0.741314
vt 0.837660 0.791577
vt 0.802853 0.791577
vt 0.802853 0.799788
vt 0.855682 0.799792
vt 0.750025 0.849536
vt 0.755670 0.846970
vt 0.750025 0.899799
vt 0.855682 0.743880
vt 0.855682 0.793430
vt 0.855682 0.899873
vt 0.855682 0.947116
vt 0.837660 0.952627
vt 0.802853 0.952627
vt 0.079643 0.774542
vt 0.632796 0.843298
vt 0.632796 0.909687
vt 0.622582 0.909687
vt 0.622582 0.843298
vt 0.612368 0.909687
vt 0.612368 0.843298
vt 0.602155 0.909687
vt 0.602155 0.843298
vt 0.591941 0.909687
vt 0.591941 0.843298
vt 0.581727 0.909687
vt 0.581727 0.843298
vt 0.571513 0.909687
vt 0.571513 0.843298
vt 0.561299 0.909687
vt 0.561299 0.843298
vt 0.551086 0.909687
vt 0.551086 0.843298
vt 0.540872 0.909687
vt 0.540872 0.843298
vt 0.530658 0.909687
vt 0.530658 0.843298
vt 0.520444 0.909687
vt 0.520444 0.843298
vt 0.361534 0.462509
vt 0.250000 0.490000
vt 0.138466 0.462509
vt 0.052484 0.386336
vt 0.011750 0.278929
vt 0.025596 0.164895
vt 0.090851 0.070357
vt 0.192564 0.016974
vt 0.307436 0.016974
vt 0.409149 0.070357
vt 0.474404 0.164895
vt 0.488250 0.278929
vt 0.447516 0.386336
vt 0.510230 0.909687
vt 0.510230 0.843298
vt 0.500016 0.909687
vt 0.500016 0.843298
vt 0.599601 0.841970
vt 0.614411 0.838320
vt 0.625827 0.828205
vt 0.631236 0.813944
vt 0.629397 0.798802
vt 0.620733 0.786250
vt 0.607227 0.779162
vt 0.591975 0.779162
vt 0.578469 0.786250
vt 0.569805 0.798802
vt 0.567966 0.813944
vt 0.573375 0.828205
vt 0.584792 0.838320
s 0
usemtl Upgrade
f 1/1/1 2/2/1 4/3/1 3/4/1
f 3/4/2 4/3/2 6/5/2 5/6/2
f 5/6/3 6/5/3 8/7/3 7/8/3
f 7/8/4 8/7/4 10/9/4 9/10/4
f 9/10/5 10/9/5 12/11/5 11/12/5
f 11/12/6 12/11/6 14/13/6 13/14/6
f 13/14/7 14/13/7 16/15/7 15/16/7
f 15/16/8 16/15/8 18/17/8 17/18/8
f 17/18/9 18/17/9 20/19/9 19/20/9
f 19/20/10 20/19/10 22/21/10 21/22/10
f 21/22/11 22/21/11 24/23/11 23/24/11
f 4/25/12 2/26/12 26/27/12 24/28/12 22/29/12 20/30/12 18/31/12 16/32/12 14/33/12 12/34/12 10/35/12 8/36/12 6/37/12
f 23/24/13 24/23/13 26/38/13 25/39/13
f 25/39/14 26/38/14 2/40/14 1/41/14
f 1/42/15 3/43/15 5/44/15 7/45/15 9/46/15 11/47/15 13/48/15 15/49/15 17/50/15 19/51/15 21/52/15 23/53/15 25/54/15
f 27/55/16 28/56/16 30/57/16 29/58/16
f 29/58/17 30/57/17 34/59/17 33/60/17
f 33/60/18 34/59/18 32/61/18 31/62/18
f 31/62/7 32/61/7 28/63/7 27/64/7
f 29/65/19 33/60/19 31/62/19 27/66/19
f 34/59/12 30/67/12 28/68/12 32/61/12
f 94/69/20 54/70/20 49/71/20 78/72/20
f 88/73/21 58/74/21 51/75/21 86/76/21
f 82/77/22 53/78/22 59/79/22 99/80/22
f 80/81/23 50/82/23 55/83/23 91/84/23
f 84/85/24 52/86/24 138/87/24 141/88/24 140/89/24 139/90/24 53/91/24 82/92/24
f 43/93/25 37/94/25 76/94/25 64/93/25
f 36/95/26 35/96/26 73/96/26 74/95/26
f 42/97/27 41/98/27 65/98/27 63/97/27
f 41/98/28 47/99/28 71/99/28 65/98/28
f 48/100/29 44/101/29 66/101/29 72/100/29
f 78/102/30 49/103/30 50/104/30 80/105/30
f 90/106/31 56/107/31 57/108/31 101/109/31
f 101/110/31 57/111/31 58/112/31 88/113/31
f 102/114/15 87/115/15 97/116/15 104/117/15 153/118/15 156/119/15 158/120/15 157/121/15 154/122/15
f 86/123/32 51/124/32 52/125/32 84/126/32
f 98/127/33 60/128/33 61/129/33 103/130/33
f 103/130/34 61/129/34 62/131/34 96/132/34
f 85/133/15 83/134/15 81/135/15 100/136/15
f 92/137/15 89/138/15 95/139/15 93/140/15
f 89/138/15 102/141/15 154/142/15 155/143/15 153/144/15 104/145/15 95/139/15
f 87/115/15 85/133/15 100/136/15 97/116/15
f 96/146/35 62/147/35 54/148/35 94/149/35
f 99/80/36 59/79/36 60/150/36 98/151/36
f 91/152/37 55/153/37 56/107/37 90/106/37
f 40/154/38 39/155/38 69/155/38 67/154/38
f 35/96/12 36/95/12 50/156/12 49/157/12
f 42/97/12 38/158/12 52/86/12 51/159/12
f 38/158/12 136/160/12 138/87/12 52/86/12
f 46/161/12 35/96/12 49/157/12 54/162/12
f 36/95/12 39/155/12 55/163/12 50/156/12
f 39/155/12 40/154/12 56/164/12 55/163/12
f 47/99/12 41/98/12 58/165/12 57/166/12
f 41/98/12 42/97/12 51/159/12 58/165/12
f 37/94/12 43/93/12 59/167/12 53/91/12
f 43/93/12 44/101/12 60/168/12 59/167/12
f 48/100/12 45/169/12 62/170/12 61/171/12
f 45/169/12 46/161/12 54/162/12 62/170/12
f 40/154/12 47/99/12 57/166/12 56/164/12
f 44/101/12 48/100/12 61/171/12 60/168/12
f 69/155/12 74/95/12 73/96/12 70/161/12
f 75/158/12 63/97/12 64/93/12 76/94/12
f 63/97/12 65/98/12 146/172/12 151/173/12 147/174/12 66/101/12 64/93/12
f 71/99/12 67/154/12 148/175/12 144/176/12
f 67/154/12 69/155/12 70/161/12 68/169/12 149/177/12 150/178/12 148/175/12
f 65/98/12 71/99/12 144/176/12 152/179/12 146/172/12
f 38/158/39 42/97/39 63/97/39 75/158/39
f 44/101/40 43/93/40 64/93/40 66/101/40
f 37/94/41 137/180/41 142/181/41 143/182/41 136/160/41 38/158/41 75/158/41 76/94/41
f 45/169/42 48/100/42 72/100/42 68/169/42
f 35/96/43 46/161/43 70/161/43 73/96/43
f 46/161/44 45/169/44 68/169/44 70/161/44
f 39/155/45 36/95/45 74/95/45 69/155/45
f 47/99/28 40/154/28 67/154/28 71/99/28
f 79/183/46 77/184/46 78/185/46 80/186/46
f 92/137/47 79/183/47 80/186/47 91/187/47
f 81/135/48 83/134/48 84/85/48 82/92/48
f 100/136/49 81/135/49 82/188/49 99/189/49
f 83/134/50 85/133/50 86/190/50 84/191/50
f 85/133/51 87/115/51 88/192/51 86/193/51
f 102/141/52 89/138/52 90/194/52 101/195/52
f 89/138/53 92/137/53 91/196/53 90/197/53
f 77/184/54 93/140/54 94/198/54 78/199/54
f 93/140/55 95/139/55 96/200/55 94/201/55
f 104/117/56 97/116/56 98/202/56 103/203/56
f 97/116/57 100/136/57 99/204/57 98/205/57
f 87/115/52 102/114/52 101/206/52 88/207/52
f 95/139/58 104/145/58 103/208/58 96/209/58
f 79/183/15 92/137/15 93/140/15 77/184/15
f 105/210/59 106/211/59 108/212/59 107/213/59
f 107/213/17 108/212/17 112/214/17 111/215/17
f 111/215/60 112/214/60 110/216/60 109/217/60
f 109/217/7 110/216/7 106/218/7 105/219/7
f 107/220/15 111/215/15 109/217/15 105/221/15
f 112/214/12 108/222/12 106/223/12 110/216/12
f 117/224/12 122/225/12 118/226/12 121/227/12
f 116/228/61 117/224/61 122/225/61 123/229/61 115/230/61
f 113/231/60 114/232/60 120/233/60 119/234/60
f 114/235/15 113/236/15 115/230/15 116/228/15
f 114/232/62 120/233/62 121/237/62 117/224/62 116/228/62
f 118/238/63 119/234/63 120/233/63 121/239/63
f 122/240/64 123/229/64 119/241/64 118/242/64
f 115/230/7 113/243/7 119/241/7 123/229/7
f 127/244/12 132/245/12 128/246/12 134/247/12
f 126/248/65 127/244/65 134/249/65 135/250/65 125/251/65
f 124/252/59 129/253/59 133/254/59 130/255/59
f 131/256/66 132/257/66 127/244/66 126/248/66
f 130/258/15 131/259/15 126/248/15 125/251/15 124/260/15
f 128/261/67 132/262/67 133/254/67 129/253/67
f 132/257/68 131/256/68 130/255/68 133/254/68
f 134/263/64 128/264/64 129/265/64 135/250/64
f 125/251/7 135/250/7 129/265/7 124/266/7
f 141/88/69 138/87/69 136/160/69 143/182/69
f 143/182/70 142/181/70 140/89/70 141/88/70
f 139/90/12 137/180/12 37/94/12 53/91/12
f 142/181/71 137/180/71 139/90/71 140/89/71
f 156/119/72 147/174/72 151/173/72 158/120/72
f 156/119/73 153/118/73 145/267/73 147/174/73
f 147/174/12 145/267/12 72/100/12 66/101/12
f 145/267/12 149/177/12 68/169/12 72/100/12
f 151/173/74 146/172/74 157/121/74 158/120/74
f 146/172/75 152/179/75 157/121/75
f 152/179/76 144/176/76 154/122/76 157/121/76
f 144/176/77 148/175/77 155/143/77 154/122/77
f 148/175/78 150/178/78 155/143/78
f 155/143/79 150/178/79 149/177/79 153/144/79
f 149/177/80 145/267/80 153/144/80
f 159/1/1 160/2/1 162/3/1 161/4/1
f 161/4/2 162/3/2 164/5/2 163/6/2
f 163/6/3 164/5/3 166/7/3 165/8/3
f 165/8/4 166/7/4 168/9/4 167/10/4
f 167/10/5 168/9/5 170/11/5 169/12/5
f 169/12/6 170/11/6 172/13/6 171/14/6
f 171/14/7 172/13/7 174/15/7 173/16/7
f 173/16/8 174/15/8 176/17/8 175/18/8
f 175/18/9 176/17/9 178/19/9 177/20/9
f 177/20/10 178/19/10 180/21/10 179/22/10
f 179/22/11 180/21/11 182/23/11 181/24/11
f 162/25/12 160/26/12 184/27/12 182/28/12 180/29/12 178/30/12 176/31/12 174/32/12 172/33/12 170/34/12 168/35/12 166/36/12 164/37/12
f 181/24/13 182/23/13 184/38/13 183/39/13
f 183/39/14 184/38/14 160/40/14 159/41/14
f 159/42/15 161/43/15 163/44/15 165/45/15 167/46/15 169/47/15 171/48/15 173/49/15 175/50/15 177/51/15 179/52/15 181/53/15 183/54/15
f 185/1/1 186/2/1 188/3/1 187/4/1
f 187/4/2 188/3/2 190/5/2 189/6/2
f 189/6/3 190/5/3 192/7/3 191/8/3
f 191/8/4 192/7/4 194/9/4 193/10/4
f 193/10/5 194/9/5 196/11/5 195/12/5
f 195/12/6 196/11/6 198/13/6 197/14/6
f 197/14/7 198/13/7 200/15/7 199/16/7
f 199/16/8 200/15/8 202/17/8 201/18/8
f 201/18/9 202/17/9 204/19/9 203/20/9
f 203/20/10 204/19/10 206/21/10 205/22/10
f 205/22/11 206/21/11 208/23/11 207/24/11
f 188/25/12 186/26/12 210/27/12 208/28/12 206/29/12 204/30/12 202/31/12 200/32/12 198/33/12 196/34/12 194/35/12 192/36/12 190/37/12
f 207/24/13 208/23/13 210/38/13 209/39/13
f 209/39/14 210/38/14 186/40/14 185/41/14
f 185/42/15 187/43/15 189/44/15 191/45/15 193/46/15 195/47/15 197/48/15 199/49/15 201/50/15 203/51/15 205/52/15 207/53/15 209/54/15
f 211/268/1 212/269/1 214/270/1 213/271/1
f 213/271/2 214/270/2 216/272/2 215/273/2
f 215/273/3 216/272/3 218/274/3 217/275/3
f 217/275/4 218/274/4 220/276/4 219/277/4
f 219/277/5 220/276/5 222/278/5 221/279/5
f 221/279/6 222/278/6 224/280/6 223/281/6
f 223/281/7 224/280/7 226/282/7 225/283/7
f 225/283/8 226/282/8 228/284/8 227/285/8
f 227/285/9 228/284/9 230/286/9 229/287/9
f 229/287/10 230/286/10 232/288/10 231/289/10
f 231/289/11 232/288/11 234/290/11 233/291/11
f 214/292/12 212/293/12 236/294/12 234/295/12 232/296/12 230/297/12 228/298/12 226/299/12 224/300/12 222/301/12 220/302/12 218/303/12 216/304/12
f 233/291/13 234/290/13 236/305/13 235/306/13
f 235/306/14 236/305/14 212/307/14 211/308/14
f 211/309/15 213/310/15 215/311/15 217/312/15 219/313/15 221/314/15 223/315/15 225/316/15 227/317/15 229/318/15 231/319/15 233/320/15 235/321/15
f 237/1/1 238/2/1 240/3/1 239/4/1
f 239/4/2 240/3/2 242/5/2 241/6/2
f 241/6/3 242/5/3 244/7/3 243/8/3
f 243/8/4 244/7/4 246/9/4 245/10/4
f 245/10/5 246/9/5 248/11/5 247/12/5
f 247/12/6 248/11/6 250/13/6 249/14/6
f 249/14/7 250/13/7 252/15/7 251/16/7
f 251/16/8 252/15/8 254/17/8 253/18/8
f 253/18/9 254/17/9 256/19/9 255/20/9
f 255/20/10 256/19/10 258/21/10 257/22/10
f 257/22/11 258/21/11 260/23/11 259/24/11
f 240/25/12 238/26/12 262/27/12 260/28/12 258/29/12 256/30/12 254/31/12 252/32/12 250/33/12 248/34/12 246/35/12 244/36/12 242/37/12
f 259/24/13 260/23/13 262/38/13 261/39/13
f 261/39/14 262/38/14 238/40/14 237/41/14
f 237/42/15 239/43/15 241/44/15 243/45/15 245/46/15 247/47/15 249/48/15 251/49/15 253/50/15 255/51/15 257/52/15 259/53/15 261/54/15
f 263/1/1 264/2/1 266/3/1 265/4/1
f 265/4/2 266/3/2 268/5/2 267/6/2
f 267/6/3 268/5/3 270/7/3 269/8/3
f 269/8/4 270/7/4 272/9/4 271/10/4
f 271/10/5 272/9/5 274/11/5 273/12/5
f 273/12/6 274/11/6 276/13/6 275/14/6
f 275/14/7 276/13/7 278/15/7 277/16/7
f 277/16/8 278/15/8 280/17/8 279/18/8
f 279/18/9 280/17/9 282/19/9 281/20/9
f 281/20/10 282/19/10 284/21/10 283/22/10
f 283/22/11 284/21/11 286/23/11 285/24/11
f 266/25/12 264/26/12 288/27/12 286/28/12 284/29/12 282/30/12 280/31/12 278/32/12 276/33/12 274/34/12 272/35/12 270/36/12 268/37/12
f 285/24/13 286/23/13 288/38/13 287/39/13
f 287/39/14 288/38/14 264/40/14 263/41/14
f 263/42/15 265/43/15 267/44/15 269/45/15 271/46/15 273/47/15 275/48/15 277/49/15 279/50/15 281/51/15 283/52/15 285/53/15 287/54/15
